<?xml version="1.0" encoding="utf-8" standalone="no"?>
<!DOCTYPE svg PUBLIC "-//W3C//DTD SVG 1.1//EN"
  "http://www.w3.org/Graphics/SVG/1.1/DTD/svg11.dtd">
<svg xmlns:xlink="http://www.w3.org/1999/xlink" width="115.2pt" height="115.2pt" viewBox="0 0 115.2 115.2" xmlns="http://www.w3.org/2000/svg" version="1.1">
 <metadata>
  <rdf:RDF xmlns:dc="http://purl.org/dc/elements/1.1/" xmlns:cc="http://creativecommons.org/ns#" xmlns:rdf="http://www.w3.org/1999/02/22-rdf-syntax-ns#">
   <cc:Work>
    <dc:type rdf:resource="http://purl.org/dc/dcmitype/StillImage"/>
    <dc:date>2025-01-30T19:10:30.898436</dc:date>
    <dc:format>image/svg+xml</dc:format>
    <dc:creator>
     <cc:Agent>
      <dc:title>Matplotlib v3.10.0, https://matplotlib.org/</dc:title>
     </cc:Agent>
    </dc:creator>
   </cc:Work>
  </rdf:RDF>
 </metadata>
 <defs>
  <style type="text/css">*{stroke-linejoin: round; stroke-linecap: butt}</style>
 </defs>
 <g id="figure_1">
  <g id="patch_1">
   <path d="M 0 115.2 
L 115.2 115.2 
L 115.2 0 
L 0 0 
z
" style="fill: #ffffff"/>
  </g>
  <g id="axes_1">
   <g id="patch_2">
    <path d="M 35.16274 84.78726 
L 103.858354 84.78726 
L 103.858354 15.873834 
L 35.16274 15.873834 
L 35.16274 84.78726 
z
" style="fill: none"/>
   </g>
   <g id="matplotlib.axis_1">
    <g id="xtick_1">
     <g id="line2d_1">
      <defs>
       <path id="mc0a55b9757" d="M 0 0 
L 0 4.5 
" style="stroke: #000000; stroke-width: 1.1"/>
      </defs>
      <g>
       <use xlink:href="#mc0a55b9757" x="35.16274" y="84.78726" style="stroke: #000000; stroke-width: 1.1"/>
      </g>
     </g>
     <g id="text_1">
      <!-- 0 -->
      <g transform="translate(32.382271 98.945073) scale(0.1 -0.1)">
       <defs>
        <path id="ArialMT-30" d="M 266 2259 
Q 266 3072 433 3567 
Q 600 4063 929 4331 
Q 1259 4600 1759 4600 
Q 2128 4600 2406 4451 
Q 2684 4303 2865 4023 
Q 3047 3744 3150 3342 
Q 3253 2941 3253 2259 
Q 3253 1453 3087 958 
Q 2922 463 2592 192 
Q 2263 -78 1759 -78 
Q 1097 -78 719 397 
Q 266 969 266 2259 
z
M 844 2259 
Q 844 1131 1108 757 
Q 1372 384 1759 384 
Q 2147 384 2411 759 
Q 2675 1134 2675 2259 
Q 2675 3391 2411 3762 
Q 2147 4134 1753 4134 
Q 1366 4134 1134 3806 
Q 844 3388 844 2259 
z
" transform="scale(0.015625)"/>
       </defs>
       <use xlink:href="#ArialMT-30"/>
      </g>
     </g>
    </g>
    <g id="xtick_2">
     <g id="line2d_2">
      <g>
       <use xlink:href="#mc0a55b9757" x="69.510547" y="84.78726" style="stroke: #000000; stroke-width: 1.1"/>
      </g>
     </g>
     <g id="text_2">
      <!-- 250 -->
      <g transform="translate(61.169141 98.945073) scale(0.1 -0.1)">
       <defs>
        <path id="ArialMT-32" d="M 3222 541 
L 3222 0 
L 194 0 
Q 188 203 259 391 
Q 375 700 629 1000 
Q 884 1300 1366 1694 
Q 2113 2306 2375 2664 
Q 2638 3022 2638 3341 
Q 2638 3675 2398 3904 
Q 2159 4134 1775 4134 
Q 1369 4134 1125 3890 
Q 881 3647 878 3216 
L 300 3275 
Q 359 3922 746 4261 
Q 1134 4600 1788 4600 
Q 2447 4600 2831 4234 
Q 3216 3869 3216 3328 
Q 3216 3053 3103 2787 
Q 2991 2522 2730 2228 
Q 2469 1934 1863 1422 
Q 1356 997 1212 845 
Q 1069 694 975 541 
L 3222 541 
z
" transform="scale(0.015625)"/>
        <path id="ArialMT-35" d="M 266 1200 
L 856 1250 
Q 922 819 1161 601 
Q 1400 384 1738 384 
Q 2144 384 2425 690 
Q 2706 997 2706 1503 
Q 2706 1984 2436 2262 
Q 2166 2541 1728 2541 
Q 1456 2541 1237 2417 
Q 1019 2294 894 2097 
L 366 2166 
L 809 4519 
L 3088 4519 
L 3088 3981 
L 1259 3981 
L 1013 2750 
Q 1425 3038 1878 3038 
Q 2478 3038 2890 2622 
Q 3303 2206 3303 1553 
Q 3303 931 2941 478 
Q 2500 -78 1738 -78 
Q 1113 -78 717 272 
Q 322 622 266 1200 
z
" transform="scale(0.015625)"/>
       </defs>
       <use xlink:href="#ArialMT-32"/>
       <use xlink:href="#ArialMT-35" transform="translate(55.615234 0)"/>
       <use xlink:href="#ArialMT-30" transform="translate(111.230469 0)"/>
      </g>
     </g>
    </g>
    <g id="xtick_3">
     <g id="line2d_3">
      <g>
       <use xlink:href="#mc0a55b9757" x="103.858354" y="84.78726" style="stroke: #000000; stroke-width: 1.1"/>
      </g>
     </g>
     <g id="text_3">
      <!-- 500 -->
      <g transform="translate(95.516947 98.945073) scale(0.1 -0.1)">
       <use xlink:href="#ArialMT-35"/>
       <use xlink:href="#ArialMT-30" transform="translate(55.615234 0)"/>
       <use xlink:href="#ArialMT-30" transform="translate(111.230469 0)"/>
      </g>
     </g>
    </g>
    <g id="text_4">
     <!-- Diffusion Step -->
     <g transform="translate(38.471484 110.21226) scale(0.1 -0.1)">
      <defs>
       <path id="ArialMT-44" d="M 494 0 
L 494 4581 
L 2072 4581 
Q 2606 4581 2888 4516 
Q 3281 4425 3559 4188 
Q 3922 3881 4101 3404 
Q 4281 2928 4281 2316 
Q 4281 1794 4159 1391 
Q 4038 988 3847 723 
Q 3656 459 3429 307 
Q 3203 156 2883 78 
Q 2563 0 2147 0 
L 494 0 
z
M 1100 541 
L 2078 541 
Q 2531 541 2789 625 
Q 3047 709 3200 863 
Q 3416 1078 3536 1442 
Q 3656 1806 3656 2325 
Q 3656 3044 3420 3430 
Q 3184 3816 2847 3947 
Q 2603 4041 2063 4041 
L 1100 4041 
L 1100 541 
z
" transform="scale(0.015625)"/>
       <path id="ArialMT-69" d="M 425 3934 
L 425 4581 
L 988 4581 
L 988 3934 
L 425 3934 
z
M 425 0 
L 425 3319 
L 988 3319 
L 988 0 
L 425 0 
z
" transform="scale(0.015625)"/>
       <path id="ArialMT-66" d="M 556 0 
L 556 2881 
L 59 2881 
L 59 3319 
L 556 3319 
L 556 3672 
Q 556 4006 616 4169 
Q 697 4388 901 4523 
Q 1106 4659 1475 4659 
Q 1713 4659 2000 4603 
L 1916 4113 
Q 1741 4144 1584 4144 
Q 1328 4144 1222 4034 
Q 1116 3925 1116 3625 
L 1116 3319 
L 1763 3319 
L 1763 2881 
L 1116 2881 
L 1116 0 
L 556 0 
z
" transform="scale(0.015625)"/>
       <path id="ArialMT-75" d="M 2597 0 
L 2597 488 
Q 2209 -75 1544 -75 
Q 1250 -75 995 37 
Q 741 150 617 320 
Q 494 491 444 738 
Q 409 903 409 1263 
L 409 3319 
L 972 3319 
L 972 1478 
Q 972 1038 1006 884 
Q 1059 663 1231 536 
Q 1403 409 1656 409 
Q 1909 409 2131 539 
Q 2353 669 2445 892 
Q 2538 1116 2538 1541 
L 2538 3319 
L 3100 3319 
L 3100 0 
L 2597 0 
z
" transform="scale(0.015625)"/>
       <path id="ArialMT-73" d="M 197 991 
L 753 1078 
Q 800 744 1014 566 
Q 1228 388 1613 388 
Q 2000 388 2187 545 
Q 2375 703 2375 916 
Q 2375 1106 2209 1216 
Q 2094 1291 1634 1406 
Q 1016 1563 777 1677 
Q 538 1791 414 1992 
Q 291 2194 291 2438 
Q 291 2659 392 2848 
Q 494 3038 669 3163 
Q 800 3259 1026 3326 
Q 1253 3394 1513 3394 
Q 1903 3394 2198 3281 
Q 2494 3169 2634 2976 
Q 2775 2784 2828 2463 
L 2278 2388 
Q 2241 2644 2061 2787 
Q 1881 2931 1553 2931 
Q 1166 2931 1000 2803 
Q 834 2675 834 2503 
Q 834 2394 903 2306 
Q 972 2216 1119 2156 
Q 1203 2125 1616 2013 
Q 2213 1853 2448 1751 
Q 2684 1650 2818 1456 
Q 2953 1263 2953 975 
Q 2953 694 2789 445 
Q 2625 197 2315 61 
Q 2006 -75 1616 -75 
Q 969 -75 630 194 
Q 291 463 197 991 
z
" transform="scale(0.015625)"/>
       <path id="ArialMT-6f" d="M 213 1659 
Q 213 2581 725 3025 
Q 1153 3394 1769 3394 
Q 2453 3394 2887 2945 
Q 3322 2497 3322 1706 
Q 3322 1066 3130 698 
Q 2938 331 2570 128 
Q 2203 -75 1769 -75 
Q 1072 -75 642 372 
Q 213 819 213 1659 
z
M 791 1659 
Q 791 1022 1069 705 
Q 1347 388 1769 388 
Q 2188 388 2466 706 
Q 2744 1025 2744 1678 
Q 2744 2294 2464 2611 
Q 2184 2928 1769 2928 
Q 1347 2928 1069 2612 
Q 791 2297 791 1659 
z
" transform="scale(0.015625)"/>
       <path id="ArialMT-6e" d="M 422 0 
L 422 3319 
L 928 3319 
L 928 2847 
Q 1294 3394 1984 3394 
Q 2284 3394 2536 3286 
Q 2788 3178 2913 3003 
Q 3038 2828 3088 2588 
Q 3119 2431 3119 2041 
L 3119 0 
L 2556 0 
L 2556 2019 
Q 2556 2363 2490 2533 
Q 2425 2703 2258 2804 
Q 2091 2906 1866 2906 
Q 1506 2906 1245 2678 
Q 984 2450 984 1813 
L 984 0 
L 422 0 
z
" transform="scale(0.015625)"/>
       <path id="ArialMT-20" transform="scale(0.015625)"/>
       <path id="ArialMT-53" d="M 288 1472 
L 859 1522 
Q 900 1178 1048 958 
Q 1197 738 1509 602 
Q 1822 466 2213 466 
Q 2559 466 2825 569 
Q 3091 672 3220 851 
Q 3350 1031 3350 1244 
Q 3350 1459 3225 1620 
Q 3100 1781 2813 1891 
Q 2628 1963 1997 2114 
Q 1366 2266 1113 2400 
Q 784 2572 623 2826 
Q 463 3081 463 3397 
Q 463 3744 659 4045 
Q 856 4347 1234 4503 
Q 1613 4659 2075 4659 
Q 2584 4659 2973 4495 
Q 3363 4331 3572 4012 
Q 3781 3694 3797 3291 
L 3216 3247 
Q 3169 3681 2898 3903 
Q 2628 4125 2100 4125 
Q 1550 4125 1298 3923 
Q 1047 3722 1047 3438 
Q 1047 3191 1225 3031 
Q 1400 2872 2139 2705 
Q 2878 2538 3153 2413 
Q 3553 2228 3743 1945 
Q 3934 1663 3934 1294 
Q 3934 928 3725 604 
Q 3516 281 3123 101 
Q 2731 -78 2241 -78 
Q 1619 -78 1198 103 
Q 778 284 539 648 
Q 300 1013 288 1472 
z
" transform="scale(0.015625)"/>
       <path id="ArialMT-74" d="M 1650 503 
L 1731 6 
Q 1494 -44 1306 -44 
Q 1000 -44 831 53 
Q 663 150 594 308 
Q 525 466 525 972 
L 525 2881 
L 113 2881 
L 113 3319 
L 525 3319 
L 525 4141 
L 1084 4478 
L 1084 3319 
L 1650 3319 
L 1650 2881 
L 1084 2881 
L 1084 941 
Q 1084 700 1114 631 
Q 1144 563 1211 522 
Q 1278 481 1403 481 
Q 1497 481 1650 503 
z
" transform="scale(0.015625)"/>
       <path id="ArialMT-65" d="M 2694 1069 
L 3275 997 
Q 3138 488 2766 206 
Q 2394 -75 1816 -75 
Q 1088 -75 661 373 
Q 234 822 234 1631 
Q 234 2469 665 2931 
Q 1097 3394 1784 3394 
Q 2450 3394 2872 2941 
Q 3294 2488 3294 1666 
Q 3294 1616 3291 1516 
L 816 1516 
Q 847 969 1125 678 
Q 1403 388 1819 388 
Q 2128 388 2347 550 
Q 2566 713 2694 1069 
z
M 847 1978 
L 2700 1978 
Q 2663 2397 2488 2606 
Q 2219 2931 1791 2931 
Q 1403 2931 1139 2672 
Q 875 2413 847 1978 
z
" transform="scale(0.015625)"/>
       <path id="ArialMT-70" d="M 422 -1272 
L 422 3319 
L 934 3319 
L 934 2888 
Q 1116 3141 1344 3267 
Q 1572 3394 1897 3394 
Q 2322 3394 2647 3175 
Q 2972 2956 3137 2557 
Q 3303 2159 3303 1684 
Q 3303 1175 3120 767 
Q 2938 359 2589 142 
Q 2241 -75 1856 -75 
Q 1575 -75 1351 44 
Q 1128 163 984 344 
L 984 -1272 
L 422 -1272 
z
M 931 1641 
Q 931 1000 1190 694 
Q 1450 388 1819 388 
Q 2194 388 2461 705 
Q 2728 1022 2728 1688 
Q 2728 2322 2467 2637 
Q 2206 2953 1844 2953 
Q 1484 2953 1207 2617 
Q 931 2281 931 1641 
z
" transform="scale(0.015625)"/>
      </defs>
      <use xlink:href="#ArialMT-44"/>
      <use xlink:href="#ArialMT-69" transform="translate(72.216797 0)"/>
      <use xlink:href="#ArialMT-66" transform="translate(94.433594 0)"/>
      <use xlink:href="#ArialMT-66" transform="translate(120.466797 0)"/>
      <use xlink:href="#ArialMT-75" transform="translate(148.25 0)"/>
      <use xlink:href="#ArialMT-73" transform="translate(203.865234 0)"/>
      <use xlink:href="#ArialMT-69" transform="translate(253.865234 0)"/>
      <use xlink:href="#ArialMT-6f" transform="translate(276.082031 0)"/>
      <use xlink:href="#ArialMT-6e" transform="translate(331.697266 0)"/>
      <use xlink:href="#ArialMT-20" transform="translate(387.3125 0)"/>
      <use xlink:href="#ArialMT-53" transform="translate(415.095703 0)"/>
      <use xlink:href="#ArialMT-74" transform="translate(481.794922 0)"/>
      <use xlink:href="#ArialMT-65" transform="translate(509.578125 0)"/>
      <use xlink:href="#ArialMT-70" transform="translate(565.193359 0)"/>
     </g>
    </g>
   </g>
   <g id="matplotlib.axis_2">
    <g id="ytick_1">
     <g id="line2d_4">
      <defs>
       <path id="mae17e47cc1" d="M 0 0 
L -4.5 0 
" style="stroke: #000000; stroke-width: 1.1"/>
      </defs>
      <g>
       <use xlink:href="#mae17e47cc1" x="35.16274" y="80.555734" style="stroke: #000000; stroke-width: 1.1"/>
      </g>
     </g>
     <g id="text_5">
      <!-- 0.0 -->
      <g transform="translate(14.26274 84.13464) scale(0.1 -0.1)">
       <defs>
        <path id="ArialMT-2e" d="M 581 0 
L 581 641 
L 1222 641 
L 1222 0 
L 581 0 
z
" transform="scale(0.015625)"/>
       </defs>
       <use xlink:href="#ArialMT-30"/>
       <use xlink:href="#ArialMT-2e" transform="translate(55.615234 0)"/>
       <use xlink:href="#ArialMT-30" transform="translate(83.398438 0)"/>
      </g>
     </g>
    </g>
    <g id="ytick_2">
     <g id="line2d_5">
      <g>
       <use xlink:href="#mae17e47cc1" x="35.16274" y="44.184379" style="stroke: #000000; stroke-width: 1.1"/>
      </g>
     </g>
     <g id="text_6">
      <!-- 0.5 -->
      <g transform="translate(14.26274 47.763285) scale(0.1 -0.1)">
       <use xlink:href="#ArialMT-30"/>
       <use xlink:href="#ArialMT-2e" transform="translate(55.615234 0)"/>
       <use xlink:href="#ArialMT-35" transform="translate(83.398438 0)"/>
      </g>
     </g>
    </g>
    <g id="text_7">
     <!-- Decoding Error -->
     <g transform="translate(10.158052 83.953984) rotate(-90) scale(0.1 -0.1)">
      <defs>
       <path id="ArialMT-63" d="M 2588 1216 
L 3141 1144 
Q 3050 572 2676 248 
Q 2303 -75 1759 -75 
Q 1078 -75 664 370 
Q 250 816 250 1647 
Q 250 2184 428 2587 
Q 606 2991 970 3192 
Q 1334 3394 1763 3394 
Q 2303 3394 2647 3120 
Q 2991 2847 3088 2344 
L 2541 2259 
Q 2463 2594 2264 2762 
Q 2066 2931 1784 2931 
Q 1359 2931 1093 2626 
Q 828 2322 828 1663 
Q 828 994 1084 691 
Q 1341 388 1753 388 
Q 2084 388 2306 591 
Q 2528 794 2588 1216 
z
" transform="scale(0.015625)"/>
       <path id="ArialMT-64" d="M 2575 0 
L 2575 419 
Q 2259 -75 1647 -75 
Q 1250 -75 917 144 
Q 584 363 401 755 
Q 219 1147 219 1656 
Q 219 2153 384 2558 
Q 550 2963 881 3178 
Q 1213 3394 1622 3394 
Q 1922 3394 2156 3267 
Q 2391 3141 2538 2938 
L 2538 4581 
L 3097 4581 
L 3097 0 
L 2575 0 
z
M 797 1656 
Q 797 1019 1065 703 
Q 1334 388 1700 388 
Q 2069 388 2326 689 
Q 2584 991 2584 1609 
Q 2584 2291 2321 2609 
Q 2059 2928 1675 2928 
Q 1300 2928 1048 2622 
Q 797 2316 797 1656 
z
" transform="scale(0.015625)"/>
       <path id="ArialMT-67" d="M 319 -275 
L 866 -356 
Q 900 -609 1056 -725 
Q 1266 -881 1628 -881 
Q 2019 -881 2231 -725 
Q 2444 -569 2519 -288 
Q 2563 -116 2559 434 
Q 2191 0 1641 0 
Q 956 0 581 494 
Q 206 988 206 1678 
Q 206 2153 378 2554 
Q 550 2956 876 3175 
Q 1203 3394 1644 3394 
Q 2231 3394 2613 2919 
L 2613 3319 
L 3131 3319 
L 3131 450 
Q 3131 -325 2973 -648 
Q 2816 -972 2473 -1159 
Q 2131 -1347 1631 -1347 
Q 1038 -1347 672 -1080 
Q 306 -813 319 -275 
z
M 784 1719 
Q 784 1066 1043 766 
Q 1303 466 1694 466 
Q 2081 466 2343 764 
Q 2606 1063 2606 1700 
Q 2606 2309 2336 2618 
Q 2066 2928 1684 2928 
Q 1309 2928 1046 2623 
Q 784 2319 784 1719 
z
" transform="scale(0.015625)"/>
       <path id="ArialMT-45" d="M 506 0 
L 506 4581 
L 3819 4581 
L 3819 4041 
L 1113 4041 
L 1113 2638 
L 3647 2638 
L 3647 2100 
L 1113 2100 
L 1113 541 
L 3925 541 
L 3925 0 
L 506 0 
z
" transform="scale(0.015625)"/>
       <path id="ArialMT-72" d="M 416 0 
L 416 3319 
L 922 3319 
L 922 2816 
Q 1116 3169 1280 3281 
Q 1444 3394 1641 3394 
Q 1925 3394 2219 3213 
L 2025 2691 
Q 1819 2813 1613 2813 
Q 1428 2813 1281 2702 
Q 1134 2591 1072 2394 
Q 978 2094 978 1738 
L 978 0 
L 416 0 
z
" transform="scale(0.015625)"/>
      </defs>
      <use xlink:href="#ArialMT-44"/>
      <use xlink:href="#ArialMT-65" transform="translate(72.216797 0)"/>
      <use xlink:href="#ArialMT-63" transform="translate(127.832031 0)"/>
      <use xlink:href="#ArialMT-6f" transform="translate(177.832031 0)"/>
      <use xlink:href="#ArialMT-64" transform="translate(233.447266 0)"/>
      <use xlink:href="#ArialMT-69" transform="translate(289.0625 0)"/>
      <use xlink:href="#ArialMT-6e" transform="translate(311.279297 0)"/>
      <use xlink:href="#ArialMT-67" transform="translate(366.894531 0)"/>
      <use xlink:href="#ArialMT-20" transform="translate(422.509766 0)"/>
      <use xlink:href="#ArialMT-45" transform="translate(450.292969 0)"/>
      <use xlink:href="#ArialMT-72" transform="translate(516.992188 0)"/>
      <use xlink:href="#ArialMT-72" transform="translate(550.292969 0)"/>
      <use xlink:href="#ArialMT-6f" transform="translate(583.59375 0)"/>
      <use xlink:href="#ArialMT-72" transform="translate(639.208984 0)"/>
     </g>
    </g>
   </g>
   <g id="line2d_6">
    <path d="M 35.16274 80.555734 
L 35.712305 80.318082 
L 35.849696 80.338931 
L 35.987087 80.204182 
L 36.124479 80.249738 
L 36.399261 80.079375 
L 37.086217 79.594658 
L 37.223608 79.775301 
L 37.361 79.72405 
L 37.498391 79.900703 
L 37.635782 79.761051 
L 37.773173 79.423344 
L 37.910565 79.513951 
L 38.185347 79.997302 
L 38.322738 79.471911 
L 38.460129 79.591475 
L 38.734912 78.691815 
L 39.009694 77.85783 
L 39.147086 78.328832 
L 39.284477 77.876646 
L 39.421868 78.470558 
L 39.559259 77.979347 
L 39.696651 78.086209 
L 40.108824 76.886318 
L 40.246215 76.980797 
L 40.520998 77.993776 
L 40.79578 77.316771 
L 41.620128 79.817007 
L 41.757519 79.808556 
L 41.89491 79.665171 
L 42.032301 79.702308 
L 42.444475 79.001441 
L 42.581866 79.499288 
L 43.131431 78.526951 
L 43.268822 78.550469 
L 43.680996 76.943443 
L 43.818387 77.511765 
L 43.955779 77.326281 
L 45.604473 65.721226 
L 46.154038 68.331714 
L 46.291429 66.312044 
L 46.428821 67.053975 
L 46.703603 64.90828 
L 46.978386 66.485833 
L 47.115777 66.855134 
L 47.390559 68.547723 
L 47.52795 67.333959 
L 47.802733 71.119601 
L 47.940124 70.782476 
L 48.077515 71.040405 
L 48.214907 70.326443 
L 48.352298 70.756416 
L 48.489689 70.461148 
L 48.764472 69.379738 
L 48.901863 69.064871 
L 49.176645 69.587354 
L 49.451428 68.874075 
L 49.588819 67.817999 
L 49.72621 68.454541 
L 49.863601 67.333151 
L 50.138384 69.147697 
L 50.275775 68.975988 
L 50.413166 68.582651 
L 50.550557 69.29412 
L 50.687949 69.085584 
L 50.82534 69.537351 
L 50.962731 70.897773 
L 51.100122 70.754064 
L 51.237514 71.678138 
L 51.512296 71.168171 
L 51.649687 69.625935 
L 51.787079 71.037729 
L 52.199252 68.70536 
L 52.336643 69.383426 
L 52.611426 67.217501 
L 52.748817 67.380127 
L 52.886208 65.379521 
L 53.0236 65.909403 
L 53.160991 64.795446 
L 53.573164 65.67703 
L 53.710556 65.011499 
L 54.260121 56.836743 
L 54.397512 60.260432 
L 54.534903 59.533663 
L 54.672294 59.411835 
L 54.947077 61.838682 
L 55.084468 59.57758 
L 55.35925 62.661186 
L 55.496642 63.094577 
L 55.634033 63.003241 
L 55.771424 64.295161 
L 55.908815 64.111225 
L 56.046207 63.425734 
L 56.320989 63.982788 
L 56.45838 62.954735 
L 56.595771 63.659589 
L 56.733163 61.861185 
L 56.870554 63.409651 
L 57.007945 62.782583 
L 57.420119 65.603567 
L 57.55751 64.611314 
L 57.694901 65.309604 
L 57.832293 65.190996 
L 58.244466 63.327567 
L 58.381857 63.109014 
L 58.65664 60.593662 
L 58.794031 60.679151 
L 58.931422 60.360802 
L 59.068814 61.329351 
L 59.206205 63.131866 
L 59.343596 62.952678 
L 59.480987 63.82865 
L 59.75577 58.471276 
L 59.893161 58.222088 
L 60.030552 58.895831 
L 60.167943 58.732094 
L 60.442726 56.472969 
L 60.580117 56.671447 
L 60.717508 56.626277 
L 60.992291 59.289797 
L 61.129682 58.983969 
L 61.267073 59.023531 
L 61.679247 55.438162 
L 61.816638 55.723142 
L 62.091421 56.717344 
L 62.228812 58.792082 
L 62.366203 58.746903 
L 62.503594 58.273708 
L 62.640985 59.254597 
L 62.778377 58.563602 
L 62.915768 60.079716 
L 63.053159 60.27022 
L 63.327942 59.159845 
L 63.602724 56.751841 
L 63.740115 56.661691 
L 63.877507 57.6432 
L 64.152289 57.785809 
L 64.427071 59.528071 
L 64.564463 59.422946 
L 64.701854 60.158107 
L 64.839245 60.227883 
L 64.976636 59.14204 
L 65.114028 59.094374 
L 65.251419 57.868521 
L 65.526201 57.513939 
L 65.800984 58.622036 
L 65.938375 58.040665 
L 66.075766 58.471339 
L 66.350549 57.705109 
L 66.48794 58.184731 
L 66.900114 56.200557 
L 67.037505 56.393411 
L 67.174896 57.203923 
L 67.312287 57.16683 
L 67.58707 58.211334 
L 67.724461 57.85524 
L 67.861852 57.98835 
L 67.999243 59.624773 
L 68.136635 59.042568 
L 68.411417 58.91766 
L 68.548808 56.653351 
L 68.6862 56.307419 
L 68.823591 54.866151 
L 68.960982 54.815053 
L 69.098373 55.634576 
L 69.235764 55.390328 
L 69.373156 57.155795 
L 69.647938 55.452319 
L 69.785329 57.672961 
L 69.922721 57.137492 
L 70.060112 58.490208 
L 70.334894 56.512711 
L 70.472285 56.706758 
L 71.02185 60.973522 
L 71.159242 60.540174 
L 71.296633 60.928274 
L 71.571415 63.725741 
L 71.708807 63.953694 
L 71.846198 63.08494 
L 72.12098 63.873196 
L 72.258371 63.29722 
L 72.395763 63.500823 
L 72.807936 66.724302 
L 72.945328 64.222202 
L 73.082719 64.412733 
L 73.632284 67.637823 
L 73.769675 68.514027 
L 74.044457 68.317066 
L 74.181849 66.330787 
L 74.31924 66.388181 
L 74.456631 67.050451 
L 74.594022 66.819948 
L 74.868805 67.123869 
L 75.006196 66.442591 
L 75.143587 66.563846 
L 75.555761 69.191076 
L 75.693152 69.118372 
L 75.830543 68.40507 
L 76.105326 69.254591 
L 76.242717 70.110185 
L 76.380108 69.502974 
L 76.654891 70.504866 
L 76.792282 69.750014 
L 76.929673 69.93695 
L 77.067064 71.007796 
L 77.341847 70.57724 
L 77.616629 69.62541 
L 77.754021 70.62758 
L 77.891412 70.745534 
L 78.028803 70.354809 
L 78.303585 71.587076 
L 78.85315 67.761749 
L 78.990542 67.110174 
L 79.127933 68.528732 
L 79.265324 68.545411 
L 79.402715 69.2054 
L 79.540106 68.838873 
L 79.677498 68.831462 
L 79.814889 69.030131 
L 80.089671 70.366473 
L 80.227063 70.095534 
L 80.364454 68.966633 
L 80.501845 68.958447 
L 80.639236 69.549409 
L 81.05141 67.241607 
L 81.188801 69.27788 
L 81.463584 67.57397 
L 81.738366 67.8605 
L 81.875757 67.69434 
L 82.15054 65.637778 
L 82.287931 67.254882 
L 82.562713 65.960337 
L 82.837496 63.661864 
L 83.112278 65.340658 
L 83.24967 65.70231 
L 83.387061 64.536216 
L 83.524452 64.798657 
L 83.661843 65.636678 
L 83.799235 65.756352 
L 83.936626 65.613746 
L 84.486191 63.063178 
L 84.623582 63.361264 
L 84.760973 64.305714 
L 84.898364 63.294569 
L 85.035756 63.128048 
L 85.173147 62.582828 
L 85.310538 60.719019 
L 85.447929 60.856119 
L 85.722712 63.007009 
L 85.860103 63.172939 
L 85.997494 63.621366 
L 86.409668 66.451096 
L 86.547059 67.485534 
L 87.096624 64.896095 
L 87.234015 65.773884 
L 87.371406 65.259309 
L 87.508798 65.327551 
L 88.058363 68.100602 
L 88.470536 65.528971 
L 88.607927 66.117693 
L 88.88271 64.875009 
L 89.020101 65.710504 
L 89.157492 65.108734 
L 89.294884 63.603054 
L 89.432275 63.446774 
L 89.569666 63.87703 
L 89.707057 63.506141 
L 89.844449 64.801544 
L 89.98184 64.71156 
L 90.119231 65.091128 
L 90.256622 63.449462 
L 90.394013 64.352118 
L 90.668796 62.717481 
L 90.806187 63.176506 
L 90.943578 62.375918 
L 91.218361 63.156032 
L 91.355752 63.056204 
L 91.493143 63.44179 
L 91.767926 61.722786 
L 92.042708 63.011059 
L 92.317491 61.459193 
L 92.454882 57.606495 
L 92.729664 61.850699 
L 92.867056 61.559519 
L 93.141838 62.598095 
L 93.279229 60.544676 
L 93.41662 60.984533 
L 93.554012 60.77607 
L 93.828794 59.510746 
L 93.966185 59.953459 
L 94.103577 60.855701 
L 94.240968 57.7239 
L 94.378359 57.601748 
L 94.51575 57.329 
L 94.790533 56.19853 
L 94.927924 57.016349 
L 95.065315 56.351926 
L 95.202706 56.627155 
L 95.340098 56.575842 
L 95.477489 57.043034 
L 95.61488 56.965002 
L 95.752271 57.723595 
L 95.889663 57.284523 
L 96.027054 56.117192 
L 96.439227 57.562376 
L 96.576619 58.113932 
L 96.71401 59.386135 
L 96.988792 58.452125 
L 97.126184 59.664959 
L 97.263575 58.387989 
L 97.538357 59.786125 
L 97.675749 60.004771 
L 97.81314 59.373398 
L 98.087922 57.480222 
L 98.225313 57.369964 
L 98.362705 56.876572 
L 98.500096 57.202516 
L 98.637487 56.933089 
L 98.774878 55.955872 
L 98.91227 56.263985 
L 99.049661 56.254187 
L 99.187052 56.383216 
L 99.324443 57.580038 
L 99.461834 57.741135 
L 99.599226 57.441473 
L 99.736617 56.506409 
L 99.874008 56.592952 
L 100.011399 57.263204 
L 100.148791 56.067972 
L 100.286182 57.61859 
L 100.423573 55.859355 
L 100.560964 55.861729 
L 100.973138 55.205232 
L 101.110529 55.96824 
L 101.385312 53.21582 
L 101.660094 55.112331 
L 101.797485 54.64819 
L 102.072268 56.628973 
L 102.209659 57.576609 
L 102.34705 57.139785 
L 102.484441 58.298472 
L 102.621833 58.062355 
L 102.759224 57.584509 
L 102.896615 58.849501 
L 103.171398 57.237174 
L 103.44618 58.964465 
L 103.858354 56.932317 
L 103.858354 56.932317 
" clip-path="url(#pbe2f6eed48)" style="fill: none; stroke: #55b2e8; stroke-width: 1.5; stroke-linecap: square"/>
   </g>
   <g id="line2d_7">
    <path d="M 35.16274 80.555734 
L 35.987087 80.428357 
L 36.399261 80.306703 
L 36.674044 80.054985 
L 37.223608 79.818242 
L 37.498391 79.92986 
L 37.773173 79.752323 
L 38.047956 79.05717 
L 38.322738 78.430744 
L 38.597521 77.250576 
L 38.734912 77.795795 
L 39.147086 75.861448 
L 39.421868 74.162782 
L 39.559259 74.5891 
L 39.696651 74.028304 
L 39.971433 70.382659 
L 40.108824 70.365064 
L 40.383607 70.842416 
L 40.520998 70.20278 
L 40.658389 68.224365 
L 40.79578 68.286634 
L 40.933172 68.897532 
L 41.345345 71.654147 
L 41.757519 68.720662 
L 41.89491 67.864603 
L 42.169693 63.254975 
L 42.307084 65.141514 
L 42.444475 65.393099 
L 42.581866 67.420665 
L 43.131431 63.412073 
L 43.406214 67.435851 
L 43.543605 67.4488 
L 43.818387 64.442558 
L 43.955779 63.203955 
L 44.09317 65.354251 
L 44.230561 64.807884 
L 44.367952 67.047922 
L 44.505343 66.326599 
L 44.642735 67.279156 
L 44.780126 66.171389 
L 44.917517 67.0269 
L 45.1923 64.379657 
L 45.329691 63.870588 
L 45.467082 65.165815 
L 45.879256 60.158205 
L 46.016647 62.844297 
L 46.154038 62.487101 
L 46.428821 60.425329 
L 46.566212 60.755188 
L 46.840994 55.776015 
L 47.115777 61.218523 
L 47.52795 59.816045 
L 47.802733 61.12035 
L 47.940124 59.755768 
L 48.214907 60.913387 
L 48.489689 62.806983 
L 48.62708 62.590111 
L 48.764472 62.725104 
L 49.039254 61.323185 
L 49.176645 61.096132 
L 49.314036 62.573464 
L 49.588819 60.905489 
L 49.72621 63.509474 
L 49.863601 63.273067 
L 50.138384 57.089507 
L 50.275775 59.54086 
L 50.413166 56.34311 
L 50.550557 56.141209 
L 50.962731 54.0103 
L 51.100122 54.909266 
L 51.374905 50.37627 
L 51.512296 48.937382 
L 51.92447 50.345492 
L 52.199252 48.668618 
L 52.336643 50.277518 
L 52.748817 44.856935 
L 52.886208 46.609092 
L 53.0236 45.852067 
L 53.160991 46.047564 
L 53.298382 46.442955 
L 53.435773 45.230545 
L 53.573164 46.383988 
L 53.710556 45.511633 
L 53.847947 46.436508 
L 54.122729 51.148034 
L 54.397512 50.198257 
L 54.672294 48.78136 
L 54.809686 50.986081 
L 54.947077 49.766944 
L 55.35925 51.308166 
L 55.634033 46.768129 
L 55.908815 45.05317 
L 56.046207 47.912621 
L 56.183598 48.188057 
L 56.320989 49.014201 
L 56.45838 47.933463 
L 56.595771 48.394006 
L 56.870554 47.209859 
L 57.007945 45.817231 
L 57.420119 49.534693 
L 57.55751 49.150595 
L 57.694901 50.328826 
L 57.832293 49.476779 
L 57.969684 50.109286 
L 58.107075 49.93632 
L 58.519249 43.376055 
L 58.65664 43.846169 
L 58.794031 45.231078 
L 58.931422 45.295227 
L 59.068814 47.921167 
L 59.206205 47.92955 
L 59.343596 46.321037 
L 59.618378 48.795991 
L 59.75577 47.594709 
L 59.893161 47.824964 
L 60.030552 49.420924 
L 60.167943 46.816161 
L 60.305335 47.414142 
L 60.717508 50.886148 
L 60.8549 50.980809 
L 61.129682 52.846271 
L 61.404464 46.821607 
L 61.541856 50.122567 
L 61.679247 49.191137 
L 61.816638 50.724218 
L 62.091421 47.788858 
L 62.366203 54.681452 
L 62.640985 52.916474 
L 62.778377 51.270965 
L 62.915768 52.250109 
L 63.053159 51.288213 
L 63.19055 53.385181 
L 63.327942 50.266251 
L 63.465333 50.149527 
L 63.602724 50.341271 
L 63.877507 48.374369 
L 64.152289 43.929082 
L 64.427071 46.146052 
L 64.564463 48.759007 
L 64.701854 46.815782 
L 64.839245 47.312232 
L 65.251419 43.280056 
L 65.38881 42.207777 
L 65.663593 45.433801 
L 65.800984 41.069104 
L 65.938375 42.069213 
L 66.075766 41.664405 
L 66.213157 38.090589 
L 66.350549 40.681891 
L 66.48794 38.792053 
L 66.762722 41.087527 
L 66.900114 41.585511 
L 67.037505 39.572623 
L 67.312287 43.182726 
L 67.58707 40.777079 
L 67.724461 37.140753 
L 67.861852 37.643936 
L 68.136635 40.53231 
L 68.548808 34.032381 
L 68.6862 36.05248 
L 68.960982 28.003958 
L 69.098373 30.641579 
L 69.235764 28.358384 
L 69.373156 28.193641 
L 69.510547 28.440036 
L 69.647938 31.015039 
L 69.785329 29.229867 
L 69.922721 31.274784 
L 70.472285 24.211674 
L 70.609677 22.890329 
L 70.884459 26.767361 
L 71.159242 28.925646 
L 71.296633 28.52376 
L 71.434024 28.600968 
L 71.846198 21.941321 
L 71.983589 20.10536 
L 72.12098 21.246582 
L 72.258371 23.954582 
L 72.533154 25.23997 
L 72.670545 24.054006 
L 72.807936 24.88205 
L 73.082719 30.55733 
L 73.22011 25.884977 
L 73.357501 27.163892 
L 73.494892 26.647962 
L 74.181849 35.14624 
L 74.31924 34.005681 
L 74.456631 35.097211 
L 74.731414 32.784624 
L 75.006196 36.178556 
L 75.280978 32.353927 
L 75.555761 34.361182 
L 75.693152 31.158827 
L 75.830543 32.640085 
L 75.967935 31.262648 
L 76.105326 28.106456 
L 76.242717 31.908687 
L 76.380108 32.480003 
L 76.517499 31.5466 
L 76.792282 35.669481 
L 76.929673 31.609786 
L 77.067064 39.32749 
L 77.204456 39.782146 
L 77.891412 53.417158 
L 78.028803 52.312822 
L 78.166194 52.207057 
L 78.303585 54.574225 
L 78.578368 53.286665 
L 78.715759 49.821402 
L 78.85315 51.488842 
L 78.990542 51.63488 
L 79.127933 49.169531 
L 79.265324 48.927865 
L 79.402715 50.792163 
L 79.540106 49.772542 
L 79.814889 51.97714 
L 79.95228 48.905481 
L 80.089671 49.757425 
L 80.364454 56.180012 
L 80.501845 53.520328 
L 80.639236 54.567002 
L 80.776628 54.062514 
L 81.05141 60.101549 
L 81.188801 59.266584 
L 81.326192 60.049107 
L 81.463584 62.574122 
L 81.600975 60.094065 
L 81.738366 61.411185 
L 81.875757 60.937091 
L 82.013149 58.25498 
L 82.15054 59.838238 
L 82.287931 57.937989 
L 82.425322 57.863021 
L 82.562713 58.452844 
L 82.700105 59.621463 
L 82.837496 58.079718 
L 82.974887 58.8994 
L 83.112278 61.21799 
L 83.387061 58.924283 
L 83.524452 54.215392 
L 83.661843 55.385116 
L 84.074017 51.319136 
L 84.211408 46.996119 
L 84.486191 49.688414 
L 84.623582 50.784729 
L 84.898364 45.590588 
L 85.035756 44.990118 
L 85.173147 49.18612 
L 85.447929 48.287072 
L 85.58532 43.450574 
L 85.722712 43.044856 
L 85.860103 43.639143 
L 85.997494 39.720756 
L 86.134885 40.07888 
L 86.272277 43.754215 
L 86.409668 44.048872 
L 86.547059 42.807414 
L 86.68445 42.741978 
L 87.096624 51.135807 
L 87.234015 51.623889 
L 87.371406 50.004573 
L 87.508798 50.051952 
L 87.646189 51.529498 
L 87.78358 49.25806 
L 87.920971 51.600844 
L 88.058363 50.71569 
L 88.195754 48.026464 
L 88.470536 54.841278 
L 88.607927 54.748306 
L 88.745319 52.265115 
L 88.88271 52.523167 
L 89.020101 54.738977 
L 89.157492 55.049161 
L 89.294884 54.364862 
L 89.432275 48.877049 
L 89.569666 49.75429 
L 89.707057 46.751226 
L 89.844449 51.592472 
L 89.98184 43.376024 
L 90.119231 47.236693 
L 90.256622 43.021694 
L 90.394013 42.429107 
L 90.531405 43.534888 
L 90.668796 43.517072 
L 90.806187 43.867553 
L 90.943578 42.257777 
L 91.08097 42.276326 
L 91.218361 43.166982 
L 91.355752 47.506779 
L 91.493143 46.414336 
L 91.767926 43.121044 
L 91.905317 43.591752 
L 92.180099 45.911234 
L 92.454882 33.115693 
L 92.592273 32.531812 
L 92.729664 33.915583 
L 92.867056 31.564607 
L 93.004447 32.722669 
L 93.141838 30.496195 
L 93.279229 31.816278 
L 93.41662 36.381675 
L 93.554012 34.806578 
L 93.691403 36.276242 
L 93.828794 34.974326 
L 93.966185 36.485839 
L 94.103577 36.131387 
L 94.240968 36.265207 
L 94.378359 34.491547 
L 94.653142 38.109363 
L 94.790533 35.459866 
L 95.065315 40.930094 
L 95.202706 39.668227 
L 95.752271 45.44417 
L 95.889663 45.260633 
L 96.027054 44.305454 
L 96.301836 49.381409 
L 96.439227 49.718871 
L 96.576619 49.019844 
L 96.71401 51.478724 
L 97.126184 45.107551 
L 97.263575 45.392305 
L 97.400966 46.314806 
L 97.538357 46.163868 
L 97.675749 43.093647 
L 97.81314 45.723795 
L 97.950531 45.546408 
L 98.087922 49.025557 
L 98.225313 47.92493 
L 98.774878 55.537715 
L 98.91227 55.373104 
L 99.049661 56.802438 
L 99.324443 53.675181 
L 99.461834 57.853127 
L 99.599226 57.608308 
L 99.874008 58.198857 
L 100.011399 57.886014 
L 100.286182 58.138733 
L 100.423573 59.741974 
L 100.560964 59.753488 
L 100.698356 60.2507 
L 100.835747 61.235552 
L 100.973138 59.048846 
L 101.110529 60.519347 
L 101.24792 59.837941 
L 101.385312 61.186141 
L 101.522703 61.049544 
L 101.660094 61.430913 
L 101.797485 62.621504 
L 101.934877 62.321044 
L 102.209659 64.714347 
L 102.34705 64.818878 
L 102.484441 64.53588 
L 102.759224 66.271682 
L 102.896615 65.688746 
L 103.171398 68.668691 
L 103.308789 69.484777 
L 103.44618 66.865933 
L 103.583571 66.932616 
L 103.720963 65.66436 
L 103.858354 66.468299 
L 103.858354 66.468299 
" clip-path="url(#pbe2f6eed48)" style="fill: none; stroke: #cc78a6; stroke-width: 1.5; stroke-linecap: square"/>
   </g>
   <g id="line2d_8">
    <path d="M 35.16274 80.555734 
L 35.849696 80.455783 
L 35.987087 80.101796 
L 36.124479 80.082292 
L 36.399261 79.480624 
L 36.674044 79.22429 
L 36.811435 79.358993 
L 36.948826 78.954733 
L 37.086217 78.987985 
L 37.361 78.283777 
L 37.498391 78.618616 
L 37.635782 78.476403 
L 37.773173 78.575434 
L 38.047956 77.595801 
L 38.185347 77.911574 
L 38.460129 76.759508 
L 38.597521 74.536307 
L 38.734912 74.435423 
L 38.872303 75.126245 
L 39.009694 73.182314 
L 39.147086 73.783204 
L 39.284477 72.872128 
L 39.421868 73.431497 
L 39.696651 75.934606 
L 40.108824 72.53648 
L 40.246215 74.087545 
L 40.383607 73.330219 
L 40.520998 73.327971 
L 40.79578 69.49438 
L 41.070563 70.666721 
L 41.207954 70.806665 
L 41.620128 64.006582 
L 41.757519 66.031793 
L 41.89491 65.034892 
L 42.032301 60.4694 
L 42.169693 61.633119 
L 42.307084 61.250261 
L 42.444475 61.496589 
L 42.581866 58.217356 
L 42.719258 59.111334 
L 42.856649 57.789514 
L 42.99404 59.851306 
L 43.131431 60.187402 
L 43.406214 62.843912 
L 43.543605 60.995789 
L 43.680996 61.193965 
L 43.955779 58.681783 
L 44.230561 59.705473 
L 44.367952 57.463542 
L 44.505343 58.639939 
L 44.642735 58.80556 
L 44.780126 59.988248 
L 45.054908 54.674877 
L 45.329691 57.290803 
L 45.467082 56.342331 
L 45.741865 53.317272 
L 45.879256 52.762549 
L 46.291429 49.398668 
L 46.566212 53.89596 
L 46.703603 54.485374 
L 46.840994 54.332294 
L 46.978386 58.44972 
L 47.115777 58.416623 
L 47.253168 58.944772 
L 47.390559 60.905964 
L 47.52795 60.492944 
L 47.665342 62.048073 
L 48.077515 58.31275 
L 48.352298 59.397813 
L 48.489689 59.209188 
L 48.764472 60.337501 
L 48.901863 59.652043 
L 49.176645 56.634697 
L 49.314036 55.902939 
L 49.451428 56.755655 
L 49.588819 56.589988 
L 49.72621 58.427376 
L 49.863601 58.667659 
L 50.000993 57.49198 
L 50.138384 57.374239 
L 50.275775 58.335069 
L 50.413166 56.576827 
L 50.550557 57.53706 
L 50.687949 55.643081 
L 50.82534 58.100838 
L 51.237514 54.75538 
L 51.92447 63.554983 
L 52.199252 61.197709 
L 52.336643 60.085883 
L 52.474035 60.673673 
L 52.611426 58.604498 
L 52.886208 59.906843 
L 53.0236 62.785111 
L 53.160991 60.393236 
L 53.298382 62.899646 
L 53.435773 63.152817 
L 53.573164 63.990862 
L 53.710556 61.263616 
L 53.847947 64.491253 
L 53.985338 63.173197 
L 54.122729 63.324878 
L 54.534903 62.344269 
L 54.672294 61.68132 
L 54.809686 64.216493 
L 55.084468 60.507146 
L 55.221859 60.307803 
L 55.496642 61.272805 
L 55.634033 61.203474 
L 56.046207 64.218291 
L 56.183598 63.7594 
L 56.595771 55.976793 
L 56.733163 56.799232 
L 57.145336 61.296652 
L 57.420119 61.724084 
L 57.55751 62.951833 
L 57.694901 61.854822 
L 57.832293 59.04136 
L 57.969684 58.815565 
L 58.107075 60.393602 
L 58.244466 57.39793 
L 58.381857 56.89305 
L 58.519249 55.068212 
L 58.65664 54.968176 
L 58.931422 58.224011 
L 59.068814 57.204291 
L 59.206205 57.493971 
L 59.343596 58.955674 
L 59.480987 58.66199 
L 59.618378 60.780137 
L 59.75577 59.244139 
L 59.893161 59.653985 
L 60.305335 55.48513 
L 60.442726 55.785885 
L 60.580117 54.539417 
L 60.717508 57.792742 
L 60.8549 53.725143 
L 60.992291 54.064352 
L 61.129682 53.282681 
L 61.267073 53.220607 
L 61.404464 52.096285 
L 61.541856 53.075403 
L 61.679247 51.233135 
L 61.954029 54.39114 
L 62.091421 53.975195 
L 62.503594 60.523221 
L 62.778377 60.23959 
L 62.915768 59.558836 
L 63.053159 60.318957 
L 63.327942 58.064807 
L 63.602724 55.95321 
L 64.014898 58.004464 
L 64.152289 57.075659 
L 64.28968 56.923723 
L 64.427071 55.342764 
L 64.564463 59.80072 
L 64.701854 59.927497 
L 64.839245 60.745838 
L 64.976636 63.971204 
L 65.251419 63.344859 
L 65.38881 61.951254 
L 65.526201 61.972157 
L 65.800984 61.35602 
L 66.075766 63.482924 
L 66.213157 59.973393 
L 66.350549 60.206885 
L 66.625331 56.076798 
L 66.900114 57.287547 
L 67.037505 56.941507 
L 67.174896 57.236281 
L 67.312287 55.763233 
L 67.449678 55.614606 
L 67.58707 55.641995 
L 68.136635 51.866928 
L 68.274026 57.086958 
L 68.6862 59.742 
L 68.823591 59.139735 
L 68.960982 59.315476 
L 69.373156 56.283733 
L 69.510547 57.497261 
L 69.647938 55.831376 
L 69.785329 57.880978 
L 69.922721 55.899013 
L 70.060112 57.265341 
L 70.197503 57.460143 
L 70.609677 50.374343 
L 70.747068 50.448223 
L 70.884459 50.933403 
L 71.296633 45.023777 
L 71.434024 42.929632 
L 71.571415 44.070213 
L 71.708807 43.973849 
L 71.846198 38.485125 
L 71.983589 38.501502 
L 72.12098 38.771895 
L 72.258371 41.808571 
L 72.395763 42.227765 
L 72.533154 42.246821 
L 72.670545 42.74853 
L 72.807936 41.36977 
L 73.082719 44.488876 
L 73.22011 44.416921 
L 73.357501 43.429138 
L 73.632284 39.594944 
L 73.907066 43.141349 
L 74.044457 43.740119 
L 74.181849 39.834042 
L 74.31924 42.285817 
L 74.456631 42.748113 
L 74.868805 47.13935 
L 75.006196 42.641804 
L 75.143587 43.214425 
L 75.280978 41.357868 
L 75.41837 42.572466 
L 75.693152 46.249598 
L 75.967935 50.431851 
L 76.105326 50.153906 
L 76.242717 50.381124 
L 76.380108 50.207371 
L 76.517499 51.450006 
L 76.654891 50.978086 
L 76.792282 51.331738 
L 77.067064 50.720865 
L 77.341847 51.406936 
L 77.479238 48.901098 
L 77.616629 48.95117 
L 77.754021 47.837113 
L 77.891412 48.496892 
L 78.166194 46.037499 
L 78.303585 47.200027 
L 78.440977 49.521076 
L 78.578368 49.631982 
L 78.715759 50.201635 
L 78.85315 47.72905 
L 78.990542 48.212774 
L 79.127933 46.899363 
L 79.265324 46.659045 
L 79.677498 50.359712 
L 79.814889 49.369434 
L 79.95228 50.445025 
L 80.227063 47.327634 
L 80.364454 49.322635 
L 80.501845 48.700499 
L 80.639236 50.104985 
L 80.776628 48.693731 
L 80.914019 48.756548 
L 81.05141 47.994561 
L 81.188801 50.057114 
L 81.326192 50.0361 
L 81.463584 50.613957 
L 81.600975 51.677139 
L 81.738366 50.01848 
L 81.875757 54.032998 
L 82.013149 52.923028 
L 82.15054 57.112296 
L 82.287931 56.638579 
L 82.700105 58.168613 
L 82.974887 60.195703 
L 83.112278 60.823341 
L 83.24967 60.342106 
L 83.387061 60.293055 
L 83.524452 60.04011 
L 83.661843 59.375768 
L 83.936626 63.704935 
L 84.074017 64.070889 
L 84.211408 63.283422 
L 84.486191 63.745555 
L 84.623582 61.468242 
L 84.760973 61.210424 
L 84.898364 63.044878 
L 85.035756 62.512427 
L 85.173147 63.217234 
L 85.310538 64.750159 
L 85.447929 64.02635 
L 85.58532 67.51624 
L 85.722712 66.314326 
L 85.997494 67.368965 
L 86.134885 64.732784 
L 86.409668 66.627223 
L 86.821842 63.742433 
L 86.959233 63.944319 
L 87.096624 66.148051 
L 87.371406 67.144984 
L 87.508798 66.277414 
L 87.78358 63.289574 
L 87.920971 64.569886 
L 88.058363 67.317084 
L 88.333145 65.177422 
L 88.470536 66.418721 
L 88.607927 66.077204 
L 88.745319 64.287814 
L 88.88271 65.817141 
L 89.020101 64.207945 
L 89.157492 64.187172 
L 89.294884 63.124614 
L 89.569666 65.00071 
L 89.707057 63.383574 
L 89.844449 64.326149 
L 89.98184 63.341019 
L 90.119231 64.049033 
L 90.394013 66.827521 
L 90.531405 65.678913 
L 90.668796 66.141934 
L 90.806187 66.026705 
L 90.943578 66.698953 
L 91.08097 66.760372 
L 91.218361 66.598454 
L 91.355752 66.908665 
L 91.630535 66.397071 
L 91.767926 67.973105 
L 91.905317 67.746081 
L 92.042708 68.341563 
L 92.180099 66.525684 
L 92.317491 66.39234 
L 92.454882 65.158264 
L 92.592273 66.228313 
L 92.729664 65.082735 
L 92.867056 65.036475 
L 93.004447 63.464579 
L 93.141838 64.357407 
L 93.279229 63.548537 
L 93.41662 63.485304 
L 93.828794 60.581932 
L 93.966185 58.719427 
L 94.103577 58.856152 
L 94.240968 58.390261 
L 94.378359 58.486408 
L 94.51575 58.740718 
L 94.653142 57.003515 
L 94.790533 56.877333 
L 94.927924 56.506715 
L 95.340098 52.028092 
L 95.477489 56.029128 
L 95.61488 55.59406 
L 95.752271 56.809206 
L 96.027054 56.757829 
L 96.301836 57.87031 
L 96.439227 57.103568 
L 96.576619 59.146963 
L 96.71401 58.440067 
L 96.988792 59.586939 
L 97.263575 63.764583 
L 97.538357 63.021938 
L 97.675749 62.27686 
L 97.81314 63.6429 
L 97.950531 63.859344 
L 98.087922 64.407987 
L 98.225313 65.63983 
L 98.362705 65.406928 
L 98.500096 66.400821 
L 98.637487 65.196617 
L 98.91227 60.905133 
L 99.049661 59.782124 
L 99.187052 60.396281 
L 99.461834 61.832974 
L 99.599226 60.343287 
L 99.736617 61.059462 
L 100.286182 57.177567 
L 100.423573 59.071147 
L 100.560964 55.686912 
L 100.698356 55.123739 
L 100.973138 52.80713 
L 101.110529 52.7996 
L 101.660094 56.055496 
L 101.934877 51.883157 
L 102.072268 50.729909 
L 102.209659 52.848914 
L 102.34705 51.636177 
L 102.484441 51.977263 
L 102.896615 48.437039 
L 103.034006 49.63935 
L 103.171398 47.027868 
L 103.308789 48.384474 
L 103.44618 51.066602 
L 103.583571 50.109818 
L 103.720963 47.914945 
L 103.858354 50.436924 
L 103.858354 50.436924 
" clip-path="url(#pbe2f6eed48)" style="fill: none; stroke: #009e73; stroke-width: 1.5; stroke-linecap: square"/>
   </g>
   <g id="patch_3">
    <path d="M 35.16274 84.78726 
L 35.16274 15.873834 
" style="fill: none; stroke: #000000; stroke-width: 1.1; stroke-linejoin: miter; stroke-linecap: square"/>
   </g>
   <g id="patch_4">
    <path d="M 35.16274 84.78726 
L 103.858354 84.78726 
" style="fill: none; stroke: #000000; stroke-width: 1.1; stroke-linejoin: miter; stroke-linecap: square"/>
   </g>
   <g id="text_8">
    <!-- Drift -->
    <g transform="translate(59.429219 10.873834) scale(0.11 -0.11)">
     <use xlink:href="#ArialMT-44"/>
     <use xlink:href="#ArialMT-72" transform="translate(72.216797 0)"/>
     <use xlink:href="#ArialMT-69" transform="translate(105.517578 0)"/>
     <use xlink:href="#ArialMT-66" transform="translate(127.734375 0)"/>
     <use xlink:href="#ArialMT-74" transform="translate(155.517578 0)"/>
    </g>
   </g>
   <g id="legend_1">
    <g id="patch_5">
     <path d="M 36.88013 43.439204 
L 74.915691 43.439204 
L 74.915691 14.754068 
L 36.88013 14.754068 
z
" style="fill: #ffffff; opacity: 0.8; stroke: #ffffff; stroke-linejoin: miter"/>
    </g>
    <g id="line2d_9">
     <path d="M 37.71313 18.634026 
L 41.04513 18.634026 
L 44.37713 18.634026 
" style="fill: none; stroke: #55b2e8; stroke-width: 1.5; stroke-linecap: square"/>
    </g>
    <g id="text_9">
     <!-- LSS -->
     <g style="fill: #444444" transform="translate(47.70913 21.549526) scale(0.0833 -0.0833)">
      <defs>
       <path id="ArialMT-4c" d="M 469 0 
L 469 4581 
L 1075 4581 
L 1075 541 
L 3331 541 
L 3331 0 
L 469 0 
z
" transform="scale(0.015625)"/>
      </defs>
      <use xlink:href="#ArialMT-4c"/>
      <use xlink:href="#ArialMT-53" transform="translate(55.615234 0)"/>
      <use xlink:href="#ArialMT-53" transform="translate(122.314453 0)"/>
     </g>
    </g>
    <g id="line2d_10">
     <path d="M 37.71313 28.334571 
L 41.04513 28.334571 
L 44.37713 28.334571 
" style="fill: none; stroke: #cc78a6; stroke-width: 1.5; stroke-linecap: square"/>
    </g>
    <g id="text_10">
     <!-- MRNS -->
     <g style="fill: #444444" transform="translate(47.70913 31.250071) scale(0.0833 -0.0833)">
      <defs>
       <path id="ArialMT-4d" d="M 475 0 
L 475 4581 
L 1388 4581 
L 2472 1338 
Q 2622 884 2691 659 
Q 2769 909 2934 1394 
L 4031 4581 
L 4847 4581 
L 4847 0 
L 4263 0 
L 4263 3834 
L 2931 0 
L 2384 0 
L 1059 3900 
L 1059 0 
L 475 0 
z
" transform="scale(0.015625)"/>
       <path id="ArialMT-52" d="M 503 0 
L 503 4581 
L 2534 4581 
Q 3147 4581 3465 4457 
Q 3784 4334 3975 4021 
Q 4166 3709 4166 3331 
Q 4166 2844 3850 2509 
Q 3534 2175 2875 2084 
Q 3116 1969 3241 1856 
Q 3506 1613 3744 1247 
L 4541 0 
L 3778 0 
L 3172 953 
Q 2906 1366 2734 1584 
Q 2563 1803 2427 1890 
Q 2291 1978 2150 2013 
Q 2047 2034 1813 2034 
L 1109 2034 
L 1109 0 
L 503 0 
z
M 1109 2559 
L 2413 2559 
Q 2828 2559 3062 2645 
Q 3297 2731 3419 2920 
Q 3541 3109 3541 3331 
Q 3541 3656 3305 3865 
Q 3069 4075 2559 4075 
L 1109 4075 
L 1109 2559 
z
" transform="scale(0.015625)"/>
       <path id="ArialMT-4e" d="M 488 0 
L 488 4581 
L 1109 4581 
L 3516 984 
L 3516 4581 
L 4097 4581 
L 4097 0 
L 3475 0 
L 1069 3600 
L 1069 0 
L 488 0 
z
" transform="scale(0.015625)"/>
      </defs>
      <use xlink:href="#ArialMT-4d"/>
      <use xlink:href="#ArialMT-52" transform="translate(83.300781 0)"/>
      <use xlink:href="#ArialMT-4e" transform="translate(155.517578 0)"/>
      <use xlink:href="#ArialMT-53" transform="translate(227.734375 0)"/>
     </g>
    </g>
    <g id="line2d_11">
     <path d="M 37.71313 38.035117 
L 41.04513 38.035117 
L 44.37713 38.035117 
" style="fill: none; stroke: #009e73; stroke-width: 1.5; stroke-linecap: square"/>
    </g>
    <g id="text_11">
     <!-- MWNS -->
     <g style="fill: #444444" transform="translate(47.70913 40.950617) scale(0.0833 -0.0833)">
      <defs>
       <path id="ArialMT-57" d="M 1294 0 
L 78 4581 
L 700 4581 
L 1397 1578 
Q 1509 1106 1591 641 
Q 1766 1375 1797 1488 
L 2669 4581 
L 3400 4581 
L 4056 2263 
Q 4303 1400 4413 641 
Q 4500 1075 4641 1638 
L 5359 4581 
L 5969 4581 
L 4713 0 
L 4128 0 
L 3163 3491 
Q 3041 3928 3019 4028 
Q 2947 3713 2884 3491 
L 1913 0 
L 1294 0 
z
" transform="scale(0.015625)"/>
      </defs>
      <use xlink:href="#ArialMT-4d"/>
      <use xlink:href="#ArialMT-57" transform="translate(83.300781 0)"/>
      <use xlink:href="#ArialMT-4e" transform="translate(177.685547 0)"/>
      <use xlink:href="#ArialMT-53" transform="translate(249.902344 0)"/>
     </g>
    </g>
   </g>
  </g>
 </g>
 <defs>
  <clipPath id="pbe2f6eed48">
   <rect x="35.16274" y="15.873834" width="68.695614" height="68.913426"/>
  </clipPath>
 </defs>
</svg>
