<?xml version="1.0" encoding="utf-8" standalone="no"?>
<!DOCTYPE svg PUBLIC "-//W3C//DTD SVG 1.1//EN"
  "http://www.w3.org/Graphics/SVG/1.1/DTD/svg11.dtd">
<svg xmlns:xlink="http://www.w3.org/1999/xlink" width="288pt" height="316.8pt" viewBox="0 0 288 316.8" xmlns="http://www.w3.org/2000/svg" version="1.1">
 <metadata>
  <rdf:RDF xmlns:dc="http://purl.org/dc/elements/1.1/" xmlns:cc="http://creativecommons.org/ns#" xmlns:rdf="http://www.w3.org/1999/02/22-rdf-syntax-ns#">
   <cc:Work>
    <dc:type rdf:resource="http://purl.org/dc/dcmitype/StillImage"/>
    <dc:date>2025-01-29T18:40:31.111623</dc:date>
    <dc:format>image/svg+xml</dc:format>
    <dc:creator>
     <cc:Agent>
      <dc:title>Matplotlib v3.10.0, https://matplotlib.org/</dc:title>
     </cc:Agent>
    </dc:creator>
   </cc:Work>
  </rdf:RDF>
 </metadata>
 <defs>
  <style type="text/css">*{stroke-linejoin: round; stroke-linecap: butt}</style>
 </defs>
 <g id="figure_1">
  <g id="patch_1">
   <path d="M 0 316.8 
L 288 316.8 
L 288 0 
L 0 0 
z
" style="fill: #ffffff"/>
  </g>
  <g id="axes_1">
   <g id="patch_2">
    <path d="M 144 164.903828 
Q 144 156.618802 144 149.45181 
" clip-path="url(#pd23f0952cf)" style="fill: none; stroke: #000000; stroke-linecap: round"/>
    <path d="M 142 153.45181 
L 144 149.45181 
L 146 153.45181 
z
" clip-path="url(#pd23f0952cf)" style="stroke: #000000; stroke-linecap: round"/>
   </g>
   <g id="patch_3">
    <path d="M 144 164.903828 
Q 144 173.188854 144 180.355846 
" clip-path="url(#pd23f0952cf)" style="fill: none; stroke: #000000; stroke-linecap: round"/>
    <path d="M 146 176.355846 
L 144 180.355846 
L 142 176.355846 
z
" clip-path="url(#pd23f0952cf)" style="stroke: #000000; stroke-linecap: round"/>
   </g>
   <g id="patch_4">
    <path d="M 157.212847 131.05328 
Q 167.102603 128.370071 175.913333 125.979615 
" clip-path="url(#pd23f0952cf)" style="fill: none; stroke: #000000; stroke-linecap: round"/>
    <path d="M 171.529202 125.096779 
L 175.913333 125.979615 
L 172.576585 128.957218 
z
" clip-path="url(#pd23f0952cf)" style="stroke: #000000; stroke-linecap: round"/>
   </g>
   <g id="patch_5">
    <path d="M 130.787153 131.05328 
Q 120.897397 128.370071 112.086667 125.979615 
" clip-path="url(#pd23f0952cf)" style="fill: none; stroke: #000000; stroke-linecap: round"/>
    <path d="M 115.423415 128.957218 
L 112.086667 125.979615 
L 116.470798 125.096779 
z
" clip-path="url(#pd23f0952cf)" style="stroke: #000000; stroke-linecap: round"/>
   </g>
   <g id="patch_6">
    <path d="M 203.679613 124.548676 
Q 212.381211 126.129163 219.982774 127.509848 
" clip-path="url(#pd23f0952cf)" style="fill: none; stroke: #000000; stroke-linecap: round"/>
    <path d="M 216.404581 124.827212 
L 219.982774 127.509848 
L 215.689749 128.762821 
z
" clip-path="url(#pd23f0952cf)" style="stroke: #000000; stroke-linecap: round"/>
   </g>
   <g id="patch_7">
    <path d="M 187.370899 108.703833 
Q 185.858222 101.557662 184.577077 95.505288 
" clip-path="url(#pd23f0952cf)" style="fill: none; stroke: #000000; stroke-linecap: round"/>
    <path d="M 183.448784 99.832753 
L 184.577077 95.505288 
L 187.362073 99.004402 
z
" clip-path="url(#pd23f0952cf)" style="stroke: #000000; stroke-linecap: round"/>
   </g>
   <g id="patch_8">
    <path d="M 247.688808 134.041025 
Q 253.371004 135.721731 257.981082 137.08532 
" clip-path="url(#pd23f0952cf)" style="fill: none; stroke: #000000; stroke-linecap: round"/>
    <path d="M 254.71263 134.032908 
L 257.981082 137.08532 
L 253.578081 137.868635 
z
" clip-path="url(#pd23f0952cf)" style="stroke: #000000; stroke-linecap: round"/>
   </g>
   <g id="patch_9">
    <path d="M 241.223117 118.191306 
Q 243.614035 113.89867 245.460923 110.582779 
" clip-path="url(#pd23f0952cf)" style="fill: none; stroke: #000000; stroke-linecap: round"/>
    <path d="M 241.76729 113.104103 
L 245.460923 110.582779 
L 245.261802 115.05048 
z
" clip-path="url(#pd23f0952cf)" style="stroke: #000000; stroke-linecap: round"/>
   </g>
   <g id="patch_10">
    <path d="M 193.862675 75.1147 
Q 199.059187 72.631156 203.246951 70.629719 
" clip-path="url(#pd23f0952cf)" style="fill: none; stroke: #000000; stroke-linecap: round"/>
    <path d="M 198.775525 70.550051 
L 203.246951 70.629719 
L 200.500361 74.159059 
z
" clip-path="url(#pd23f0952cf)" style="stroke: #000000; stroke-linecap: round"/>
   </g>
   <g id="patch_11">
    <path d="M 177.047921 68.07234 
Q 175.503521 63.592076 174.32348 60.168807 
" clip-path="url(#pd23f0952cf)" style="fill: none; stroke: #000000; stroke-linecap: round"/>
    <path d="M 173.736238 64.60222 
L 174.32348 60.168807 
L 177.517865 63.298649 
z
" clip-path="url(#pd23f0952cf)" style="stroke: #000000; stroke-linecap: round"/>
   </g>
   <g id="patch_12">
    <path d="M 100.629101 108.703833 
Q 102.141778 101.557662 103.422923 95.505288 
" clip-path="url(#pd23f0952cf)" style="fill: none; stroke: #000000; stroke-linecap: round"/>
    <path d="M 100.637927 99.004402 
L 103.422923 95.505288 
L 104.551216 99.832753 
z
" clip-path="url(#pd23f0952cf)" style="stroke: #000000; stroke-linecap: round"/>
   </g>
   <g id="patch_13">
    <path d="M 84.320387 124.548676 
Q 75.618789 126.129163 68.017226 127.509848 
" clip-path="url(#pd23f0952cf)" style="fill: none; stroke: #000000; stroke-linecap: round"/>
    <path d="M 72.310251 128.762821 
L 68.017226 127.509848 
L 71.595419 124.827212 
z
" clip-path="url(#pd23f0952cf)" style="stroke: #000000; stroke-linecap: round"/>
   </g>
   <g id="patch_14">
    <path d="M 110.952079 68.07234 
Q 112.496479 63.592076 113.67652 60.168807 
" clip-path="url(#pd23f0952cf)" style="fill: none; stroke: #000000; stroke-linecap: round"/>
    <path d="M 110.482135 63.298649 
L 113.67652 60.168807 
L 114.263762 64.60222 
z
" clip-path="url(#pd23f0952cf)" style="stroke: #000000; stroke-linecap: round"/>
   </g>
   <g id="patch_15">
    <path d="M 94.137325 75.1147 
Q 88.940813 72.631156 84.753049 70.629719 
" clip-path="url(#pd23f0952cf)" style="fill: none; stroke: #000000; stroke-linecap: round"/>
    <path d="M 87.499639 74.159059 
L 84.753049 70.629719 
L 89.224475 70.550051 
z
" clip-path="url(#pd23f0952cf)" style="stroke: #000000; stroke-linecap: round"/>
   </g>
   <g id="patch_16">
    <path d="M 46.776883 118.191306 
Q 44.385965 113.89867 42.539077 110.582779 
" clip-path="url(#pd23f0952cf)" style="fill: none; stroke: #000000; stroke-linecap: round"/>
    <path d="M 42.738198 115.05048 
L 42.539077 110.582779 
L 46.23271 113.104103 
z
" clip-path="url(#pd23f0952cf)" style="stroke: #000000; stroke-linecap: round"/>
   </g>
   <g id="patch_17">
    <path d="M 40.311192 134.041025 
Q 34.628996 135.721731 30.018918 137.08532 
" clip-path="url(#pd23f0952cf)" style="fill: none; stroke: #000000; stroke-linecap: round"/>
    <path d="M 34.421919 137.868635 
L 30.018918 137.08532 
L 33.28737 134.032908 
z
" clip-path="url(#pd23f0952cf)" style="stroke: #000000; stroke-linecap: round"/>
   </g>
   <g id="patch_18">
    <path d="M 130.787153 198.754376 
Q 120.897397 201.437585 112.086667 203.828041 
" clip-path="url(#pd23f0952cf)" style="fill: none; stroke: #000000; stroke-linecap: round"/>
    <path d="M 116.470798 204.710878 
L 112.086667 203.828041 
L 115.423415 200.850439 
z
" clip-path="url(#pd23f0952cf)" style="stroke: #000000; stroke-linecap: round"/>
   </g>
   <g id="patch_19">
    <path d="M 157.212847 198.754376 
Q 167.102603 201.437585 175.913333 203.828041 
" clip-path="url(#pd23f0952cf)" style="fill: none; stroke: #000000; stroke-linecap: round"/>
    <path d="M 172.576585 200.850439 
L 175.913333 203.828041 
L 171.529202 204.710878 
z
" clip-path="url(#pd23f0952cf)" style="stroke: #000000; stroke-linecap: round"/>
   </g>
   <g id="patch_20">
    <path d="M 84.320387 205.25898 
Q 75.618789 203.678493 68.017226 202.297808 
" clip-path="url(#pd23f0952cf)" style="fill: none; stroke: #000000; stroke-linecap: round"/>
    <path d="M 71.595419 204.980444 
L 68.017226 202.297808 
L 72.310251 201.044835 
z
" clip-path="url(#pd23f0952cf)" style="stroke: #000000; stroke-linecap: round"/>
   </g>
   <g id="patch_21">
    <path d="M 100.629101 221.103823 
Q 102.141778 228.249994 103.422923 234.302368 
" clip-path="url(#pd23f0952cf)" style="fill: none; stroke: #000000; stroke-linecap: round"/>
    <path d="M 104.551216 229.974903 
L 103.422923 234.302368 
L 100.637927 230.803255 
z
" clip-path="url(#pd23f0952cf)" style="stroke: #000000; stroke-linecap: round"/>
   </g>
   <g id="patch_22">
    <path d="M 40.311192 195.766631 
Q 34.628996 194.085926 30.018918 192.722336 
" clip-path="url(#pd23f0952cf)" style="fill: none; stroke: #000000; stroke-linecap: round"/>
    <path d="M 33.28737 195.774748 
L 30.018918 192.722336 
L 34.421919 191.939021 
z
" clip-path="url(#pd23f0952cf)" style="stroke: #000000; stroke-linecap: round"/>
   </g>
   <g id="patch_23">
    <path d="M 46.776883 211.61635 
Q 44.385965 215.908986 42.539077 219.224877 
" clip-path="url(#pd23f0952cf)" style="fill: none; stroke: #000000; stroke-linecap: round"/>
    <path d="M 46.23271 216.703554 
L 42.539077 219.224877 
L 42.738198 214.757176 
z
" clip-path="url(#pd23f0952cf)" style="stroke: #000000; stroke-linecap: round"/>
   </g>
   <g id="patch_24">
    <path d="M 94.137325 254.692956 
Q 88.940813 257.1765 84.753049 259.177937 
" clip-path="url(#pd23f0952cf)" style="fill: none; stroke: #000000; stroke-linecap: round"/>
    <path d="M 89.224475 259.257606 
L 84.753049 259.177937 
L 87.499639 255.648597 
z
" clip-path="url(#pd23f0952cf)" style="stroke: #000000; stroke-linecap: round"/>
   </g>
   <g id="patch_25">
    <path d="M 110.952079 261.735316 
Q 112.496479 266.215581 113.67652 269.638849 
" clip-path="url(#pd23f0952cf)" style="fill: none; stroke: #000000; stroke-linecap: round"/>
    <path d="M 114.263762 265.205436 
L 113.67652 269.638849 
L 110.482135 266.509008 
z
" clip-path="url(#pd23f0952cf)" style="stroke: #000000; stroke-linecap: round"/>
   </g>
   <g id="patch_26">
    <path d="M 187.370899 221.103823 
Q 185.858222 228.249994 184.577077 234.302368 
" clip-path="url(#pd23f0952cf)" style="fill: none; stroke: #000000; stroke-linecap: round"/>
    <path d="M 187.362073 230.803255 
L 184.577077 234.302368 
L 183.448784 229.974903 
z
" clip-path="url(#pd23f0952cf)" style="stroke: #000000; stroke-linecap: round"/>
   </g>
   <g id="patch_27">
    <path d="M 203.679613 205.25898 
Q 212.381211 203.678493 219.982774 202.297808 
" clip-path="url(#pd23f0952cf)" style="fill: none; stroke: #000000; stroke-linecap: round"/>
    <path d="M 215.689749 201.044835 
L 219.982774 202.297808 
L 216.404581 204.980444 
z
" clip-path="url(#pd23f0952cf)" style="stroke: #000000; stroke-linecap: round"/>
   </g>
   <g id="patch_28">
    <path d="M 177.047921 261.735316 
Q 175.503521 266.215581 174.32348 269.638849 
" clip-path="url(#pd23f0952cf)" style="fill: none; stroke: #000000; stroke-linecap: round"/>
    <path d="M 177.517865 266.509008 
L 174.32348 269.638849 
L 173.736238 265.205436 
z
" clip-path="url(#pd23f0952cf)" style="stroke: #000000; stroke-linecap: round"/>
   </g>
   <g id="patch_29">
    <path d="M 193.862675 254.692956 
Q 199.059187 257.1765 203.246951 259.177937 
" clip-path="url(#pd23f0952cf)" style="fill: none; stroke: #000000; stroke-linecap: round"/>
    <path d="M 200.500361 255.648597 
L 203.246951 259.177937 
L 198.775525 259.257606 
z
" clip-path="url(#pd23f0952cf)" style="stroke: #000000; stroke-linecap: round"/>
   </g>
   <g id="patch_30">
    <path d="M 241.223117 211.61635 
Q 243.614035 215.908986 245.460923 219.224877 
" clip-path="url(#pd23f0952cf)" style="fill: none; stroke: #000000; stroke-linecap: round"/>
    <path d="M 245.261802 214.757176 
L 245.460923 219.224877 
L 241.76729 216.703554 
z
" clip-path="url(#pd23f0952cf)" style="stroke: #000000; stroke-linecap: round"/>
   </g>
   <g id="patch_31">
    <path d="M 247.688808 195.766631 
Q 253.371004 194.085926 257.981082 192.722336 
" clip-path="url(#pd23f0952cf)" style="fill: none; stroke: #000000; stroke-linecap: round"/>
    <path d="M 253.578081 191.939021 
L 257.981082 192.722336 
L 254.71263 195.774748 
z
" clip-path="url(#pd23f0952cf)" style="stroke: #000000; stroke-linecap: round"/>
   </g>
   <g id="PathCollection_1">
    <path d="M 144 164.903828 
C 144 164.903828 144 164.903828 144 164.903828 
C 144 164.903828 144 164.903828 144 164.903828 
C 144 164.903828 144 164.903828 144 164.903828 
C 144 164.903828 144 164.903828 144 164.903828 
C 144 164.903828 144 164.903828 144 164.903828 
C 144 164.903828 144 164.903828 144 164.903828 
C 144 164.903828 144 164.903828 144 164.903828 
C 144 164.903828 144 164.903828 144 164.903828 
z
" clip-path="url(#pd23f0952cf)" style="fill: #cc78a6; stroke: #cc78a6"/>
    <path d="M 144 148.331147 
C 147.631443 148.331147 151.11464 146.88836 153.682458 144.320542 
C 156.250276 141.752724 157.693064 138.269526 157.693064 134.638083 
C 157.693064 131.00664 156.250276 127.523443 153.682458 124.955625 
C 151.11464 122.387807 147.631443 120.945019 144 120.945019 
C 140.368557 120.945019 136.88536 122.387807 134.317542 124.955625 
C 131.749724 127.523443 130.306936 131.00664 130.306936 134.638083 
C 130.306936 138.269526 131.749724 141.752724 134.317542 144.320542 
C 136.88536 146.88836 140.368557 148.331147 144 148.331147 
z
" clip-path="url(#pd23f0952cf)" style="fill: #cc78a6; stroke: #cc78a6"/>
    <path d="M 144 208.862637 
C 147.631443 208.862637 151.11464 207.419849 153.682458 204.852031 
C 156.250276 202.284213 157.693064 198.801016 157.693064 195.169573 
C 157.693064 191.53813 156.250276 188.054932 153.682458 185.487115 
C 151.11464 182.919297 147.631443 181.476509 144 181.476509 
C 140.368557 181.476509 136.88536 182.919297 134.317542 185.487115 
C 131.749724 188.054932 130.306936 191.53813 130.306936 195.169573 
C 130.306936 198.801016 131.749724 202.284213 134.317542 204.852031 
C 136.88536 207.419849 140.368557 208.862637 144 208.862637 
z
" clip-path="url(#pd23f0952cf)" style="fill: #cc78a6; stroke: #cc78a6"/>
    <path d="M 190.206892 135.794665 
C 193.838335 135.794665 197.321532 134.351878 199.88935 131.78406 
C 202.457168 129.216242 203.899956 125.733044 203.899956 122.101601 
C 203.899956 118.470158 202.457168 114.986961 199.88935 112.419143 
C 197.321532 109.851325 193.838335 108.408537 190.206892 108.408537 
C 186.575449 108.408537 183.092251 109.851325 180.524433 112.419143 
C 177.956615 114.986961 176.513828 118.470158 176.513828 122.101601 
C 176.513828 125.733044 177.956615 129.216242 180.524433 131.78406 
C 183.092251 134.351878 186.575449 135.794665 190.206892 135.794665 
z
" clip-path="url(#pd23f0952cf)" style="fill: #efe440; stroke: #efe440"/>
    <path d="M 97.793108 135.794665 
C 101.424551 135.794665 104.907749 134.351878 107.475567 131.78406 
C 110.043385 129.216242 111.486172 125.733044 111.486172 122.101601 
C 111.486172 118.470158 110.043385 114.986961 107.475567 112.419143 
C 104.907749 109.851325 101.424551 108.408537 97.793108 108.408537 
C 94.161665 108.408537 90.678468 109.851325 88.11065 112.419143 
C 85.542832 114.986961 84.100044 118.470158 84.100044 122.101601 
C 84.100044 125.733044 85.542832 129.216242 88.11065 131.78406 
C 90.678468 134.351878 94.161665 135.794665 97.793108 135.794665 
z
" clip-path="url(#pd23f0952cf)" style="fill: #efe440; stroke: #efe440"/>
    <path d="M 97.793108 221.399119 
C 101.424551 221.399119 104.907749 219.956331 107.475567 217.388513 
C 110.043385 214.820695 111.486172 211.337498 111.486172 207.706055 
C 111.486172 204.074612 110.043385 200.591414 107.475567 198.023596 
C 104.907749 195.455778 101.424551 194.012991 97.793108 194.012991 
C 94.161665 194.012991 90.678468 195.455778 88.11065 198.023596 
C 85.542832 200.591414 84.100044 204.074612 84.100044 207.706055 
C 84.100044 211.337498 85.542832 214.820695 88.11065 217.388513 
C 90.678468 219.956331 94.161665 221.399119 97.793108 221.399119 
z
" clip-path="url(#pd23f0952cf)" style="fill: #efe440; stroke: #efe440"/>
    <path d="M 190.206892 221.399119 
C 193.838335 221.399119 197.321532 219.956331 199.88935 217.388513 
C 202.457168 214.820695 203.899956 211.337498 203.899956 207.706055 
C 203.899956 204.074612 202.457168 200.591414 199.88935 198.023596 
C 197.321532 195.455778 193.838335 194.012991 190.206892 194.012991 
C 186.575449 194.012991 183.092251 195.455778 180.524433 198.023596 
C 177.956615 200.591414 176.513828 204.074612 176.513828 207.706055 
C 176.513828 211.337498 177.956615 214.820695 180.524433 217.388513 
C 183.092251 219.956331 186.575449 221.399119 190.206892 221.399119 
z
" clip-path="url(#pd23f0952cf)" style="fill: #efe440; stroke: #efe440"/>
    <path d="M 234.55832 143.850295 
C 238.189763 143.850295 241.672961 142.407507 244.240779 139.839689 
C 246.808597 137.271871 248.251384 133.788674 248.251384 130.157231 
C 248.251384 126.525788 246.808597 123.04259 244.240779 120.474773 
C 241.672961 117.906955 238.189763 116.464167 234.55832 116.464167 
C 230.926877 116.464167 227.44368 117.906955 224.875862 120.474773 
C 222.308044 123.04259 220.865256 126.525788 220.865256 130.157231 
C 220.865256 133.788674 222.308044 137.271871 224.875862 139.839689 
C 227.44368 142.407507 230.926877 143.850295 234.55832 143.850295 
z
" clip-path="url(#pd23f0952cf)" style="fill: #009e73; stroke: #009e73"/>
    <path d="M 181.510484 94.711186 
C 185.141927 94.711186 188.625125 93.268398 191.192943 90.70058 
C 193.760761 88.132762 195.203548 84.649565 195.203548 81.018122 
C 195.203548 77.386679 193.760761 73.903481 191.192943 71.335663 
C 188.625125 68.767845 185.141927 67.325058 181.510484 67.325058 
C 177.879041 67.325058 174.395844 68.767845 171.828026 71.335663 
C 169.260208 73.903481 167.81742 77.386679 167.81742 81.018122 
C 167.81742 84.649565 169.260208 88.132762 171.828026 90.70058 
C 174.395844 93.268398 177.879041 94.711186 181.510484 94.711186 
z
" clip-path="url(#pd23f0952cf)" style="fill: #009e73; stroke: #009e73"/>
    <path d="M 106.489516 94.711186 
C 110.120959 94.711186 113.604156 93.268398 116.171974 90.70058 
C 118.739792 88.132762 120.18258 84.649565 120.18258 81.018122 
C 120.18258 77.386679 118.739792 73.903481 116.171974 71.335663 
C 113.604156 68.767845 110.120959 67.325058 106.489516 67.325058 
C 102.858073 67.325058 99.374875 68.767845 96.807057 71.335663 
C 94.239239 73.903481 92.796452 77.386679 92.796452 81.018122 
C 92.796452 84.649565 94.239239 88.132762 96.807057 90.70058 
C 99.374875 93.268398 102.858073 94.711186 106.489516 94.711186 
z
" clip-path="url(#pd23f0952cf)" style="fill: #009e73; stroke: #009e73"/>
    <path d="M 53.44168 143.850295 
C 57.073123 143.850295 60.55632 142.407507 63.124138 139.839689 
C 65.691956 137.271871 67.134744 133.788674 67.134744 130.157231 
C 67.134744 126.525788 65.691956 123.04259 63.124138 120.474773 
C 60.55632 117.906955 57.073123 116.464167 53.44168 116.464167 
C 49.810237 116.464167 46.327039 117.906955 43.759221 120.474773 
C 41.191403 123.04259 39.748616 126.525788 39.748616 130.157231 
C 39.748616 133.788674 41.191403 137.271871 43.759221 139.839689 
C 46.327039 142.407507 49.810237 143.850295 53.44168 143.850295 
z
" clip-path="url(#pd23f0952cf)" style="fill: #009e73; stroke: #009e73"/>
    <path d="M 53.44168 213.343489 
C 57.073123 213.343489 60.55632 211.900702 63.124138 209.332884 
C 65.691956 206.765066 67.134744 203.281868 67.134744 199.650425 
C 67.134744 196.018982 65.691956 192.535785 63.124138 189.967967 
C 60.55632 187.400149 57.073123 185.957361 53.44168 185.957361 
C 49.810237 185.957361 46.327039 187.400149 43.759221 189.967967 
C 41.191403 192.535785 39.748616 196.018982 39.748616 199.650425 
C 39.748616 203.281868 41.191403 206.765066 43.759221 209.332884 
C 46.327039 211.900702 49.810237 213.343489 53.44168 213.343489 
z
" clip-path="url(#pd23f0952cf)" style="fill: #009e73; stroke: #009e73"/>
    <path d="M 106.489516 262.482598 
C 110.120959 262.482598 113.604156 261.039811 116.171974 258.471993 
C 118.739792 255.904175 120.18258 252.420977 120.18258 248.789534 
C 120.18258 245.158091 118.739792 241.674894 116.171974 239.107076 
C 113.604156 236.539258 110.120959 235.096471 106.489516 235.096471 
C 102.858073 235.096471 99.374875 236.539258 96.807057 239.107076 
C 94.239239 241.674894 92.796452 245.158091 92.796452 248.789534 
C 92.796452 252.420977 94.239239 255.904175 96.807057 258.471993 
C 99.374875 261.039811 102.858073 262.482598 106.489516 262.482598 
z
" clip-path="url(#pd23f0952cf)" style="fill: #009e73; stroke: #009e73"/>
    <path d="M 181.510484 262.482598 
C 185.141927 262.482598 188.625125 261.039811 191.192943 258.471993 
C 193.760761 255.904175 195.203548 252.420977 195.203548 248.789534 
C 195.203548 245.158091 193.760761 241.674894 191.192943 239.107076 
C 188.625125 236.539258 185.141927 235.096471 181.510484 235.096471 
C 177.879041 235.096471 174.395844 236.539258 171.828026 239.107076 
C 169.260208 241.674894 167.81742 245.158091 167.81742 248.789534 
C 167.81742 252.420977 169.260208 255.904175 171.828026 258.471993 
C 174.395844 261.039811 177.879041 262.482598 181.510484 262.482598 
z
" clip-path="url(#pd23f0952cf)" style="fill: #009e73; stroke: #009e73"/>
    <path d="M 234.55832 213.343489 
C 238.189763 213.343489 241.672961 211.900702 244.240779 209.332884 
C 246.808597 206.765066 248.251384 203.281868 248.251384 199.650425 
C 248.251384 196.018982 246.808597 192.535785 244.240779 189.967967 
C 241.672961 187.400149 238.189763 185.957361 234.55832 185.957361 
C 230.926877 185.957361 227.44368 187.400149 224.875862 189.967967 
C 222.308044 192.535785 220.865256 196.018982 220.865256 199.650425 
C 220.865256 203.281868 222.308044 206.765066 224.875862 209.332884 
C 227.44368 211.900702 230.926877 213.343489 234.55832 213.343489 
z
" clip-path="url(#pd23f0952cf)" style="fill: #009e73; stroke: #009e73"/>
    <path d="M 272.1816 154.978677 
C 275.813043 154.978677 279.29624 153.535889 281.864058 150.968071 
C 284.431876 148.400253 285.874664 144.917056 285.874664 141.285613 
C 285.874664 137.65417 284.431876 134.170972 281.864058 131.603154 
C 279.29624 129.035336 275.813043 127.592549 272.1816 127.592549 
C 268.550157 127.592549 265.06696 129.035336 262.499142 131.603154 
C 259.931324 134.170972 258.488536 137.65417 258.488536 141.285613 
C 258.488536 144.917056 259.931324 148.400253 262.499142 150.968071 
C 265.06696 153.535889 268.550157 154.978677 272.1816 154.978677 
z
" clip-path="url(#pd23f0952cf)" style="fill: #55b2e8; stroke: #55b2e8"/>
    <path d="M 252.667113 111.337905 
C 256.298556 111.337905 259.781754 109.895117 262.349572 107.327299 
C 264.91739 104.759481 266.360177 101.276284 266.360177 97.644841 
C 266.360177 94.013398 264.91739 90.5302 262.349572 87.962382 
C 259.781754 85.394564 256.298556 83.951777 252.667113 83.951777 
C 249.03567 83.951777 245.552473 85.394564 242.984655 87.962382 
C 240.416837 90.5302 238.974049 94.013398 238.974049 97.644841 
C 238.974049 101.276284 240.416837 104.759481 242.984655 107.327299 
C 245.552473 109.895117 249.03567 111.337905 252.667113 111.337905 
z
" clip-path="url(#pd23f0952cf)" style="fill: #55b2e8; stroke: #55b2e8"/>
    <path d="M 216.609044 77.936704 
C 220.240487 77.936704 223.723684 76.493916 226.291502 73.926098 
C 228.85932 71.35828 230.302108 67.875083 230.302108 64.24364 
C 230.302108 60.612197 228.85932 57.129 226.291502 54.561182 
C 223.723684 51.993364 220.240487 50.550576 216.609044 50.550576 
C 212.977601 50.550576 209.494403 51.993364 206.926585 54.561182 
C 204.358767 57.129 202.91598 60.612197 202.91598 64.24364 
C 202.91598 67.875083 204.358767 71.35828 206.926585 73.926098 
C 209.494403 76.493916 212.977601 77.936704 216.609044 77.936704 
z
" clip-path="url(#pd23f0952cf)" style="fill: #55b2e8; stroke: #55b2e8"/>
    <path d="M 169.496906 59.860104 
C 173.128349 59.860104 176.611546 58.417317 179.179364 55.849499 
C 181.747182 53.281681 183.189969 49.798483 183.189969 46.16704 
C 183.189969 42.535597 181.747182 39.0524 179.179364 36.484582 
C 176.611546 33.916764 173.128349 32.473976 169.496906 32.473976 
C 165.865463 32.473976 162.382265 33.916764 159.814447 36.484582 
C 157.246629 39.0524 155.803842 42.535597 155.803842 46.16704 
C 155.803842 49.798483 157.246629 53.281681 159.814447 55.849499 
C 162.382265 58.417317 165.865463 59.860104 169.496906 59.860104 
z
" clip-path="url(#pd23f0952cf)" style="fill: #55b2e8; stroke: #55b2e8"/>
    <path d="M 118.503094 59.860104 
C 122.134537 59.860104 125.617735 58.417317 128.185553 55.849499 
C 130.753371 53.281681 132.196158 49.798483 132.196158 46.16704 
C 132.196158 42.535597 130.753371 39.0524 128.185553 36.484582 
C 125.617735 33.916764 122.134537 32.473976 118.503094 32.473976 
C 114.871651 32.473976 111.388454 33.916764 108.820636 36.484582 
C 106.252818 39.0524 104.810031 42.535597 104.810031 46.16704 
C 104.810031 49.798483 106.252818 53.281681 108.820636 55.849499 
C 111.388454 58.417317 114.871651 59.860104 118.503094 59.860104 
z
" clip-path="url(#pd23f0952cf)" style="fill: #55b2e8; stroke: #55b2e8"/>
    <path d="M 71.390956 77.936704 
C 75.022399 77.936704 78.505597 76.493916 81.073415 73.926098 
C 83.641233 71.35828 85.08402 67.875083 85.08402 64.24364 
C 85.08402 60.612197 83.641233 57.129 81.073415 54.561182 
C 78.505597 51.993364 75.022399 50.550576 71.390956 50.550576 
C 67.759513 50.550576 64.276316 51.993364 61.708498 54.561182 
C 59.14068 57.129 57.697892 60.612197 57.697892 64.24364 
C 57.697892 67.875083 59.14068 71.35828 61.708498 73.926098 
C 64.276316 76.493916 67.759513 77.936704 71.390956 77.936704 
z
" clip-path="url(#pd23f0952cf)" style="fill: #55b2e8; stroke: #55b2e8"/>
    <path d="M 35.332887 111.337905 
C 38.96433 111.337905 42.447527 109.895117 45.015345 107.327299 
C 47.583163 104.759481 49.025951 101.276284 49.025951 97.644841 
C 49.025951 94.013398 47.583163 90.5302 45.015345 87.962382 
C 42.447527 85.394564 38.96433 83.951777 35.332887 83.951777 
C 31.701444 83.951777 28.218246 85.394564 25.650428 87.962382 
C 23.08261 90.5302 21.639823 94.013398 21.639823 97.644841 
C 21.639823 101.276284 23.08261 104.759481 25.650428 107.327299 
C 28.218246 109.895117 31.701444 111.337905 35.332887 111.337905 
z
" clip-path="url(#pd23f0952cf)" style="fill: #55b2e8; stroke: #55b2e8"/>
    <path d="M 15.8184 154.978677 
C 19.449843 154.978677 22.93304 153.535889 25.500858 150.968071 
C 28.068676 148.400253 29.511464 144.917056 29.511464 141.285613 
C 29.511464 137.65417 28.068676 134.170972 25.500858 131.603154 
C 22.93304 129.035336 19.449843 127.592549 15.8184 127.592549 
C 12.186957 127.592549 8.70376 129.035336 6.135942 131.603154 
C 3.568124 134.170972 2.125336 137.65417 2.125336 141.285613 
C 2.125336 144.917056 3.568124 148.400253 6.135942 150.968071 
C 8.70376 153.535889 12.186957 154.978677 15.8184 154.978677 
z
" clip-path="url(#pd23f0952cf)" style="fill: #55b2e8; stroke: #55b2e8"/>
    <path d="M 15.8184 202.215108 
C 19.449843 202.215108 22.93304 200.77232 25.500858 198.204502 
C 28.068676 195.636684 29.511464 192.153487 29.511464 188.522044 
C 29.511464 184.890601 28.068676 181.407403 25.500858 178.839585 
C 22.93304 176.271767 19.449843 174.82898 15.8184 174.82898 
C 12.186957 174.82898 8.70376 176.271767 6.135942 178.839585 
C 3.568124 181.407403 2.125336 184.890601 2.125336 188.522044 
C 2.125336 192.153487 3.568124 195.636684 6.135942 198.204502 
C 8.70376 200.77232 12.186957 202.215108 15.8184 202.215108 
z
" clip-path="url(#pd23f0952cf)" style="fill: #55b2e8; stroke: #55b2e8"/>
    <path d="M 35.332887 245.85588 
C 38.96433 245.85588 42.447527 244.413092 45.015345 241.845274 
C 47.583163 239.277456 49.025951 235.794259 49.025951 232.162816 
C 49.025951 228.531373 47.583163 225.048175 45.015345 222.480357 
C 42.447527 219.912539 38.96433 218.469752 35.332887 218.469752 
C 31.701444 218.469752 28.218246 219.912539 25.650428 222.480357 
C 23.08261 225.048175 21.639823 228.531373 21.639823 232.162816 
C 21.639823 235.794259 23.08261 239.277456 25.650428 241.845274 
C 28.218246 244.413092 31.701444 245.85588 35.332887 245.85588 
z
" clip-path="url(#pd23f0952cf)" style="fill: #55b2e8; stroke: #55b2e8"/>
    <path d="M 71.390956 279.25708 
C 75.022399 279.25708 78.505597 277.814293 81.073415 275.246475 
C 83.641233 272.678657 85.08402 269.195459 85.08402 265.564016 
C 85.08402 261.932573 83.641233 258.449376 81.073415 255.881558 
C 78.505597 253.31374 75.022399 251.870952 71.390956 251.870952 
C 67.759513 251.870952 64.276316 253.31374 61.708498 255.881558 
C 59.14068 258.449376 57.697892 261.932573 57.697892 265.564016 
C 57.697892 269.195459 59.14068 272.678657 61.708498 275.246475 
C 64.276316 277.814293 67.759513 279.25708 71.390956 279.25708 
z
" clip-path="url(#pd23f0952cf)" style="fill: #55b2e8; stroke: #55b2e8"/>
    <path d="M 118.503094 297.33368 
C 122.134537 297.33368 125.617735 295.890892 128.185553 293.323074 
C 130.753371 290.755256 132.196158 287.272059 132.196158 283.640616 
C 132.196158 280.009173 130.753371 276.525976 128.185553 273.958158 
C 125.617735 271.39034 122.134537 269.947552 118.503094 269.947552 
C 114.871651 269.947552 111.388454 271.39034 108.820636 273.958158 
C 106.252818 276.525976 104.810031 280.009173 104.810031 283.640616 
C 104.810031 287.272059 106.252818 290.755256 108.820636 293.323074 
C 111.388454 295.890892 114.871651 297.33368 118.503094 297.33368 
z
" clip-path="url(#pd23f0952cf)" style="fill: #55b2e8; stroke: #55b2e8"/>
    <path d="M 169.496906 297.33368 
C 173.128349 297.33368 176.611546 295.890892 179.179364 293.323074 
C 181.747182 290.755256 183.189969 287.272059 183.189969 283.640616 
C 183.189969 280.009173 181.747182 276.525976 179.179364 273.958158 
C 176.611546 271.39034 173.128349 269.947552 169.496906 269.947552 
C 165.865463 269.947552 162.382265 271.39034 159.814447 273.958158 
C 157.246629 276.525976 155.803842 280.009173 155.803842 283.640616 
C 155.803842 287.272059 157.246629 290.755256 159.814447 293.323074 
C 162.382265 295.890892 165.865463 297.33368 169.496906 297.33368 
z
" clip-path="url(#pd23f0952cf)" style="fill: #55b2e8; stroke: #55b2e8"/>
    <path d="M 216.609044 279.25708 
C 220.240487 279.25708 223.723684 277.814293 226.291502 275.246475 
C 228.85932 272.678657 230.302108 269.195459 230.302108 265.564016 
C 230.302108 261.932573 228.85932 258.449376 226.291502 255.881558 
C 223.723684 253.31374 220.240487 251.870952 216.609044 251.870952 
C 212.977601 251.870952 209.494403 253.31374 206.926585 255.881558 
C 204.358767 258.449376 202.91598 261.932573 202.91598 265.564016 
C 202.91598 269.195459 204.358767 272.678657 206.926585 275.246475 
C 209.494403 277.814293 212.977601 279.25708 216.609044 279.25708 
z
" clip-path="url(#pd23f0952cf)" style="fill: #55b2e8; stroke: #55b2e8"/>
    <path d="M 252.667113 245.85588 
C 256.298556 245.85588 259.781754 244.413092 262.349572 241.845274 
C 264.91739 239.277456 266.360177 235.794259 266.360177 232.162816 
C 266.360177 228.531373 264.91739 225.048175 262.349572 222.480357 
C 259.781754 219.912539 256.298556 218.469752 252.667113 218.469752 
C 249.03567 218.469752 245.552473 219.912539 242.984655 222.480357 
C 240.416837 225.048175 238.974049 228.531373 238.974049 232.162816 
C 238.974049 235.794259 240.416837 239.277456 242.984655 241.845274 
C 245.552473 244.413092 249.03567 245.85588 252.667113 245.85588 
z
" clip-path="url(#pd23f0952cf)" style="fill: #55b2e8; stroke: #55b2e8"/>
    <path d="M 272.1816 202.215108 
C 275.813043 202.215108 279.29624 200.77232 281.864058 198.204502 
C 284.431876 195.636684 285.874664 192.153487 285.874664 188.522044 
C 285.874664 184.890601 284.431876 181.407403 281.864058 178.839585 
C 279.29624 176.271767 275.813043 174.82898 272.1816 174.82898 
C 268.550157 174.82898 265.06696 176.271767 262.499142 178.839585 
C 259.931324 181.407403 258.488536 184.890601 258.488536 188.522044 
C 258.488536 192.153487 259.931324 195.636684 262.499142 198.204502 
C 265.06696 200.77232 268.550157 202.215108 272.1816 202.215108 
z
" clip-path="url(#pd23f0952cf)" style="fill: #55b2e8; stroke: #55b2e8"/>
   </g>
   <g id="text_1">
    <g clip-path="url(#pd23f0952cf)">
     <!-- Alive -->
     <g transform="translate(134.24625 136.964724) scale(0.09 -0.09)">
      <defs>
       <path id="ArialMT-41" d="M -9 0 
L 1750 4581 
L 2403 4581 
L 4278 0 
L 3588 0 
L 3053 1388 
L 1138 1388 
L 634 0 
L -9 0 
z
M 1313 1881 
L 2866 1881 
L 2388 3150 
Q 2169 3728 2063 4100 
Q 1975 3659 1816 3225 
L 1313 1881 
z
" transform="scale(0.015625)"/>
       <path id="ArialMT-6c" d="M 409 0 
L 409 4581 
L 972 4581 
L 972 0 
L 409 0 
z
" transform="scale(0.015625)"/>
       <path id="ArialMT-69" d="M 425 3934 
L 425 4581 
L 988 4581 
L 988 3934 
L 425 3934 
z
M 425 0 
L 425 3319 
L 988 3319 
L 988 0 
L 425 0 
z
" transform="scale(0.015625)"/>
       <path id="ArialMT-76" d="M 1344 0 
L 81 3319 
L 675 3319 
L 1388 1331 
Q 1503 1009 1600 663 
Q 1675 925 1809 1294 
L 2547 3319 
L 3125 3319 
L 1869 0 
L 1344 0 
z
" transform="scale(0.015625)"/>
       <path id="ArialMT-65" d="M 2694 1069 
L 3275 997 
Q 3138 488 2766 206 
Q 2394 -75 1816 -75 
Q 1088 -75 661 373 
Q 234 822 234 1631 
Q 234 2469 665 2931 
Q 1097 3394 1784 3394 
Q 2450 3394 2872 2941 
Q 3294 2488 3294 1666 
Q 3294 1616 3291 1516 
L 816 1516 
Q 847 969 1125 678 
Q 1403 388 1819 388 
Q 2128 388 2347 550 
Q 2566 713 2694 1069 
z
M 847 1978 
L 2700 1978 
Q 2663 2397 2488 2606 
Q 2219 2931 1791 2931 
Q 1403 2931 1139 2672 
Q 875 2413 847 1978 
z
" transform="scale(0.015625)"/>
      </defs>
      <use xlink:href="#ArialMT-41"/>
      <use xlink:href="#ArialMT-6c" transform="translate(66.699219 0)"/>
      <use xlink:href="#ArialMT-69" transform="translate(88.916016 0)"/>
      <use xlink:href="#ArialMT-76" transform="translate(111.132812 0)"/>
      <use xlink:href="#ArialMT-65" transform="translate(161.132812 0)"/>
     </g>
    </g>
   </g>
   <g id="text_2">
    <g clip-path="url(#pd23f0952cf)">
     <!-- Animal -->
     <g transform="translate(176.452361 124.428242) scale(0.09 -0.09)">
      <defs>
       <path id="ArialMT-6e" d="M 422 0 
L 422 3319 
L 928 3319 
L 928 2847 
Q 1294 3394 1984 3394 
Q 2284 3394 2536 3286 
Q 2788 3178 2913 3003 
Q 3038 2828 3088 2588 
Q 3119 2431 3119 2041 
L 3119 0 
L 2556 0 
L 2556 2019 
Q 2556 2363 2490 2533 
Q 2425 2703 2258 2804 
Q 2091 2906 1866 2906 
Q 1506 2906 1245 2678 
Q 984 2450 984 1813 
L 984 0 
L 422 0 
z
" transform="scale(0.015625)"/>
       <path id="ArialMT-6d" d="M 422 0 
L 422 3319 
L 925 3319 
L 925 2853 
Q 1081 3097 1340 3245 
Q 1600 3394 1931 3394 
Q 2300 3394 2536 3241 
Q 2772 3088 2869 2813 
Q 3263 3394 3894 3394 
Q 4388 3394 4653 3120 
Q 4919 2847 4919 2278 
L 4919 0 
L 4359 0 
L 4359 2091 
Q 4359 2428 4304 2576 
Q 4250 2725 4106 2815 
Q 3963 2906 3769 2906 
Q 3419 2906 3187 2673 
Q 2956 2441 2956 1928 
L 2956 0 
L 2394 0 
L 2394 2156 
Q 2394 2531 2256 2718 
Q 2119 2906 1806 2906 
Q 1569 2906 1367 2781 
Q 1166 2656 1075 2415 
Q 984 2175 984 1722 
L 984 0 
L 422 0 
z
" transform="scale(0.015625)"/>
       <path id="ArialMT-61" d="M 2588 409 
Q 2275 144 1986 34 
Q 1697 -75 1366 -75 
Q 819 -75 525 192 
Q 231 459 231 875 
Q 231 1119 342 1320 
Q 453 1522 633 1644 
Q 813 1766 1038 1828 
Q 1203 1872 1538 1913 
Q 2219 1994 2541 2106 
Q 2544 2222 2544 2253 
Q 2544 2597 2384 2738 
Q 2169 2928 1744 2928 
Q 1347 2928 1158 2789 
Q 969 2650 878 2297 
L 328 2372 
Q 403 2725 575 2942 
Q 747 3159 1072 3276 
Q 1397 3394 1825 3394 
Q 2250 3394 2515 3294 
Q 2781 3194 2906 3042 
Q 3031 2891 3081 2659 
Q 3109 2516 3109 2141 
L 3109 1391 
Q 3109 606 3145 398 
Q 3181 191 3288 0 
L 2700 0 
Q 2613 175 2588 409 
z
M 2541 1666 
Q 2234 1541 1622 1453 
Q 1275 1403 1131 1340 
Q 988 1278 909 1158 
Q 831 1038 831 891 
Q 831 666 1001 516 
Q 1172 366 1500 366 
Q 1825 366 2078 508 
Q 2331 650 2450 897 
Q 2541 1088 2541 1459 
L 2541 1666 
z
" transform="scale(0.015625)"/>
      </defs>
      <use xlink:href="#ArialMT-41"/>
      <use xlink:href="#ArialMT-6e" transform="translate(66.699219 0)"/>
      <use xlink:href="#ArialMT-69" transform="translate(122.314453 0)"/>
      <use xlink:href="#ArialMT-6d" transform="translate(144.53125 0)"/>
      <use xlink:href="#ArialMT-61" transform="translate(227.832031 0)"/>
      <use xlink:href="#ArialMT-6c" transform="translate(283.447266 0)"/>
     </g>
    </g>
   </g>
   <g id="text_3">
    <g clip-path="url(#pd23f0952cf)">
     <!-- Birds -->
     <g transform="translate(224.306055 132.483872) scale(0.09 -0.09)">
      <defs>
       <path id="ArialMT-42" d="M 469 0 
L 469 4581 
L 2188 4581 
Q 2713 4581 3030 4442 
Q 3347 4303 3526 4014 
Q 3706 3725 3706 3409 
Q 3706 3116 3547 2856 
Q 3388 2597 3066 2438 
Q 3481 2316 3704 2022 
Q 3928 1728 3928 1328 
Q 3928 1006 3792 729 
Q 3656 453 3456 303 
Q 3256 153 2954 76 
Q 2653 0 2216 0 
L 469 0 
z
M 1075 2656 
L 2066 2656 
Q 2469 2656 2644 2709 
Q 2875 2778 2992 2937 
Q 3109 3097 3109 3338 
Q 3109 3566 3000 3739 
Q 2891 3913 2687 3977 
Q 2484 4041 1991 4041 
L 1075 4041 
L 1075 2656 
z
M 1075 541 
L 2216 541 
Q 2509 541 2628 563 
Q 2838 600 2978 687 
Q 3119 775 3209 942 
Q 3300 1109 3300 1328 
Q 3300 1584 3169 1773 
Q 3038 1963 2805 2039 
Q 2572 2116 2134 2116 
L 1075 2116 
L 1075 541 
z
" transform="scale(0.015625)"/>
       <path id="ArialMT-72" d="M 416 0 
L 416 3319 
L 922 3319 
L 922 2816 
Q 1116 3169 1280 3281 
Q 1444 3394 1641 3394 
Q 1925 3394 2219 3213 
L 2025 2691 
Q 1819 2813 1613 2813 
Q 1428 2813 1281 2702 
Q 1134 2591 1072 2394 
Q 978 2094 978 1738 
L 978 0 
L 416 0 
z
" transform="scale(0.015625)"/>
       <path id="ArialMT-64" d="M 2575 0 
L 2575 419 
Q 2259 -75 1647 -75 
Q 1250 -75 917 144 
Q 584 363 401 755 
Q 219 1147 219 1656 
Q 219 2153 384 2558 
Q 550 2963 881 3178 
Q 1213 3394 1622 3394 
Q 1922 3394 2156 3267 
Q 2391 3141 2538 2938 
L 2538 4581 
L 3097 4581 
L 3097 0 
L 2575 0 
z
M 797 1656 
Q 797 1019 1065 703 
Q 1334 388 1700 388 
Q 2069 388 2326 689 
Q 2584 991 2584 1609 
Q 2584 2291 2321 2609 
Q 2059 2928 1675 2928 
Q 1300 2928 1048 2622 
Q 797 2316 797 1656 
z
" transform="scale(0.015625)"/>
       <path id="ArialMT-73" d="M 197 991 
L 753 1078 
Q 800 744 1014 566 
Q 1228 388 1613 388 
Q 2000 388 2187 545 
Q 2375 703 2375 916 
Q 2375 1106 2209 1216 
Q 2094 1291 1634 1406 
Q 1016 1563 777 1677 
Q 538 1791 414 1992 
Q 291 2194 291 2438 
Q 291 2659 392 2848 
Q 494 3038 669 3163 
Q 800 3259 1026 3326 
Q 1253 3394 1513 3394 
Q 1903 3394 2198 3281 
Q 2494 3169 2634 2976 
Q 2775 2784 2828 2463 
L 2278 2388 
Q 2241 2644 2061 2787 
Q 1881 2931 1553 2931 
Q 1166 2931 1000 2803 
Q 834 2675 834 2503 
Q 834 2394 903 2306 
Q 972 2216 1119 2156 
Q 1203 2125 1616 2013 
Q 2213 1853 2448 1751 
Q 2684 1650 2818 1456 
Q 2953 1263 2953 975 
Q 2953 694 2789 445 
Q 2625 197 2315 61 
Q 2006 -75 1616 -75 
Q 969 -75 630 194 
Q 291 463 197 991 
z
" transform="scale(0.015625)"/>
      </defs>
      <use xlink:href="#ArialMT-42"/>
      <use xlink:href="#ArialMT-69" transform="translate(66.699219 0)"/>
      <use xlink:href="#ArialMT-72" transform="translate(88.916016 0)"/>
      <use xlink:href="#ArialMT-64" transform="translate(122.216797 0)"/>
      <use xlink:href="#ArialMT-73" transform="translate(177.832031 0)"/>
     </g>
    </g>
   </g>
   <g id="text_4">
    <g clip-path="url(#pd23f0952cf)">
     <!-- Emu -->
     <g transform="translate(262.929178 143.612253) scale(0.09 -0.09)">
      <defs>
       <path id="ArialMT-45" d="M 506 0 
L 506 4581 
L 3819 4581 
L 3819 4041 
L 1113 4041 
L 1113 2638 
L 3647 2638 
L 3647 2100 
L 1113 2100 
L 1113 541 
L 3925 541 
L 3925 0 
L 506 0 
z
" transform="scale(0.015625)"/>
       <path id="ArialMT-75" d="M 2597 0 
L 2597 488 
Q 2209 -75 1544 -75 
Q 1250 -75 995 37 
Q 741 150 617 320 
Q 494 491 444 738 
Q 409 903 409 1263 
L 409 3319 
L 972 3319 
L 972 1478 
Q 972 1038 1006 884 
Q 1059 663 1231 536 
Q 1403 409 1656 409 
Q 1909 409 2131 539 
Q 2353 669 2445 892 
Q 2538 1116 2538 1541 
L 2538 3319 
L 3100 3319 
L 3100 0 
L 2597 0 
z
" transform="scale(0.015625)"/>
      </defs>
      <use xlink:href="#ArialMT-45"/>
      <use xlink:href="#ArialMT-6d" transform="translate(66.699219 0)"/>
      <use xlink:href="#ArialMT-75" transform="translate(150 0)"/>
     </g>
    </g>
   </g>
   <g id="text_5">
    <g clip-path="url(#pd23f0952cf)">
     <!-- Owl -->
     <g transform="translate(244.91727 99.971481) scale(0.09 -0.09)">
      <defs>
       <path id="ArialMT-4f" d="M 309 2231 
Q 309 3372 921 4017 
Q 1534 4663 2503 4663 
Q 3138 4663 3647 4359 
Q 4156 4056 4423 3514 
Q 4691 2972 4691 2284 
Q 4691 1588 4409 1038 
Q 4128 488 3612 205 
Q 3097 -78 2500 -78 
Q 1853 -78 1343 234 
Q 834 547 571 1087 
Q 309 1628 309 2231 
z
M 934 2222 
Q 934 1394 1379 917 
Q 1825 441 2497 441 
Q 3181 441 3623 922 
Q 4066 1403 4066 2288 
Q 4066 2847 3877 3264 
Q 3688 3681 3323 3911 
Q 2959 4141 2506 4141 
Q 1863 4141 1398 3698 
Q 934 3256 934 2222 
z
" transform="scale(0.015625)"/>
       <path id="ArialMT-77" d="M 1034 0 
L 19 3319 
L 600 3319 
L 1128 1403 
L 1325 691 
Q 1338 744 1497 1375 
L 2025 3319 
L 2603 3319 
L 3100 1394 
L 3266 759 
L 3456 1400 
L 4025 3319 
L 4572 3319 
L 3534 0 
L 2950 0 
L 2422 1988 
L 2294 2553 
L 1622 0 
L 1034 0 
z
" transform="scale(0.015625)"/>
      </defs>
      <use xlink:href="#ArialMT-4f"/>
      <use xlink:href="#ArialMT-77" transform="translate(77.783203 0)"/>
      <use xlink:href="#ArialMT-6c" transform="translate(150 0)"/>
     </g>
    </g>
   </g>
   <g id="text_6">
    <g clip-path="url(#pd23f0952cf)">
     <!-- Furry -->
     <g transform="translate(171.012828 83.292028) scale(0.09 -0.09)">
      <defs>
       <path id="ArialMT-46" d="M 525 0 
L 525 4581 
L 3616 4581 
L 3616 4041 
L 1131 4041 
L 1131 2622 
L 3281 2622 
L 3281 2081 
L 1131 2081 
L 1131 0 
L 525 0 
z
" transform="scale(0.015625)"/>
       <path id="ArialMT-79" d="M 397 -1278 
L 334 -750 
Q 519 -800 656 -800 
Q 844 -800 956 -737 
Q 1069 -675 1141 -563 
Q 1194 -478 1313 -144 
Q 1328 -97 1363 -6 
L 103 3319 
L 709 3319 
L 1400 1397 
Q 1534 1031 1641 628 
Q 1738 1016 1872 1384 
L 2581 3319 
L 3144 3319 
L 1881 -56 
Q 1678 -603 1566 -809 
Q 1416 -1088 1222 -1217 
Q 1028 -1347 759 -1347 
Q 597 -1347 397 -1278 
z
" transform="scale(0.015625)"/>
      </defs>
      <use xlink:href="#ArialMT-46"/>
      <use xlink:href="#ArialMT-75" transform="translate(61.083984 0)"/>
      <use xlink:href="#ArialMT-72" transform="translate(116.699219 0)"/>
      <use xlink:href="#ArialMT-72" transform="translate(150 0)"/>
      <use xlink:href="#ArialMT-79" transform="translate(183.300781 0)"/>
     </g>
    </g>
   </g>
   <g id="text_7">
    <g clip-path="url(#pd23f0952cf)">
     <!-- Cat -->
     <g transform="translate(209.606622 66.570281) scale(0.09 -0.09)">
      <defs>
       <path id="ArialMT-43" d="M 3763 1606 
L 4369 1453 
Q 4178 706 3683 314 
Q 3188 -78 2472 -78 
Q 1731 -78 1267 223 
Q 803 525 561 1097 
Q 319 1669 319 2325 
Q 319 3041 592 3573 
Q 866 4106 1370 4382 
Q 1875 4659 2481 4659 
Q 3169 4659 3637 4309 
Q 4106 3959 4291 3325 
L 3694 3184 
Q 3534 3684 3231 3912 
Q 2928 4141 2469 4141 
Q 1941 4141 1586 3887 
Q 1231 3634 1087 3207 
Q 944 2781 944 2328 
Q 944 1744 1114 1308 
Q 1284 872 1643 656 
Q 2003 441 2422 441 
Q 2931 441 3284 734 
Q 3638 1028 3763 1606 
z
" transform="scale(0.015625)"/>
       <path id="ArialMT-74" d="M 1650 503 
L 1731 6 
Q 1494 -44 1306 -44 
Q 1000 -44 831 53 
Q 663 150 594 308 
Q 525 466 525 972 
L 525 2881 
L 113 2881 
L 113 3319 
L 525 3319 
L 525 4141 
L 1084 4478 
L 1084 3319 
L 1650 3319 
L 1650 2881 
L 1084 2881 
L 1084 941 
Q 1084 700 1114 631 
Q 1144 563 1211 522 
Q 1278 481 1403 481 
Q 1497 481 1650 503 
z
" transform="scale(0.015625)"/>
      </defs>
      <use xlink:href="#ArialMT-43"/>
      <use xlink:href="#ArialMT-61" transform="translate(72.216797 0)"/>
      <use xlink:href="#ArialMT-74" transform="translate(127.832031 0)"/>
     </g>
    </g>
   </g>
   <g id="text_8">
    <g clip-path="url(#pd23f0952cf)">
     <!-- Dog -->
     <g transform="translate(161.242218 48.440947) scale(0.09 -0.09)">
      <defs>
       <path id="ArialMT-44" d="M 494 0 
L 494 4581 
L 2072 4581 
Q 2606 4581 2888 4516 
Q 3281 4425 3559 4188 
Q 3922 3881 4101 3404 
Q 4281 2928 4281 2316 
Q 4281 1794 4159 1391 
Q 4038 988 3847 723 
Q 3656 459 3429 307 
Q 3203 156 2883 78 
Q 2563 0 2147 0 
L 494 0 
z
M 1100 541 
L 2078 541 
Q 2531 541 2789 625 
Q 3047 709 3200 863 
Q 3416 1078 3536 1442 
Q 3656 1806 3656 2325 
Q 3656 3044 3420 3430 
Q 3184 3816 2847 3947 
Q 2603 4041 2063 4041 
L 1100 4041 
L 1100 541 
z
" transform="scale(0.015625)"/>
       <path id="ArialMT-6f" d="M 213 1659 
Q 213 2581 725 3025 
Q 1153 3394 1769 3394 
Q 2453 3394 2887 2945 
Q 3322 2497 3322 1706 
Q 3322 1066 3130 698 
Q 2938 331 2570 128 
Q 2203 -75 1769 -75 
Q 1072 -75 642 372 
Q 213 819 213 1659 
z
M 791 1659 
Q 791 1022 1069 705 
Q 1347 388 1769 388 
Q 2188 388 2466 706 
Q 2744 1025 2744 1678 
Q 2744 2294 2464 2611 
Q 2184 2928 1769 2928 
Q 1347 2928 1069 2612 
Q 791 2297 791 1659 
z
" transform="scale(0.015625)"/>
       <path id="ArialMT-67" d="M 319 -275 
L 866 -356 
Q 900 -609 1056 -725 
Q 1266 -881 1628 -881 
Q 2019 -881 2231 -725 
Q 2444 -569 2519 -288 
Q 2563 -116 2559 434 
Q 2191 0 1641 0 
Q 956 0 581 494 
Q 206 988 206 1678 
Q 206 2153 378 2554 
Q 550 2956 876 3175 
Q 1203 3394 1644 3394 
Q 2231 3394 2613 2919 
L 2613 3319 
L 3131 3319 
L 3131 450 
Q 3131 -325 2973 -648 
Q 2816 -972 2473 -1159 
Q 2131 -1347 1631 -1347 
Q 1038 -1347 672 -1080 
Q 306 -813 319 -275 
z
M 784 1719 
Q 784 1066 1043 766 
Q 1303 466 1694 466 
Q 2081 466 2343 764 
Q 2606 1063 2606 1700 
Q 2606 2309 2336 2618 
Q 2066 2928 1684 2928 
Q 1309 2928 1046 2623 
Q 784 2319 784 1719 
z
" transform="scale(0.015625)"/>
      </defs>
      <use xlink:href="#ArialMT-44"/>
      <use xlink:href="#ArialMT-6f" transform="translate(72.216797 0)"/>
      <use xlink:href="#ArialMT-67" transform="translate(127.832031 0)"/>
     </g>
    </g>
   </g>
   <g id="text_9">
    <g clip-path="url(#pd23f0952cf)">
     <!-- Plant -->
     <g transform="translate(87.536624 124.428242) scale(0.09 -0.09)">
      <defs>
       <path id="ArialMT-50" d="M 494 0 
L 494 4581 
L 2222 4581 
Q 2678 4581 2919 4538 
Q 3256 4481 3484 4323 
Q 3713 4166 3852 3881 
Q 3991 3597 3991 3256 
Q 3991 2672 3619 2267 
Q 3247 1863 2275 1863 
L 1100 1863 
L 1100 0 
L 494 0 
z
M 1100 2403 
L 2284 2403 
Q 2872 2403 3119 2622 
Q 3366 2841 3366 3238 
Q 3366 3525 3220 3729 
Q 3075 3934 2838 4000 
Q 2684 4041 2272 4041 
L 1100 4041 
L 1100 2403 
z
" transform="scale(0.015625)"/>
      </defs>
      <use xlink:href="#ArialMT-50"/>
      <use xlink:href="#ArialMT-6c" transform="translate(66.699219 0)"/>
      <use xlink:href="#ArialMT-61" transform="translate(88.916016 0)"/>
      <use xlink:href="#ArialMT-6e" transform="translate(144.53125 0)"/>
      <use xlink:href="#ArialMT-74" transform="translate(200.146484 0)"/>
     </g>
    </g>
   </g>
   <g id="text_10">
    <g clip-path="url(#pd23f0952cf)">
     <!-- Veg -->
     <g transform="translate(98.730531 83.292028) scale(0.09 -0.09)">
      <defs>
       <path id="ArialMT-56" d="M 1803 0 
L 28 4581 
L 684 4581 
L 1875 1253 
Q 2019 853 2116 503 
Q 2222 878 2363 1253 
L 3600 4581 
L 4219 4581 
L 2425 0 
L 1803 0 
z
" transform="scale(0.015625)"/>
      </defs>
      <use xlink:href="#ArialMT-56"/>
      <use xlink:href="#ArialMT-65" transform="translate(61.199219 0)"/>
      <use xlink:href="#ArialMT-67" transform="translate(116.814453 0)"/>
     </g>
    </g>
   </g>
   <g id="text_11">
    <g clip-path="url(#pd23f0952cf)">
     <!-- Pea -->
     <g transform="translate(110.49661 48.493681) scale(0.09 -0.09)">
      <use xlink:href="#ArialMT-50"/>
      <use xlink:href="#ArialMT-65" transform="translate(66.699219 0)"/>
      <use xlink:href="#ArialMT-61" transform="translate(122.314453 0)"/>
     </g>
    </g>
   </g>
   <g id="text_12">
    <g clip-path="url(#pd23f0952cf)">
     <!-- Yam -->
     <g transform="translate(62.470409 66.570281) scale(0.09 -0.09)">
      <defs>
       <path id="ArialMT-59" d="M 1784 0 
L 1784 1941 
L 19 4581 
L 756 4581 
L 1659 3200 
Q 1909 2813 2125 2425 
Q 2331 2784 2625 3234 
L 3513 4581 
L 4219 4581 
L 2391 1941 
L 2391 0 
L 1784 0 
z
" transform="scale(0.015625)"/>
      </defs>
      <use xlink:href="#ArialMT-59"/>
      <use xlink:href="#ArialMT-61" transform="translate(59.324219 0)"/>
      <use xlink:href="#ArialMT-6d" transform="translate(114.939453 0)"/>
     </g>
    </g>
   </g>
   <g id="text_13">
    <g clip-path="url(#pd23f0952cf)">
     <!-- Tree -->
     <g transform="translate(44.358711 132.483872) scale(0.09 -0.09)">
      <defs>
       <path id="ArialMT-54" d="M 1659 0 
L 1659 4041 
L 150 4041 
L 150 4581 
L 3781 4581 
L 3781 4041 
L 2266 4041 
L 2266 0 
L 1659 0 
z
" transform="scale(0.015625)"/>
      </defs>
      <use xlink:href="#ArialMT-54"/>
      <use xlink:href="#ArialMT-72" transform="translate(57.333984 0)"/>
      <use xlink:href="#ArialMT-65" transform="translate(90.634766 0)"/>
      <use xlink:href="#ArialMT-65" transform="translate(146.25 0)"/>
     </g>
    </g>
   </g>
   <g id="text_14">
    <g clip-path="url(#pd23f0952cf)">
     <!-- Oak -->
     <g transform="translate(27.080309 99.971481) scale(0.09 -0.09)">
      <defs>
       <path id="ArialMT-6b" d="M 425 0 
L 425 4581 
L 988 4581 
L 988 1969 
L 2319 3319 
L 3047 3319 
L 1778 2088 
L 3175 0 
L 2481 0 
L 1384 1697 
L 988 1316 
L 988 0 
L 425 0 
z
" transform="scale(0.015625)"/>
      </defs>
      <use xlink:href="#ArialMT-4f"/>
      <use xlink:href="#ArialMT-61" transform="translate(77.783203 0)"/>
      <use xlink:href="#ArialMT-6b" transform="translate(133.398438 0)"/>
     </g>
    </g>
   </g>
   <g id="text_15">
    <g clip-path="url(#pd23f0952cf)">
     <!-- Ash -->
     <g transform="translate(8.064337 143.612253) scale(0.09 -0.09)">
      <defs>
       <path id="ArialMT-68" d="M 422 0 
L 422 4581 
L 984 4581 
L 984 2938 
Q 1378 3394 1978 3394 
Q 2347 3394 2619 3248 
Q 2891 3103 3008 2847 
Q 3125 2591 3125 2103 
L 3125 0 
L 2563 0 
L 2563 2103 
Q 2563 2525 2380 2717 
Q 2197 2909 1863 2909 
Q 1613 2909 1392 2779 
Q 1172 2650 1078 2428 
Q 984 2206 984 1816 
L 984 0 
L 422 0 
z
" transform="scale(0.015625)"/>
      </defs>
      <use xlink:href="#ArialMT-41"/>
      <use xlink:href="#ArialMT-73" transform="translate(66.699219 0)"/>
      <use xlink:href="#ArialMT-68" transform="translate(116.699219 0)"/>
     </g>
    </g>
   </g>
   <g id="text_16">
    <g clip-path="url(#pd23f0952cf)">
     <!-- Object -->
     <g transform="translate(130.995 197.501135) scale(0.09 -0.09)">
      <defs>
       <path id="ArialMT-62" d="M 941 0 
L 419 0 
L 419 4581 
L 981 4581 
L 981 2947 
Q 1338 3394 1891 3394 
Q 2197 3394 2470 3270 
Q 2744 3147 2920 2923 
Q 3097 2700 3197 2384 
Q 3297 2069 3297 1709 
Q 3297 856 2875 390 
Q 2453 -75 1863 -75 
Q 1275 -75 941 416 
L 941 0 
z
M 934 1684 
Q 934 1088 1097 822 
Q 1363 388 1816 388 
Q 2184 388 2453 708 
Q 2722 1028 2722 1663 
Q 2722 2313 2464 2622 
Q 2206 2931 1841 2931 
Q 1472 2931 1203 2611 
Q 934 2291 934 1684 
z
" transform="scale(0.015625)"/>
       <path id="ArialMT-6a" d="M 419 3928 
L 419 4581 
L 981 4581 
L 981 3928 
L 419 3928 
z
M -294 -1288 
L -188 -809 
Q -19 -853 78 -853 
Q 250 -853 334 -739 
Q 419 -625 419 -169 
L 419 3319 
L 981 3319 
L 981 -181 
Q 981 -794 822 -1034 
Q 619 -1347 147 -1347 
Q -81 -1347 -294 -1288 
z
" transform="scale(0.015625)"/>
       <path id="ArialMT-63" d="M 2588 1216 
L 3141 1144 
Q 3050 572 2676 248 
Q 2303 -75 1759 -75 
Q 1078 -75 664 370 
Q 250 816 250 1647 
Q 250 2184 428 2587 
Q 606 2991 970 3192 
Q 1334 3394 1763 3394 
Q 2303 3394 2647 3120 
Q 2991 2847 3088 2344 
L 2541 2259 
Q 2463 2594 2264 2762 
Q 2066 2931 1784 2931 
Q 1359 2931 1093 2626 
Q 828 2322 828 1663 
Q 828 994 1084 691 
Q 1341 388 1753 388 
Q 2084 388 2306 591 
Q 2528 794 2588 1216 
z
" transform="scale(0.015625)"/>
      </defs>
      <use xlink:href="#ArialMT-4f"/>
      <use xlink:href="#ArialMT-62" transform="translate(77.783203 0)"/>
      <use xlink:href="#ArialMT-6a" transform="translate(133.398438 0)"/>
      <use xlink:href="#ArialMT-65" transform="translate(155.615234 0)"/>
      <use xlink:href="#ArialMT-63" transform="translate(211.230469 0)"/>
      <use xlink:href="#ArialMT-74" transform="translate(261.230469 0)"/>
     </g>
    </g>
   </g>
   <g id="text_17">
    <g clip-path="url(#pd23f0952cf)">
     <!-- Handy -->
     <g transform="translate(84.785999 209.979961) scale(0.09 -0.09)">
      <defs>
       <path id="ArialMT-48" d="M 513 0 
L 513 4581 
L 1119 4581 
L 1119 2700 
L 3500 2700 
L 3500 4581 
L 4106 4581 
L 4106 0 
L 3500 0 
L 3500 2159 
L 1119 2159 
L 1119 0 
L 513 0 
z
" transform="scale(0.015625)"/>
      </defs>
      <use xlink:href="#ArialMT-48"/>
      <use xlink:href="#ArialMT-61" transform="translate(72.216797 0)"/>
      <use xlink:href="#ArialMT-6e" transform="translate(127.832031 0)"/>
      <use xlink:href="#ArialMT-64" transform="translate(183.447266 0)"/>
      <use xlink:href="#ArialMT-79" transform="translate(239.0625 0)"/>
     </g>
    </g>
   </g>
   <g id="text_18">
    <g clip-path="url(#pd23f0952cf)">
     <!-- Tool -->
     <g transform="translate(45.189102 201.977066) scale(0.09 -0.09)">
      <use xlink:href="#ArialMT-54"/>
      <use xlink:href="#ArialMT-6f" transform="translate(49.958984 0)"/>
      <use xlink:href="#ArialMT-6f" transform="translate(105.574219 0)"/>
      <use xlink:href="#ArialMT-6c" transform="translate(161.189453 0)"/>
     </g>
    </g>
   </g>
   <g id="text_19">
    <g clip-path="url(#pd23f0952cf)">
     <!-- Axe -->
     <g transform="translate(8.064337 190.848684) scale(0.09 -0.09)">
      <defs>
       <path id="ArialMT-78" d="M 47 0 
L 1259 1725 
L 138 3319 
L 841 3319 
L 1350 2541 
Q 1494 2319 1581 2169 
Q 1719 2375 1834 2534 
L 2394 3319 
L 3066 3319 
L 1919 1756 
L 3153 0 
L 2463 0 
L 1781 1031 
L 1600 1309 
L 728 0 
L 47 0 
z
" transform="scale(0.015625)"/>
      </defs>
      <use xlink:href="#ArialMT-41"/>
      <use xlink:href="#ArialMT-78" transform="translate(66.699219 0)"/>
      <use xlink:href="#ArialMT-65" transform="translate(116.699219 0)"/>
     </g>
    </g>
   </g>
   <g id="text_20">
    <g clip-path="url(#pd23f0952cf)">
     <!-- Hoe -->
     <g transform="translate(27.078199 234.489456) scale(0.09 -0.09)">
      <use xlink:href="#ArialMT-48"/>
      <use xlink:href="#ArialMT-6f" transform="translate(72.216797 0)"/>
      <use xlink:href="#ArialMT-65" transform="translate(127.832031 0)"/>
     </g>
    </g>
   </g>
   <g id="text_21">
    <g clip-path="url(#pd23f0952cf)">
     <!-- Ware -->
     <g transform="translate(95.907484 251.116175) scale(0.09 -0.09)">
      <defs>
       <path id="ArialMT-57" d="M 1294 0 
L 78 4581 
L 700 4581 
L 1397 1578 
Q 1509 1106 1591 641 
Q 1766 1375 1797 1488 
L 2669 4581 
L 3400 4581 
L 4056 2263 
Q 4303 1400 4413 641 
Q 4500 1075 4641 1638 
L 5359 4581 
L 5969 4581 
L 4713 0 
L 4128 0 
L 3163 3491 
Q 3041 3928 3019 4028 
Q 2947 3713 2884 3491 
L 1913 0 
L 1294 0 
z
" transform="scale(0.015625)"/>
      </defs>
      <use xlink:href="#ArialMT-57"/>
      <use xlink:href="#ArialMT-61" transform="translate(90.634766 0)"/>
      <use xlink:href="#ArialMT-72" transform="translate(146.25 0)"/>
      <use xlink:href="#ArialMT-65" transform="translate(179.550781 0)"/>
     </g>
    </g>
   </g>
   <g id="text_22">
    <g clip-path="url(#pd23f0952cf)">
     <!-- Cup -->
     <g transform="translate(63.136269 267.945501) scale(0.09 -0.09)">
      <defs>
       <path id="ArialMT-70" d="M 422 -1272 
L 422 3319 
L 934 3319 
L 934 2888 
Q 1116 3141 1344 3267 
Q 1572 3394 1897 3394 
Q 2322 3394 2647 3175 
Q 2972 2956 3137 2557 
Q 3303 2159 3303 1684 
Q 3303 1175 3120 767 
Q 2938 359 2589 142 
Q 2241 -75 1856 -75 
Q 1575 -75 1351 44 
Q 1128 163 984 344 
L 984 -1272 
L 422 -1272 
z
M 931 1641 
Q 931 1000 1190 694 
Q 1450 388 1819 388 
Q 2194 388 2461 705 
Q 2728 1022 2728 1688 
Q 2728 2322 2467 2637 
Q 2206 2953 1844 2953 
Q 1484 2953 1207 2617 
Q 931 2281 931 1641 
z
" transform="scale(0.015625)"/>
      </defs>
      <use xlink:href="#ArialMT-43"/>
      <use xlink:href="#ArialMT-75" transform="translate(72.216797 0)"/>
      <use xlink:href="#ArialMT-70" transform="translate(127.832031 0)"/>
     </g>
    </g>
   </g>
   <g id="text_23">
    <g clip-path="url(#pd23f0952cf)">
     <!-- Pan -->
     <g transform="translate(110.49661 285.967257) scale(0.09 -0.09)">
      <use xlink:href="#ArialMT-50"/>
      <use xlink:href="#ArialMT-61" transform="translate(66.699219 0)"/>
      <use xlink:href="#ArialMT-6e" transform="translate(122.314453 0)"/>
     </g>
    </g>
   </g>
   <g id="text_24">
    <g clip-path="url(#pd23f0952cf)">
     <!-- Earth -->
     <g transform="translate(179.451892 210.032695) scale(0.09 -0.09)">
      <use xlink:href="#ArialMT-45"/>
      <use xlink:href="#ArialMT-61" transform="translate(66.699219 0)"/>
      <use xlink:href="#ArialMT-72" transform="translate(122.314453 0)"/>
      <use xlink:href="#ArialMT-74" transform="translate(155.615234 0)"/>
      <use xlink:href="#ArialMT-68" transform="translate(183.398438 0)"/>
     </g>
    </g>
   </g>
   <g id="text_25">
    <g clip-path="url(#pd23f0952cf)">
     <!-- Rock -->
     <g transform="translate(171.258219 251.116175) scale(0.09 -0.09)">
      <defs>
       <path id="ArialMT-52" d="M 503 0 
L 503 4581 
L 2534 4581 
Q 3147 4581 3465 4457 
Q 3784 4334 3975 4021 
Q 4166 3709 4166 3331 
Q 4166 2844 3850 2509 
Q 3534 2175 2875 2084 
Q 3116 1969 3241 1856 
Q 3506 1613 3744 1247 
L 4541 0 
L 3778 0 
L 3172 953 
Q 2906 1366 2734 1584 
Q 2563 1803 2427 1890 
Q 2291 1978 2150 2013 
Q 2047 2034 1813 2034 
L 1109 2034 
L 1109 0 
L 503 0 
z
M 1109 2559 
L 2413 2559 
Q 2828 2559 3062 2645 
Q 3297 2731 3419 2920 
Q 3541 3109 3541 3331 
Q 3541 3656 3305 3865 
Q 3069 4075 2559 4075 
L 1109 4075 
L 1109 2559 
z
" transform="scale(0.015625)"/>
      </defs>
      <use xlink:href="#ArialMT-52"/>
      <use xlink:href="#ArialMT-6f" transform="translate(72.216797 0)"/>
      <use xlink:href="#ArialMT-63" transform="translate(127.832031 0)"/>
      <use xlink:href="#ArialMT-6b" transform="translate(177.832031 0)"/>
     </g>
    </g>
   </g>
   <g id="text_26">
    <g clip-path="url(#pd23f0952cf)">
     <!-- Gem -->
     <g transform="translate(159.745968 285.967257) scale(0.09 -0.09)">
      <defs>
       <path id="ArialMT-47" d="M 2638 1797 
L 2638 2334 
L 4578 2338 
L 4578 638 
Q 4131 281 3656 101 
Q 3181 -78 2681 -78 
Q 2006 -78 1454 211 
Q 903 500 622 1047 
Q 341 1594 341 2269 
Q 341 2938 620 3517 
Q 900 4097 1425 4378 
Q 1950 4659 2634 4659 
Q 3131 4659 3532 4498 
Q 3934 4338 4162 4050 
Q 4391 3763 4509 3300 
L 3963 3150 
Q 3859 3500 3706 3700 
Q 3553 3900 3268 4020 
Q 2984 4141 2638 4141 
Q 2222 4141 1919 4014 
Q 1616 3888 1430 3681 
Q 1244 3475 1141 3228 
Q 966 2803 966 2306 
Q 966 1694 1177 1281 
Q 1388 869 1791 669 
Q 2194 469 2647 469 
Q 3041 469 3416 620 
Q 3791 772 3984 944 
L 3984 1797 
L 2638 1797 
z
" transform="scale(0.015625)"/>
      </defs>
      <use xlink:href="#ArialMT-47"/>
      <use xlink:href="#ArialMT-65" transform="translate(77.783203 0)"/>
      <use xlink:href="#ArialMT-6d" transform="translate(133.398438 0)"/>
     </g>
    </g>
   </g>
   <g id="text_27">
    <g clip-path="url(#pd23f0952cf)">
     <!-- Ore -->
     <g transform="translate(209.108106 267.890657) scale(0.09 -0.09)">
      <use xlink:href="#ArialMT-4f"/>
      <use xlink:href="#ArialMT-72" transform="translate(77.783203 0)"/>
      <use xlink:href="#ArialMT-65" transform="translate(111.083984 0)"/>
     </g>
    </g>
   </g>
   <g id="text_28">
    <g clip-path="url(#pd23f0952cf)">
     <!-- Water -->
     <g transform="translate(222.726133 201.977066) scale(0.09 -0.09)">
      <use xlink:href="#ArialMT-57"/>
      <use xlink:href="#ArialMT-61" transform="translate(90.634766 0)"/>
      <use xlink:href="#ArialMT-74" transform="translate(146.25 0)"/>
      <use xlink:href="#ArialMT-65" transform="translate(174.033203 0)"/>
      <use xlink:href="#ArialMT-72" transform="translate(229.648438 0)"/>
     </g>
    </g>
   </g>
   <g id="text_29">
    <g clip-path="url(#pd23f0952cf)">
     <!-- Bay -->
     <g transform="translate(244.913051 234.436722) scale(0.09 -0.09)">
      <use xlink:href="#ArialMT-42"/>
      <use xlink:href="#ArialMT-61" transform="translate(66.699219 0)"/>
      <use xlink:href="#ArialMT-79" transform="translate(122.314453 0)"/>
     </g>
    </g>
   </g>
   <g id="text_30">
    <g clip-path="url(#pd23f0952cf)">
     <!-- Sea -->
     <g transform="translate(264.175116 190.848684) scale(0.09 -0.09)">
      <defs>
       <path id="ArialMT-53" d="M 288 1472 
L 859 1522 
Q 900 1178 1048 958 
Q 1197 738 1509 602 
Q 1822 466 2213 466 
Q 2559 466 2825 569 
Q 3091 672 3220 851 
Q 3350 1031 3350 1244 
Q 3350 1459 3225 1620 
Q 3100 1781 2813 1891 
Q 2628 1963 1997 2114 
Q 1366 2266 1113 2400 
Q 784 2572 623 2826 
Q 463 3081 463 3397 
Q 463 3744 659 4045 
Q 856 4347 1234 4503 
Q 1613 4659 2075 4659 
Q 2584 4659 2973 4495 
Q 3363 4331 3572 4012 
Q 3781 3694 3797 3291 
L 3216 3247 
Q 3169 3681 2898 3903 
Q 2628 4125 2100 4125 
Q 1550 4125 1298 3923 
Q 1047 3722 1047 3438 
Q 1047 3191 1225 3031 
Q 1400 2872 2139 2705 
Q 2878 2538 3153 2413 
Q 3553 2228 3743 1945 
Q 3934 1663 3934 1294 
Q 3934 928 3725 604 
Q 3516 281 3123 101 
Q 2731 -78 2241 -78 
Q 1619 -78 1198 103 
Q 778 284 539 648 
Q 300 1013 288 1472 
z
" transform="scale(0.015625)"/>
      </defs>
      <use xlink:href="#ArialMT-53"/>
      <use xlink:href="#ArialMT-65" transform="translate(66.699219 0)"/>
      <use xlink:href="#ArialMT-61" transform="translate(122.314453 0)"/>
     </g>
    </g>
   </g>
   <g id="text_31">
    <!-- Semantic Hierarchy -->
    <g transform="translate(96.014219 11.007896) scale(0.11 -0.11)">
     <defs>
      <path id="ArialMT-20" transform="scale(0.015625)"/>
     </defs>
     <use xlink:href="#ArialMT-53"/>
     <use xlink:href="#ArialMT-65" transform="translate(66.699219 0)"/>
     <use xlink:href="#ArialMT-6d" transform="translate(122.314453 0)"/>
     <use xlink:href="#ArialMT-61" transform="translate(205.615234 0)"/>
     <use xlink:href="#ArialMT-6e" transform="translate(261.230469 0)"/>
     <use xlink:href="#ArialMT-74" transform="translate(316.845703 0)"/>
     <use xlink:href="#ArialMT-69" transform="translate(344.628906 0)"/>
     <use xlink:href="#ArialMT-63" transform="translate(366.845703 0)"/>
     <use xlink:href="#ArialMT-20" transform="translate(416.845703 0)"/>
     <use xlink:href="#ArialMT-48" transform="translate(444.628906 0)"/>
     <use xlink:href="#ArialMT-69" transform="translate(516.845703 0)"/>
     <use xlink:href="#ArialMT-65" transform="translate(539.0625 0)"/>
     <use xlink:href="#ArialMT-72" transform="translate(594.677734 0)"/>
     <use xlink:href="#ArialMT-61" transform="translate(627.978516 0)"/>
     <use xlink:href="#ArialMT-72" transform="translate(683.59375 0)"/>
     <use xlink:href="#ArialMT-63" transform="translate(716.894531 0)"/>
     <use xlink:href="#ArialMT-68" transform="translate(766.894531 0)"/>
     <use xlink:href="#ArialMT-79" transform="translate(822.509766 0)"/>
    </g>
   </g>
  </g>
 </g>
 <defs>
  <clipPath id="pd23f0952cf">
   <rect x="3.00024" y="16.007896" width="281.99952" height="297.791864"/>
  </clipPath>
 </defs>
</svg>
