<?xml version="1.0" encoding="utf-8" standalone="no"?>
<!DOCTYPE svg PUBLIC "-//W3C//DTD SVG 1.1//EN"
  "http://www.w3.org/Graphics/SVG/1.1/DTD/svg11.dtd">
<svg xmlns:xlink="http://www.w3.org/1999/xlink" width="187.2pt" height="187.2pt" viewBox="0 0 187.2 187.2" xmlns="http://www.w3.org/2000/svg" version="1.1">
 <metadata>
  <rdf:RDF xmlns:dc="http://purl.org/dc/elements/1.1/" xmlns:cc="http://creativecommons.org/ns#" xmlns:rdf="http://www.w3.org/1999/02/22-rdf-syntax-ns#">
   <cc:Work>
    <dc:type rdf:resource="http://purl.org/dc/dcmitype/StillImage"/>
    <dc:date>2025-07-07T10:41:05.635368</dc:date>
    <dc:format>image/svg+xml</dc:format>
    <dc:creator>
     <cc:Agent>
      <dc:title>Matplotlib v3.10.3, https://matplotlib.org/</dc:title>
     </cc:Agent>
    </dc:creator>
   </cc:Work>
  </rdf:RDF>
 </metadata>
 <defs>
  <style type="text/css">*{stroke-linejoin: round; stroke-linecap: butt}</style>
 </defs>
 <g id="figure_1">
  <g id="patch_1">
   <path d="M 0 187.2 
L 187.2 187.2 
L 187.2 0 
L 0 0 
z
" style="fill: #ffffff"/>
  </g>
  <g id="axes_1">
   <g id="patch_2">
    <path d="M 93.6 93.6 
Q 93.6 88.147359 93.6 83.812752 
" clip-path="url(#p4a240abad7)" style="fill: none; stroke: #000000; stroke-linecap: round"/>
    <path d="M 91.6 87.812752 
L 93.6 83.812752 
L 95.6 87.812752 
z
" clip-path="url(#p4a240abad7)" style="stroke: #000000; stroke-linecap: round"/>
   </g>
   <g id="patch_3">
    <path d="M 93.6 93.6 
Q 93.6 99.052641 93.6 103.387248 
" clip-path="url(#p4a240abad7)" style="fill: none; stroke: #000000; stroke-linecap: round"/>
    <path d="M 95.6 99.387248 
L 93.6 103.387248 
L 91.6 99.387248 
z
" clip-path="url(#p4a240abad7)" style="stroke: #000000; stroke-linecap: round"/>
   </g>
   <g id="patch_4">
    <path d="M 102.577165 70.713037 
Q 107.923653 69.147086 112.197183 67.895399 
" clip-path="url(#p4a240abad7)" style="fill: none; stroke: #000000; stroke-linecap: round"/>
    <path d="M 107.796281 67.100371 
L 112.197183 67.895399 
L 108.92062 70.939103 
z
" clip-path="url(#p4a240abad7)" style="stroke: #000000; stroke-linecap: round"/>
   </g>
   <g id="patch_5">
    <path d="M 84.622835 70.713037 
Q 79.276347 69.147086 75.002817 67.895399 
" clip-path="url(#p4a240abad7)" style="fill: none; stroke: #000000; stroke-linecap: round"/>
    <path d="M 78.27938 70.939103 
L 75.002817 67.895399 
L 79.403719 67.100371 
z
" clip-path="url(#p4a240abad7)" style="stroke: #000000; stroke-linecap: round"/>
   </g>
   <g id="patch_6">
    <path d="M 84.622835 116.486963 
Q 79.276347 118.052914 75.002817 119.304601 
" clip-path="url(#p4a240abad7)" style="fill: none; stroke: #000000; stroke-linecap: round"/>
    <path d="M 79.403719 120.099629 
L 75.002817 119.304601 
L 78.27938 116.260897 
z
" clip-path="url(#p4a240abad7)" style="stroke: #000000; stroke-linecap: round"/>
   </g>
   <g id="patch_7">
    <path d="M 102.577165 116.486963 
Q 107.923653 118.052914 112.197183 119.304601 
" clip-path="url(#p4a240abad7)" style="fill: none; stroke: #000000; stroke-linecap: round"/>
    <path d="M 108.92062 116.260897 
L 112.197183 119.304601 
L 107.796281 120.099629 
z
" clip-path="url(#p4a240abad7)" style="stroke: #000000; stroke-linecap: round"/>
   </g>
   <g id="patch_8">
    <path d="M 55.7708 120.448461 
Q 51.202585 119.552728 47.731511 118.872121 
" clip-path="url(#p4a240abad7)" style="fill: none; stroke: #000000; stroke-linecap: round"/>
    <path d="M 51.271935 121.60441 
L 47.731511 118.872121 
L 52.041597 117.679156 
z
" clip-path="url(#p4a240abad7)" style="stroke: #000000; stroke-linecap: round"/>
   </g>
   <g id="patch_9">
    <path d="M 66.751539 131.4292 
Q 67.647272 135.997415 68.327879 139.468489 
" clip-path="url(#p4a240abad7)" style="fill: none; stroke: #000000; stroke-linecap: round"/>
    <path d="M 69.520844 135.158403 
L 68.327879 139.468489 
L 65.59559 135.928065 
z
" clip-path="url(#p4a240abad7)" style="stroke: #000000; stroke-linecap: round"/>
   </g>
   <g id="patch_10">
    <path d="M 120.448461 131.4292 
Q 119.552728 135.997415 118.872121 139.468489 
" clip-path="url(#p4a240abad7)" style="fill: none; stroke: #000000; stroke-linecap: round"/>
    <path d="M 121.60441 135.928065 
L 118.872121 139.468489 
L 117.679156 135.158403 
z
" clip-path="url(#p4a240abad7)" style="stroke: #000000; stroke-linecap: round"/>
   </g>
   <g id="patch_11">
    <path d="M 131.4292 120.448461 
Q 135.997415 119.552728 139.468489 118.872121 
" clip-path="url(#p4a240abad7)" style="fill: none; stroke: #000000; stroke-linecap: round"/>
    <path d="M 135.158403 117.679156 
L 139.468489 118.872121 
L 135.928065 121.60441 
z
" clip-path="url(#p4a240abad7)" style="stroke: #000000; stroke-linecap: round"/>
   </g>
   <g id="patch_12">
    <path d="M 114.011744 158.656598 
Q 113.132293 161.410799 112.592928 163.099944 
" clip-path="url(#p4a240abad7)" style="fill: none; stroke: #000000; stroke-linecap: round"/>
    <path d="M 115.714882 159.897851 
L 112.592928 163.099944 
L 111.904426 158.681125 
z
" clip-path="url(#p4a240abad7)" style="stroke: #000000; stroke-linecap: round"/>
   </g>
   <g id="patch_13">
    <path d="M 125.16868 154.035244 
Q 127.738059 155.360893 129.313854 156.17391 
" clip-path="url(#p4a240abad7)" style="fill: none; stroke: #000000; stroke-linecap: round"/>
    <path d="M 126.676121 152.562488 
L 129.313854 156.17391 
L 124.842077 156.117243 
z
" clip-path="url(#p4a240abad7)" style="stroke: #000000; stroke-linecap: round"/>
   </g>
   <g id="patch_14">
    <path d="M 154.035244 125.16868 
Q 155.360893 127.738059 156.17391 129.313854 
" clip-path="url(#p4a240abad7)" style="fill: none; stroke: #000000; stroke-linecap: round"/>
    <path d="M 156.117243 124.842077 
L 156.17391 129.313854 
L 152.562488 126.676121 
z
" clip-path="url(#p4a240abad7)" style="stroke: #000000; stroke-linecap: round"/>
   </g>
   <g id="patch_15">
    <path d="M 158.656598 114.011744 
Q 161.410799 113.132293 163.099944 112.592928 
" clip-path="url(#p4a240abad7)" style="fill: none; stroke: #000000; stroke-linecap: round"/>
    <path d="M 158.681125 111.904426 
L 163.099944 112.592928 
L 159.897851 115.714882 
z
" clip-path="url(#p4a240abad7)" style="stroke: #000000; stroke-linecap: round"/>
   </g>
   <g id="patch_16">
    <path d="M 28.543402 114.011744 
Q 25.789201 113.132293 24.100056 112.592928 
" clip-path="url(#p4a240abad7)" style="fill: none; stroke: #000000; stroke-linecap: round"/>
    <path d="M 27.302149 115.714882 
L 24.100056 112.592928 
L 28.518875 111.904426 
z
" clip-path="url(#p4a240abad7)" style="stroke: #000000; stroke-linecap: round"/>
   </g>
   <g id="patch_17">
    <path d="M 33.164756 125.16868 
Q 31.839107 127.738059 31.02609 129.313854 
" clip-path="url(#p4a240abad7)" style="fill: none; stroke: #000000; stroke-linecap: round"/>
    <path d="M 34.637512 126.676121 
L 31.02609 129.313854 
L 31.082757 124.842077 
z
" clip-path="url(#p4a240abad7)" style="stroke: #000000; stroke-linecap: round"/>
   </g>
   <g id="patch_18">
    <path d="M 62.03132 154.035244 
Q 59.461941 155.360893 57.886146 156.17391 
" clip-path="url(#p4a240abad7)" style="fill: none; stroke: #000000; stroke-linecap: round"/>
    <path d="M 62.357923 156.117243 
L 57.886146 156.17391 
L 60.523879 152.562488 
z
" clip-path="url(#p4a240abad7)" style="stroke: #000000; stroke-linecap: round"/>
   </g>
   <g id="patch_19">
    <path d="M 73.188256 158.656598 
Q 74.067707 161.410799 74.607072 163.099944 
" clip-path="url(#p4a240abad7)" style="fill: none; stroke: #000000; stroke-linecap: round"/>
    <path d="M 75.295574 158.681125 
L 74.607072 163.099944 
L 71.485118 159.897851 
z
" clip-path="url(#p4a240abad7)" style="stroke: #000000; stroke-linecap: round"/>
   </g>
   <g id="patch_20">
    <path d="M 131.4292 66.751539 
Q 135.997415 67.647272 139.468489 68.327879 
" clip-path="url(#p4a240abad7)" style="fill: none; stroke: #000000; stroke-linecap: round"/>
    <path d="M 135.928065 65.59559 
L 139.468489 68.327879 
L 135.158403 69.520844 
z
" clip-path="url(#p4a240abad7)" style="stroke: #000000; stroke-linecap: round"/>
   </g>
   <g id="patch_21">
    <path d="M 120.448461 55.7708 
Q 119.552728 51.202585 118.872121 47.731511 
" clip-path="url(#p4a240abad7)" style="fill: none; stroke: #000000; stroke-linecap: round"/>
    <path d="M 117.679156 52.041597 
L 118.872121 47.731511 
L 121.60441 51.271935 
z
" clip-path="url(#p4a240abad7)" style="stroke: #000000; stroke-linecap: round"/>
   </g>
   <g id="patch_22">
    <path d="M 66.751539 55.7708 
Q 67.647272 51.202585 68.327879 47.731511 
" clip-path="url(#p4a240abad7)" style="fill: none; stroke: #000000; stroke-linecap: round"/>
    <path d="M 65.59559 51.271935 
L 68.327879 47.731511 
L 69.520844 52.041597 
z
" clip-path="url(#p4a240abad7)" style="stroke: #000000; stroke-linecap: round"/>
   </g>
   <g id="patch_23">
    <path d="M 55.7708 66.751539 
Q 51.202585 67.647272 47.731511 68.327879 
" clip-path="url(#p4a240abad7)" style="fill: none; stroke: #000000; stroke-linecap: round"/>
    <path d="M 52.041597 69.520844 
L 47.731511 68.327879 
L 51.271935 65.59559 
z
" clip-path="url(#p4a240abad7)" style="stroke: #000000; stroke-linecap: round"/>
   </g>
   <g id="patch_24">
    <path d="M 73.188256 28.543402 
Q 74.067707 25.789201 74.607072 24.100056 
" clip-path="url(#p4a240abad7)" style="fill: none; stroke: #000000; stroke-linecap: round"/>
    <path d="M 71.485118 27.302149 
L 74.607072 24.100056 
L 75.295574 28.518875 
z
" clip-path="url(#p4a240abad7)" style="stroke: #000000; stroke-linecap: round"/>
   </g>
   <g id="patch_25">
    <path d="M 62.03132 33.164756 
Q 59.461941 31.839107 57.886146 31.02609 
" clip-path="url(#p4a240abad7)" style="fill: none; stroke: #000000; stroke-linecap: round"/>
    <path d="M 60.523879 34.637512 
L 57.886146 31.02609 
L 62.357923 31.082757 
z
" clip-path="url(#p4a240abad7)" style="stroke: #000000; stroke-linecap: round"/>
   </g>
   <g id="patch_26">
    <path d="M 33.164756 62.03132 
Q 31.839107 59.461941 31.02609 57.886146 
" clip-path="url(#p4a240abad7)" style="fill: none; stroke: #000000; stroke-linecap: round"/>
    <path d="M 31.082757 62.357923 
L 31.02609 57.886146 
L 34.637512 60.523879 
z
" clip-path="url(#p4a240abad7)" style="stroke: #000000; stroke-linecap: round"/>
   </g>
   <g id="patch_27">
    <path d="M 28.543402 73.188256 
Q 25.789201 74.067707 24.100056 74.607072 
" clip-path="url(#p4a240abad7)" style="fill: none; stroke: #000000; stroke-linecap: round"/>
    <path d="M 28.518875 75.295574 
L 24.100056 74.607072 
L 27.302149 71.485118 
z
" clip-path="url(#p4a240abad7)" style="stroke: #000000; stroke-linecap: round"/>
   </g>
   <g id="patch_28">
    <path d="M 158.656598 73.188256 
Q 161.410799 74.067707 163.099944 74.607072 
" clip-path="url(#p4a240abad7)" style="fill: none; stroke: #000000; stroke-linecap: round"/>
    <path d="M 159.897851 71.485118 
L 163.099944 74.607072 
L 158.681125 75.295574 
z
" clip-path="url(#p4a240abad7)" style="stroke: #000000; stroke-linecap: round"/>
   </g>
   <g id="patch_29">
    <path d="M 154.035244 62.03132 
Q 155.360893 59.461941 156.17391 57.886146 
" clip-path="url(#p4a240abad7)" style="fill: none; stroke: #000000; stroke-linecap: round"/>
    <path d="M 152.562488 60.523879 
L 156.17391 57.886146 
L 156.117243 62.357923 
z
" clip-path="url(#p4a240abad7)" style="stroke: #000000; stroke-linecap: round"/>
   </g>
   <g id="patch_30">
    <path d="M 125.16868 33.164756 
Q 127.738059 31.839107 129.313854 31.02609 
" clip-path="url(#p4a240abad7)" style="fill: none; stroke: #000000; stroke-linecap: round"/>
    <path d="M 124.842077 31.082757 
L 129.313854 31.02609 
L 126.676121 34.637512 
z
" clip-path="url(#p4a240abad7)" style="stroke: #000000; stroke-linecap: round"/>
   </g>
   <g id="patch_31">
    <path d="M 114.011744 28.543402 
Q 113.132293 25.789201 112.592928 24.100056 
" clip-path="url(#p4a240abad7)" style="fill: none; stroke: #000000; stroke-linecap: round"/>
    <path d="M 111.904426 28.518875 
L 112.592928 24.100056 
L 115.714882 27.302149 
z
" clip-path="url(#p4a240abad7)" style="stroke: #000000; stroke-linecap: round"/>
   </g>
   <g id="PathCollection_1">
    <path d="M 93.6 93.6 
C 93.6 93.6 93.6 93.6 93.6 93.6 
C 93.6 93.6 93.6 93.6 93.6 93.6 
C 93.6 93.6 93.6 93.6 93.6 93.6 
C 93.6 93.6 93.6 93.6 93.6 93.6 
C 93.6 93.6 93.6 93.6 93.6 93.6 
C 93.6 93.6 93.6 93.6 93.6 93.6 
C 93.6 93.6 93.6 93.6 93.6 93.6 
C 93.6 93.6 93.6 93.6 93.6 93.6 
z
" clip-path="url(#p4a240abad7)" style="fill: #ffffff; stroke: #d65c00; stroke-width: 1.3"/>
    <path d="M 93.6 82.696531 
C 96.080748 82.696531 98.460225 81.710919 100.214378 79.956766 
C 101.968532 78.202612 102.954143 75.823135 102.954143 73.342387 
C 102.954143 70.861639 101.968532 68.482163 100.214378 66.728009 
C 98.460225 64.973855 96.080748 63.988244 93.6 63.988244 
C 91.119252 63.988244 88.739775 64.973855 86.985622 66.728009 
C 85.231468 68.482163 84.245857 70.861639 84.245857 73.342387 
C 84.245857 75.823135 85.231468 78.202612 86.985622 79.956766 
C 88.739775 81.710919 91.119252 82.696531 93.6 82.696531 
z
" clip-path="url(#p4a240abad7)" style="fill: #ffffff; stroke: #d65c00; stroke-width: 1.3"/>
    <path d="M 93.6 123.211756 
C 96.080748 123.211756 98.460225 122.226145 100.214378 120.471991 
C 101.968532 118.717837 102.954143 116.338361 102.954143 113.857613 
C 102.954143 111.376865 101.968532 108.997388 100.214378 107.243234 
C 98.460225 105.489081 96.080748 104.503469 93.6 104.503469 
C 91.119252 104.503469 88.739775 105.489081 86.985622 107.243234 
C 85.231468 108.997388 84.245857 111.376865 84.245857 113.857613 
C 84.245857 116.338361 85.231468 118.717837 86.985622 120.471991 
C 88.739775 122.226145 91.119252 123.211756 93.6 123.211756 
z
" clip-path="url(#p4a240abad7)" style="fill: #ffffff; stroke: #d65c00; stroke-width: 1.3"/>
    <path d="M 122.248591 74.305553 
C 124.729339 74.305553 127.108815 73.319941 128.862969 71.565788 
C 130.617123 69.811634 131.602734 67.432157 131.602734 64.951409 
C 131.602734 62.470661 130.617123 60.091185 128.862969 58.337031 
C 127.108815 56.582877 124.729339 55.597266 122.248591 55.597266 
C 119.767843 55.597266 117.388366 56.582877 115.634212 58.337031 
C 113.880059 60.091185 112.894447 62.470661 112.894447 64.951409 
C 112.894447 67.432157 113.880059 69.811634 115.634212 71.565788 
C 117.388366 73.319941 119.767843 74.305553 122.248591 74.305553 
z
" clip-path="url(#p4a240abad7)" style="fill: #ffffff; stroke: #efe440; stroke-width: 1.3"/>
    <path d="M 64.951409 74.305553 
C 67.432157 74.305553 69.811634 73.319941 71.565788 71.565788 
C 73.319941 69.811634 74.305553 67.432157 74.305553 64.951409 
C 74.305553 62.470661 73.319941 60.091185 71.565788 58.337031 
C 69.811634 56.582877 67.432157 55.597266 64.951409 55.597266 
C 62.470661 55.597266 60.091185 56.582877 58.337031 58.337031 
C 56.582877 60.091185 55.597266 62.470661 55.597266 64.951409 
C 55.597266 67.432157 56.582877 69.811634 58.337031 71.565788 
C 60.091185 73.319941 62.470661 74.305553 64.951409 74.305553 
z
" clip-path="url(#p4a240abad7)" style="fill: #ffffff; stroke: #efe440; stroke-width: 1.3"/>
    <path d="M 64.951409 131.602734 
C 67.432157 131.602734 69.811634 130.617123 71.565788 128.862969 
C 73.319941 127.108815 74.305553 124.729339 74.305553 122.248591 
C 74.305553 119.767843 73.319941 117.388366 71.565788 115.634212 
C 69.811634 113.880059 67.432157 112.894447 64.951409 112.894447 
C 62.470661 112.894447 60.091185 113.880059 58.337031 115.634212 
C 56.582877 117.388366 55.597266 119.767843 55.597266 122.248591 
C 55.597266 124.729339 56.582877 127.108815 58.337031 128.862969 
C 60.091185 130.617123 62.470661 131.602734 64.951409 131.602734 
z
" clip-path="url(#p4a240abad7)" style="fill: #ffffff; stroke: #efe440; stroke-width: 1.3"/>
    <path d="M 122.248591 131.602734 
C 124.729339 131.602734 127.108815 130.617123 128.862969 128.862969 
C 130.617123 127.108815 131.602734 124.729339 131.602734 122.248591 
C 131.602734 119.767843 130.617123 117.388366 128.862969 115.634212 
C 127.108815 113.880059 124.729339 112.894447 122.248591 112.894447 
C 119.767843 112.894447 117.388366 113.880059 115.634212 115.634212 
C 113.880059 117.388366 112.894447 119.767843 112.894447 122.248591 
C 112.894447 124.729339 113.880059 127.108815 115.634212 128.862969 
C 117.388366 130.617123 119.767843 131.602734 122.248591 131.602734 
z
" clip-path="url(#p4a240abad7)" style="fill: #ffffff; stroke: #efe440; stroke-width: 1.3"/>
    <path d="M 149.746781 79.697385 
C 152.227529 79.697385 154.607006 78.711774 156.36116 76.95762 
C 158.115313 75.203466 159.100925 72.823989 159.100925 70.343242 
C 159.100925 67.862494 158.115313 65.483017 156.36116 63.728863 
C 154.607006 61.97471 152.227529 60.989098 149.746781 60.989098 
C 147.266034 60.989098 144.886557 61.97471 143.132403 63.728863 
C 141.37825 65.483017 140.392638 67.862494 140.392638 70.343242 
C 140.392638 72.823989 141.37825 75.203466 143.132403 76.95762 
C 144.886557 78.711774 147.266034 79.697385 149.746781 79.697385 
z
" clip-path="url(#p4a240abad7)" style="fill: #ffffff; stroke: #009e73; stroke-width: 1.3"/>
    <path d="M 116.856758 46.807362 
C 119.337506 46.807362 121.716983 45.82175 123.471137 44.067597 
C 125.22529 42.313443 126.210902 39.933966 126.210902 37.453219 
C 126.210902 34.972471 125.22529 32.592994 123.471137 30.83884 
C 121.716983 29.084687 119.337506 28.099075 116.856758 28.099075 
C 114.376011 28.099075 111.996534 29.084687 110.24238 30.83884 
C 108.488226 32.592994 107.502615 34.972471 107.502615 37.453219 
C 107.502615 39.933966 108.488226 42.313443 110.24238 44.067597 
C 111.996534 45.82175 114.376011 46.807362 116.856758 46.807362 
z
" clip-path="url(#p4a240abad7)" style="fill: #ffffff; stroke: #009e73; stroke-width: 1.3"/>
    <path d="M 70.343242 46.807362 
C 72.823989 46.807362 75.203466 45.82175 76.95762 44.067597 
C 78.711774 42.313443 79.697385 39.933966 79.697385 37.453219 
C 79.697385 34.972471 78.711774 32.592994 76.95762 30.83884 
C 75.203466 29.084687 72.823989 28.099075 70.343242 28.099075 
C 67.862494 28.099075 65.483017 29.084687 63.728863 30.83884 
C 61.97471 32.592994 60.989098 34.972471 60.989098 37.453219 
C 60.989098 39.933966 61.97471 42.313443 63.728863 44.067597 
C 65.483017 45.82175 67.862494 46.807362 70.343242 46.807362 
z
" clip-path="url(#p4a240abad7)" style="fill: #ffffff; stroke: #009e73; stroke-width: 1.3"/>
    <path d="M 37.453219 79.697385 
C 39.933966 79.697385 42.313443 78.711774 44.067597 76.95762 
C 45.82175 75.203466 46.807362 72.823989 46.807362 70.343242 
C 46.807362 67.862494 45.82175 65.483017 44.067597 63.728863 
C 42.313443 61.97471 39.933966 60.989098 37.453219 60.989098 
C 34.972471 60.989098 32.592994 61.97471 30.83884 63.728863 
C 29.084687 65.483017 28.099075 67.862494 28.099075 70.343242 
C 28.099075 72.823989 29.084687 75.203466 30.83884 76.95762 
C 32.592994 78.711774 34.972471 79.697385 37.453219 79.697385 
z
" clip-path="url(#p4a240abad7)" style="fill: #ffffff; stroke: #009e73; stroke-width: 1.3"/>
    <path d="M 37.453219 126.210902 
C 39.933966 126.210902 42.313443 125.22529 44.067597 123.471137 
C 45.82175 121.716983 46.807362 119.337506 46.807362 116.856758 
C 46.807362 114.376011 45.82175 111.996534 44.067597 110.24238 
C 42.313443 108.488226 39.933966 107.502615 37.453219 107.502615 
C 34.972471 107.502615 32.592994 108.488226 30.83884 110.24238 
C 29.084687 111.996534 28.099075 114.376011 28.099075 116.856758 
C 28.099075 119.337506 29.084687 121.716983 30.83884 123.471137 
C 32.592994 125.22529 34.972471 126.210902 37.453219 126.210902 
z
" clip-path="url(#p4a240abad7)" style="fill: #ffffff; stroke: #009e73; stroke-width: 1.3"/>
    <path d="M 70.343242 159.100925 
C 72.823989 159.100925 75.203466 158.115313 76.95762 156.36116 
C 78.711774 154.607006 79.697385 152.227529 79.697385 149.746781 
C 79.697385 147.266034 78.711774 144.886557 76.95762 143.132403 
C 75.203466 141.37825 72.823989 140.392638 70.343242 140.392638 
C 67.862494 140.392638 65.483017 141.37825 63.728863 143.132403 
C 61.97471 144.886557 60.989098 147.266034 60.989098 149.746781 
C 60.989098 152.227529 61.97471 154.607006 63.728863 156.36116 
C 65.483017 158.115313 67.862494 159.100925 70.343242 159.100925 
z
" clip-path="url(#p4a240abad7)" style="fill: #ffffff; stroke: #009e73; stroke-width: 1.3"/>
    <path d="M 116.856758 159.100925 
C 119.337506 159.100925 121.716983 158.115313 123.471137 156.36116 
C 125.22529 154.607006 126.210902 152.227529 126.210902 149.746781 
C 126.210902 147.266034 125.22529 144.886557 123.471137 143.132403 
C 121.716983 141.37825 119.337506 140.392638 116.856758 140.392638 
C 114.376011 140.392638 111.996534 141.37825 110.24238 143.132403 
C 108.488226 144.886557 107.502615 147.266034 107.502615 149.746781 
C 107.502615 152.227529 108.488226 154.607006 110.24238 156.36116 
C 111.996534 158.115313 114.376011 159.100925 116.856758 159.100925 
z
" clip-path="url(#p4a240abad7)" style="fill: #ffffff; stroke: #009e73; stroke-width: 1.3"/>
    <path d="M 149.746781 126.210902 
C 152.227529 126.210902 154.607006 125.22529 156.36116 123.471137 
C 158.115313 121.716983 159.100925 119.337506 159.100925 116.856758 
C 159.100925 114.376011 158.115313 111.996534 156.36116 110.24238 
C 154.607006 108.488226 152.227529 107.502615 149.746781 107.502615 
C 147.266034 107.502615 144.886557 108.488226 143.132403 110.24238 
C 141.37825 111.996534 140.392638 114.376011 140.392638 116.856758 
C 140.392638 119.337506 141.37825 121.716983 143.132403 123.471137 
C 144.886557 125.22529 147.266034 126.210902 149.746781 126.210902 
z
" clip-path="url(#p4a240abad7)" style="fill: #ffffff; stroke: #009e73; stroke-width: 1.3"/>
    <path d="M 173.073474 87.145887 
C 175.554222 87.145887 177.933698 86.160275 179.687852 84.406121 
C 181.442006 82.651968 182.427617 80.272491 182.427617 77.791743 
C 182.427617 75.310995 181.442006 72.931519 179.687852 71.177365 
C 177.933698 69.423211 175.554222 68.4376 173.073474 68.4376 
C 170.592726 68.4376 168.213249 69.423211 166.459095 71.177365 
C 164.704942 72.931519 163.71933 75.310995 163.71933 77.791743 
C 163.71933 80.272491 164.704942 82.651968 166.459095 84.406121 
C 168.213249 86.160275 170.592726 87.145887 173.073474 87.145887 
z
" clip-path="url(#p4a240abad7)" style="fill: #ffffff; stroke: #0071b2; stroke-width: 1.3"/>
    <path d="M 160.974358 57.936037 
C 163.455106 57.936037 165.834582 56.950425 167.588736 55.196272 
C 169.34289 53.442118 170.328501 51.062641 170.328501 48.581893 
C 170.328501 46.101146 169.34289 43.721669 167.588736 41.967515 
C 165.834582 40.213362 163.455106 39.22775 160.974358 39.22775 
C 158.49361 39.22775 156.114133 40.213362 154.359979 41.967515 
C 152.605826 43.721669 151.620214 46.101146 151.620214 48.581893 
C 151.620214 51.062641 152.605826 53.442118 154.359979 55.196272 
C 156.114133 56.950425 158.49361 57.936037 160.974358 57.936037 
z
" clip-path="url(#p4a240abad7)" style="fill: #ffffff; stroke: #0071b2; stroke-width: 1.3"/>
    <path d="M 138.618107 35.579786 
C 141.098854 35.579786 143.478331 34.594174 145.232485 32.840021 
C 146.986638 31.085867 147.97225 28.70639 147.97225 26.225642 
C 147.97225 23.744894 146.986638 21.365418 145.232485 19.611264 
C 143.478331 17.85711 141.098854 16.871499 138.618107 16.871499 
C 136.137359 16.871499 133.757882 17.85711 132.003728 19.611264 
C 130.249575 21.365418 129.263963 23.744894 129.263963 26.225642 
C 129.263963 28.70639 130.249575 31.085867 132.003728 32.840021 
C 133.757882 34.594174 136.137359 35.579786 138.618107 35.579786 
z
" clip-path="url(#p4a240abad7)" style="fill: #ffffff; stroke: #0071b2; stroke-width: 1.3"/>
    <path d="M 109.408257 23.48067 
C 111.889005 23.48067 114.268481 22.495058 116.022635 20.740905 
C 117.776789 18.986751 118.7624 16.607274 118.7624 14.126526 
C 118.7624 11.645778 117.776789 9.266302 116.022635 7.512148 
C 114.268481 5.757994 111.889005 4.772383 109.408257 4.772383 
C 106.927509 4.772383 104.548032 5.757994 102.793879 7.512148 
C 101.039725 9.266302 100.054113 11.645778 100.054113 14.126526 
C 100.054113 16.607274 101.039725 18.986751 102.793879 20.740905 
C 104.548032 22.495058 106.927509 23.48067 109.408257 23.48067 
z
" clip-path="url(#p4a240abad7)" style="fill: #ffffff; stroke: #0071b2; stroke-width: 1.3"/>
    <path d="M 77.791743 23.48067 
C 80.272491 23.48067 82.651968 22.495058 84.406121 20.740905 
C 86.160275 18.986751 87.145887 16.607274 87.145887 14.126526 
C 87.145887 11.645778 86.160275 9.266302 84.406121 7.512148 
C 82.651968 5.757994 80.272491 4.772383 77.791743 4.772383 
C 75.310995 4.772383 72.931519 5.757994 71.177365 7.512148 
C 69.423211 9.266302 68.4376 11.645778 68.4376 14.126526 
C 68.4376 16.607274 69.423211 18.986751 71.177365 20.740905 
C 72.931519 22.495058 75.310995 23.48067 77.791743 23.48067 
z
" clip-path="url(#p4a240abad7)" style="fill: #ffffff; stroke: #0071b2; stroke-width: 1.3"/>
    <path d="M 48.581893 35.579786 
C 51.062641 35.579786 53.442118 34.594174 55.196272 32.840021 
C 56.950425 31.085867 57.936037 28.70639 57.936037 26.225642 
C 57.936037 23.744894 56.950425 21.365418 55.196272 19.611264 
C 53.442118 17.85711 51.062641 16.871499 48.581893 16.871499 
C 46.101146 16.871499 43.721669 17.85711 41.967515 19.611264 
C 40.213362 21.365418 39.22775 23.744894 39.22775 26.225642 
C 39.22775 28.70639 40.213362 31.085867 41.967515 32.840021 
C 43.721669 34.594174 46.101146 35.579786 48.581893 35.579786 
z
" clip-path="url(#p4a240abad7)" style="fill: #ffffff; stroke: #0071b2; stroke-width: 1.3"/>
    <path d="M 26.225642 57.936037 
C 28.70639 57.936037 31.085867 56.950425 32.840021 55.196272 
C 34.594174 53.442118 35.579786 51.062641 35.579786 48.581893 
C 35.579786 46.101146 34.594174 43.721669 32.840021 41.967515 
C 31.085867 40.213362 28.70639 39.22775 26.225642 39.22775 
C 23.744894 39.22775 21.365418 40.213362 19.611264 41.967515 
C 17.85711 43.721669 16.871499 46.101146 16.871499 48.581893 
C 16.871499 51.062641 17.85711 53.442118 19.611264 55.196272 
C 21.365418 56.950425 23.744894 57.936037 26.225642 57.936037 
z
" clip-path="url(#p4a240abad7)" style="fill: #ffffff; stroke: #0071b2; stroke-width: 1.3"/>
    <path d="M 14.126526 87.145887 
C 16.607274 87.145887 18.986751 86.160275 20.740905 84.406121 
C 22.495058 82.651968 23.48067 80.272491 23.48067 77.791743 
C 23.48067 75.310995 22.495058 72.931519 20.740905 71.177365 
C 18.986751 69.423211 16.607274 68.4376 14.126526 68.4376 
C 11.645778 68.4376 9.266302 69.423211 7.512148 71.177365 
C 5.757994 72.931519 4.772383 75.310995 4.772383 77.791743 
C 4.772383 80.272491 5.757994 82.651968 7.512148 84.406121 
C 9.266302 86.160275 11.645778 87.145887 14.126526 87.145887 
z
" clip-path="url(#p4a240abad7)" style="fill: #ffffff; stroke: #0071b2; stroke-width: 1.3"/>
    <path d="M 14.126526 118.7624 
C 16.607274 118.7624 18.986751 117.776789 20.740905 116.022635 
C 22.495058 114.268481 23.48067 111.889005 23.48067 109.408257 
C 23.48067 106.927509 22.495058 104.548032 20.740905 102.793879 
C 18.986751 101.039725 16.607274 100.054113 14.126526 100.054113 
C 11.645778 100.054113 9.266302 101.039725 7.512148 102.793879 
C 5.757994 104.548032 4.772383 106.927509 4.772383 109.408257 
C 4.772383 111.889005 5.757994 114.268481 7.512148 116.022635 
C 9.266302 117.776789 11.645778 118.7624 14.126526 118.7624 
z
" clip-path="url(#p4a240abad7)" style="fill: #ffffff; stroke: #0071b2; stroke-width: 1.3"/>
    <path d="M 26.225642 147.97225 
C 28.70639 147.97225 31.085867 146.986638 32.840021 145.232485 
C 34.594174 143.478331 35.579786 141.098854 35.579786 138.618107 
C 35.579786 136.137359 34.594174 133.757882 32.840021 132.003728 
C 31.085867 130.249575 28.70639 129.263963 26.225642 129.263963 
C 23.744894 129.263963 21.365418 130.249575 19.611264 132.003728 
C 17.85711 133.757882 16.871499 136.137359 16.871499 138.618107 
C 16.871499 141.098854 17.85711 143.478331 19.611264 145.232485 
C 21.365418 146.986638 23.744894 147.97225 26.225642 147.97225 
z
" clip-path="url(#p4a240abad7)" style="fill: #ffffff; stroke: #0071b2; stroke-width: 1.3"/>
    <path d="M 48.581893 170.328501 
C 51.062641 170.328501 53.442118 169.34289 55.196272 167.588736 
C 56.950425 165.834582 57.936037 163.455106 57.936037 160.974358 
C 57.936037 158.49361 56.950425 156.114133 55.196272 154.359979 
C 53.442118 152.605826 51.062641 151.620214 48.581893 151.620214 
C 46.101146 151.620214 43.721669 152.605826 41.967515 154.359979 
C 40.213362 156.114133 39.22775 158.49361 39.22775 160.974358 
C 39.22775 163.455106 40.213362 165.834582 41.967515 167.588736 
C 43.721669 169.34289 46.101146 170.328501 48.581893 170.328501 
z
" clip-path="url(#p4a240abad7)" style="fill: #ffffff; stroke: #0071b2; stroke-width: 1.3"/>
    <path d="M 77.791743 182.427617 
C 80.272491 182.427617 82.651968 181.442006 84.406121 179.687852 
C 86.160275 177.933698 87.145887 175.554222 87.145887 173.073474 
C 87.145887 170.592726 86.160275 168.213249 84.406121 166.459095 
C 82.651968 164.704942 80.272491 163.71933 77.791743 163.71933 
C 75.310995 163.71933 72.931519 164.704942 71.177365 166.459095 
C 69.423211 168.213249 68.4376 170.592726 68.4376 173.073474 
C 68.4376 175.554222 69.423211 177.933698 71.177365 179.687852 
C 72.931519 181.442006 75.310995 182.427617 77.791743 182.427617 
z
" clip-path="url(#p4a240abad7)" style="fill: #ffffff; stroke: #0071b2; stroke-width: 1.3"/>
    <path d="M 109.408257 182.427617 
C 111.889005 182.427617 114.268481 181.442006 116.022635 179.687852 
C 117.776789 177.933698 118.7624 175.554222 118.7624 173.073474 
C 118.7624 170.592726 117.776789 168.213249 116.022635 166.459095 
C 114.268481 164.704942 111.889005 163.71933 109.408257 163.71933 
C 106.927509 163.71933 104.548032 164.704942 102.793879 166.459095 
C 101.039725 168.213249 100.054113 170.592726 100.054113 173.073474 
C 100.054113 175.554222 101.039725 177.933698 102.793879 179.687852 
C 104.548032 181.442006 106.927509 182.427617 109.408257 182.427617 
z
" clip-path="url(#p4a240abad7)" style="fill: #ffffff; stroke: #0071b2; stroke-width: 1.3"/>
    <path d="M 138.618107 170.328501 
C 141.098854 170.328501 143.478331 169.34289 145.232485 167.588736 
C 146.986638 165.834582 147.97225 163.455106 147.97225 160.974358 
C 147.97225 158.49361 146.986638 156.114133 145.232485 154.359979 
C 143.478331 152.605826 141.098854 151.620214 138.618107 151.620214 
C 136.137359 151.620214 133.757882 152.605826 132.003728 154.359979 
C 130.249575 156.114133 129.263963 158.49361 129.263963 160.974358 
C 129.263963 163.455106 130.249575 165.834582 132.003728 167.588736 
C 133.757882 169.34289 136.137359 170.328501 138.618107 170.328501 
z
" clip-path="url(#p4a240abad7)" style="fill: #ffffff; stroke: #0071b2; stroke-width: 1.3"/>
    <path d="M 160.974358 147.97225 
C 163.455106 147.97225 165.834582 146.986638 167.588736 145.232485 
C 169.34289 143.478331 170.328501 141.098854 170.328501 138.618107 
C 170.328501 136.137359 169.34289 133.757882 167.588736 132.003728 
C 165.834582 130.249575 163.455106 129.263963 160.974358 129.263963 
C 158.49361 129.263963 156.114133 130.249575 154.359979 132.003728 
C 152.605826 133.757882 151.620214 136.137359 151.620214 138.618107 
C 151.620214 141.098854 152.605826 143.478331 154.359979 145.232485 
C 156.114133 146.986638 158.49361 147.97225 160.974358 147.97225 
z
" clip-path="url(#p4a240abad7)" style="fill: #ffffff; stroke: #0071b2; stroke-width: 1.3"/>
    <path d="M 173.073474 118.7624 
C 175.554222 118.7624 177.933698 117.776789 179.687852 116.022635 
C 181.442006 114.268481 182.427617 111.889005 182.427617 109.408257 
C 182.427617 106.927509 181.442006 104.548032 179.687852 102.793879 
C 177.933698 101.039725 175.554222 100.054113 173.073474 100.054113 
C 170.592726 100.054113 168.213249 101.039725 166.459095 102.793879 
C 164.704942 104.548032 163.71933 106.927509 163.71933 109.408257 
C 163.71933 111.889005 164.704942 114.268481 166.459095 116.022635 
C 168.213249 117.776789 170.592726 118.7624 173.073474 118.7624 
z
" clip-path="url(#p4a240abad7)" style="fill: #ffffff; stroke: #0071b2; stroke-width: 1.3"/>
   </g>
   <g id="text_1">
    <g clip-path="url(#p4a240abad7)">
     <!-- Alive -->
     <g transform="translate(85.235 75.156918) scale(0.07 -0.07)">
      <defs>
       <path id="Arial-BoldMT-41" d="M 4597 0 
L 3591 0 
L 3191 1041 
L 1359 1041 
L 981 0 
L 0 0 
L 1784 4581 
L 2763 4581 
L 4597 0 
z
M 2894 1813 
L 2263 3513 
L 1644 1813 
L 2894 1813 
z
" transform="scale(0.015625)"/>
       <path id="Arial-BoldMT-6c" d="M 459 0 
L 459 4581 
L 1338 4581 
L 1338 0 
L 459 0 
z
" transform="scale(0.015625)"/>
       <path id="Arial-BoldMT-69" d="M 459 3769 
L 459 4581 
L 1338 4581 
L 1338 3769 
L 459 3769 
z
M 459 0 
L 459 3319 
L 1338 3319 
L 1338 0 
L 459 0 
z
" transform="scale(0.015625)"/>
       <path id="Arial-BoldMT-76" d="M 1372 0 
L 34 3319 
L 956 3319 
L 1581 1625 
L 1763 1059 
Q 1834 1275 1853 1344 
Q 1897 1484 1947 1625 
L 2578 3319 
L 3481 3319 
L 2163 0 
L 1372 0 
z
" transform="scale(0.015625)"/>
       <path id="Arial-BoldMT-65" d="M 2381 1056 
L 3256 909 
Q 3088 428 2723 176 
Q 2359 -75 1813 -75 
Q 947 -75 531 491 
Q 203 944 203 1634 
Q 203 2459 634 2926 
Q 1066 3394 1725 3394 
Q 2466 3394 2894 2905 
Q 3322 2416 3303 1406 
L 1103 1406 
Q 1113 1016 1316 798 
Q 1519 581 1822 581 
Q 2028 581 2168 693 
Q 2309 806 2381 1056 
z
M 2431 1944 
Q 2422 2325 2234 2523 
Q 2047 2722 1778 2722 
Q 1491 2722 1303 2513 
Q 1116 2303 1119 1944 
L 2431 1944 
z
" transform="scale(0.015625)"/>
      </defs>
      <use xlink:href="#Arial-BoldMT-41"/>
      <use xlink:href="#Arial-BoldMT-6c" transform="translate(72.216797 0)"/>
      <use xlink:href="#Arial-BoldMT-69" transform="translate(100 0)"/>
      <use xlink:href="#Arial-BoldMT-76" transform="translate(127.783203 0)"/>
      <use xlink:href="#Arial-BoldMT-65" transform="translate(183.398438 0)"/>
     </g>
    </g>
   </g>
   <g id="text_2">
    <g clip-path="url(#p4a240abad7)">
     <!-- Item -->
     <g transform="translate(86.403672 115.672144) scale(0.07 -0.07)">
      <defs>
       <path id="Arial-BoldMT-49" d="M 438 0 
L 438 4581 
L 1363 4581 
L 1363 0 
L 438 0 
z
" transform="scale(0.015625)"/>
       <path id="Arial-BoldMT-74" d="M 1981 3319 
L 1981 2619 
L 1381 2619 
L 1381 1281 
Q 1381 875 1398 808 
Q 1416 741 1477 697 
Q 1538 653 1625 653 
Q 1747 653 1978 738 
L 2053 56 
Q 1747 -75 1359 -75 
Q 1122 -75 931 4 
Q 741 84 652 211 
Q 563 338 528 553 
Q 500 706 500 1172 
L 500 2619 
L 97 2619 
L 97 3319 
L 500 3319 
L 500 3978 
L 1381 4491 
L 1381 3319 
L 1981 3319 
z
" transform="scale(0.015625)"/>
       <path id="Arial-BoldMT-6d" d="M 394 3319 
L 1203 3319 
L 1203 2866 
Q 1638 3394 2238 3394 
Q 2556 3394 2790 3262 
Q 3025 3131 3175 2866 
Q 3394 3131 3647 3262 
Q 3900 3394 4188 3394 
Q 4553 3394 4806 3245 
Q 5059 3097 5184 2809 
Q 5275 2597 5275 2122 
L 5275 0 
L 4397 0 
L 4397 1897 
Q 4397 2391 4306 2534 
Q 4184 2722 3931 2722 
Q 3747 2722 3584 2609 
Q 3422 2497 3350 2280 
Q 3278 2063 3278 1594 
L 3278 0 
L 2400 0 
L 2400 1819 
Q 2400 2303 2353 2443 
Q 2306 2584 2207 2653 
Q 2109 2722 1941 2722 
Q 1738 2722 1575 2612 
Q 1413 2503 1342 2297 
Q 1272 2091 1272 1613 
L 1272 0 
L 394 0 
L 394 3319 
z
" transform="scale(0.015625)"/>
      </defs>
      <use xlink:href="#Arial-BoldMT-49"/>
      <use xlink:href="#Arial-BoldMT-74" transform="translate(27.783203 0)"/>
      <use xlink:href="#Arial-BoldMT-65" transform="translate(61.083984 0)"/>
      <use xlink:href="#Arial-BoldMT-6d" transform="translate(116.699219 0)"/>
     </g>
    </g>
   </g>
   <g id="text_3">
    <g clip-path="url(#p4a240abad7)">
     <!-- Use -->
     <g transform="translate(58.531097 124.063122) scale(0.07 -0.07)">
      <defs>
       <path id="Arial-BoldMT-55" d="M 459 4581 
L 1384 4581 
L 1384 2100 
Q 1384 1509 1419 1334 
Q 1478 1053 1701 883 
Q 1925 713 2313 713 
Q 2706 713 2906 873 
Q 3106 1034 3147 1268 
Q 3188 1503 3188 2047 
L 3188 4581 
L 4113 4581 
L 4113 2175 
Q 4113 1350 4038 1009 
Q 3963 669 3761 434 
Q 3559 200 3221 61 
Q 2884 -78 2341 -78 
Q 1684 -78 1345 73 
Q 1006 225 809 467 
Q 613 709 550 975 
Q 459 1369 459 2138 
L 459 4581 
z
" transform="scale(0.015625)"/>
       <path id="Arial-BoldMT-73" d="M 150 947 
L 1031 1081 
Q 1088 825 1259 692 
Q 1431 559 1741 559 
Q 2081 559 2253 684 
Q 2369 772 2369 919 
Q 2369 1019 2306 1084 
Q 2241 1147 2013 1200 
Q 950 1434 666 1628 
Q 272 1897 272 2375 
Q 272 2806 612 3100 
Q 953 3394 1669 3394 
Q 2350 3394 2681 3172 
Q 3013 2950 3138 2516 
L 2309 2363 
Q 2256 2556 2107 2659 
Q 1959 2763 1684 2763 
Q 1338 2763 1188 2666 
Q 1088 2597 1088 2488 
Q 1088 2394 1175 2328 
Q 1294 2241 1995 2081 
Q 2697 1922 2975 1691 
Q 3250 1456 3250 1038 
Q 3250 581 2869 253 
Q 2488 -75 1741 -75 
Q 1063 -75 667 200 
Q 272 475 150 947 
z
" transform="scale(0.015625)"/>
      </defs>
      <use xlink:href="#Arial-BoldMT-55"/>
      <use xlink:href="#Arial-BoldMT-73" transform="translate(72.216797 0)"/>
      <use xlink:href="#Arial-BoldMT-65" transform="translate(127.832031 0)"/>
     </g>
    </g>
   </g>
   <g id="text_4">
    <g clip-path="url(#p4a240abad7)">
     <!-- Earth -->
     <g transform="translate(113.302263 124.063122) scale(0.07 -0.07)">
      <defs>
       <path id="Arial-BoldMT-45" d="M 466 0 
L 466 4581 
L 3863 4581 
L 3863 3806 
L 1391 3806 
L 1391 2791 
L 3691 2791 
L 3691 2019 
L 1391 2019 
L 1391 772 
L 3950 772 
L 3950 0 
L 466 0 
z
" transform="scale(0.015625)"/>
       <path id="Arial-BoldMT-61" d="M 1116 2306 
L 319 2450 
Q 453 2931 781 3162 
Q 1109 3394 1756 3394 
Q 2344 3394 2631 3255 
Q 2919 3116 3036 2902 
Q 3153 2688 3153 2116 
L 3144 1091 
Q 3144 653 3186 445 
Q 3228 238 3344 0 
L 2475 0 
Q 2441 88 2391 259 
Q 2369 338 2359 363 
Q 2134 144 1878 34 
Q 1622 -75 1331 -75 
Q 819 -75 523 203 
Q 228 481 228 906 
Q 228 1188 362 1408 
Q 497 1628 739 1745 
Q 981 1863 1438 1950 
Q 2053 2066 2291 2166 
L 2291 2253 
Q 2291 2506 2166 2614 
Q 2041 2722 1694 2722 
Q 1459 2722 1328 2630 
Q 1197 2538 1116 2306 
z
M 2291 1594 
Q 2122 1538 1756 1459 
Q 1391 1381 1278 1306 
Q 1106 1184 1106 997 
Q 1106 813 1243 678 
Q 1381 544 1594 544 
Q 1831 544 2047 700 
Q 2206 819 2256 991 
Q 2291 1103 2291 1419 
L 2291 1594 
z
" transform="scale(0.015625)"/>
       <path id="Arial-BoldMT-72" d="M 1300 0 
L 422 0 
L 422 3319 
L 1238 3319 
L 1238 2847 
Q 1447 3181 1614 3287 
Q 1781 3394 1994 3394 
Q 2294 3394 2572 3228 
L 2300 2463 
Q 2078 2606 1888 2606 
Q 1703 2606 1575 2504 
Q 1447 2403 1373 2137 
Q 1300 1872 1300 1025 
L 1300 0 
z
" transform="scale(0.015625)"/>
       <path id="Arial-BoldMT-68" d="M 1334 4581 
L 1334 2897 
Q 1759 3394 2350 3394 
Q 2653 3394 2897 3281 
Q 3141 3169 3264 2994 
Q 3388 2819 3433 2606 
Q 3478 2394 3478 1947 
L 3478 0 
L 2600 0 
L 2600 1753 
Q 2600 2275 2550 2415 
Q 2500 2556 2373 2639 
Q 2247 2722 2056 2722 
Q 1838 2722 1666 2615 
Q 1494 2509 1414 2295 
Q 1334 2081 1334 1663 
L 1334 0 
L 456 0 
L 456 4581 
L 1334 4581 
z
" transform="scale(0.015625)"/>
      </defs>
      <use xlink:href="#Arial-BoldMT-45"/>
      <use xlink:href="#Arial-BoldMT-61" transform="translate(66.699219 0)"/>
      <use xlink:href="#Arial-BoldMT-72" transform="translate(122.314453 0)"/>
      <use xlink:href="#Arial-BoldMT-74" transform="translate(161.230469 0)"/>
      <use xlink:href="#Arial-BoldMT-68" transform="translate(194.53125 0)"/>
     </g>
    </g>
   </g>
   <g id="text_5">
    <g clip-path="url(#p4a240abad7)">
     <!-- Rock -->
     <g transform="translate(108.298711 151.561313) scale(0.07 -0.07)">
      <defs>
       <path id="Arial-BoldMT-52" d="M 469 0 
L 469 4581 
L 2416 4581 
Q 3150 4581 3483 4457 
Q 3816 4334 4016 4018 
Q 4216 3703 4216 3297 
Q 4216 2781 3912 2445 
Q 3609 2109 3006 2022 
Q 3306 1847 3501 1637 
Q 3697 1428 4028 894 
L 4588 0 
L 3481 0 
L 2813 997 
Q 2456 1531 2325 1670 
Q 2194 1809 2047 1861 
Q 1900 1913 1581 1913 
L 1394 1913 
L 1394 0 
L 469 0 
z
M 1394 2644 
L 2078 2644 
Q 2744 2644 2909 2700 
Q 3075 2756 3169 2893 
Q 3263 3031 3263 3238 
Q 3263 3469 3139 3611 
Q 3016 3753 2791 3791 
Q 2678 3806 2116 3806 
L 1394 3806 
L 1394 2644 
z
" transform="scale(0.015625)"/>
       <path id="Arial-BoldMT-6f" d="M 256 1706 
Q 256 2144 472 2553 
Q 688 2963 1083 3178 
Q 1478 3394 1966 3394 
Q 2719 3394 3200 2905 
Q 3681 2416 3681 1669 
Q 3681 916 3195 420 
Q 2709 -75 1972 -75 
Q 1516 -75 1102 131 
Q 688 338 472 736 
Q 256 1134 256 1706 
z
M 1156 1659 
Q 1156 1166 1390 903 
Q 1625 641 1969 641 
Q 2313 641 2545 903 
Q 2778 1166 2778 1666 
Q 2778 2153 2545 2415 
Q 2313 2678 1969 2678 
Q 1625 2678 1390 2415 
Q 1156 2153 1156 1659 
z
" transform="scale(0.015625)"/>
       <path id="Arial-BoldMT-63" d="M 3353 2338 
L 2488 2181 
Q 2444 2441 2289 2572 
Q 2134 2703 1888 2703 
Q 1559 2703 1364 2476 
Q 1169 2250 1169 1719 
Q 1169 1128 1367 884 
Q 1566 641 1900 641 
Q 2150 641 2309 783 
Q 2469 925 2534 1272 
L 3397 1125 
Q 3263 531 2881 228 
Q 2500 -75 1859 -75 
Q 1131 -75 698 384 
Q 266 844 266 1656 
Q 266 2478 700 2936 
Q 1134 3394 1875 3394 
Q 2481 3394 2839 3133 
Q 3197 2872 3353 2338 
z
" transform="scale(0.015625)"/>
       <path id="Arial-BoldMT-6b" d="M 428 0 
L 428 4581 
L 1306 4581 
L 1306 2150 
L 2334 3319 
L 3416 3319 
L 2281 2106 
L 3497 0 
L 2550 0 
L 1716 1491 
L 1306 1063 
L 1306 0 
L 428 0 
z
" transform="scale(0.015625)"/>
      </defs>
      <use xlink:href="#Arial-BoldMT-52"/>
      <use xlink:href="#Arial-BoldMT-6f" transform="translate(72.216797 0)"/>
      <use xlink:href="#Arial-BoldMT-63" transform="translate(133.300781 0)"/>
      <use xlink:href="#Arial-BoldMT-6b" transform="translate(188.916016 0)"/>
     </g>
    </g>
   </g>
   <g id="text_6">
    <g clip-path="url(#p4a240abad7)">
     <!-- H2O -->
     <g transform="translate(142.550453 118.67129) scale(0.07 -0.07)">
      <defs>
       <path id="Arial-BoldMT-48" d="M 469 0 
L 469 4581 
L 1394 4581 
L 1394 2778 
L 3206 2778 
L 3206 4581 
L 4131 4581 
L 4131 0 
L 3206 0 
L 3206 2003 
L 1394 2003 
L 1394 0 
L 469 0 
z
" transform="scale(0.015625)"/>
       <path id="Arial-BoldMT-32" d="M 3238 816 
L 3238 0 
L 159 0 
Q 209 463 459 877 
Q 709 1291 1447 1975 
Q 2041 2528 2175 2725 
Q 2356 2997 2356 3263 
Q 2356 3556 2198 3714 
Q 2041 3872 1763 3872 
Q 1488 3872 1325 3706 
Q 1163 3541 1138 3156 
L 263 3244 
Q 341 3969 753 4284 
Q 1166 4600 1784 4600 
Q 2463 4600 2850 4234 
Q 3238 3869 3238 3325 
Q 3238 3016 3127 2736 
Q 3016 2456 2775 2150 
Q 2616 1947 2200 1565 
Q 1784 1184 1673 1059 
Q 1563 934 1494 816 
L 3238 816 
z
" transform="scale(0.015625)"/>
       <path id="Arial-BoldMT-4f" d="M 278 2263 
Q 278 2963 488 3438 
Q 644 3788 914 4066 
Q 1184 4344 1506 4478 
Q 1934 4659 2494 4659 
Q 3506 4659 4114 4031 
Q 4722 3403 4722 2284 
Q 4722 1175 4119 548 
Q 3516 -78 2506 -78 
Q 1484 -78 881 545 
Q 278 1169 278 2263 
z
M 1231 2294 
Q 1231 1516 1590 1114 
Q 1950 713 2503 713 
Q 3056 713 3411 1111 
Q 3766 1509 3766 2306 
Q 3766 3094 3420 3481 
Q 3075 3869 2503 3869 
Q 1931 3869 1581 3476 
Q 1231 3084 1231 2294 
z
" transform="scale(0.015625)"/>
      </defs>
      <use xlink:href="#Arial-BoldMT-48"/>
      <use xlink:href="#Arial-BoldMT-32" transform="translate(72.216797 0)"/>
      <use xlink:href="#Arial-BoldMT-4f" transform="translate(127.832031 0)"/>
     </g>
    </g>
   </g>
   <g id="text_7">
    <g clip-path="url(#p4a240abad7)">
     <!-- Bay -->
     <g transform="translate(154.554045 140.3867) scale(0.07 -0.07)">
      <defs>
       <path id="Arial-BoldMT-42" d="M 469 4581 
L 2300 4581 
Q 2844 4581 3111 4536 
Q 3378 4491 3589 4347 
Q 3800 4203 3940 3964 
Q 4081 3725 4081 3428 
Q 4081 3106 3907 2837 
Q 3734 2569 3438 2434 
Q 3856 2313 4081 2019 
Q 4306 1725 4306 1328 
Q 4306 1016 4161 720 
Q 4016 425 3764 248 
Q 3513 72 3144 31 
Q 2913 6 2028 0 
L 469 0 
L 469 4581 
z
M 1394 3819 
L 1394 2759 
L 2000 2759 
Q 2541 2759 2672 2775 
Q 2909 2803 3045 2939 
Q 3181 3075 3181 3297 
Q 3181 3509 3064 3642 
Q 2947 3775 2716 3803 
Q 2578 3819 1925 3819 
L 1394 3819 
z
M 1394 1997 
L 1394 772 
L 2250 772 
Q 2750 772 2884 800 
Q 3091 838 3220 983 
Q 3350 1128 3350 1372 
Q 3350 1578 3250 1722 
Q 3150 1866 2961 1931 
Q 2772 1997 2141 1997 
L 1394 1997 
z
" transform="scale(0.015625)"/>
       <path id="Arial-BoldMT-79" d="M 44 3319 
L 978 3319 
L 1772 963 
L 2547 3319 
L 3456 3319 
L 2284 125 
L 2075 -453 
Q 1959 -744 1854 -897 
Q 1750 -1050 1614 -1145 
Q 1478 -1241 1279 -1294 
Q 1081 -1347 831 -1347 
Q 578 -1347 334 -1294 
L 256 -606 
Q 463 -647 628 -647 
Q 934 -647 1081 -467 
Q 1228 -288 1306 -9 
L 44 3319 
z
" transform="scale(0.015625)"/>
      </defs>
      <use xlink:href="#Arial-BoldMT-42"/>
      <use xlink:href="#Arial-BoldMT-61" transform="translate(72.216797 0)"/>
      <use xlink:href="#Arial-BoldMT-79" transform="translate(127.832031 0)"/>
     </g>
    </g>
   </g>
   <g id="text_8">
    <g clip-path="url(#p4a240abad7)">
     <!-- Sea -->
     <g transform="translate(166.846208 111.222788) scale(0.07 -0.07)">
      <defs>
       <path id="Arial-BoldMT-53" d="M 231 1491 
L 1131 1578 
Q 1213 1125 1461 912 
Q 1709 700 2131 700 
Q 2578 700 2804 889 
Q 3031 1078 3031 1331 
Q 3031 1494 2936 1608 
Q 2841 1722 2603 1806 
Q 2441 1863 1863 2006 
Q 1119 2191 819 2459 
Q 397 2838 397 3381 
Q 397 3731 595 4036 
Q 794 4341 1167 4500 
Q 1541 4659 2069 4659 
Q 2931 4659 3367 4281 
Q 3803 3903 3825 3272 
L 2900 3231 
Q 2841 3584 2645 3739 
Q 2450 3894 2059 3894 
Q 1656 3894 1428 3728 
Q 1281 3622 1281 3444 
Q 1281 3281 1419 3166 
Q 1594 3019 2269 2859 
Q 2944 2700 3267 2529 
Q 3591 2359 3773 2064 
Q 3956 1769 3956 1334 
Q 3956 941 3737 597 
Q 3519 253 3119 86 
Q 2719 -81 2122 -81 
Q 1253 -81 787 320 
Q 322 722 231 1491 
z
" transform="scale(0.015625)"/>
      </defs>
      <use xlink:href="#Arial-BoldMT-53"/>
      <use xlink:href="#Arial-BoldMT-65" transform="translate(66.699219 0)"/>
      <use xlink:href="#Arial-BoldMT-61" transform="translate(122.314453 0)"/>
     </g>
    </g>
   </g>
   <g id="text_9">
    <g clip-path="url(#p4a240abad7)">
     <!-- Gem -->
     <g transform="translate(101.627319 174.888005) scale(0.07 -0.07)">
      <defs>
       <path id="Arial-BoldMT-47" d="M 2597 1684 
L 2597 2456 
L 4591 2456 
L 4591 631 
Q 4300 350 3748 136 
Q 3197 -78 2631 -78 
Q 1913 -78 1378 223 
Q 844 525 575 1086 
Q 306 1647 306 2306 
Q 306 3022 606 3578 
Q 906 4134 1484 4431 
Q 1925 4659 2581 4659 
Q 3434 4659 3914 4301 
Q 4394 3944 4531 3313 
L 3613 3141 
Q 3516 3478 3248 3673 
Q 2981 3869 2581 3869 
Q 1975 3869 1617 3484 
Q 1259 3100 1259 2344 
Q 1259 1528 1621 1120 
Q 1984 713 2572 713 
Q 2863 713 3155 827 
Q 3447 941 3656 1103 
L 3656 1684 
L 2597 1684 
z
" transform="scale(0.015625)"/>
      </defs>
      <use xlink:href="#Arial-BoldMT-47"/>
      <use xlink:href="#Arial-BoldMT-65" transform="translate(77.783203 0)"/>
      <use xlink:href="#Arial-BoldMT-6d" transform="translate(133.398438 0)"/>
     </g>
    </g>
   </g>
   <g id="text_10">
    <g clip-path="url(#p4a240abad7)">
     <!-- Ore -->
     <g transform="translate(132.587169 162.788889) scale(0.07 -0.07)">
      <use xlink:href="#Arial-BoldMT-4f"/>
      <use xlink:href="#Arial-BoldMT-72" transform="translate(77.783203 0)"/>
      <use xlink:href="#Arial-BoldMT-65" transform="translate(116.699219 0)"/>
     </g>
    </g>
   </g>
   <g id="text_11">
    <g clip-path="url(#p4a240abad7)">
     <!-- Tool -->
     <g transform="translate(30.325797 118.67129) scale(0.07 -0.07)">
      <defs>
       <path id="Arial-BoldMT-54" d="M 1497 0 
L 1497 3806 
L 138 3806 
L 138 4581 
L 3778 4581 
L 3778 3806 
L 2422 3806 
L 2422 0 
L 1497 0 
z
" transform="scale(0.015625)"/>
      </defs>
      <use xlink:href="#Arial-BoldMT-54"/>
      <use xlink:href="#Arial-BoldMT-6f" transform="translate(53.708984 0)"/>
      <use xlink:href="#Arial-BoldMT-6f" transform="translate(114.792969 0)"/>
      <use xlink:href="#Arial-BoldMT-6c" transform="translate(175.876953 0)"/>
     </g>
    </g>
   </g>
   <g id="text_12">
    <g clip-path="url(#p4a240abad7)">
     <!-- Ware -->
     <g transform="translate(61.915898 151.561313) scale(0.07 -0.07)">
      <defs>
       <path id="Arial-BoldMT-57" d="M 1116 0 
L 22 4581 
L 969 4581 
L 1659 1434 
L 2497 4581 
L 3597 4581 
L 4400 1381 
L 5103 4581 
L 6034 4581 
L 4922 0 
L 3941 0 
L 3028 3425 
L 2119 0 
L 1116 0 
z
" transform="scale(0.015625)"/>
      </defs>
      <use xlink:href="#Arial-BoldMT-57"/>
      <use xlink:href="#Arial-BoldMT-61" transform="translate(90.634766 0)"/>
      <use xlink:href="#Arial-BoldMT-72" transform="translate(146.25 0)"/>
      <use xlink:href="#Arial-BoldMT-65" transform="translate(185.166016 0)"/>
     </g>
    </g>
   </g>
   <g id="text_13">
    <g clip-path="url(#p4a240abad7)">
     <!-- Cup -->
     <g transform="translate(41.778768 162.831545) scale(0.07 -0.07)">
      <defs>
       <path id="Arial-BoldMT-43" d="M 3397 1684 
L 4294 1400 
Q 4088 650 3608 286 
Q 3128 -78 2391 -78 
Q 1478 -78 890 545 
Q 303 1169 303 2250 
Q 303 3394 893 4026 
Q 1484 4659 2447 4659 
Q 3288 4659 3813 4163 
Q 4125 3869 4281 3319 
L 3366 3100 
Q 3284 3456 3026 3662 
Q 2769 3869 2400 3869 
Q 1891 3869 1573 3503 
Q 1256 3138 1256 2319 
Q 1256 1450 1568 1081 
Q 1881 713 2381 713 
Q 2750 713 3015 947 
Q 3281 1181 3397 1684 
z
" transform="scale(0.015625)"/>
       <path id="Arial-BoldMT-75" d="M 2644 0 
L 2644 497 
Q 2463 231 2167 78 
Q 1872 -75 1544 -75 
Q 1209 -75 943 72 
Q 678 219 559 484 
Q 441 750 441 1219 
L 441 3319 
L 1319 3319 
L 1319 1794 
Q 1319 1094 1367 936 
Q 1416 778 1544 686 
Q 1672 594 1869 594 
Q 2094 594 2272 717 
Q 2450 841 2515 1023 
Q 2581 1206 2581 1919 
L 2581 3319 
L 3459 3319 
L 3459 0 
L 2644 0 
z
" transform="scale(0.015625)"/>
       <path id="Arial-BoldMT-70" d="M 434 3319 
L 1253 3319 
L 1253 2831 
Q 1413 3081 1684 3237 
Q 1956 3394 2288 3394 
Q 2866 3394 3269 2941 
Q 3672 2488 3672 1678 
Q 3672 847 3265 386 
Q 2859 -75 2281 -75 
Q 2006 -75 1782 34 
Q 1559 144 1313 409 
L 1313 -1263 
L 434 -1263 
L 434 3319 
z
M 1303 1716 
Q 1303 1156 1525 889 
Q 1747 622 2066 622 
Q 2372 622 2575 867 
Q 2778 1113 2778 1672 
Q 2778 2194 2568 2447 
Q 2359 2700 2050 2700 
Q 1728 2700 1515 2451 
Q 1303 2203 1303 1716 
z
" transform="scale(0.015625)"/>
      </defs>
      <use xlink:href="#Arial-BoldMT-43"/>
      <use xlink:href="#Arial-BoldMT-75" transform="translate(72.216797 0)"/>
      <use xlink:href="#Arial-BoldMT-70" transform="translate(133.300781 0)"/>
     </g>
    </g>
   </g>
   <g id="text_14">
    <g clip-path="url(#p4a240abad7)">
     <!-- Pan -->
     <g transform="translate(71.373071 174.888005) scale(0.07 -0.07)">
      <defs>
       <path id="Arial-BoldMT-50" d="M 466 0 
L 466 4581 
L 1950 4581 
Q 2794 4581 3050 4513 
Q 3444 4409 3709 4064 
Q 3975 3719 3975 3172 
Q 3975 2750 3822 2462 
Q 3669 2175 3433 2011 
Q 3197 1847 2953 1794 
Q 2622 1728 1994 1728 
L 1391 1728 
L 1391 0 
L 466 0 
z
M 1391 3806 
L 1391 2506 
L 1897 2506 
Q 2444 2506 2628 2578 
Q 2813 2650 2917 2803 
Q 3022 2956 3022 3159 
Q 3022 3409 2875 3571 
Q 2728 3734 2503 3775 
Q 2338 3806 1838 3806 
L 1391 3806 
z
" transform="scale(0.015625)"/>
       <path id="Arial-BoldMT-6e" d="M 3478 0 
L 2600 0 
L 2600 1694 
Q 2600 2231 2544 2389 
Q 2488 2547 2361 2634 
Q 2234 2722 2056 2722 
Q 1828 2722 1647 2597 
Q 1466 2472 1398 2265 
Q 1331 2059 1331 1503 
L 1331 0 
L 453 0 
L 453 3319 
L 1269 3319 
L 1269 2831 
Q 1703 3394 2363 3394 
Q 2653 3394 2893 3289 
Q 3134 3184 3257 3021 
Q 3381 2859 3429 2653 
Q 3478 2447 3478 2063 
L 3478 0 
z
" transform="scale(0.015625)"/>
      </defs>
      <use xlink:href="#Arial-BoldMT-50"/>
      <use xlink:href="#Arial-BoldMT-61" transform="translate(66.699219 0)"/>
      <use xlink:href="#Arial-BoldMT-6e" transform="translate(122.314453 0)"/>
     </g>
    </g>
   </g>
   <g id="text_15">
    <g clip-path="url(#p4a240abad7)">
     <!-- Axe -->
     <g transform="translate(7.706214 111.222788) scale(0.07 -0.07)">
      <defs>
       <path id="Arial-BoldMT-78" d="M 38 0 
L 1234 1709 
L 88 3319 
L 1159 3319 
L 1747 2406 
L 2366 3319 
L 3397 3319 
L 2272 1747 
L 3500 0 
L 2422 0 
L 1747 1028 
L 1066 0 
L 38 0 
z
" transform="scale(0.015625)"/>
      </defs>
      <use xlink:href="#Arial-BoldMT-41"/>
      <use xlink:href="#Arial-BoldMT-78" transform="translate(72.216797 0)"/>
      <use xlink:href="#Arial-BoldMT-65" transform="translate(127.832031 0)"/>
     </g>
    </g>
   </g>
   <g id="text_16">
    <g clip-path="url(#p4a240abad7)">
     <!-- Hoe -->
     <g transform="translate(19.613924 140.432638) scale(0.07 -0.07)">
      <use xlink:href="#Arial-BoldMT-48"/>
      <use xlink:href="#Arial-BoldMT-6f" transform="translate(72.216797 0)"/>
      <use xlink:href="#Arial-BoldMT-65" transform="translate(133.300781 0)"/>
     </g>
    </g>
   </g>
   <g id="text_17">
    <g clip-path="url(#p4a240abad7)">
     <!-- Anim -->
     <g transform="translate(113.498591 66.765941) scale(0.07 -0.07)">
      <use xlink:href="#Arial-BoldMT-41"/>
      <use xlink:href="#Arial-BoldMT-6e" transform="translate(72.216797 0)"/>
      <use xlink:href="#Arial-BoldMT-69" transform="translate(133.300781 0)"/>
      <use xlink:href="#Arial-BoldMT-6d" transform="translate(161.083984 0)"/>
     </g>
    </g>
   </g>
   <g id="text_18">
    <g clip-path="url(#p4a240abad7)">
     <!-- Plant -->
     <g transform="translate(56.395003 66.765941) scale(0.07 -0.07)">
      <use xlink:href="#Arial-BoldMT-50"/>
      <use xlink:href="#Arial-BoldMT-6c" transform="translate(66.699219 0)"/>
      <use xlink:href="#Arial-BoldMT-61" transform="translate(94.482422 0)"/>
      <use xlink:href="#Arial-BoldMT-6e" transform="translate(150.097656 0)"/>
      <use xlink:href="#Arial-BoldMT-74" transform="translate(211.181641 0)"/>
     </g>
    </g>
   </g>
   <g id="text_19">
    <g clip-path="url(#p4a240abad7)">
     <!-- Veg -->
     <g transform="translate(64.11707 39.221812) scale(0.07 -0.07)">
      <defs>
       <path id="Arial-BoldMT-56" d="M 1634 0 
L -3 4581 
L 1000 4581 
L 2159 1191 
L 3281 4581 
L 4263 4581 
L 2622 0 
L 1634 0 
z
" transform="scale(0.015625)"/>
       <path id="Arial-BoldMT-67" d="M 378 -219 
L 1381 -341 
Q 1406 -516 1497 -581 
Q 1622 -675 1891 -675 
Q 2234 -675 2406 -572 
Q 2522 -503 2581 -350 
Q 2622 -241 2622 53 
L 2622 538 
Q 2228 0 1628 0 
Q 959 0 569 566 
Q 263 1013 263 1678 
Q 263 2513 664 2953 
Q 1066 3394 1663 3394 
Q 2278 3394 2678 2853 
L 2678 3319 
L 3500 3319 
L 3500 341 
Q 3500 -247 3403 -537 
Q 3306 -828 3131 -993 
Q 2956 -1159 2664 -1253 
Q 2372 -1347 1925 -1347 
Q 1081 -1347 728 -1058 
Q 375 -769 375 -325 
Q 375 -281 378 -219 
z
M 1163 1728 
Q 1163 1200 1367 954 
Q 1572 709 1872 709 
Q 2194 709 2416 961 
Q 2638 1213 2638 1706 
Q 2638 2222 2425 2472 
Q 2213 2722 1888 2722 
Q 1572 2722 1367 2476 
Q 1163 2231 1163 1728 
z
" transform="scale(0.015625)"/>
      </defs>
      <use xlink:href="#Arial-BoldMT-56"/>
      <use xlink:href="#Arial-BoldMT-65" transform="translate(61.199219 0)"/>
      <use xlink:href="#Arial-BoldMT-67" transform="translate(116.814453 0)"/>
     </g>
    </g>
   </g>
   <g id="text_20">
    <g clip-path="url(#p4a240abad7)">
     <!-- Tree -->
     <g transform="translate(30.253062 72.157773) scale(0.07 -0.07)">
      <use xlink:href="#Arial-BoldMT-54"/>
      <use xlink:href="#Arial-BoldMT-72" transform="translate(55.583984 0)"/>
      <use xlink:href="#Arial-BoldMT-65" transform="translate(94.5 0)"/>
      <use xlink:href="#Arial-BoldMT-65" transform="translate(150.115234 0)"/>
     </g>
    </g>
   </g>
   <g id="text_21">
    <g clip-path="url(#p4a240abad7)">
     <!-- Oak -->
     <g transform="translate(19.610642 50.396425) scale(0.07 -0.07)">
      <use xlink:href="#Arial-BoldMT-4f"/>
      <use xlink:href="#Arial-BoldMT-61" transform="translate(77.783203 0)"/>
      <use xlink:href="#Arial-BoldMT-6b" transform="translate(133.398438 0)"/>
     </g>
    </g>
   </g>
   <g id="text_22">
    <g clip-path="url(#p4a240abad7)">
     <!-- Ash -->
     <g transform="translate(7.514808 79.606274) scale(0.07 -0.07)">
      <use xlink:href="#Arial-BoldMT-41"/>
      <use xlink:href="#Arial-BoldMT-73" transform="translate(72.216797 0)"/>
      <use xlink:href="#Arial-BoldMT-68" transform="translate(127.832031 0)"/>
     </g>
    </g>
   </g>
   <g id="text_23">
    <g clip-path="url(#p4a240abad7)">
     <!-- Pea -->
     <g transform="translate(71.564478 15.941058) scale(0.07 -0.07)">
      <use xlink:href="#Arial-BoldMT-50"/>
      <use xlink:href="#Arial-BoldMT-65" transform="translate(66.699219 0)"/>
      <use xlink:href="#Arial-BoldMT-61" transform="translate(122.314453 0)"/>
     </g>
    </g>
   </g>
   <g id="text_24">
    <g clip-path="url(#p4a240abad7)">
     <!-- Yam -->
     <g transform="translate(41.38119 28.040174) scale(0.07 -0.07)">
      <defs>
       <path id="Arial-BoldMT-59" d="M 1669 0 
L 1669 1928 
L -9 4581 
L 1075 4581 
L 2153 2769 
L 3209 4581 
L 4275 4581 
L 2591 1922 
L 2591 0 
L 1669 0 
z
" transform="scale(0.015625)"/>
      </defs>
      <use xlink:href="#Arial-BoldMT-59"/>
      <use xlink:href="#Arial-BoldMT-61" transform="translate(61.199219 0)"/>
      <use xlink:href="#Arial-BoldMT-6d" transform="translate(116.814453 0)"/>
     </g>
    </g>
   </g>
   <g id="text_25">
    <g clip-path="url(#p4a240abad7)">
     <!-- Bird -->
     <g transform="translate(142.746781 72.157773) scale(0.07 -0.07)">
      <defs>
       <path id="Arial-BoldMT-64" d="M 3503 0 
L 2688 0 
L 2688 488 
Q 2484 203 2207 64 
Q 1931 -75 1650 -75 
Q 1078 -75 670 386 
Q 263 847 263 1672 
Q 263 2516 659 2955 
Q 1056 3394 1663 3394 
Q 2219 3394 2625 2931 
L 2625 4581 
L 3503 4581 
L 3503 0 
z
M 1159 1731 
Q 1159 1200 1306 963 
Q 1519 619 1900 619 
Q 2203 619 2415 876 
Q 2628 1134 2628 1647 
Q 2628 2219 2422 2470 
Q 2216 2722 1894 2722 
Q 1581 2722 1370 2473 
Q 1159 2225 1159 1731 
z
" transform="scale(0.015625)"/>
      </defs>
      <use xlink:href="#Arial-BoldMT-42"/>
      <use xlink:href="#Arial-BoldMT-69" transform="translate(72.216797 0)"/>
      <use xlink:href="#Arial-BoldMT-72" transform="translate(100 0)"/>
      <use xlink:href="#Arial-BoldMT-64" transform="translate(138.916016 0)"/>
     </g>
    </g>
   </g>
   <g id="text_26">
    <g clip-path="url(#p4a240abad7)">
     <!-- Pet -->
     <g transform="translate(111.41043 39.26775) scale(0.07 -0.07)">
      <use xlink:href="#Arial-BoldMT-50"/>
      <use xlink:href="#Arial-BoldMT-65" transform="translate(66.699219 0)"/>
      <use xlink:href="#Arial-BoldMT-74" transform="translate(122.314453 0)"/>
     </g>
    </g>
   </g>
   <g id="text_27">
    <g clip-path="url(#p4a240abad7)">
     <!-- Cat -->
     <g transform="translate(132.978732 28.040174) scale(0.07 -0.07)">
      <use xlink:href="#Arial-BoldMT-43"/>
      <use xlink:href="#Arial-BoldMT-61" transform="translate(72.216797 0)"/>
      <use xlink:href="#Arial-BoldMT-74" transform="translate(127.832031 0)"/>
     </g>
    </g>
   </g>
   <g id="text_28">
    <g clip-path="url(#p4a240abad7)">
     <!-- Dog -->
     <g transform="translate(102.605132 15.89512) scale(0.07 -0.07)">
      <defs>
       <path id="Arial-BoldMT-44" d="M 463 4581 
L 2153 4581 
Q 2725 4581 3025 4494 
Q 3428 4375 3715 4072 
Q 4003 3769 4153 3330 
Q 4303 2891 4303 2247 
Q 4303 1681 4163 1272 
Q 3991 772 3672 463 
Q 3431 228 3022 97 
Q 2716 0 2203 0 
L 463 0 
L 463 4581 
z
M 1388 3806 
L 1388 772 
L 2078 772 
Q 2466 772 2638 816 
Q 2863 872 3011 1006 
Q 3159 1141 3253 1448 
Q 3347 1756 3347 2288 
Q 3347 2819 3253 3103 
Q 3159 3388 2990 3547 
Q 2822 3706 2563 3763 
Q 2369 3806 1803 3806 
L 1388 3806 
z
" transform="scale(0.015625)"/>
      </defs>
      <use xlink:href="#Arial-BoldMT-44"/>
      <use xlink:href="#Arial-BoldMT-6f" transform="translate(72.216797 0)"/>
      <use xlink:href="#Arial-BoldMT-67" transform="translate(133.300781 0)"/>
     </g>
    </g>
   </g>
   <g id="text_29">
    <g clip-path="url(#p4a240abad7)">
     <!-- Emu -->
     <g transform="translate(165.488864 79.606274) scale(0.07 -0.07)">
      <use xlink:href="#Arial-BoldMT-45"/>
      <use xlink:href="#Arial-BoldMT-6d" transform="translate(66.699219 0)"/>
      <use xlink:href="#Arial-BoldMT-75" transform="translate(155.615234 0)"/>
     </g>
    </g>
   </g>
   <g id="text_30">
    <g clip-path="url(#p4a240abad7)">
     <!-- Owl -->
     <g transform="translate(154.557326 50.396425) scale(0.07 -0.07)">
      <defs>
       <path id="Arial-BoldMT-77" d="M 1078 0 
L 28 3319 
L 881 3319 
L 1503 1144 
L 2075 3319 
L 2922 3319 
L 3475 1144 
L 4109 3319 
L 4975 3319 
L 3909 0 
L 3066 0 
L 2494 2134 
L 1931 0 
L 1078 0 
z
" transform="scale(0.015625)"/>
      </defs>
      <use xlink:href="#Arial-BoldMT-4f"/>
      <use xlink:href="#Arial-BoldMT-77" transform="translate(77.783203 0)"/>
      <use xlink:href="#Arial-BoldMT-6c" transform="translate(155.566406 0)"/>
     </g>
    </g>
   </g>
  </g>
 </g>
 <defs>
  <clipPath id="p4a240abad7">
   <rect x="3.00024" y="3.00024" width="181.19952" height="181.19952"/>
  </clipPath>
 </defs>
</svg>
