<?xml version="1.0" encoding="utf-8" standalone="no"?>
<!DOCTYPE svg PUBLIC "-//W3C//DTD SVG 1.1//EN"
  "http://www.w3.org/Graphics/SVG/1.1/DTD/svg11.dtd">
<svg xmlns:xlink="http://www.w3.org/1999/xlink" width="207.36pt" height="115.2pt" viewBox="0 0 207.36 115.2" xmlns="http://www.w3.org/2000/svg" version="1.1">
 <metadata>
  <rdf:RDF xmlns:dc="http://purl.org/dc/elements/1.1/" xmlns:cc="http://creativecommons.org/ns#" xmlns:rdf="http://www.w3.org/1999/02/22-rdf-syntax-ns#">
   <cc:Work>
    <dc:type rdf:resource="http://purl.org/dc/dcmitype/StillImage"/>
    <dc:date>2025-07-07T10:31:19.344761</dc:date>
    <dc:format>image/svg+xml</dc:format>
    <dc:creator>
     <cc:Agent>
      <dc:title>Matplotlib v3.10.3, https://matplotlib.org/</dc:title>
     </cc:Agent>
    </dc:creator>
   </cc:Work>
  </rdf:RDF>
 </metadata>
 <defs>
  <style type="text/css">*{stroke-linejoin: round; stroke-linecap: butt}</style>
 </defs>
 <g id="figure_1">
  <g id="patch_1">
   <path d="M 0 115.2 
L 207.36 115.2 
L 207.36 0 
L 0 0 
z
" style="fill: #ffffff"/>
  </g>
  <g id="axes_1">
   <g id="patch_2">
    <path d="M 35.045553 91.78726 
L 80.024052 91.78726 
L 80.024052 13.873834 
L 35.045553 13.873834 
L 35.045553 91.78726 
z
" style="fill: none"/>
   </g>
   <g id="matplotlib.axis_1">
    <g id="xtick_1">
     <g id="line2d_1">
      <defs>
       <path id="mfa2db2919b" d="M 0 0 
L 0 4.5 
" style="stroke: #000000; stroke-width: 1.1"/>
      </defs>
      <g>
       <use xlink:href="#mfa2db2919b" x="37.80739" y="91.78726" style="stroke: #000000; stroke-width: 1.1"/>
      </g>
     </g>
     <g id="text_1">
      <!-- 0 -->
      <g transform="translate(35.026921 105.945073) scale(0.1 -0.1)">
       <defs>
        <path id="ArialMT-30" d="M 266 2259 
Q 266 3072 433 3567 
Q 600 4063 929 4331 
Q 1259 4600 1759 4600 
Q 2128 4600 2406 4451 
Q 2684 4303 2865 4023 
Q 3047 3744 3150 3342 
Q 3253 2941 3253 2259 
Q 3253 1453 3087 958 
Q 2922 463 2592 192 
Q 2263 -78 1759 -78 
Q 1097 -78 719 397 
Q 266 969 266 2259 
z
M 844 2259 
Q 844 1131 1108 757 
Q 1372 384 1759 384 
Q 2147 384 2411 759 
Q 2675 1134 2675 2259 
Q 2675 3391 2411 3762 
Q 2147 4134 1753 4134 
Q 1366 4134 1134 3806 
Q 844 3388 844 2259 
z
" transform="scale(0.015625)"/>
       </defs>
       <use xlink:href="#ArialMT-30"/>
      </g>
     </g>
    </g>
    <g id="xtick_2">
     <g id="line2d_2">
      <g>
       <use xlink:href="#mfa2db2919b" x="77.262215" y="91.78726" style="stroke: #000000; stroke-width: 1.1"/>
      </g>
     </g>
     <g id="text_2">
      <!-- 100 -->
      <g transform="translate(68.920808 105.945073) scale(0.1 -0.1)">
       <defs>
        <path id="ArialMT-31" d="M 2384 0 
L 1822 0 
L 1822 3584 
Q 1619 3391 1289 3197 
Q 959 3003 697 2906 
L 697 3450 
Q 1169 3672 1522 3987 
Q 1875 4303 2022 4600 
L 2384 4600 
L 2384 0 
z
" transform="scale(0.015625)"/>
       </defs>
       <use xlink:href="#ArialMT-31"/>
       <use xlink:href="#ArialMT-30" transform="translate(55.615234 0)"/>
       <use xlink:href="#ArialMT-30" transform="translate(111.230469 0)"/>
      </g>
     </g>
    </g>
    <g id="text_3">
     <!-- Step -->
     <g transform="translate(47.249646 110.21226) scale(0.1 -0.1)">
      <defs>
       <path id="ArialMT-53" d="M 288 1472 
L 859 1522 
Q 900 1178 1048 958 
Q 1197 738 1509 602 
Q 1822 466 2213 466 
Q 2559 466 2825 569 
Q 3091 672 3220 851 
Q 3350 1031 3350 1244 
Q 3350 1459 3225 1620 
Q 3100 1781 2813 1891 
Q 2628 1963 1997 2114 
Q 1366 2266 1113 2400 
Q 784 2572 623 2826 
Q 463 3081 463 3397 
Q 463 3744 659 4045 
Q 856 4347 1234 4503 
Q 1613 4659 2075 4659 
Q 2584 4659 2973 4495 
Q 3363 4331 3572 4012 
Q 3781 3694 3797 3291 
L 3216 3247 
Q 3169 3681 2898 3903 
Q 2628 4125 2100 4125 
Q 1550 4125 1298 3923 
Q 1047 3722 1047 3438 
Q 1047 3191 1225 3031 
Q 1400 2872 2139 2705 
Q 2878 2538 3153 2413 
Q 3553 2228 3743 1945 
Q 3934 1663 3934 1294 
Q 3934 928 3725 604 
Q 3516 281 3123 101 
Q 2731 -78 2241 -78 
Q 1619 -78 1198 103 
Q 778 284 539 648 
Q 300 1013 288 1472 
z
" transform="scale(0.015625)"/>
       <path id="ArialMT-74" d="M 1650 503 
L 1731 6 
Q 1494 -44 1306 -44 
Q 1000 -44 831 53 
Q 663 150 594 308 
Q 525 466 525 972 
L 525 2881 
L 113 2881 
L 113 3319 
L 525 3319 
L 525 4141 
L 1084 4478 
L 1084 3319 
L 1650 3319 
L 1650 2881 
L 1084 2881 
L 1084 941 
Q 1084 700 1114 631 
Q 1144 563 1211 522 
Q 1278 481 1403 481 
Q 1497 481 1650 503 
z
" transform="scale(0.015625)"/>
       <path id="ArialMT-65" d="M 2694 1069 
L 3275 997 
Q 3138 488 2766 206 
Q 2394 -75 1816 -75 
Q 1088 -75 661 373 
Q 234 822 234 1631 
Q 234 2469 665 2931 
Q 1097 3394 1784 3394 
Q 2450 3394 2872 2941 
Q 3294 2488 3294 1666 
Q 3294 1616 3291 1516 
L 816 1516 
Q 847 969 1125 678 
Q 1403 388 1819 388 
Q 2128 388 2347 550 
Q 2566 713 2694 1069 
z
M 847 1978 
L 2700 1978 
Q 2663 2397 2488 2606 
Q 2219 2931 1791 2931 
Q 1403 2931 1139 2672 
Q 875 2413 847 1978 
z
" transform="scale(0.015625)"/>
       <path id="ArialMT-70" d="M 422 -1272 
L 422 3319 
L 934 3319 
L 934 2888 
Q 1116 3141 1344 3267 
Q 1572 3394 1897 3394 
Q 2322 3394 2647 3175 
Q 2972 2956 3137 2557 
Q 3303 2159 3303 1684 
Q 3303 1175 3120 767 
Q 2938 359 2589 142 
Q 2241 -75 1856 -75 
Q 1575 -75 1351 44 
Q 1128 163 984 344 
L 984 -1272 
L 422 -1272 
z
M 931 1641 
Q 931 1000 1190 694 
Q 1450 388 1819 388 
Q 2194 388 2461 705 
Q 2728 1022 2728 1688 
Q 2728 2322 2467 2637 
Q 2206 2953 1844 2953 
Q 1484 2953 1207 2617 
Q 931 2281 931 1641 
z
" transform="scale(0.015625)"/>
      </defs>
      <use xlink:href="#ArialMT-53"/>
      <use xlink:href="#ArialMT-74" transform="translate(66.699219 0)"/>
      <use xlink:href="#ArialMT-65" transform="translate(94.482422 0)"/>
      <use xlink:href="#ArialMT-70" transform="translate(150.097656 0)"/>
     </g>
    </g>
   </g>
   <g id="matplotlib.axis_2">
    <g id="ytick_1">
     <g id="line2d_3">
      <defs>
       <path id="m934948fd0f" d="M 0 0 
L -4.5 0 
" style="stroke: #000000; stroke-width: 1.1"/>
      </defs>
      <g>
       <use xlink:href="#m934948fd0f" x="35.045553" y="57.971577" style="stroke: #000000; stroke-width: 1.1"/>
      </g>
     </g>
     <g id="text_4">
      <!-- 4.5 -->
      <g transform="translate(14.145553 61.550483) scale(0.1 -0.1)">
       <defs>
        <path id="ArialMT-34" d="M 2069 0 
L 2069 1097 
L 81 1097 
L 81 1613 
L 2172 4581 
L 2631 4581 
L 2631 1613 
L 3250 1613 
L 3250 1097 
L 2631 1097 
L 2631 0 
L 2069 0 
z
M 2069 1613 
L 2069 3678 
L 634 1613 
L 2069 1613 
z
" transform="scale(0.015625)"/>
        <path id="ArialMT-2e" d="M 581 0 
L 581 641 
L 1222 641 
L 1222 0 
L 581 0 
z
" transform="scale(0.015625)"/>
        <path id="ArialMT-35" d="M 266 1200 
L 856 1250 
Q 922 819 1161 601 
Q 1400 384 1738 384 
Q 2144 384 2425 690 
Q 2706 997 2706 1503 
Q 2706 1984 2436 2262 
Q 2166 2541 1728 2541 
Q 1456 2541 1237 2417 
Q 1019 2294 894 2097 
L 366 2166 
L 809 4519 
L 3088 4519 
L 3088 3981 
L 1259 3981 
L 1013 2750 
Q 1425 3038 1878 3038 
Q 2478 3038 2890 2622 
Q 3303 2206 3303 1553 
Q 3303 931 2941 478 
Q 2500 -78 1738 -78 
Q 1113 -78 717 272 
Q 322 622 266 1200 
z
" transform="scale(0.015625)"/>
       </defs>
       <use xlink:href="#ArialMT-34"/>
       <use xlink:href="#ArialMT-2e" transform="translate(55.615234 0)"/>
       <use xlink:href="#ArialMT-35" transform="translate(83.398438 0)"/>
      </g>
     </g>
    </g>
    <g id="ytick_2">
     <g id="line2d_4">
      <g>
       <use xlink:href="#m934948fd0f" x="35.045553" y="18.449438" style="stroke: #000000; stroke-width: 1.1"/>
      </g>
     </g>
     <g id="text_5">
      <!-- 5.0 -->
      <g transform="translate(14.145553 22.028344) scale(0.1 -0.1)">
       <use xlink:href="#ArialMT-35"/>
       <use xlink:href="#ArialMT-2e" transform="translate(55.615234 0)"/>
       <use xlink:href="#ArialMT-30" transform="translate(83.398438 0)"/>
      </g>
     </g>
    </g>
    <g id="text_6">
     <!-- Expected Loss -->
     <g transform="translate(10.158053 85.626641) rotate(-90) scale(0.1 -0.1)">
      <defs>
       <path id="ArialMT-45" d="M 506 0 
L 506 4581 
L 3819 4581 
L 3819 4041 
L 1113 4041 
L 1113 2638 
L 3647 2638 
L 3647 2100 
L 1113 2100 
L 1113 541 
L 3925 541 
L 3925 0 
L 506 0 
z
" transform="scale(0.015625)"/>
       <path id="ArialMT-78" d="M 47 0 
L 1259 1725 
L 138 3319 
L 841 3319 
L 1350 2541 
Q 1494 2319 1581 2169 
Q 1719 2375 1834 2534 
L 2394 3319 
L 3066 3319 
L 1919 1756 
L 3153 0 
L 2463 0 
L 1781 1031 
L 1600 1309 
L 728 0 
L 47 0 
z
" transform="scale(0.015625)"/>
       <path id="ArialMT-63" d="M 2588 1216 
L 3141 1144 
Q 3050 572 2676 248 
Q 2303 -75 1759 -75 
Q 1078 -75 664 370 
Q 250 816 250 1647 
Q 250 2184 428 2587 
Q 606 2991 970 3192 
Q 1334 3394 1763 3394 
Q 2303 3394 2647 3120 
Q 2991 2847 3088 2344 
L 2541 2259 
Q 2463 2594 2264 2762 
Q 2066 2931 1784 2931 
Q 1359 2931 1093 2626 
Q 828 2322 828 1663 
Q 828 994 1084 691 
Q 1341 388 1753 388 
Q 2084 388 2306 591 
Q 2528 794 2588 1216 
z
" transform="scale(0.015625)"/>
       <path id="ArialMT-64" d="M 2575 0 
L 2575 419 
Q 2259 -75 1647 -75 
Q 1250 -75 917 144 
Q 584 363 401 755 
Q 219 1147 219 1656 
Q 219 2153 384 2558 
Q 550 2963 881 3178 
Q 1213 3394 1622 3394 
Q 1922 3394 2156 3267 
Q 2391 3141 2538 2938 
L 2538 4581 
L 3097 4581 
L 3097 0 
L 2575 0 
z
M 797 1656 
Q 797 1019 1065 703 
Q 1334 388 1700 388 
Q 2069 388 2326 689 
Q 2584 991 2584 1609 
Q 2584 2291 2321 2609 
Q 2059 2928 1675 2928 
Q 1300 2928 1048 2622 
Q 797 2316 797 1656 
z
" transform="scale(0.015625)"/>
       <path id="ArialMT-20" transform="scale(0.015625)"/>
       <path id="ArialMT-4c" d="M 469 0 
L 469 4581 
L 1075 4581 
L 1075 541 
L 3331 541 
L 3331 0 
L 469 0 
z
" transform="scale(0.015625)"/>
       <path id="ArialMT-6f" d="M 213 1659 
Q 213 2581 725 3025 
Q 1153 3394 1769 3394 
Q 2453 3394 2887 2945 
Q 3322 2497 3322 1706 
Q 3322 1066 3130 698 
Q 2938 331 2570 128 
Q 2203 -75 1769 -75 
Q 1072 -75 642 372 
Q 213 819 213 1659 
z
M 791 1659 
Q 791 1022 1069 705 
Q 1347 388 1769 388 
Q 2188 388 2466 706 
Q 2744 1025 2744 1678 
Q 2744 2294 2464 2611 
Q 2184 2928 1769 2928 
Q 1347 2928 1069 2612 
Q 791 2297 791 1659 
z
" transform="scale(0.015625)"/>
       <path id="ArialMT-73" d="M 197 991 
L 753 1078 
Q 800 744 1014 566 
Q 1228 388 1613 388 
Q 2000 388 2187 545 
Q 2375 703 2375 916 
Q 2375 1106 2209 1216 
Q 2094 1291 1634 1406 
Q 1016 1563 777 1677 
Q 538 1791 414 1992 
Q 291 2194 291 2438 
Q 291 2659 392 2848 
Q 494 3038 669 3163 
Q 800 3259 1026 3326 
Q 1253 3394 1513 3394 
Q 1903 3394 2198 3281 
Q 2494 3169 2634 2976 
Q 2775 2784 2828 2463 
L 2278 2388 
Q 2241 2644 2061 2787 
Q 1881 2931 1553 2931 
Q 1166 2931 1000 2803 
Q 834 2675 834 2503 
Q 834 2394 903 2306 
Q 972 2216 1119 2156 
Q 1203 2125 1616 2013 
Q 2213 1853 2448 1751 
Q 2684 1650 2818 1456 
Q 2953 1263 2953 975 
Q 2953 694 2789 445 
Q 2625 197 2315 61 
Q 2006 -75 1616 -75 
Q 969 -75 630 194 
Q 291 463 197 991 
z
" transform="scale(0.015625)"/>
      </defs>
      <use xlink:href="#ArialMT-45"/>
      <use xlink:href="#ArialMT-78" transform="translate(66.699219 0)"/>
      <use xlink:href="#ArialMT-70" transform="translate(116.699219 0)"/>
      <use xlink:href="#ArialMT-65" transform="translate(172.314453 0)"/>
      <use xlink:href="#ArialMT-63" transform="translate(227.929688 0)"/>
      <use xlink:href="#ArialMT-74" transform="translate(277.929688 0)"/>
      <use xlink:href="#ArialMT-65" transform="translate(305.712891 0)"/>
      <use xlink:href="#ArialMT-64" transform="translate(361.328125 0)"/>
      <use xlink:href="#ArialMT-20" transform="translate(416.943359 0)"/>
      <use xlink:href="#ArialMT-4c" transform="translate(444.726562 0)"/>
      <use xlink:href="#ArialMT-6f" transform="translate(500.341797 0)"/>
      <use xlink:href="#ArialMT-73" transform="translate(555.957031 0)"/>
      <use xlink:href="#ArialMT-73" transform="translate(605.957031 0)"/>
     </g>
    </g>
   </g>
   <g id="line2d_5">
    <path d="M 37.80739 59.438558 
L 38.201938 56.099565 
L 38.596487 58.794791 
L 38.991035 53.972007 
L 39.385583 59.74985 
L 39.780131 58.302355 
L 40.17468 57.230265 
L 40.569228 52.216688 
L 40.963776 47.212157 
L 41.358324 43.802645 
L 41.752873 33.412977 
L 42.147421 34.173699 
L 42.541969 33.441961 
L 42.936517 45.891079 
L 43.331066 40.605221 
L 43.725614 49.16724 
L 44.120162 53.82716 
L 44.51471 45.931183 
L 44.909259 42.167259 
L 45.303807 41.458588 
L 45.698355 40.22322 
L 46.092903 41.29482 
L 46.487452 31.130885 
L 46.882 31.15595 
L 47.276548 37.571829 
L 47.671096 32.706417 
L 48.065645 28.360729 
L 48.460193 26.302561 
L 48.854741 26.938789 
L 49.249289 18.991061 
L 49.643837 21.584408 
L 50.038386 24.186649 
L 50.432934 24.967047 
L 50.827482 34.551026 
L 51.22203 48.109398 
L 51.616579 50.087472 
L 52.011127 53.602972 
L 52.405675 50.468757 
L 52.800223 47.811976 
L 53.194772 49.799586 
L 53.58932 48.863863 
L 53.983868 52.99162 
L 54.378416 61.946722 
L 54.772965 68.772569 
L 55.167513 64.894404 
L 55.562061 64.403927 
L 55.956609 65.754895 
L 56.351158 63.400699 
L 56.745706 71.669556 
L 57.140254 66.208924 
L 57.534802 69.583496 
L 57.929351 69.041873 
L 58.323899 69.932329 
L 58.718447 66.968365 
L 59.112995 63.876815 
L 59.507544 65.300338 
L 59.902092 70.881055 
L 60.29664 68.326493 
L 60.691188 69.435558 
L 61.085737 69.772744 
L 61.480285 65.087081 
L 61.874833 71.065931 
L 62.269381 69.93542 
L 62.66393 65.789835 
L 63.058478 64.708209 
L 63.453026 64.921164 
L 63.847574 68.010528 
L 64.242122 66.895771 
L 64.636671 69.523982 
L 65.031219 66.70249 
L 65.425767 68.994458 
L 65.820315 62.536175 
L 66.214864 61.28754 
L 66.609412 66.947333 
L 67.00396 64.508596 
L 67.398508 60.166866 
L 67.793057 62.119272 
L 68.187605 62.68792 
L 68.582153 70.044008 
L 68.976701 65.020971 
L 69.37125 61.964814 
L 69.765798 57.576836 
L 70.160346 55.81771 
L 70.554894 52.628842 
L 70.949443 52.705205 
L 71.343991 57.737439 
L 71.738539 59.613257 
L 72.133087 58.861505 
L 72.527636 61.200548 
L 72.922184 53.042767 
L 73.316732 55.824269 
L 73.71128 54.539412 
L 74.105829 50.430349 
L 74.500377 46.510083 
L 74.894925 44.6683 
L 75.289473 45.672244 
L 75.684022 40.135739 
L 76.07857 48.742686 
L 76.473118 44.76445 
L 76.867666 47.616547 
L 77.262215 45.888064 
" clip-path="url(#p8a1e495b91)" style="fill: none; stroke: #efe440; stroke-width: 1.5; stroke-linecap: square"/>
   </g>
   <g id="line2d_6">
    <path d="M 37.80739 59.417827 
L 38.201938 55.993389 
L 38.596487 58.768747 
L 38.991035 53.836734 
L 39.385583 59.76372 
L 39.780131 58.253809 
L 40.17468 57.137055 
L 40.569228 52.02925 
L 40.963776 47.005836 
L 41.358324 43.714862 
L 41.752873 33.334391 
L 42.147421 34.042911 
L 42.541969 33.410489 
L 42.936517 45.704244 
L 43.331066 40.492599 
L 43.725614 49.028009 
L 44.120162 53.762821 
L 44.51471 45.840988 
L 44.909259 42.099905 
L 45.303807 41.292068 
L 45.698355 40.262796 
L 46.092903 41.188191 
L 46.487452 30.950834 
L 46.882 30.862749 
L 47.276548 37.401804 
L 47.671096 32.518677 
L 48.065645 28.14717 
L 48.460193 26.160992 
L 48.854741 26.673706 
L 49.249289 18.657984 
L 49.643837 21.268668 
L 50.038386 23.92168 
L 50.432934 24.650101 
L 50.827482 34.318471 
L 51.22203 47.921394 
L 51.616579 49.936707 
L 52.011127 53.397706 
L 52.405675 50.356625 
L 52.800223 47.569433 
L 53.194772 49.587988 
L 53.58932 48.730097 
L 53.983868 52.904516 
L 54.378416 61.954185 
L 54.772965 68.725907 
L 55.167513 64.716275 
L 55.562061 64.279735 
L 55.956609 65.627611 
L 56.351158 63.286382 
L 56.745706 71.560704 
L 57.140254 66.215293 
L 57.534802 69.495487 
L 57.929351 68.925859 
L 58.323899 69.869422 
L 58.718447 66.832638 
L 59.112995 63.750399 
L 59.507544 65.214025 
L 59.902092 70.798662 
L 60.29664 68.18794 
L 60.691188 69.325877 
L 61.085737 69.639317 
L 61.480285 65.01837 
L 61.874833 70.96473 
L 62.269381 69.811679 
L 62.66393 65.820741 
L 63.058478 64.709302 
L 63.453026 64.748915 
L 63.847574 67.842839 
L 64.242122 66.855253 
L 64.636671 69.313212 
L 65.031219 66.704262 
L 65.425767 68.90381 
L 65.820315 62.413339 
L 66.214864 61.243705 
L 66.609412 66.887064 
L 67.00396 64.330429 
L 67.398508 59.905288 
L 67.793057 62.038236 
L 68.187605 62.50312 
L 68.582153 70.027839 
L 68.976701 64.861348 
L 69.37125 61.82969 
L 69.765798 57.485774 
L 70.160346 55.683152 
L 70.554894 52.375105 
L 70.949443 52.615613 
L 71.343991 57.614 
L 71.738539 59.573605 
L 72.133087 58.787404 
L 72.527636 61.097161 
L 72.922184 53.004511 
L 73.316732 55.827774 
L 73.71128 54.47055 
L 74.105829 50.272536 
L 74.500377 46.418907 
L 74.894925 44.483952 
L 75.289473 45.575264 
L 75.684022 39.995527 
L 76.07857 48.569985 
L 76.473118 44.604526 
L 76.867666 47.460957 
L 77.262215 45.614199 
" clip-path="url(#p8a1e495b91)" style="fill: none; stroke-dasharray: 1.5,3; stroke-dashoffset: 0; stroke: #000000; stroke-opacity: 0.8; stroke-width: 1.5"/>
   </g>
   <g id="line2d_7">
    <path d="M 37.80739 86.791963 
L 38.201938 86.857132 
L 38.596487 86.814314 
L 38.991035 86.856679 
L 39.385583 86.654692 
L 39.780131 86.688689 
L 40.17468 86.850046 
L 40.569228 86.895577 
L 40.963776 86.71594 
L 41.358324 86.624991 
L 41.752873 86.698112 
L 42.147421 86.738894 
L 42.541969 86.693476 
L 42.936517 86.725325 
L 43.331066 86.851139 
L 43.725614 86.570339 
L 44.120162 86.728454 
L 44.51471 86.702899 
L 44.909259 86.726607 
L 45.303807 86.667809 
L 45.698355 86.876957 
L 46.092903 86.816425 
L 46.487452 86.716016 
L 46.882 86.737085 
L 47.276548 86.715827 
L 47.671096 86.74745 
L 48.065645 86.751822 
L 48.460193 86.631587 
L 48.854741 86.700939 
L 49.249289 86.873603 
L 49.643837 86.688162 
L 50.038386 86.710739 
L 50.432934 86.81895 
L 50.827482 86.815219 
L 51.22203 86.655823 
L 51.616579 86.638372 
L 52.011127 86.657406 
L 52.405675 86.717109 
L 52.800223 86.859921 
L 53.194772 86.802215 
L 53.58932 86.832934 
L 53.983868 86.788194 
L 54.378416 86.833198 
L 54.772965 86.830672 
L 55.167513 86.739007 
L 55.562061 86.870587 
L 55.956609 86.893051 
L 56.351158 86.747752 
L 56.745706 86.889433 
L 57.140254 86.765919 
L 57.534802 86.689783 
L 57.929351 86.808736 
L 58.323899 86.722762 
L 58.718447 86.783031 
L 59.112995 86.760077 
L 59.507544 86.898818 
L 59.902092 86.852646 
L 60.29664 86.736595 
L 60.691188 86.637656 
L 61.085737 86.765014 
L 61.480285 86.844317 
L 61.874833 86.727662 
L 62.269381 86.754084 
L 62.66393 86.716619 
L 63.058478 86.84247 
L 63.453026 86.817669 
L 63.847574 86.820835 
L 64.242122 86.915666 
L 64.636671 86.794602 
L 65.031219 86.816124 
L 65.425767 86.520172 
L 65.820315 86.61048 
L 66.214864 86.727511 
L 66.609412 86.799125 
L 67.00396 86.745302 
L 67.398508 86.731997 
L 67.793057 86.618433 
L 68.187605 86.727361 
L 68.582153 86.826979 
L 68.976701 86.807605 
L 69.37125 86.692346 
L 69.765798 86.662004 
L 70.160346 87.00311 
L 70.554894 86.896255 
L 70.949443 86.553717 
L 71.343991 86.600944 
L 71.738539 86.721443 
L 72.133087 86.700675 
L 72.527636 86.718164 
L 72.922184 86.834102 
L 73.316732 86.748242 
L 73.71128 86.7375 
L 74.105829 86.755252 
L 74.500377 86.622956 
L 74.894925 86.78533 
L 75.289473 86.604977 
L 75.684022 86.709005 
L 76.07857 86.812204 
L 76.473118 86.793019 
L 76.867666 86.693514 
L 77.262215 86.564911 
" clip-path="url(#p8a1e495b91)" style="fill: none; stroke: #cc78a6; stroke-width: 1.5; stroke-linecap: square"/>
   </g>
   <g id="line2d_8">
    <path d="M 37.80739 86.782126 
L 38.201938 86.852759 
L 38.596487 86.77357 
L 38.991035 86.815897 
L 39.385583 86.634753 
L 39.780131 86.724835 
L 40.17468 86.815031 
L 40.569228 86.846314 
L 40.963776 86.70908 
L 41.358324 86.735841 
L 41.752873 86.772439 
L 42.147421 86.848312 
L 42.541969 86.773683 
L 42.936517 86.779714 
L 43.331066 86.771686 
L 43.725614 86.637128 
L 44.120162 86.773042 
L 44.51471 86.685599 
L 44.909259 86.793207 
L 45.303807 86.706857 
L 45.698355 86.886192 
L 46.092903 86.834668 
L 46.487452 86.760793 
L 46.882 86.691931 
L 47.276548 86.793471 
L 47.671096 86.76166 
L 48.065645 86.814314 
L 48.460193 86.658499 
L 48.854741 86.730414 
L 49.249289 86.82875 
L 49.643837 86.714659 
L 50.038386 86.801499 
L 50.432934 86.796449 
L 50.827482 86.76475 
L 51.22203 86.681264 
L 51.616579 86.746922 
L 52.011127 86.723931 
L 52.405675 86.739309 
L 52.800223 86.825396 
L 53.194772 86.806701 
L 53.58932 86.783219 
L 53.983868 86.773042 
L 54.378416 86.884345 
L 54.772965 86.825056 
L 55.167513 86.755629 
L 55.562061 86.894107 
L 55.956609 86.849933 
L 56.351158 86.756722 
L 56.745706 86.834781 
L 57.140254 86.709947 
L 57.534802 86.714169 
L 57.929351 86.793961 
L 58.323899 86.72182 
L 58.718447 86.742249 
L 59.112995 86.738253 
L 59.507544 86.851139 
L 59.902092 86.814767 
L 60.29664 86.796449 
L 60.691188 86.701542 
L 61.085737 86.735163 
L 61.480285 86.873339 
L 61.874833 86.730715 
L 62.269381 86.772816 
L 62.66393 86.691026 
L 63.058478 86.875073 
L 63.453026 86.85634 
L 63.847574 86.832444 
L 64.242122 86.926785 
L 64.636671 86.782201 
L 65.031219 86.744397 
L 65.425767 86.624577 
L 65.820315 86.671578 
L 66.214864 86.693589 
L 66.609412 86.754121 
L 67.00396 86.766296 
L 67.398508 86.743078 
L 67.793057 86.669844 
L 68.187605 86.710475 
L 68.582153 86.805231 
L 68.976701 86.755855 
L 69.37125 86.717976 
L 69.765798 86.673425 
L 70.160346 86.955619 
L 70.554894 86.869834 
L 70.949443 86.672482 
L 71.343991 86.70957 
L 71.738539 86.747073 
L 72.133087 86.723064 
L 72.527636 86.776661 
L 72.922184 86.814164 
L 73.316732 86.791134 
L 73.71128 86.758607 
L 74.105829 86.742136 
L 74.500377 86.655936 
L 74.894925 86.71937 
L 75.289473 86.682508 
L 75.684022 86.705274 
L 76.07857 86.776774 
L 76.473118 86.789287 
L 76.867666 86.640181 
L 77.262215 86.619149 
" clip-path="url(#p8a1e495b91)" style="fill: none; stroke-dasharray: 1.5,3; stroke-dashoffset: 0; stroke: #000000; stroke-opacity: 0.8; stroke-width: 1.5"/>
   </g>
   <g id="line2d_9">
    <path d="M 37.80739 84.904838 
L 38.201938 85.082892 
L 38.596487 85.904184 
L 38.991035 86.172169 
L 39.385583 86.457265 
L 39.780131 86.352747 
L 40.17468 86.363942 
L 40.569228 86.511352 
L 40.963776 86.350976 
L 41.358324 85.334179 
L 41.752873 85.335008 
L 42.147421 85.349142 
L 42.541969 85.2274 
L 42.936517 85.003514 
L 43.331066 85.593269 
L 43.725614 84.843251 
L 44.120162 84.55348 
L 44.51471 84.244261 
L 44.909259 84.544698 
L 45.303807 84.791425 
L 45.698355 84.531996 
L 46.092903 84.550691 
L 46.487452 84.591171 
L 46.882 83.799731 
L 47.276548 83.572339 
L 47.671096 83.104403 
L 48.065645 82.71622 
L 48.460193 83.274541 
L 48.854741 83.689031 
L 49.249289 84.284553 
L 49.643837 84.023428 
L 50.038386 82.449027 
L 50.432934 81.882829 
L 50.827482 80.450976 
L 51.22203 81.236198 
L 51.616579 80.47932 
L 52.011127 80.761816 
L 52.405675 80.543056 
L 52.800223 79.136456 
L 53.194772 80.930937 
L 53.58932 78.613 
L 53.983868 79.081616 
L 54.378416 77.809875 
L 54.772965 77.953893 
L 55.167513 79.205771 
L 55.562061 79.795412 
L 55.956609 79.066238 
L 56.351158 80.302021 
L 56.745706 80.959469 
L 57.140254 80.33534 
L 57.534802 78.979359 
L 57.929351 79.16073 
L 58.323899 80.270134 
L 58.718447 78.549867 
L 59.112995 75.676664 
L 59.507544 77.635817 
L 59.902092 76.927448 
L 60.29664 76.214216 
L 60.691188 76.410211 
L 61.085737 76.261255 
L 61.480285 74.167468 
L 61.874833 71.665599 
L 62.269381 72.376343 
L 62.66393 71.38216 
L 63.058478 72.736068 
L 63.453026 73.344518 
L 63.847574 74.176853 
L 64.242122 72.548818 
L 64.636671 71.081799 
L 65.031219 72.003689 
L 65.425767 72.732525 
L 65.820315 72.455984 
L 66.214864 73.718942 
L 66.609412 73.079058 
L 67.00396 73.604587 
L 67.398508 71.735252 
L 67.793057 68.392114 
L 68.187605 70.201557 
L 68.582153 70.713103 
L 68.976701 66.83441 
L 69.37125 66.412306 
L 69.765798 67.102922 
L 70.160346 70.125949 
L 70.554894 68.004384 
L 70.949443 67.894325 
L 71.343991 66.605775 
L 71.738539 68.304934 
L 72.133087 71.058393 
L 72.527636 69.373255 
L 72.922184 71.46625 
L 73.316732 70.556647 
L 73.71128 71.507898 
L 74.105829 70.848189 
L 74.500377 71.939652 
L 74.894925 72.87839 
L 75.289473 73.603871 
L 75.684022 74.06917 
L 76.07857 74.721304 
L 76.473118 75.919621 
L 76.867666 77.495681 
L 77.262215 79.001823 
" clip-path="url(#p8a1e495b91)" style="fill: none; stroke: #55b2e8; stroke-width: 1.5; stroke-linecap: square"/>
   </g>
   <g id="line2d_10">
    <path d="M 37.80739 84.950105 
L 38.201938 85.018741 
L 38.596487 85.814177 
L 38.991035 86.210425 
L 39.385583 86.429374 
L 39.780131 86.44249 
L 40.17468 86.371781 
L 40.569228 86.462768 
L 40.963776 86.323989 
L 41.358324 85.324643 
L 41.752873 85.350047 
L 42.147421 85.317256 
L 42.541969 85.243795 
L 42.936517 84.967255 
L 43.331066 85.594173 
L 43.725614 84.837898 
L 44.120162 84.493137 
L 44.51471 84.197599 
L 44.909259 84.509344 
L 45.303807 84.776424 
L 45.698355 84.540665 
L 46.092903 84.511492 
L 46.487452 84.592491 
L 46.882 83.791476 
L 47.276548 83.504834 
L 47.671096 83.058909 
L 48.065645 82.696395 
L 48.460193 83.263384 
L 48.854741 83.665512 
L 49.249289 84.384812 
L 49.643837 84.035339 
L 50.038386 82.536056 
L 50.432934 81.973627 
L 50.827482 80.470689 
L 51.22203 81.21234 
L 51.616579 80.500804 
L 52.011127 80.801543 
L 52.405675 80.577242 
L 52.800223 79.256691 
L 53.194772 80.960675 
L 53.58932 78.669349 
L 53.983868 79.146595 
L 54.378416 77.922987 
L 54.772965 78.010468 
L 55.167513 79.179801 
L 55.562061 79.749881 
L 55.956609 79.115613 
L 56.351158 80.36847 
L 56.745706 80.92958 
L 57.140254 80.227203 
L 57.534802 78.873258 
L 57.929351 79.136456 
L 58.323899 80.19558 
L 58.718447 78.517566 
L 59.112995 75.510106 
L 59.507544 77.53145 
L 59.902092 76.874228 
L 60.29664 76.14984 
L 60.691188 76.246555 
L 61.085737 76.128582 
L 61.480285 74.03815 
L 61.874833 71.602164 
L 62.269381 72.22701 
L 62.66393 71.291626 
L 63.058478 72.590504 
L 63.453026 73.194167 
L 63.847574 73.913919 
L 64.242122 72.376644 
L 64.636671 71.040112 
L 65.031219 71.874107 
L 65.425767 72.52756 
L 65.820315 72.180423 
L 66.214864 73.555739 
L 66.609412 72.870701 
L 67.00396 73.395401 
L 67.398508 71.575893 
L 67.793057 68.283827 
L 68.187605 70.111438 
L 68.582153 70.510513 
L 68.976701 66.636154 
L 69.37125 66.290261 
L 69.765798 67.016119 
L 70.160346 69.993766 
L 70.554894 67.821581 
L 70.949443 67.730482 
L 71.343991 66.528244 
L 71.738539 68.171997 
L 72.133087 70.909814 
L 72.527636 69.146429 
L 72.922184 71.342698 
L 73.316732 70.383041 
L 73.71128 71.284163 
L 74.105829 70.658752 
L 74.500377 71.701104 
L 74.894925 72.738028 
L 75.289473 73.511678 
L 75.684022 73.943922 
L 76.07857 74.486751 
L 76.473118 75.819174 
L 76.867666 77.422447 
L 77.262215 78.919506 
" clip-path="url(#p8a1e495b91)" style="fill: none; stroke-dasharray: 1.5,3; stroke-dashoffset: 0; stroke: #000000; stroke-opacity: 0.8; stroke-width: 1.5"/>
   </g>
   <g id="line2d_11">
    <path d="M 37.80739 86.692647 
L 38.201938 86.654164 
L 38.596487 86.654164 
L 38.991035 86.654692 
L 39.385583 86.683639 
L 39.780131 86.654164 
L 40.17468 86.724609 
L 40.569228 86.660157 
L 40.963776 86.660157 
L 41.358324 86.654692 
L 41.752873 86.654164 
L 42.147421 86.534871 
L 42.541969 86.541392 
L 42.936517 86.654164 
L 43.331066 86.654164 
L 43.725614 86.540864 
L 44.120162 86.722159 
L 44.51471 86.720124 
L 44.909259 86.534871 
L 45.303807 86.654164 
L 45.698355 86.534871 
L 46.092903 86.654164 
L 46.487452 86.654164 
L 46.882 86.654164 
L 47.276548 86.534871 
L 47.671096 86.439701 
L 48.065645 86.660157 
L 48.460193 86.654164 
L 48.854741 86.725137 
L 49.249289 86.540864 
L 49.643837 86.654164 
L 50.038386 86.791059 
L 50.432934 86.604374 
L 50.827482 86.728077 
L 51.22203 86.534871 
L 51.616579 86.692647 
L 52.011127 86.654164 
L 52.405675 86.660157 
L 52.800223 86.541392 
L 53.194772 86.540864 
L 53.58932 86.445656 
L 53.983868 86.658687 
L 54.378416 86.654164 
L 54.772965 86.564949 
L 55.167513 86.654164 
L 55.562061 86.540864 
L 55.956609 86.535399 
L 56.351158 86.693175 
L 56.745706 86.660157 
L 57.140254 86.698602 
L 57.534802 86.652167 
L 57.929351 86.696605 
L 58.323899 86.541392 
L 58.718447 86.564384 
L 59.112995 86.691177 
L 59.507544 86.654164 
L 59.902092 86.567399 
L 60.29664 86.606786 
L 60.691188 86.535399 
L 61.085737 86.660685 
L 61.480285 86.654164 
L 61.874833 86.660157 
L 62.269381 86.541053 
L 62.66393 86.654164 
L 63.058478 86.652167 
L 63.453026 86.654164 
L 63.847574 86.654164 
L 64.242122 86.660157 
L 64.636671 86.532874 
L 65.031219 86.534871 
L 65.425767 86.68722 
L 65.820315 86.654692 
L 66.214864 86.535399 
L 66.609412 86.534871 
L 67.00396 86.693175 
L 67.398508 86.558956 
L 67.793057 86.654692 
L 68.187605 86.534344 
L 68.582153 86.654164 
L 68.976701 86.534871 
L 69.37125 86.660685 
L 69.765798 86.535399 
L 70.160346 86.654692 
L 70.554894 86.534871 
L 70.949443 86.654164 
L 71.343991 86.540864 
L 71.738539 86.797052 
L 72.133087 86.571357 
L 72.527636 86.689632 
L 72.922184 86.534871 
L 73.316732 86.690612 
L 73.71128 86.654164 
L 74.105829 86.540864 
L 74.500377 86.660685 
L 74.894925 86.660157 
L 75.289473 86.534871 
L 75.684022 86.654164 
L 76.07857 86.654164 
L 76.473118 86.654692 
L 76.867666 86.534871 
L 77.262215 86.660157 
" clip-path="url(#p8a1e495b91)" style="fill: none; stroke: #e59c00; stroke-width: 1.5; stroke-linecap: square"/>
   </g>
   <g id="line2d_12">
    <path d="M 37.80739 86.681415 
L 38.201938 86.684506 
L 38.596487 86.703879 
L 38.991035 86.656991 
L 39.385583 86.673688 
L 39.780131 86.594424 
L 40.17468 86.741269 
L 40.569228 86.768105 
L 40.963776 86.655446 
L 41.358324 86.642405 
L 41.752873 86.664152 
L 42.147421 86.558315 
L 42.541969 86.584775 
L 42.936517 86.658989 
L 43.331066 86.661326 
L 43.725614 86.593708 
L 44.120162 86.753895 
L 44.51471 86.647267 
L 44.909259 86.57897 
L 45.303807 86.624388 
L 45.698355 86.623257 
L 46.092903 86.640671 
L 46.487452 86.658725 
L 46.882 86.684129 
L 47.276548 86.561255 
L 47.671096 86.486363 
L 48.065645 86.7326 
L 48.460193 86.602603 
L 48.854741 86.779262 
L 49.249289 86.579347 
L 49.643837 86.587526 
L 50.038386 86.854003 
L 50.432934 86.594311 
L 50.827482 86.698866 
L 51.22203 86.601095 
L 51.616579 86.734371 
L 52.011127 86.602339 
L 52.405675 86.652845 
L 52.800223 86.632906 
L 53.194772 86.661476 
L 53.58932 86.507244 
L 53.983868 86.639201 
L 54.378416 86.647116 
L 54.772965 86.63204 
L 55.167513 86.635997 
L 55.562061 86.611988 
L 55.956609 86.594687 
L 56.351158 86.741796 
L 56.745706 86.617943 
L 57.140254 86.716996 
L 57.534802 86.653147 
L 57.929351 86.605543 
L 58.323899 86.60607 
L 58.718447 86.629024 
L 59.112995 86.725891 
L 59.507544 86.602226 
L 59.902092 86.601585 
L 60.29664 86.615945 
L 60.691188 86.583795 
L 61.085737 86.670372 
L 61.480285 86.615493 
L 61.874833 86.624614 
L 62.269381 86.568982 
L 62.66393 86.623371 
L 63.058478 86.636374 
L 63.453026 86.691139 
L 63.847574 86.614325 
L 64.242122 86.68051 
L 64.636671 86.559069 
L 65.031219 86.600492 
L 65.425767 86.67987 
L 65.820315 86.625481 
L 66.214864 86.582815 
L 66.609412 86.605203 
L 67.00396 86.666904 
L 67.398508 86.572299 
L 67.793057 86.664416 
L 68.187605 86.598984 
L 68.582153 86.593934 
L 68.976701 86.604073 
L 69.37125 86.682018 
L 69.765798 86.592577 
L 70.160346 86.614061 
L 70.554894 86.625745 
L 70.949443 86.669128 
L 71.343991 86.569246 
L 71.738539 86.770479 
L 72.133087 86.613835 
L 72.527636 86.658499 
L 72.922184 86.59122 
L 73.316732 86.670975 
L 73.71128 86.636713 
L 74.105829 86.584398 
L 74.500377 86.631512 
L 74.894925 86.666904 
L 75.289473 86.566721 
L 75.684022 86.651111 
L 76.07857 86.658838 
L 76.473118 86.650094 
L 76.867666 86.588242 
L 77.262215 86.635017 
" clip-path="url(#p8a1e495b91)" style="fill: none; stroke-dasharray: 1.5,3; stroke-dashoffset: 0; stroke: #000000; stroke-opacity: 0.8; stroke-width: 1.5"/>
   </g>
   <g id="patch_3">
    <path d="M 35.045553 87.00311 
L 35.045553 18.657984 
" style="fill: none; stroke: #000000; stroke-width: 0.8; stroke-linejoin: miter; stroke-linecap: square"/>
   </g>
   <g id="patch_4">
    <path d="M 37.80739 91.78726 
L 77.262215 91.78726 
" style="fill: none; stroke: #000000; stroke-width: 0.8; stroke-linejoin: miter; stroke-linecap: square"/>
   </g>
   <g id="text_7">
    <!-- Input Noise -->
    <g transform="translate(29.714255 10.873834) scale(0.11 -0.11)">
     <defs>
      <path id="ArialMT-49" d="M 597 0 
L 597 4581 
L 1203 4581 
L 1203 0 
L 597 0 
z
" transform="scale(0.015625)"/>
      <path id="ArialMT-6e" d="M 422 0 
L 422 3319 
L 928 3319 
L 928 2847 
Q 1294 3394 1984 3394 
Q 2284 3394 2536 3286 
Q 2788 3178 2913 3003 
Q 3038 2828 3088 2588 
Q 3119 2431 3119 2041 
L 3119 0 
L 2556 0 
L 2556 2019 
Q 2556 2363 2490 2533 
Q 2425 2703 2258 2804 
Q 2091 2906 1866 2906 
Q 1506 2906 1245 2678 
Q 984 2450 984 1813 
L 984 0 
L 422 0 
z
" transform="scale(0.015625)"/>
      <path id="ArialMT-75" d="M 2597 0 
L 2597 488 
Q 2209 -75 1544 -75 
Q 1250 -75 995 37 
Q 741 150 617 320 
Q 494 491 444 738 
Q 409 903 409 1263 
L 409 3319 
L 972 3319 
L 972 1478 
Q 972 1038 1006 884 
Q 1059 663 1231 536 
Q 1403 409 1656 409 
Q 1909 409 2131 539 
Q 2353 669 2445 892 
Q 2538 1116 2538 1541 
L 2538 3319 
L 3100 3319 
L 3100 0 
L 2597 0 
z
" transform="scale(0.015625)"/>
      <path id="ArialMT-4e" d="M 488 0 
L 488 4581 
L 1109 4581 
L 3516 984 
L 3516 4581 
L 4097 4581 
L 4097 0 
L 3475 0 
L 1069 3600 
L 1069 0 
L 488 0 
z
" transform="scale(0.015625)"/>
      <path id="ArialMT-69" d="M 425 3934 
L 425 4581 
L 988 4581 
L 988 3934 
L 425 3934 
z
M 425 0 
L 425 3319 
L 988 3319 
L 988 0 
L 425 0 
z
" transform="scale(0.015625)"/>
     </defs>
     <use xlink:href="#ArialMT-49"/>
     <use xlink:href="#ArialMT-6e" transform="translate(27.783203 0)"/>
     <use xlink:href="#ArialMT-70" transform="translate(83.398438 0)"/>
     <use xlink:href="#ArialMT-75" transform="translate(139.013672 0)"/>
     <use xlink:href="#ArialMT-74" transform="translate(194.628906 0)"/>
     <use xlink:href="#ArialMT-20" transform="translate(222.412109 0)"/>
     <use xlink:href="#ArialMT-4e" transform="translate(250.195312 0)"/>
     <use xlink:href="#ArialMT-6f" transform="translate(322.412109 0)"/>
     <use xlink:href="#ArialMT-69" transform="translate(378.027344 0)"/>
     <use xlink:href="#ArialMT-73" transform="translate(400.244141 0)"/>
     <use xlink:href="#ArialMT-65" transform="translate(450.244141 0)"/>
    </g>
   </g>
  </g>
  <g id="axes_2">
   <g id="patch_5">
    <path d="M 118.013699 91.78726 
L 162.992199 91.78726 
L 162.992199 13.873834 
L 118.013699 13.873834 
L 118.013699 91.78726 
z
" style="fill: none"/>
   </g>
   <g id="matplotlib.axis_3">
    <g id="xtick_3">
     <g id="line2d_13">
      <g>
       <use xlink:href="#mfa2db2919b" x="120.775537" y="91.78726" style="stroke: #000000; stroke-width: 1.1"/>
      </g>
     </g>
     <g id="text_8">
      <!-- 0 -->
      <g transform="translate(117.995068 105.945073) scale(0.1 -0.1)">
       <use xlink:href="#ArialMT-30"/>
      </g>
     </g>
    </g>
    <g id="xtick_4">
     <g id="line2d_14">
      <g>
       <use xlink:href="#mfa2db2919b" x="160.230361" y="91.78726" style="stroke: #000000; stroke-width: 1.1"/>
      </g>
     </g>
     <g id="text_9">
      <!-- 100 -->
      <g transform="translate(151.888955 105.945073) scale(0.1 -0.1)">
       <use xlink:href="#ArialMT-31"/>
       <use xlink:href="#ArialMT-30" transform="translate(55.615234 0)"/>
       <use xlink:href="#ArialMT-30" transform="translate(111.230469 0)"/>
      </g>
     </g>
    </g>
    <g id="text_10">
     <!-- Step -->
     <g transform="translate(130.217793 110.21226) scale(0.1 -0.1)">
      <use xlink:href="#ArialMT-53"/>
      <use xlink:href="#ArialMT-74" transform="translate(66.699219 0)"/>
      <use xlink:href="#ArialMT-65" transform="translate(94.482422 0)"/>
      <use xlink:href="#ArialMT-70" transform="translate(150.097656 0)"/>
     </g>
    </g>
   </g>
   <g id="matplotlib.axis_4">
    <g id="ytick_3">
     <g id="line2d_15">
      <g>
       <use xlink:href="#m934948fd0f" x="118.013699" y="77.270752" style="stroke: #000000; stroke-width: 1.1"/>
      </g>
     </g>
     <g id="text_11">
      <!-- 2.75 -->
      <g transform="translate(91.552762 80.849659) scale(0.1 -0.1)">
       <defs>
        <path id="ArialMT-32" d="M 3222 541 
L 3222 0 
L 194 0 
Q 188 203 259 391 
Q 375 700 629 1000 
Q 884 1300 1366 1694 
Q 2113 2306 2375 2664 
Q 2638 3022 2638 3341 
Q 2638 3675 2398 3904 
Q 2159 4134 1775 4134 
Q 1369 4134 1125 3890 
Q 881 3647 878 3216 
L 300 3275 
Q 359 3922 746 4261 
Q 1134 4600 1788 4600 
Q 2447 4600 2831 4234 
Q 3216 3869 3216 3328 
Q 3216 3053 3103 2787 
Q 2991 2522 2730 2228 
Q 2469 1934 1863 1422 
Q 1356 997 1212 845 
Q 1069 694 975 541 
L 3222 541 
z
" transform="scale(0.015625)"/>
        <path id="ArialMT-37" d="M 303 3981 
L 303 4522 
L 3269 4522 
L 3269 4084 
Q 2831 3619 2401 2847 
Q 1972 2075 1738 1259 
Q 1569 684 1522 0 
L 944 0 
Q 953 541 1156 1306 
Q 1359 2072 1739 2783 
Q 2119 3494 2547 3981 
L 303 3981 
z
" transform="scale(0.015625)"/>
       </defs>
       <use xlink:href="#ArialMT-32"/>
       <use xlink:href="#ArialMT-2e" transform="translate(55.615234 0)"/>
       <use xlink:href="#ArialMT-37" transform="translate(83.398438 0)"/>
       <use xlink:href="#ArialMT-35" transform="translate(139.013672 0)"/>
      </g>
     </g>
    </g>
    <g id="ytick_4">
     <g id="line2d_16">
      <g>
       <use xlink:href="#m934948fd0f" x="118.013699" y="52.65696" style="stroke: #000000; stroke-width: 1.1"/>
      </g>
     </g>
     <g id="text_12">
      <!-- 3.00 -->
      <g transform="translate(91.552762 56.235866) scale(0.1 -0.1)">
       <defs>
        <path id="ArialMT-33" d="M 269 1209 
L 831 1284 
Q 928 806 1161 595 
Q 1394 384 1728 384 
Q 2125 384 2398 659 
Q 2672 934 2672 1341 
Q 2672 1728 2419 1979 
Q 2166 2231 1775 2231 
Q 1616 2231 1378 2169 
L 1441 2663 
Q 1497 2656 1531 2656 
Q 1891 2656 2178 2843 
Q 2466 3031 2466 3422 
Q 2466 3731 2256 3934 
Q 2047 4138 1716 4138 
Q 1388 4138 1169 3931 
Q 950 3725 888 3313 
L 325 3413 
Q 428 3978 793 4289 
Q 1159 4600 1703 4600 
Q 2078 4600 2393 4439 
Q 2709 4278 2876 4000 
Q 3044 3722 3044 3409 
Q 3044 3113 2884 2869 
Q 2725 2625 2413 2481 
Q 2819 2388 3044 2092 
Q 3269 1797 3269 1353 
Q 3269 753 2831 336 
Q 2394 -81 1725 -81 
Q 1122 -81 723 278 
Q 325 638 269 1209 
z
" transform="scale(0.015625)"/>
       </defs>
       <use xlink:href="#ArialMT-33"/>
       <use xlink:href="#ArialMT-2e" transform="translate(55.615234 0)"/>
       <use xlink:href="#ArialMT-30" transform="translate(83.398438 0)"/>
       <use xlink:href="#ArialMT-30" transform="translate(139.013672 0)"/>
      </g>
     </g>
    </g>
    <g id="ytick_5">
     <g id="line2d_17">
      <g>
       <use xlink:href="#m934948fd0f" x="118.013699" y="28.043168" style="stroke: #000000; stroke-width: 1.1"/>
      </g>
     </g>
     <g id="text_13">
      <!-- 3.25 -->
      <g transform="translate(91.552762 31.622074) scale(0.1 -0.1)">
       <use xlink:href="#ArialMT-33"/>
       <use xlink:href="#ArialMT-2e" transform="translate(55.615234 0)"/>
       <use xlink:href="#ArialMT-32" transform="translate(83.398438 0)"/>
       <use xlink:href="#ArialMT-35" transform="translate(139.013672 0)"/>
      </g>
     </g>
    </g>
   </g>
   <g id="line2d_18">
    <path d="M 120.775537 41.950654 
L 121.170085 40.18819 
L 121.564634 40.577241 
L 121.959182 40.813925 
L 122.35373 40.975751 
L 122.748278 40.011927 
L 123.142827 39.526518 
L 123.537375 39.436262 
L 123.931923 39.753578 
L 124.326471 39.560625 
L 124.721019 38.888319 
L 125.115568 39.614779 
L 125.510116 39.466661 
L 125.904664 40.54642 
L 126.299212 41.924223 
L 126.693761 43.711522 
L 127.088309 42.564863 
L 127.482857 39.967328 
L 127.877405 39.990567 
L 128.271954 37.979964 
L 128.666502 40.267742 
L 129.06105 40.935189 
L 129.455598 40.418161 
L 129.850147 43.204775 
L 130.244695 44.199161 
L 130.639243 42.283439 
L 131.033791 43.616008 
L 131.42834 42.22067 
L 131.822888 41.981921 
L 132.217436 44.353688 
L 132.611984 44.297351 
L 133.006533 42.584088 
L 133.401081 43.069497 
L 133.795629 43.947548 
L 134.190177 44.398217 
L 134.584726 44.60354 
L 134.979274 45.468728 
L 135.373822 44.687411 
L 135.76837 45.205871 
L 136.162919 44.606873 
L 136.557467 45.88428 
L 136.952015 44.915433 
L 137.346563 44.049823 
L 137.741111 43.168884 
L 138.13566 42.726924 
L 138.530208 41.347689 
L 138.924756 40.583133 
L 139.319304 40.271498 
L 139.713853 42.313649 
L 140.108401 40.273939 
L 140.502949 38.658044 
L 140.897497 36.42672 
L 141.292046 37.075247 
L 141.686594 37.160902 
L 142.081142 37.780227 
L 142.47569 37.91513 
L 142.870239 39.296689 
L 143.264787 39.777802 
L 143.659335 39.801792 
L 144.053883 36.884876 
L 144.448432 34.482852 
L 144.84298 35.276633 
L 145.237528 33.653086 
L 145.632076 29.410807 
L 146.026625 29.965158 
L 146.421173 32.504361 
L 146.815721 32.470348 
L 147.210269 34.168494 
L 147.604818 34.184597 
L 147.999366 36.307239 
L 148.393914 32.830315 
L 148.788462 32.127822 
L 149.183011 35.213771 
L 149.577559 35.68951 
L 149.972107 35.502425 
L 150.366655 34.73984 
L 150.761204 34.064953 
L 151.155752 32.264696 
L 151.5503 31.819521 
L 151.944848 29.99565 
L 152.339396 30.804501 
L 152.733945 29.903094 
L 153.128493 31.305215 
L 153.523041 30.79922 
L 153.917589 33.404219 
L 154.312138 32.451006 
L 154.706686 33.561304 
L 155.101234 32.042472 
L 155.495782 33.272369 
L 155.890331 32.615321 
L 156.284879 31.952498 
L 156.679427 31.426902 
L 157.073975 29.864644 
L 157.468524 30.564907 
L 157.863072 31.473474 
L 158.25762 30.408315 
L 158.652168 27.432104 
L 159.046717 25.538118 
L 159.441265 24.536056 
L 159.835813 26.037635 
L 160.230361 26.219203 
" clip-path="url(#pfd2f027621)" style="fill: none; stroke: #efe440; stroke-width: 1.5; stroke-linecap: square"/>
   </g>
   <g id="line2d_19">
    <path d="M 120.775537 41.543224 
L 121.170085 39.768084 
L 121.564634 40.132229 
L 121.959182 40.321074 
L 122.35373 40.486398 
L 122.748278 39.532809 
L 123.142827 39.0524 
L 123.537375 38.974819 
L 123.931923 39.288332 
L 124.326471 39.094769 
L 124.721019 38.404671 
L 125.115568 39.151387 
L 125.510116 38.960195 
L 125.904664 40.051739 
L 126.299212 41.416185 
L 126.693761 43.21454 
L 127.088309 42.065135 
L 127.482857 39.474407 
L 127.877405 39.494923 
L 128.271954 37.474954 
L 128.666502 39.773741 
L 129.06105 40.450742 
L 129.455598 39.941131 
L 129.850147 42.736149 
L 130.244695 43.709527 
L 130.639243 41.805048 
L 131.033791 43.115928 
L 131.42834 41.733172 
L 131.822888 41.484141 
L 132.217436 43.872832 
L 132.611984 43.800017 
L 133.006533 42.103725 
L 133.401081 42.60451 
L 133.795629 43.477913 
L 134.190177 43.903629 
L 134.584726 44.106582 
L 134.979274 44.973788 
L 135.373822 44.180195 
L 135.76837 44.707927 
L 136.162919 44.111793 
L 136.557467 45.413283 
L 136.952015 44.448028 
L 137.346563 43.557536 
L 137.741111 42.705446 
L 138.13566 42.239731 
L 138.530208 40.856552 
L 138.924756 40.115141 
L 139.319304 39.813717 
L 139.713853 41.877487 
L 140.108401 39.831463 
L 140.502949 38.238079 
L 140.897497 36.011613 
L 141.292046 36.65115 
L 141.686594 36.738284 
L 142.081142 37.366248 
L 142.47569 37.492747 
L 142.870239 38.863696 
L 143.264787 39.348166 
L 143.659335 39.356945 
L 144.053883 36.44402 
L 144.448432 34.047066 
L 144.84298 34.858147 
L 145.237528 33.214483 
L 145.632076 28.973941 
L 146.026625 29.536273 
L 146.421173 32.061768 
L 146.815721 32.04942 
L 147.210269 33.739938 
L 147.604818 33.764186 
L 147.999366 35.879669 
L 148.393914 32.397322 
L 148.788462 31.68666 
L 149.183011 34.803688 
L 149.577559 35.27654 
L 149.972107 35.070677 
L 150.366655 34.280933 
L 150.761204 33.611326 
L 151.155752 31.799404 
L 151.5503 31.341998 
L 151.944848 29.533315 
L 152.339396 30.335523 
L 152.733945 29.43712 
L 153.128493 30.821238 
L 153.523041 30.346251 
L 153.917589 32.949912 
L 154.312138 32.02975 
L 154.706686 33.124204 
L 155.101234 31.582555 
L 155.495782 32.837075 
L 155.890331 32.180215 
L 156.284879 31.462981 
L 156.679427 30.943699 
L 157.073975 29.368742 
L 157.468524 30.076774 
L 157.863072 30.995834 
L 158.25762 29.920769 
L 158.652168 26.96038 
L 159.046717 25.050385 
L 159.441265 24.045037 
L 159.835813 25.511405 
L 160.230361 25.693255 
" clip-path="url(#pfd2f027621)" style="fill: none; stroke-dasharray: 1.5,3; stroke-dashoffset: 0; stroke: #000000; stroke-opacity: 0.8; stroke-width: 1.5"/>
   </g>
   <g id="line2d_20">
    <path d="M 120.775537 28.424026 
L 121.170085 23.613006 
L 121.564634 23.359797 
L 121.959182 22.935161 
L 122.35373 23.109428 
L 122.748278 24.643635 
L 123.142827 19.716797 
L 123.537375 20.556117 
L 123.931923 22.070583 
L 124.326471 18.945574 
L 124.721019 21.687307 
L 125.115568 21.451445 
L 125.510116 22.917297 
L 125.904664 25.030573 
L 126.299212 26.77224 
L 126.693761 28.670029 
L 127.088309 29.88678 
L 127.482857 26.953948 
L 127.877405 28.239477 
L 128.271954 28.622542 
L 128.666502 28.455105 
L 129.06105 29.93253 
L 129.455598 27.46262 
L 129.850147 29.039056 
L 130.244695 29.998443 
L 130.639243 33.53884 
L 131.033791 32.793015 
L 131.42834 33.06383 
L 131.822888 35.396184 
L 132.217436 35.244522 
L 132.611984 35.45522 
L 133.006533 33.764703 
L 133.401081 33.568065 
L 133.795629 35.024692 
L 134.190177 36.704905 
L 134.584726 38.173714 
L 134.979274 37.439157 
L 135.373822 33.081881 
L 135.76837 35.389283 
L 136.162919 34.654772 
L 136.557467 35.28276 
L 136.952015 33.999156 
L 137.346563 36.81016 
L 137.741111 36.332825 
L 138.13566 36.146727 
L 138.530208 36.443996 
L 138.924756 35.722912 
L 139.319304 35.203537 
L 139.713853 31.776517 
L 140.108401 31.466854 
L 140.502949 30.799619 
L 140.897497 33.432599 
L 141.292046 31.470939 
L 141.686594 28.027863 
L 142.081142 31.201955 
L 142.47569 27.4833 
L 142.870239 24.14095 
L 143.264787 23.908632 
L 143.659335 25.705015 
L 144.053883 28.446842 
L 144.448432 29.313931 
L 144.84298 28.977203 
L 145.237528 27.009933 
L 145.632076 29.231915 
L 146.026625 28.409824 
L 146.421173 28.435058 
L 146.815721 28.559891 
L 147.210269 30.189401 
L 147.604818 28.825729 
L 147.999366 29.329659 
L 148.393914 28.113119 
L 148.788462 25.63943 
L 149.183011 23.863938 
L 149.577559 25.768605 
L 149.972107 26.631798 
L 150.366655 21.180678 
L 150.761204 24.338339 
L 151.155752 20.887212 
L 151.5503 21.998285 
L 151.944848 20.911694 
L 152.339396 21.248258 
L 152.733945 21.984013 
L 153.128493 22.601203 
L 153.523041 23.095743 
L 153.917589 22.838192 
L 154.312138 25.257868 
L 154.706686 25.640205 
L 155.101234 26.168383 
L 155.495782 26.358401 
L 155.890331 28.104058 
L 156.284879 27.901552 
L 156.679427 31.14353 
L 157.073975 31.839802 
L 157.468524 31.186744 
L 157.863072 30.885626 
L 158.25762 30.537208 
L 158.652168 32.230096 
L 159.046717 33.291758 
L 159.441265 37.472161 
L 159.835813 37.175197 
L 160.230361 35.567377 
" clip-path="url(#pfd2f027621)" style="fill: none; stroke: #cc78a6; stroke-width: 1.5; stroke-linecap: square"/>
   </g>
   <g id="line2d_21">
    <path d="M 120.775537 28.033872 
L 121.170085 23.238814 
L 121.564634 23.004548 
L 121.959182 22.596719 
L 122.35373 22.745048 
L 122.748278 24.279725 
L 123.142827 19.357863 
L 123.537375 20.20554 
L 123.931923 21.769512 
L 124.326471 18.658 
L 124.721019 21.385954 
L 125.115568 21.155514 
L 125.510116 22.600522 
L 125.904664 24.757318 
L 126.299212 26.457506 
L 126.693761 28.348934 
L 127.088309 29.551648 
L 127.482857 26.623723 
L 127.877405 27.935495 
L 128.271954 28.281236 
L 128.666502 28.099222 
L 129.06105 29.573431 
L 129.455598 27.093381 
L 129.850147 28.67531 
L 130.244695 29.635495 
L 130.639243 33.215727 
L 131.033791 32.425349 
L 131.42834 32.73412 
L 131.822888 35.060348 
L 132.217436 34.898662 
L 132.611984 35.127999 
L 133.006533 33.458795 
L 133.401081 33.266571 
L 133.795629 34.72909 
L 134.190177 36.372097 
L 134.584726 37.82802 
L 134.979274 37.047548 
L 135.373822 32.676047 
L 135.76837 34.968379 
L 136.162919 34.223657 
L 136.557467 34.866762 
L 136.952015 33.571727 
L 137.346563 36.402424 
L 137.741111 35.931217 
L 138.13566 35.745353 
L 138.530208 36.04957 
L 138.924756 35.320858 
L 139.319304 34.818594 
L 139.713853 31.381622 
L 140.108401 31.079095 
L 140.502949 30.425873 
L 140.897497 33.067891 
L 141.292046 31.121042 
L 141.686594 27.669117 
L 142.081142 30.823304 
L 142.47569 27.132113 
L 142.870239 23.77042 
L 143.264787 23.516248 
L 143.659335 25.326762 
L 144.053883 28.068707 
L 144.448432 28.98502 
L 144.84298 28.667329 
L 145.237528 26.720152 
L 145.632076 28.949833 
L 146.026625 28.128377 
L 146.421173 28.188093 
L 146.815721 28.330296 
L 147.210269 29.941661 
L 147.604818 28.574186 
L 147.999366 29.102951 
L 148.393914 27.889064 
L 148.788462 25.399061 
L 149.183011 23.624344 
L 149.577559 25.530536 
L 149.972107 26.36826 
L 150.366655 20.896061 
L 150.761204 24.023511 
L 151.155752 20.572619 
L 151.5503 21.71902 
L 151.944848 20.660997 
L 152.339396 21.013969 
L 152.733945 21.753057 
L 153.128493 22.387147 
L 153.523041 22.8715 
L 153.917589 22.635216 
L 154.312138 25.057098 
L 154.706686 25.470561 
L 155.101234 26.018669 
L 155.495782 26.212983 
L 155.890331 27.965799 
L 156.284879 27.754443 
L 156.679427 30.973323 
L 157.073975 31.67537 
L 157.468524 31.022688 
L 157.863072 30.741099 
L 158.25762 30.370968 
L 158.652168 32.068927 
L 159.046717 33.117138 
L 159.441265 37.276579 
L 159.835813 37.021375 
L 160.230361 35.424165 
" clip-path="url(#pfd2f027621)" style="fill: none; stroke-dasharray: 1.5,3; stroke-dashoffset: 0; stroke: #000000; stroke-opacity: 0.8; stroke-width: 1.5"/>
   </g>
   <g id="line2d_22">
    <path d="M 120.775537 86.863145 
L 121.170085 86.857229 
L 121.564634 86.87129 
L 121.959182 86.890867 
L 122.35373 86.879881 
L 122.748278 86.88352 
L 123.142827 86.901806 
L 123.537375 86.908449 
L 123.931923 86.908472 
L 124.326471 86.927767 
L 124.721019 86.935748 
L 125.115568 86.914035 
L 125.510116 86.923613 
L 125.904664 86.933542 
L 126.299212 86.93765 
L 126.693761 86.943917 
L 127.088309 86.949222 
L 127.482857 86.9538 
L 127.877405 86.94664 
L 128.271954 86.939293 
L 128.666502 86.943471 
L 129.06105 86.943589 
L 129.455598 86.962626 
L 129.850147 86.946171 
L 130.244695 86.949246 
L 130.639243 86.952696 
L 131.033791 86.930443 
L 131.42834 86.919857 
L 131.822888 86.920538 
L 132.217436 86.913237 
L 132.611984 86.921289 
L 133.006533 86.91981 
L 133.401081 86.905867 
L 133.795629 86.909012 
L 134.190177 86.918167 
L 134.584726 86.905092 
L 134.979274 86.906195 
L 135.373822 86.907721 
L 135.76837 86.902228 
L 136.162919 86.907721 
L 136.557467 86.901547 
L 136.952015 86.883989 
L 137.346563 86.892674 
L 137.741111 86.865163 
L 138.13566 86.857511 
L 138.530208 86.865891 
L 138.924756 86.849953 
L 139.319304 86.857769 
L 139.713853 86.861854 
L 140.108401 86.860469 
L 140.502949 86.864835 
L 140.897497 86.868426 
L 141.292046 86.86744 
L 141.686594 86.87136 
L 142.081142 86.877675 
L 142.47569 86.878215 
L 142.870239 86.861196 
L 143.264787 86.870727 
L 143.659335 86.87575 
L 144.053883 86.878942 
L 144.448432 86.898191 
L 144.84298 86.90751 
L 145.237528 86.901641 
L 145.632076 86.899552 
L 146.026625 86.894646 
L 146.421173 86.906219 
L 146.815721 86.892933 
L 147.210269 86.901829 
L 147.604818 86.893144 
L 147.999366 86.876572 
L 148.393914 86.884177 
L 148.788462 86.875867 
L 149.183011 86.872534 
L 149.577559 86.877558 
L 149.972107 86.882135 
L 150.366655 86.884036 
L 150.761204 86.889177 
L 151.155752 86.882745 
L 151.5503 86.896078 
L 151.944848 86.900773 
L 152.339396 86.922322 
L 152.733945 86.918378 
L 153.128493 86.918754 
L 153.523041 86.926899 
L 153.917589 86.938307 
L 154.312138 86.926993 
L 154.706686 86.939269 
L 155.101234 86.961405 
L 155.495782 86.970912 
L 155.890331 86.980184 
L 156.284879 87.002554 
L 156.679427 86.999902 
L 157.073975 87.003094 
L 157.468524 86.991052 
L 157.863072 86.984526 
L 158.25762 86.971593 
L 158.652168 86.967391 
L 159.046717 86.969809 
L 159.441265 86.979221 
L 159.835813 86.979315 
L 160.230361 86.984855 
" clip-path="url(#pfd2f027621)" style="fill: none; stroke: #55b2e8; stroke-width: 1.5; stroke-linecap: square"/>
   </g>
   <g id="line2d_23">
    <path d="M 120.775537 86.453367 
L 121.170085 86.450316 
L 121.564634 86.446184 
L 121.959182 86.451419 
L 122.35373 86.447311 
L 122.748278 86.444072 
L 123.142827 86.449048 
L 123.537375 86.450409 
L 123.931923 86.452499 
L 124.326471 86.454024 
L 124.721019 86.458414 
L 125.115568 86.449752 
L 125.510116 86.455034 
L 125.904664 86.451184 
L 126.299212 86.449799 
L 126.693761 86.448485 
L 127.088309 86.447874 
L 127.482857 86.449705 
L 127.877405 86.454916 
L 128.271954 86.449987 
L 128.666502 86.453531 
L 129.06105 86.459846 
L 129.455598 86.45832 
L 129.850147 86.450503 
L 130.244695 86.448485 
L 130.639243 86.454752 
L 131.033791 86.44933 
L 131.42834 86.451114 
L 131.822888 86.450175 
L 132.217436 86.452006 
L 132.611984 86.452147 
L 133.006533 86.449447 
L 133.401081 86.455386 
L 133.795629 86.4521 
L 134.190177 86.447827 
L 134.584726 86.455268 
L 134.979274 86.459142 
L 135.373822 86.445738 
L 135.76837 86.447827 
L 136.162919 86.454705 
L 136.557467 86.45156 
L 136.952015 86.457733 
L 137.346563 86.450879 
L 137.741111 86.456653 
L 138.13566 86.45839 
L 138.530208 86.457217 
L 138.924756 86.449658 
L 139.319304 86.451583 
L 139.713853 86.453531 
L 140.108401 86.457639 
L 140.502949 86.452428 
L 140.897497 86.458813 
L 141.292046 86.456794 
L 141.686594 86.451442 
L 142.081142 86.449564 
L 142.47569 86.448062 
L 142.870239 86.452006 
L 143.264787 86.451513 
L 143.659335 86.452311 
L 144.053883 86.447147 
L 144.448432 86.445316 
L 144.84298 86.451255 
L 145.237528 86.444987 
L 145.632076 86.449095 
L 146.026625 86.45379 
L 146.421173 86.448273 
L 146.815721 86.453977 
L 147.210269 86.449424 
L 147.604818 86.449846 
L 147.999366 86.44656 
L 148.393914 86.453884 
L 148.788462 86.451912 
L 149.183011 86.452898 
L 149.577559 86.453508 
L 149.972107 86.447827 
L 150.366655 86.448344 
L 150.761204 86.445504 
L 151.155752 86.446982 
L 151.5503 86.447874 
L 151.944848 86.45102 
L 152.339396 86.444799 
L 152.733945 86.444072 
L 153.128493 86.456207 
L 153.523041 86.449494 
L 153.917589 86.455527 
L 154.312138 86.448907 
L 154.706686 86.453179 
L 155.101234 86.453461 
L 155.495782 86.45447 
L 155.890331 86.451372 
L 156.284879 86.456325 
L 156.679427 86.457029 
L 157.073975 86.452593 
L 157.468524 86.45656 
L 157.863072 86.453696 
L 158.25762 86.450316 
L 158.652168 86.449799 
L 159.046717 86.447123 
L 159.441265 86.446607 
L 159.835813 86.456771 
L 160.230361 86.449682 
" clip-path="url(#pfd2f027621)" style="fill: none; stroke-dasharray: 1.5,3; stroke-dashoffset: 0; stroke: #000000; stroke-opacity: 0.8; stroke-width: 1.5"/>
   </g>
   <g id="line2d_24">
    <path d="M 120.775537 76.921091 
L 121.170085 76.924987 
L 121.564634 76.936607 
L 121.959182 76.935996 
L 122.35373 76.936442 
L 122.748278 76.944728 
L 123.142827 76.925175 
L 123.537375 76.937264 
L 123.931923 76.954869 
L 124.326471 76.958085 
L 124.721019 76.960667 
L 125.115568 76.956348 
L 125.510116 76.956113 
L 125.904664 76.957216 
L 126.299212 76.957498 
L 126.693761 76.976629 
L 127.088309 76.981699 
L 127.482857 76.983014 
L 127.877405 76.984939 
L 128.271954 76.97731 
L 128.666502 76.971347 
L 129.06105 76.982896 
L 129.455598 76.979023 
L 129.850147 76.972521 
L 130.244695 76.969282 
L 130.639243 76.961747 
L 131.033791 76.950339 
L 131.42834 76.945362 
L 131.822888 76.947076 
L 132.217436 76.968718 
L 132.611984 76.973742 
L 133.006533 76.974047 
L 133.401081 76.964024 
L 133.795629 76.968789 
L 134.190177 76.965291 
L 134.584726 76.963226 
L 134.979274 76.960362 
L 135.373822 76.971559 
L 135.76837 76.978037 
L 136.162919 76.970033 
L 136.557467 76.960315 
L 136.952015 76.977591 
L 137.346563 76.974164 
L 137.741111 76.969587 
L 138.13566 76.977169 
L 138.530208 76.977263 
L 138.924756 76.966794 
L 139.319304 76.958038 
L 139.713853 76.965268 
L 140.108401 76.977709 
L 140.502949 76.972474 
L 140.897497 76.973976 
L 141.292046 76.981676 
L 141.686594 76.957521 
L 142.081142 76.952498 
L 142.47569 76.962122 
L 142.870239 76.971746 
L 143.264787 76.974047 
L 143.659335 76.99414 
L 144.053883 76.997708 
L 144.448432 76.969469 
L 144.84298 76.976324 
L 145.237528 76.982333 
L 145.632076 76.992427 
L 146.026625 76.991441 
L 146.421173 76.982356 
L 146.815721 76.966676 
L 147.210269 76.953695 
L 147.604818 76.945104 
L 147.999366 76.954329 
L 148.393914 76.947381 
L 148.788462 76.945245 
L 149.183011 76.960244 
L 149.577559 76.937029 
L 149.972107 76.951911 
L 150.366655 76.944752 
L 150.761204 76.945151 
L 151.155752 76.941067 
L 151.5503 76.946113 
L 151.944848 76.950033 
L 152.339396 76.944822 
L 152.733945 76.951184 
L 153.128493 76.936395 
L 153.523041 76.929658 
L 153.917589 76.939236 
L 154.312138 76.945127 
L 154.706686 76.949353 
L 155.101234 76.969869 
L 155.495782 76.950972 
L 155.890331 76.943789 
L 156.284879 76.951137 
L 156.679427 76.96177 
L 157.073975 76.983601 
L 157.468524 76.977638 
L 157.863072 76.959423 
L 158.25762 76.957475 
L 158.652168 76.966535 
L 159.046717 76.964704 
L 159.441265 76.973742 
L 159.835813 76.978906 
L 160.230361 76.973577 
" clip-path="url(#pfd2f027621)" style="fill: none; stroke: #e59c00; stroke-width: 1.5; stroke-linecap: square"/>
   </g>
   <g id="line2d_25">
    <path d="M 120.775537 76.514341 
L 121.170085 76.509693 
L 121.564634 76.513825 
L 121.959182 76.512651 
L 122.35373 76.508848 
L 122.748278 76.508449 
L 123.142827 76.510233 
L 123.537375 76.515984 
L 123.931923 76.510961 
L 124.326471 76.50974 
L 124.721019 76.507041 
L 125.115568 76.509505 
L 125.510116 76.509458 
L 125.904664 76.51481 
L 126.299212 76.50805 
L 126.693761 76.508637 
L 127.088309 76.516102 
L 127.482857 76.512792 
L 127.877405 76.50913 
L 128.271954 76.506008 
L 128.666502 76.513073 
L 129.06105 76.514904 
L 129.455598 76.512369 
L 129.850147 76.51298 
L 130.244695 76.512064 
L 130.639243 76.510116 
L 131.033791 76.514435 
L 131.42834 76.510304 
L 131.822888 76.513637 
L 132.217436 76.509341 
L 132.611984 76.505609 
L 133.006533 76.517815 
L 133.401081 76.514951 
L 133.795629 76.517533 
L 134.190177 76.510726 
L 134.584726 76.513402 
L 134.979274 76.509412 
L 135.373822 76.511524 
L 135.76837 76.509247 
L 136.162919 76.515656 
L 136.557467 76.50582 
L 136.952015 76.5142 
L 137.346563 76.513026 
L 137.741111 76.510022 
L 138.13566 76.509858 
L 138.530208 76.507721 
L 138.924756 76.510186 
L 139.319304 76.518848 
L 139.713853 76.507768 
L 140.108401 76.514717 
L 140.502949 76.512768 
L 140.897497 76.513965 
L 141.292046 76.512322 
L 141.686594 76.512886 
L 142.081142 76.514271 
L 142.47569 76.512252 
L 142.870239 76.51035 
L 143.264787 76.510726 
L 143.659335 76.513496 
L 144.053883 76.514177 
L 144.448432 76.511712 
L 144.84298 76.510961 
L 145.237528 76.512792 
L 145.632076 76.511031 
L 146.026625 76.511642 
L 146.421173 76.511078 
L 146.815721 76.508637 
L 147.210269 76.514388 
L 147.604818 76.51298 
L 147.999366 76.510843 
L 148.393914 76.512557 
L 148.788462 76.511102 
L 149.183011 76.510257 
L 149.577559 76.517134 
L 149.972107 76.511853 
L 150.366655 76.506031 
L 150.761204 76.512041 
L 151.155752 76.52082 
L 151.5503 76.510961 
L 151.944848 76.516031 
L 152.339396 76.51528 
L 152.733945 76.515163 
L 153.128493 76.507581 
L 153.523041 76.517416 
L 153.917589 76.507628 
L 154.312138 76.5119 
L 154.706686 76.516876 
L 155.101234 76.514177 
L 155.495782 76.516148 
L 155.890331 76.513754 
L 156.284879 76.514458 
L 156.679427 76.511595 
L 157.073975 76.510726 
L 157.468524 76.510468 
L 157.863072 76.513426 
L 158.25762 76.513332 
L 158.652168 76.511289 
L 159.046717 76.513496 
L 159.441265 76.513965 
L 159.835813 76.513308 
L 160.230361 76.514529 
" clip-path="url(#pfd2f027621)" style="fill: none; stroke-dasharray: 1.5,3; stroke-dashoffset: 0; stroke: #000000; stroke-opacity: 0.8; stroke-width: 1.5"/>
   </g>
   <g id="patch_6">
    <path d="M 118.013699 87.003094 
L 118.013699 18.658 
" style="fill: none; stroke: #000000; stroke-width: 0.8; stroke-linejoin: miter; stroke-linecap: square"/>
   </g>
   <g id="patch_7">
    <path d="M 120.775537 91.78726 
L 160.230361 91.78726 
" style="fill: none; stroke: #000000; stroke-width: 0.8; stroke-linejoin: miter; stroke-linecap: square"/>
   </g>
   <g id="text_14">
    <!-- Parameter Noise -->
    <g transform="translate(99.239199 10.873834) scale(0.11 -0.11)">
     <defs>
      <path id="ArialMT-50" d="M 494 0 
L 494 4581 
L 2222 4581 
Q 2678 4581 2919 4538 
Q 3256 4481 3484 4323 
Q 3713 4166 3852 3881 
Q 3991 3597 3991 3256 
Q 3991 2672 3619 2267 
Q 3247 1863 2275 1863 
L 1100 1863 
L 1100 0 
L 494 0 
z
M 1100 2403 
L 2284 2403 
Q 2872 2403 3119 2622 
Q 3366 2841 3366 3238 
Q 3366 3525 3220 3729 
Q 3075 3934 2838 4000 
Q 2684 4041 2272 4041 
L 1100 4041 
L 1100 2403 
z
" transform="scale(0.015625)"/>
      <path id="ArialMT-61" d="M 2588 409 
Q 2275 144 1986 34 
Q 1697 -75 1366 -75 
Q 819 -75 525 192 
Q 231 459 231 875 
Q 231 1119 342 1320 
Q 453 1522 633 1644 
Q 813 1766 1038 1828 
Q 1203 1872 1538 1913 
Q 2219 1994 2541 2106 
Q 2544 2222 2544 2253 
Q 2544 2597 2384 2738 
Q 2169 2928 1744 2928 
Q 1347 2928 1158 2789 
Q 969 2650 878 2297 
L 328 2372 
Q 403 2725 575 2942 
Q 747 3159 1072 3276 
Q 1397 3394 1825 3394 
Q 2250 3394 2515 3294 
Q 2781 3194 2906 3042 
Q 3031 2891 3081 2659 
Q 3109 2516 3109 2141 
L 3109 1391 
Q 3109 606 3145 398 
Q 3181 191 3288 0 
L 2700 0 
Q 2613 175 2588 409 
z
M 2541 1666 
Q 2234 1541 1622 1453 
Q 1275 1403 1131 1340 
Q 988 1278 909 1158 
Q 831 1038 831 891 
Q 831 666 1001 516 
Q 1172 366 1500 366 
Q 1825 366 2078 508 
Q 2331 650 2450 897 
Q 2541 1088 2541 1459 
L 2541 1666 
z
" transform="scale(0.015625)"/>
      <path id="ArialMT-72" d="M 416 0 
L 416 3319 
L 922 3319 
L 922 2816 
Q 1116 3169 1280 3281 
Q 1444 3394 1641 3394 
Q 1925 3394 2219 3213 
L 2025 2691 
Q 1819 2813 1613 2813 
Q 1428 2813 1281 2702 
Q 1134 2591 1072 2394 
Q 978 2094 978 1738 
L 978 0 
L 416 0 
z
" transform="scale(0.015625)"/>
      <path id="ArialMT-6d" d="M 422 0 
L 422 3319 
L 925 3319 
L 925 2853 
Q 1081 3097 1340 3245 
Q 1600 3394 1931 3394 
Q 2300 3394 2536 3241 
Q 2772 3088 2869 2813 
Q 3263 3394 3894 3394 
Q 4388 3394 4653 3120 
Q 4919 2847 4919 2278 
L 4919 0 
L 4359 0 
L 4359 2091 
Q 4359 2428 4304 2576 
Q 4250 2725 4106 2815 
Q 3963 2906 3769 2906 
Q 3419 2906 3187 2673 
Q 2956 2441 2956 1928 
L 2956 0 
L 2394 0 
L 2394 2156 
Q 2394 2531 2256 2718 
Q 2119 2906 1806 2906 
Q 1569 2906 1367 2781 
Q 1166 2656 1075 2415 
Q 984 2175 984 1722 
L 984 0 
L 422 0 
z
" transform="scale(0.015625)"/>
     </defs>
     <use xlink:href="#ArialMT-50"/>
     <use xlink:href="#ArialMT-61" transform="translate(66.699219 0)"/>
     <use xlink:href="#ArialMT-72" transform="translate(122.314453 0)"/>
     <use xlink:href="#ArialMT-61" transform="translate(155.615234 0)"/>
     <use xlink:href="#ArialMT-6d" transform="translate(211.230469 0)"/>
     <use xlink:href="#ArialMT-65" transform="translate(294.53125 0)"/>
     <use xlink:href="#ArialMT-74" transform="translate(350.146484 0)"/>
     <use xlink:href="#ArialMT-65" transform="translate(377.929688 0)"/>
     <use xlink:href="#ArialMT-72" transform="translate(433.544922 0)"/>
     <use xlink:href="#ArialMT-20" transform="translate(466.845703 0)"/>
     <use xlink:href="#ArialMT-4e" transform="translate(494.628906 0)"/>
     <use xlink:href="#ArialMT-6f" transform="translate(566.845703 0)"/>
     <use xlink:href="#ArialMT-69" transform="translate(622.460938 0)"/>
     <use xlink:href="#ArialMT-73" transform="translate(644.677734 0)"/>
     <use xlink:href="#ArialMT-65" transform="translate(694.677734 0)"/>
    </g>
   </g>
   <g id="legend_1">
    <g id="line2d_26">
     <path d="M 167.157199 38.142414 
L 170.489199 38.142414 
L 173.821199 38.142414 
" style="fill: none; stroke: #efe440; stroke-width: 1.5; stroke-linecap: square"/>
    </g>
    <g id="text_15">
     <!-- GLS -->
     <g style="fill: #222222" transform="translate(176.320199 41.057914) scale(0.0833 -0.0833)">
      <defs>
       <path id="ArialMT-47" d="M 2638 1797 
L 2638 2334 
L 4578 2338 
L 4578 638 
Q 4131 281 3656 101 
Q 3181 -78 2681 -78 
Q 2006 -78 1454 211 
Q 903 500 622 1047 
Q 341 1594 341 2269 
Q 341 2938 620 3517 
Q 900 4097 1425 4378 
Q 1950 4659 2634 4659 
Q 3131 4659 3532 4498 
Q 3934 4338 4162 4050 
Q 4391 3763 4509 3300 
L 3963 3150 
Q 3859 3500 3706 3700 
Q 3553 3900 3268 4020 
Q 2984 4141 2638 4141 
Q 2222 4141 1919 4014 
Q 1616 3888 1430 3681 
Q 1244 3475 1141 3228 
Q 966 2803 966 2306 
Q 966 1694 1177 1281 
Q 1388 869 1791 669 
Q 2194 469 2647 469 
Q 3041 469 3416 620 
Q 3791 772 3984 944 
L 3984 1797 
L 2638 1797 
z
" transform="scale(0.015625)"/>
      </defs>
      <use xlink:href="#ArialMT-47"/>
      <use xlink:href="#ArialMT-4c" transform="translate(77.783203 0)"/>
      <use xlink:href="#ArialMT-53" transform="translate(133.398438 0)"/>
     </g>
    </g>
    <g id="line2d_27">
     <path d="M 167.157199 47.426459 
L 170.489199 47.426459 
L 173.821199 47.426459 
" style="fill: none; stroke: #cc78a6; stroke-width: 1.5; stroke-linecap: square"/>
    </g>
    <g id="text_16">
     <!-- LSS -->
     <g style="fill: #222222" transform="translate(176.320199 50.341959) scale(0.0833 -0.0833)">
      <use xlink:href="#ArialMT-4c"/>
      <use xlink:href="#ArialMT-53" transform="translate(55.615234 0)"/>
      <use xlink:href="#ArialMT-53" transform="translate(122.314453 0)"/>
     </g>
    </g>
    <g id="line2d_28">
     <path d="M 167.157199 56.710505 
L 170.489199 56.710505 
L 173.821199 56.710505 
" style="fill: none; stroke: #55b2e8; stroke-width: 1.5; stroke-linecap: square"/>
    </g>
    <g id="text_17">
     <!-- MRNS -->
     <g style="fill: #222222" transform="translate(176.320199 59.626005) scale(0.0833 -0.0833)">
      <defs>
       <path id="ArialMT-4d" d="M 475 0 
L 475 4581 
L 1388 4581 
L 2472 1338 
Q 2622 884 2691 659 
Q 2769 909 2934 1394 
L 4031 4581 
L 4847 4581 
L 4847 0 
L 4263 0 
L 4263 3834 
L 2931 0 
L 2384 0 
L 1059 3900 
L 1059 0 
L 475 0 
z
" transform="scale(0.015625)"/>
       <path id="ArialMT-52" d="M 503 0 
L 503 4581 
L 2534 4581 
Q 3147 4581 3465 4457 
Q 3784 4334 3975 4021 
Q 4166 3709 4166 3331 
Q 4166 2844 3850 2509 
Q 3534 2175 2875 2084 
Q 3116 1969 3241 1856 
Q 3506 1613 3744 1247 
L 4541 0 
L 3778 0 
L 3172 953 
Q 2906 1366 2734 1584 
Q 2563 1803 2427 1890 
Q 2291 1978 2150 2013 
Q 2047 2034 1813 2034 
L 1109 2034 
L 1109 0 
L 503 0 
z
M 1109 2559 
L 2413 2559 
Q 2828 2559 3062 2645 
Q 3297 2731 3419 2920 
Q 3541 3109 3541 3331 
Q 3541 3656 3305 3865 
Q 3069 4075 2559 4075 
L 1109 4075 
L 1109 2559 
z
" transform="scale(0.015625)"/>
      </defs>
      <use xlink:href="#ArialMT-4d"/>
      <use xlink:href="#ArialMT-52" transform="translate(83.300781 0)"/>
      <use xlink:href="#ArialMT-4e" transform="translate(155.517578 0)"/>
      <use xlink:href="#ArialMT-53" transform="translate(227.734375 0)"/>
     </g>
    </g>
    <g id="line2d_29">
     <path d="M 167.157199 65.99455 
L 170.489199 65.99455 
L 173.821199 65.99455 
" style="fill: none; stroke: #e59c00; stroke-width: 1.5; stroke-linecap: square"/>
    </g>
    <g id="text_18">
     <!-- MWNS -->
     <g style="fill: #222222" transform="translate(176.320199 68.91005) scale(0.0833 -0.0833)">
      <defs>
       <path id="ArialMT-57" d="M 1294 0 
L 78 4581 
L 700 4581 
L 1397 1578 
Q 1509 1106 1591 641 
Q 1766 1375 1797 1488 
L 2669 4581 
L 3400 4581 
L 4056 2263 
Q 4303 1400 4413 641 
Q 4500 1075 4641 1638 
L 5359 4581 
L 5969 4581 
L 4713 0 
L 4128 0 
L 3163 3491 
Q 3041 3928 3019 4028 
Q 2947 3713 2884 3491 
L 1913 0 
L 1294 0 
z
" transform="scale(0.015625)"/>
      </defs>
      <use xlink:href="#ArialMT-4d"/>
      <use xlink:href="#ArialMT-57" transform="translate(83.300781 0)"/>
      <use xlink:href="#ArialMT-4e" transform="translate(177.685547 0)"/>
      <use xlink:href="#ArialMT-53" transform="translate(249.902344 0)"/>
     </g>
    </g>
   </g>
  </g>
 </g>
 <defs>
  <clipPath id="p8a1e495b91">
   <rect x="35.045553" y="13.873834" width="44.9785" height="77.913426"/>
  </clipPath>
  <clipPath id="pfd2f027621">
   <rect x="118.013699" y="13.873834" width="44.9785" height="77.913426"/>
  </clipPath>
 </defs>
</svg>
