<?xml version="1.0" encoding="utf-8" standalone="no"?>
<!DOCTYPE svg PUBLIC "-//W3C//DTD SVG 1.1//EN"
  "http://www.w3.org/Graphics/SVG/1.1/DTD/svg11.dtd">
<svg xmlns:xlink="http://www.w3.org/1999/xlink" width="115.2pt" height="115.2pt" viewBox="0 0 115.2 115.2" xmlns="http://www.w3.org/2000/svg" version="1.1">
 <metadata>
  <rdf:RDF xmlns:dc="http://purl.org/dc/elements/1.1/" xmlns:cc="http://creativecommons.org/ns#" xmlns:rdf="http://www.w3.org/1999/02/22-rdf-syntax-ns#">
   <cc:Work>
    <dc:type rdf:resource="http://purl.org/dc/dcmitype/StillImage"/>
    <dc:date>2025-07-07T10:30:49.339513</dc:date>
    <dc:format>image/svg+xml</dc:format>
    <dc:creator>
     <cc:Agent>
      <dc:title>Matplotlib v3.10.3, https://matplotlib.org/</dc:title>
     </cc:Agent>
    </dc:creator>
   </cc:Work>
  </rdf:RDF>
 </metadata>
 <defs>
  <style type="text/css">*{stroke-linejoin: round; stroke-linecap: butt}</style>
 </defs>
 <g id="figure_1">
  <g id="patch_1">
   <path d="M 0 115.2 
L 115.2 115.2 
L 115.2 0 
L 0 0 
z
" style="fill: #ffffff"/>
  </g>
  <g id="axes_1">
   <g id="patch_2">
    <path d="M 35.16274 91.78726 
L 108.413126 91.78726 
L 108.413126 13.873834 
L 35.16274 13.873834 
L 35.16274 91.78726 
z
" style="fill: none"/>
   </g>
   <g id="matplotlib.axis_1">
    <g id="xtick_1">
     <g id="line2d_1">
      <defs>
       <path id="m877c9280fc" d="M 0 0 
L 0 4.5 
" style="stroke: #000000; stroke-width: 1.1"/>
      </defs>
      <g>
       <use xlink:href="#m877c9280fc" x="39.660571" y="91.78726" style="stroke: #000000; stroke-width: 1.1"/>
      </g>
     </g>
     <g id="text_1">
      <!-- 0 -->
      <g transform="translate(36.880102 105.945073) scale(0.1 -0.1)">
       <defs>
        <path id="ArialMT-30" d="M 266 2259 
Q 266 3072 433 3567 
Q 600 4063 929 4331 
Q 1259 4600 1759 4600 
Q 2128 4600 2406 4451 
Q 2684 4303 2865 4023 
Q 3047 3744 3150 3342 
Q 3253 2941 3253 2259 
Q 3253 1453 3087 958 
Q 2922 463 2592 192 
Q 2263 -78 1759 -78 
Q 1097 -78 719 397 
Q 266 969 266 2259 
z
M 844 2259 
Q 844 1131 1108 757 
Q 1372 384 1759 384 
Q 2147 384 2411 759 
Q 2675 1134 2675 2259 
Q 2675 3391 2411 3762 
Q 2147 4134 1753 4134 
Q 1366 4134 1134 3806 
Q 844 3388 844 2259 
z
" transform="scale(0.015625)"/>
       </defs>
       <use xlink:href="#ArialMT-30"/>
      </g>
     </g>
    </g>
    <g id="xtick_2">
     <g id="line2d_2">
      <g>
       <use xlink:href="#m877c9280fc" x="103.915295" y="91.78726" style="stroke: #000000; stroke-width: 1.1"/>
      </g>
     </g>
     <g id="text_2">
      <!-- 500 -->
      <g transform="translate(95.573889 105.945073) scale(0.1 -0.1)">
       <defs>
        <path id="ArialMT-35" d="M 266 1200 
L 856 1250 
Q 922 819 1161 601 
Q 1400 384 1738 384 
Q 2144 384 2425 690 
Q 2706 997 2706 1503 
Q 2706 1984 2436 2262 
Q 2166 2541 1728 2541 
Q 1456 2541 1237 2417 
Q 1019 2294 894 2097 
L 366 2166 
L 809 4519 
L 3088 4519 
L 3088 3981 
L 1259 3981 
L 1013 2750 
Q 1425 3038 1878 3038 
Q 2478 3038 2890 2622 
Q 3303 2206 3303 1553 
Q 3303 931 2941 478 
Q 2500 -78 1738 -78 
Q 1113 -78 717 272 
Q 322 622 266 1200 
z
" transform="scale(0.015625)"/>
       </defs>
       <use xlink:href="#ArialMT-35"/>
       <use xlink:href="#ArialMT-30" transform="translate(55.615234 0)"/>
       <use xlink:href="#ArialMT-30" transform="translate(111.230469 0)"/>
      </g>
     </g>
    </g>
    <g id="text_3">
     <!-- Step -->
     <g transform="translate(61.502777 110.21226) scale(0.1 -0.1)">
      <defs>
       <path id="ArialMT-53" d="M 288 1472 
L 859 1522 
Q 900 1178 1048 958 
Q 1197 738 1509 602 
Q 1822 466 2213 466 
Q 2559 466 2825 569 
Q 3091 672 3220 851 
Q 3350 1031 3350 1244 
Q 3350 1459 3225 1620 
Q 3100 1781 2813 1891 
Q 2628 1963 1997 2114 
Q 1366 2266 1113 2400 
Q 784 2572 623 2826 
Q 463 3081 463 3397 
Q 463 3744 659 4045 
Q 856 4347 1234 4503 
Q 1613 4659 2075 4659 
Q 2584 4659 2973 4495 
Q 3363 4331 3572 4012 
Q 3781 3694 3797 3291 
L 3216 3247 
Q 3169 3681 2898 3903 
Q 2628 4125 2100 4125 
Q 1550 4125 1298 3923 
Q 1047 3722 1047 3438 
Q 1047 3191 1225 3031 
Q 1400 2872 2139 2705 
Q 2878 2538 3153 2413 
Q 3553 2228 3743 1945 
Q 3934 1663 3934 1294 
Q 3934 928 3725 604 
Q 3516 281 3123 101 
Q 2731 -78 2241 -78 
Q 1619 -78 1198 103 
Q 778 284 539 648 
Q 300 1013 288 1472 
z
" transform="scale(0.015625)"/>
       <path id="ArialMT-74" d="M 1650 503 
L 1731 6 
Q 1494 -44 1306 -44 
Q 1000 -44 831 53 
Q 663 150 594 308 
Q 525 466 525 972 
L 525 2881 
L 113 2881 
L 113 3319 
L 525 3319 
L 525 4141 
L 1084 4478 
L 1084 3319 
L 1650 3319 
L 1650 2881 
L 1084 2881 
L 1084 941 
Q 1084 700 1114 631 
Q 1144 563 1211 522 
Q 1278 481 1403 481 
Q 1497 481 1650 503 
z
" transform="scale(0.015625)"/>
       <path id="ArialMT-65" d="M 2694 1069 
L 3275 997 
Q 3138 488 2766 206 
Q 2394 -75 1816 -75 
Q 1088 -75 661 373 
Q 234 822 234 1631 
Q 234 2469 665 2931 
Q 1097 3394 1784 3394 
Q 2450 3394 2872 2941 
Q 3294 2488 3294 1666 
Q 3294 1616 3291 1516 
L 816 1516 
Q 847 969 1125 678 
Q 1403 388 1819 388 
Q 2128 388 2347 550 
Q 2566 713 2694 1069 
z
M 847 1978 
L 2700 1978 
Q 2663 2397 2488 2606 
Q 2219 2931 1791 2931 
Q 1403 2931 1139 2672 
Q 875 2413 847 1978 
z
" transform="scale(0.015625)"/>
       <path id="ArialMT-70" d="M 422 -1272 
L 422 3319 
L 934 3319 
L 934 2888 
Q 1116 3141 1344 3267 
Q 1572 3394 1897 3394 
Q 2322 3394 2647 3175 
Q 2972 2956 3137 2557 
Q 3303 2159 3303 1684 
Q 3303 1175 3120 767 
Q 2938 359 2589 142 
Q 2241 -75 1856 -75 
Q 1575 -75 1351 44 
Q 1128 163 984 344 
L 984 -1272 
L 422 -1272 
z
M 931 1641 
Q 931 1000 1190 694 
Q 1450 388 1819 388 
Q 2194 388 2461 705 
Q 2728 1022 2728 1688 
Q 2728 2322 2467 2637 
Q 2206 2953 1844 2953 
Q 1484 2953 1207 2617 
Q 931 2281 931 1641 
z
" transform="scale(0.015625)"/>
      </defs>
      <use xlink:href="#ArialMT-53"/>
      <use xlink:href="#ArialMT-74" transform="translate(66.699219 0)"/>
      <use xlink:href="#ArialMT-65" transform="translate(94.482422 0)"/>
      <use xlink:href="#ArialMT-70" transform="translate(150.097656 0)"/>
     </g>
    </g>
   </g>
   <g id="matplotlib.axis_2">
    <g id="ytick_1">
     <g id="line2d_3">
      <defs>
       <path id="mf89e9268c3" d="M 0 0 
L -4.5 0 
" style="stroke: #000000; stroke-width: 1.1"/>
      </defs>
      <g>
       <use xlink:href="#mf89e9268c3" x="35.16274" y="87.003102" style="stroke: #000000; stroke-width: 1.1"/>
      </g>
     </g>
     <g id="text_4">
      <!-- 0.0 -->
      <g transform="translate(14.26274 90.582008) scale(0.1 -0.1)">
       <defs>
        <path id="ArialMT-2e" d="M 581 0 
L 581 641 
L 1222 641 
L 1222 0 
L 581 0 
z
" transform="scale(0.015625)"/>
       </defs>
       <use xlink:href="#ArialMT-30"/>
       <use xlink:href="#ArialMT-2e" transform="translate(55.615234 0)"/>
       <use xlink:href="#ArialMT-30" transform="translate(83.398438 0)"/>
      </g>
     </g>
    </g>
    <g id="ytick_2">
     <g id="line2d_4">
      <g>
       <use xlink:href="#mf89e9268c3" x="35.16274" y="52.830547" style="stroke: #000000; stroke-width: 1.1"/>
      </g>
     </g>
     <g id="text_5">
      <!-- 0.5 -->
      <g transform="translate(14.26274 56.409453) scale(0.1 -0.1)">
       <use xlink:href="#ArialMT-30"/>
       <use xlink:href="#ArialMT-2e" transform="translate(55.615234 0)"/>
       <use xlink:href="#ArialMT-35" transform="translate(83.398438 0)"/>
      </g>
     </g>
    </g>
    <g id="ytick_3">
     <g id="line2d_5">
      <g>
       <use xlink:href="#mf89e9268c3" x="35.16274" y="18.657992" style="stroke: #000000; stroke-width: 1.1"/>
      </g>
     </g>
     <g id="text_6">
      <!-- 1.0 -->
      <g transform="translate(14.26274 22.236898) scale(0.1 -0.1)">
       <defs>
        <path id="ArialMT-31" d="M 2384 0 
L 1822 0 
L 1822 3584 
Q 1619 3391 1289 3197 
Q 959 3003 697 2906 
L 697 3450 
Q 1169 3672 1522 3987 
Q 1875 4303 2022 4600 
L 2384 4600 
L 2384 0 
z
" transform="scale(0.015625)"/>
       </defs>
       <use xlink:href="#ArialMT-31"/>
       <use xlink:href="#ArialMT-2e" transform="translate(55.615234 0)"/>
       <use xlink:href="#ArialMT-30" transform="translate(83.398438 0)"/>
      </g>
     </g>
    </g>
    <g id="text_7">
     <!-- Decoding Error -->
     <g transform="translate(10.158052 86.453984) rotate(-90) scale(0.1 -0.1)">
      <defs>
       <path id="ArialMT-44" d="M 494 0 
L 494 4581 
L 2072 4581 
Q 2606 4581 2888 4516 
Q 3281 4425 3559 4188 
Q 3922 3881 4101 3404 
Q 4281 2928 4281 2316 
Q 4281 1794 4159 1391 
Q 4038 988 3847 723 
Q 3656 459 3429 307 
Q 3203 156 2883 78 
Q 2563 0 2147 0 
L 494 0 
z
M 1100 541 
L 2078 541 
Q 2531 541 2789 625 
Q 3047 709 3200 863 
Q 3416 1078 3536 1442 
Q 3656 1806 3656 2325 
Q 3656 3044 3420 3430 
Q 3184 3816 2847 3947 
Q 2603 4041 2063 4041 
L 1100 4041 
L 1100 541 
z
" transform="scale(0.015625)"/>
       <path id="ArialMT-63" d="M 2588 1216 
L 3141 1144 
Q 3050 572 2676 248 
Q 2303 -75 1759 -75 
Q 1078 -75 664 370 
Q 250 816 250 1647 
Q 250 2184 428 2587 
Q 606 2991 970 3192 
Q 1334 3394 1763 3394 
Q 2303 3394 2647 3120 
Q 2991 2847 3088 2344 
L 2541 2259 
Q 2463 2594 2264 2762 
Q 2066 2931 1784 2931 
Q 1359 2931 1093 2626 
Q 828 2322 828 1663 
Q 828 994 1084 691 
Q 1341 388 1753 388 
Q 2084 388 2306 591 
Q 2528 794 2588 1216 
z
" transform="scale(0.015625)"/>
       <path id="ArialMT-6f" d="M 213 1659 
Q 213 2581 725 3025 
Q 1153 3394 1769 3394 
Q 2453 3394 2887 2945 
Q 3322 2497 3322 1706 
Q 3322 1066 3130 698 
Q 2938 331 2570 128 
Q 2203 -75 1769 -75 
Q 1072 -75 642 372 
Q 213 819 213 1659 
z
M 791 1659 
Q 791 1022 1069 705 
Q 1347 388 1769 388 
Q 2188 388 2466 706 
Q 2744 1025 2744 1678 
Q 2744 2294 2464 2611 
Q 2184 2928 1769 2928 
Q 1347 2928 1069 2612 
Q 791 2297 791 1659 
z
" transform="scale(0.015625)"/>
       <path id="ArialMT-64" d="M 2575 0 
L 2575 419 
Q 2259 -75 1647 -75 
Q 1250 -75 917 144 
Q 584 363 401 755 
Q 219 1147 219 1656 
Q 219 2153 384 2558 
Q 550 2963 881 3178 
Q 1213 3394 1622 3394 
Q 1922 3394 2156 3267 
Q 2391 3141 2538 2938 
L 2538 4581 
L 3097 4581 
L 3097 0 
L 2575 0 
z
M 797 1656 
Q 797 1019 1065 703 
Q 1334 388 1700 388 
Q 2069 388 2326 689 
Q 2584 991 2584 1609 
Q 2584 2291 2321 2609 
Q 2059 2928 1675 2928 
Q 1300 2928 1048 2622 
Q 797 2316 797 1656 
z
" transform="scale(0.015625)"/>
       <path id="ArialMT-69" d="M 425 3934 
L 425 4581 
L 988 4581 
L 988 3934 
L 425 3934 
z
M 425 0 
L 425 3319 
L 988 3319 
L 988 0 
L 425 0 
z
" transform="scale(0.015625)"/>
       <path id="ArialMT-6e" d="M 422 0 
L 422 3319 
L 928 3319 
L 928 2847 
Q 1294 3394 1984 3394 
Q 2284 3394 2536 3286 
Q 2788 3178 2913 3003 
Q 3038 2828 3088 2588 
Q 3119 2431 3119 2041 
L 3119 0 
L 2556 0 
L 2556 2019 
Q 2556 2363 2490 2533 
Q 2425 2703 2258 2804 
Q 2091 2906 1866 2906 
Q 1506 2906 1245 2678 
Q 984 2450 984 1813 
L 984 0 
L 422 0 
z
" transform="scale(0.015625)"/>
       <path id="ArialMT-67" d="M 319 -275 
L 866 -356 
Q 900 -609 1056 -725 
Q 1266 -881 1628 -881 
Q 2019 -881 2231 -725 
Q 2444 -569 2519 -288 
Q 2563 -116 2559 434 
Q 2191 0 1641 0 
Q 956 0 581 494 
Q 206 988 206 1678 
Q 206 2153 378 2554 
Q 550 2956 876 3175 
Q 1203 3394 1644 3394 
Q 2231 3394 2613 2919 
L 2613 3319 
L 3131 3319 
L 3131 450 
Q 3131 -325 2973 -648 
Q 2816 -972 2473 -1159 
Q 2131 -1347 1631 -1347 
Q 1038 -1347 672 -1080 
Q 306 -813 319 -275 
z
M 784 1719 
Q 784 1066 1043 766 
Q 1303 466 1694 466 
Q 2081 466 2343 764 
Q 2606 1063 2606 1700 
Q 2606 2309 2336 2618 
Q 2066 2928 1684 2928 
Q 1309 2928 1046 2623 
Q 784 2319 784 1719 
z
" transform="scale(0.015625)"/>
       <path id="ArialMT-20" transform="scale(0.015625)"/>
       <path id="ArialMT-45" d="M 506 0 
L 506 4581 
L 3819 4581 
L 3819 4041 
L 1113 4041 
L 1113 2638 
L 3647 2638 
L 3647 2100 
L 1113 2100 
L 1113 541 
L 3925 541 
L 3925 0 
L 506 0 
z
" transform="scale(0.015625)"/>
       <path id="ArialMT-72" d="M 416 0 
L 416 3319 
L 922 3319 
L 922 2816 
Q 1116 3169 1280 3281 
Q 1444 3394 1641 3394 
Q 1925 3394 2219 3213 
L 2025 2691 
Q 1819 2813 1613 2813 
Q 1428 2813 1281 2702 
Q 1134 2591 1072 2394 
Q 978 2094 978 1738 
L 978 0 
L 416 0 
z
" transform="scale(0.015625)"/>
      </defs>
      <use xlink:href="#ArialMT-44"/>
      <use xlink:href="#ArialMT-65" transform="translate(72.216797 0)"/>
      <use xlink:href="#ArialMT-63" transform="translate(127.832031 0)"/>
      <use xlink:href="#ArialMT-6f" transform="translate(177.832031 0)"/>
      <use xlink:href="#ArialMT-64" transform="translate(233.447266 0)"/>
      <use xlink:href="#ArialMT-69" transform="translate(289.0625 0)"/>
      <use xlink:href="#ArialMT-6e" transform="translate(311.279297 0)"/>
      <use xlink:href="#ArialMT-67" transform="translate(366.894531 0)"/>
      <use xlink:href="#ArialMT-20" transform="translate(422.509766 0)"/>
      <use xlink:href="#ArialMT-45" transform="translate(450.292969 0)"/>
      <use xlink:href="#ArialMT-72" transform="translate(516.992188 0)"/>
      <use xlink:href="#ArialMT-72" transform="translate(550.292969 0)"/>
      <use xlink:href="#ArialMT-6f" transform="translate(583.59375 0)"/>
      <use xlink:href="#ArialMT-72" transform="translate(639.208984 0)"/>
     </g>
    </g>
   </g>
   <g id="line2d_6">
    <path d="M 39.660571 86.619771 
L 39.91759 86.475098 
L 40.431627 86.503344 
L 40.688646 86.168124 
L 40.817156 86.213046 
L 40.945665 86.092379 
L 41.074175 85.404649 
L 41.202684 85.406697 
L 41.331194 85.242675 
L 41.459703 85.394592 
L 41.588212 85.371561 
L 41.845231 84.839831 
L 41.973741 85.236093 
L 42.23076 85.196026 
L 42.616288 84.649907 
L 42.873307 84.680652 
L 43.258835 83.680956 
L 43.772873 85.810806 
L 44.029892 85.96263 
L 44.286911 85.507498 
L 44.41542 85.67459 
L 44.54393 85.216956 
L 44.800949 85.758908 
L 45.057968 85.083249 
L 45.314986 85.224348 
L 45.572005 84.061786 
L 45.700515 84.307097 
L 45.829024 83.324837 
L 46.086043 84.177571 
L 46.214553 84.271741 
L 46.343062 85.387544 
L 46.471572 85.213176 
L 46.72859 84.543519 
L 46.8571 83.983366 
L 47.371138 85.352708 
L 47.499647 85.341621 
L 47.628157 85.748024 
L 47.885175 85.600695 
L 48.142194 85.146345 
L 48.270704 85.15182 
L 48.527723 84.696576 
L 48.656232 84.776557 
L 48.784742 84.494449 
L 48.913251 84.679807 
L 49.04176 84.315401 
L 49.555798 85.007124 
L 49.684308 84.595209 
L 50.069836 84.480943 
L 50.198346 84.356153 
L 50.326855 84.6149 
L 50.583874 83.615036 
L 50.712383 84.174151 
L 50.840893 83.831185 
L 50.969402 84.333775 
L 51.354931 83.519979 
L 51.611949 84.710531 
L 51.868968 84.069895 
L 51.997478 84.14761 
L 52.254497 84.792775 
L 52.511516 84.509447 
L 52.897044 83.469777 
L 53.154063 84.199175 
L 53.411082 84.464479 
L 53.539591 83.78241 
L 53.79661 84.572677 
L 53.92512 84.145621 
L 54.053629 84.259082 
L 54.310648 83.625483 
L 54.439157 83.542123 
L 55.081705 84.620922 
L 55.210214 84.356717 
L 55.338724 84.85 
L 55.467233 84.816633 
L 55.595742 84.645164 
L 55.724252 84.745512 
L 56.10978 84.143945 
L 56.23829 84.163453 
L 56.495309 84.384174 
L 57.009346 83.526552 
L 57.137856 83.522394 
L 57.266365 82.749288 
L 57.780403 83.957871 
L 57.908912 83.240981 
L 58.037422 83.340271 
L 58.55146 84.28828 
L 58.808479 83.302669 
L 58.936988 83.201556 
L 59.065498 83.871403 
L 59.194007 83.872737 
L 59.579535 83.585031 
L 59.708045 83.006108 
L 59.836554 83.848802 
L 59.965064 83.532994 
L 60.093573 83.924734 
L 60.222083 83.891812 
L 60.479101 83.165761 
L 60.607611 83.230683 
L 60.73612 82.996234 
L 60.993139 83.32399 
L 61.121649 83.240479 
L 61.250158 83.638846 
L 61.507177 83.142719 
L 61.635687 83.270338 
L 61.892705 82.531782 
L 62.149724 82.968418 
L 62.406743 82.558579 
L 62.663762 82.116025 
L 62.792272 83.208729 
L 62.920781 83.29075 
L 63.04929 83.216407 
L 63.1778 83.790896 
L 63.563328 83.275287 
L 63.820347 82.571625 
L 64.077366 82.879263 
L 64.205875 83.193079 
L 64.462894 82.056438 
L 64.591404 82.216419 
L 64.719913 81.821767 
L 64.976932 79.681473 
L 65.105442 79.75093 
L 65.233951 79.583108 
L 65.362461 80.132274 
L 65.619479 82.011635 
L 65.747989 81.123244 
L 65.876498 81.950131 
L 66.133517 81.680445 
L 66.262027 81.669621 
L 66.390536 82.417006 
L 66.519046 81.822112 
L 66.776064 82.292765 
L 66.904574 82.23793 
L 67.033083 81.81204 
L 67.161593 80.859176 
L 67.290102 81.026715 
L 67.418612 80.559843 
L 67.547121 81.098511 
L 67.675631 80.259117 
L 67.80414 81.134714 
L 68.189668 78.965925 
L 68.318178 79.919113 
L 68.446687 79.782673 
L 68.575197 79.987351 
L 68.703706 80.604626 
L 68.832216 80.322087 
L 68.960725 80.796999 
L 69.089235 80.761375 
L 69.346253 81.065491 
L 69.474763 80.961289 
L 69.731782 82.041061 
L 69.988801 81.212357 
L 70.11731 81.563942 
L 70.24582 81.349014 
L 70.502838 80.061252 
L 70.759857 80.894388 
L 71.016876 79.720836 
L 71.145386 79.410246 
L 71.402405 80.723314 
L 71.659424 78.920603 
L 71.916442 79.961288 
L 72.044952 79.57927 
L 72.173461 79.639045 
L 72.301971 79.885024 
L 72.43048 79.335279 
L 72.816009 81.030416 
L 72.944518 81.625662 
L 73.201537 81.266354 
L 73.330046 81.346685 
L 73.715575 80.743596 
L 73.844084 80.677844 
L 73.972594 81.047294 
L 74.101103 80.66139 
L 74.229613 80.692558 
L 74.615141 78.794343 
L 74.87216 79.429305 
L 75.129179 78.150474 
L 75.257688 78.31171 
L 75.386198 78.29067 
L 75.514707 78.537357 
L 75.900235 75.853783 
L 76.028745 77.284333 
L 76.157254 75.793594 
L 76.285764 75.746831 
L 76.414273 74.890651 
L 76.542783 75.10776 
L 76.671292 74.539238 
L 76.799801 76.059881 
L 76.928311 75.529985 
L 77.18533 73.300829 
L 77.313839 74.919141 
L 77.442349 73.598404 
L 77.570858 73.951416 
L 77.699368 72.573147 
L 77.827877 73.863072 
L 78.084896 73.652126 
L 78.213405 72.128681 
L 78.341915 72.044919 
L 78.470424 71.444511 
L 78.855953 72.551834 
L 78.984462 72.489526 
L 79.112972 70.794212 
L 79.241481 72.282794 
L 79.884028 69.75395 
L 80.141047 72.721742 
L 80.269557 71.502647 
L 80.398066 72.457111 
L 80.655085 71.773928 
L 80.783594 71.866492 
L 80.912104 72.477617 
L 81.040613 71.301847 
L 81.169123 71.75838 
L 81.297632 69.108051 
L 81.426142 69.488448 
L 81.554651 69.512198 
L 81.683161 68.948721 
L 81.81167 69.736914 
L 81.940179 69.293257 
L 82.068689 67.895073 
L 82.197198 67.770434 
L 82.325708 69.463568 
L 82.582727 67.271108 
L 82.711236 68.225642 
L 82.839746 66.255819 
L 82.968255 66.699099 
L 83.225274 69.72816 
L 83.610802 67.760781 
L 83.739312 67.983223 
L 84.12484 67.143095 
L 84.381859 64.170198 
L 84.510368 63.93846 
L 84.638878 62.632911 
L 84.895897 58.95767 
L 85.024406 58.217217 
L 85.152916 59.837965 
L 85.281425 59.845145 
L 85.409935 58.863303 
L 85.538444 58.777027 
L 85.795463 62.98679 
L 86.052482 57.924259 
L 86.180991 58.705297 
L 86.43801 57.141346 
L 86.56652 57.625104 
L 86.695029 61.182669 
L 86.823539 61.050363 
L 87.080557 62.618678 
L 87.209067 60.593893 
L 87.337576 61.719876 
L 87.466086 60.632342 
L 87.594595 60.608788 
L 87.980124 67.093064 
L 88.108633 67.074744 
L 88.237142 68.238792 
L 88.365652 66.560177 
L 88.494161 66.428996 
L 88.622671 66.97833 
L 88.75118 68.638412 
L 88.87969 68.281669 
L 89.265218 66.402498 
L 89.393728 67.079476 
L 89.522237 67.034443 
L 89.650746 65.717883 
L 89.779256 66.330083 
L 89.907765 68.983999 
L 90.036275 67.970073 
L 90.164784 68.032091 
L 90.293294 67.842237 
L 90.421803 67.359939 
L 90.678822 70.338547 
L 90.807331 69.074902 
L 90.935841 69.169063 
L 91.06435 68.50916 
L 91.19286 68.439079 
L 91.321369 68.721401 
L 91.449879 70.08797 
L 91.578388 68.999614 
L 91.835407 70.86415 
L 91.963916 69.592372 
L 92.092426 70.043525 
L 92.349445 68.111827 
L 92.477954 70.902632 
L 92.734973 71.393927 
L 92.863483 72.179275 
L 93.120502 71.525197 
L 93.249011 73.105051 
L 93.37752 73.039293 
L 93.634539 70.751544 
L 93.763049 71.79793 
L 94.020068 69.713965 
L 94.148577 70.076318 
L 94.405596 69.096513 
L 94.662615 69.66935 
L 94.791124 68.176607 
L 94.919634 68.988012 
L 95.048143 68.906282 
L 95.433672 66.399339 
L 95.562181 67.335619 
L 95.690691 66.85811 
L 95.8192 68.297219 
L 95.947709 66.724079 
L 96.076219 67.508197 
L 96.204728 66.580879 
L 96.461747 67.102197 
L 96.590257 66.639184 
L 96.718766 67.723754 
L 96.975785 65.790454 
L 97.104294 64.97371 
L 97.232804 65.516967 
L 97.489823 70.264156 
L 97.618332 70.175181 
L 97.746842 69.436411 
L 97.875351 69.485922 
L 98.003861 69.804967 
L 98.13237 70.428573 
L 98.260879 68.416262 
L 98.389389 69.1718 
L 98.646408 71.987797 
L 98.903427 75.579695 
L 99.031936 75.318636 
L 99.160446 75.483241 
L 99.288955 76.144115 
L 99.417465 75.636327 
L 99.674483 76.618307 
L 99.802993 76.111343 
L 99.931502 76.659305 
L 100.317031 75.233738 
L 100.57405 76.676523 
L 100.702559 76.448666 
L 100.831068 75.90441 
L 101.088087 72.880603 
L 101.345106 70.919832 
L 101.602125 70.648373 
L 101.730635 70.632141 
L 101.859144 70.12238 
L 101.987654 70.725807 
L 102.244672 69.48382 
L 102.373182 71.293306 
L 102.501691 69.403078 
L 102.630201 69.866682 
L 102.75871 69.140618 
L 103.015729 69.780562 
L 103.144239 70.594103 
L 103.529767 69.060279 
L 103.915295 70.669046 
L 103.915295 70.669046 
" clip-path="url(#pf0eb8910ab)" style="fill: none; stroke: #cc78a6; stroke-width: 1.5; stroke-linecap: square"/>
   </g>
   <g id="line2d_7">
    <path d="M 39.660571 86.040617 
L 39.91759 85.675776 
L 40.174609 85.432378 
L 40.303118 85.447233 
L 40.560137 84.572408 
L 40.688646 84.717324 
L 40.945665 84.061369 
L 41.074175 84.275979 
L 41.202684 84.135747 
L 41.459703 84.274498 
L 41.588212 84.064795 
L 41.845231 84.770754 
L 42.10225 84.956088 
L 42.359269 84.71149 
L 42.616288 83.951658 
L 42.744797 84.161287 
L 42.873307 84.017509 
L 43.258835 82.244253 
L 43.387345 82.442583 
L 43.515854 82.120736 
L 43.644364 82.601764 
L 43.772873 82.186389 
L 44.029892 82.534819 
L 44.158401 83.286774 
L 44.286911 83.171656 
L 44.54393 83.511953 
L 44.672439 83.171012 
L 44.929458 83.862628 
L 45.314986 83.885751 
L 45.443496 84.307701 
L 45.572005 84.335531 
L 45.700515 84.498031 
L 45.829024 84.128757 
L 46.214553 85.081346 
L 46.343062 85.100255 
L 46.600081 84.670393 
L 46.72859 84.71819 
L 46.985609 84.225477 
L 47.242628 84.277584 
L 47.885175 83.570331 
L 48.142194 83.906338 
L 48.270704 83.895855 
L 48.399213 84.642318 
L 48.913251 82.838068 
L 49.04176 83.333256 
L 49.17027 83.122908 
L 49.427289 83.212215 
L 49.555798 83.341554 
L 49.684308 82.509896 
L 49.941327 83.794957 
L 50.069836 83.461697 
L 50.326855 84.766935 
L 50.455364 84.382702 
L 50.712383 85.031569 
L 50.969402 84.761791 
L 51.097912 85.419801 
L 51.226421 85.039737 
L 51.354931 85.281326 
L 51.48344 85.242257 
L 51.740459 83.762005 
L 51.997478 84.506115 
L 52.125987 83.527404 
L 52.383006 84.661731 
L 52.511516 84.52919 
L 52.640025 83.656177 
L 52.768535 83.749737 
L 52.897044 84.638652 
L 53.025553 84.679672 
L 53.154063 84.847764 
L 53.539591 83.55368 
L 53.668101 82.840077 
L 53.92512 83.500925 
L 54.182138 83.804155 
L 54.310648 83.551392 
L 54.439157 82.995451 
L 54.696176 80.803233 
L 54.824686 80.861212 
L 54.953195 81.650994 
L 55.081705 80.49911 
L 55.210214 80.603065 
L 55.338724 79.727541 
L 55.467233 80.211252 
L 55.595742 80.022404 
L 55.852761 78.615415 
L 55.981271 79.198039 
L 56.10978 78.485259 
L 56.23829 76.802262 
L 56.495309 77.873982 
L 56.623818 77.663364 
L 56.880837 75.787107 
L 57.394875 78.800284 
L 57.523384 78.925667 
L 57.651894 79.580193 
L 57.780403 79.63829 
L 58.037422 81.114753 
L 58.294441 80.459714 
L 58.42295 79.498321 
L 58.55146 79.697732 
L 58.679969 80.424337 
L 58.808479 80.273591 
L 58.936988 79.2637 
L 59.065498 79.780885 
L 59.194007 79.033481 
L 59.451026 77.247536 
L 59.579535 77.438374 
L 59.708045 76.047319 
L 59.836554 76.112958 
L 59.965064 76.311497 
L 60.093573 74.803164 
L 60.350592 75.635895 
L 60.479101 75.032879 
L 60.73612 76.15946 
L 60.86463 76.234037 
L 60.993139 76.546144 
L 61.121649 75.393686 
L 61.250158 76.306971 
L 61.378668 75.342014 
L 61.892705 77.477292 
L 62.406743 75.750656 
L 62.535253 76.009848 
L 62.663762 75.851528 
L 62.792272 75.878955 
L 63.04929 76.817318 
L 63.1778 76.468155 
L 63.306309 76.44347 
L 63.434819 76.741394 
L 63.563328 77.548322 
L 63.691838 77.40134 
L 63.820347 77.566857 
L 63.948857 77.920222 
L 64.077366 77.634395 
L 64.205875 77.636824 
L 64.334385 76.484646 
L 64.462894 77.192239 
L 64.591404 76.89489 
L 64.719913 77.472757 
L 64.848423 77.428082 
L 65.105442 75.75024 
L 65.233951 75.66615 
L 65.362461 74.918182 
L 65.49097 75.107373 
L 65.747989 73.919623 
L 65.876498 73.981547 
L 66.390536 74.996516 
L 66.647555 73.743274 
L 67.033083 73.852425 
L 67.290102 74.680087 
L 67.675631 72.797457 
L 67.80414 73.308559 
L 67.93265 73.279929 
L 68.061159 71.581193 
L 68.189668 73.559301 
L 68.446687 73.220221 
L 68.575197 71.698582 
L 68.832216 73.183802 
L 69.089235 76.313473 
L 69.346253 75.649729 
L 69.474763 76.088694 
L 69.603272 77.436893 
L 69.860291 77.085225 
L 70.11731 78.205952 
L 70.502838 78.183065 
L 70.888367 76.633609 
L 71.145386 77.474267 
L 71.402405 79.091539 
L 71.530914 78.549303 
L 71.659424 79.859556 
L 71.787933 78.250216 
L 71.916442 78.08959 
L 72.044952 78.344408 
L 72.301971 76.14856 
L 72.43048 75.698694 
L 72.55899 76.02609 
L 72.816009 74.253069 
L 73.073027 75.226163 
L 73.201537 74.986701 
L 73.458556 73.569672 
L 73.587065 73.147289 
L 73.844084 76.555961 
L 73.972594 76.24457 
L 74.229613 73.890637 
L 74.358122 73.953778 
L 74.615141 73.023917 
L 75.000669 68.236093 
L 75.257688 69.817993 
L 75.514707 66.944924 
L 75.643216 67.975542 
L 75.771726 70.502914 
L 75.900235 70.691018 
L 76.157254 69.410657 
L 76.414273 70.955845 
L 76.671292 71.862717 
L 76.799801 71.154156 
L 76.928311 68.115799 
L 77.18533 70.069338 
L 77.313839 68.271045 
L 77.442349 69.429838 
L 77.699368 67.098095 
L 77.827877 68.003653 
L 77.956387 66.624852 
L 78.084896 66.841723 
L 78.598934 61.935105 
L 78.727443 62.081678 
L 78.984462 59.889593 
L 79.4985 64.528147 
L 79.627009 64.811512 
L 79.755519 66.032453 
L 79.884028 65.980672 
L 80.526576 71.466312 
L 80.655085 71.052059 
L 80.783594 71.121077 
L 80.912104 71.844121 
L 81.040613 71.677242 
L 81.169123 73.27796 
L 81.426142 72.371413 
L 81.554651 72.736781 
L 81.683161 72.737899 
L 81.81167 72.903613 
L 81.940179 73.289203 
L 82.068689 74.561911 
L 82.197198 73.601603 
L 82.454217 69.212594 
L 82.582727 69.501488 
L 82.711236 69.01763 
L 82.839746 70.145052 
L 82.968255 68.692226 
L 83.353783 73.034545 
L 83.482293 72.377777 
L 83.610802 70.711195 
L 83.739312 71.100375 
L 83.867821 72.354169 
L 84.381859 66.871347 
L 84.510368 66.618174 
L 84.638878 65.57187 
L 84.767387 67.071145 
L 84.895897 66.178521 
L 85.024406 66.772216 
L 85.409935 72.780945 
L 85.666953 71.434916 
L 85.923972 74.255498 
L 86.052482 73.779494 
L 86.180991 74.409734 
L 86.43801 71.452688 
L 86.56652 70.288772 
L 87.080557 73.706009 
L 87.337576 75.234037 
L 87.466086 73.944815 
L 87.594595 74.101574 
L 87.723105 73.970143 
L 87.851614 74.360536 
L 88.365652 78.073614 
L 88.622671 75.696339 
L 88.87969 77.279599 
L 89.136709 76.750043 
L 89.265218 75.34889 
L 89.522237 77.991076 
L 89.779256 76.65845 
L 89.907765 76.010163 
L 90.164784 76.463287 
L 90.421803 78.720427 
L 90.807331 79.980403 
L 90.935841 80.123088 
L 91.06435 79.589234 
L 91.321369 78.022485 
L 91.449879 78.326017 
L 91.706898 79.707653 
L 91.835407 80.926231 
L 91.963916 80.761513 
L 92.092426 79.991136 
L 92.220935 80.741555 
L 92.349445 80.426809 
L 92.477954 80.604037 
L 92.734973 79.203401 
L 92.863483 78.550031 
L 92.991992 79.718373 
L 93.249011 79.926958 
L 93.50603 79.81895 
L 93.763049 77.812443 
L 93.891558 77.284268 
L 94.020068 77.613269 
L 94.148577 77.118062 
L 94.277087 77.406429 
L 94.405596 77.313192 
L 94.662615 75.843652 
L 94.791124 76.646996 
L 94.919634 76.038438 
L 95.048143 76.221998 
L 95.305162 78.157541 
L 95.562181 76.74849 
L 96.076219 78.563189 
L 96.204728 78.146592 
L 96.333238 80.202478 
L 96.461747 78.431599 
L 96.590257 78.9722 
L 96.847276 76.741069 
L 96.975785 76.873562 
L 97.104294 76.725299 
L 97.232804 76.073224 
L 97.361313 77.473164 
L 97.489823 76.364587 
L 97.746842 76.83538 
L 98.003861 75.371301 
L 98.13237 76.595665 
L 98.260879 76.652454 
L 98.389389 77.749087 
L 98.517898 77.690123 
L 98.646408 78.733919 
L 98.774917 78.481207 
L 99.031936 80.673988 
L 99.160446 79.701253 
L 99.288955 79.779641 
L 99.417465 80.44777 
L 99.545974 80.008148 
L 99.674483 80.345008 
L 99.802993 79.886375 
L 99.931502 78.688395 
L 100.188521 80.401437 
L 100.317031 80.232976 
L 100.831068 77.231479 
L 100.959578 79.682875 
L 101.088087 79.988889 
L 101.216597 79.159368 
L 101.473616 77.017257 
L 101.602125 77.845105 
L 101.859144 75.852734 
L 101.987654 76.27342 
L 102.116163 75.880473 
L 102.244672 75.863974 
L 102.630201 77.975296 
L 102.75871 78.404913 
L 103.015729 77.340978 
L 103.144239 75.736766 
L 103.529767 78.306708 
L 103.786786 79.614715 
L 103.915295 79.590548 
L 103.915295 79.590548 
" clip-path="url(#pf0eb8910ab)" style="fill: none; stroke: #55b2e8; stroke-width: 1.5; stroke-linecap: square"/>
   </g>
   <g id="line2d_8">
    <path d="M 39.660571 87.003095 
L 44.800949 86.894144 
L 45.443496 86.757799 
L 47.114119 86.80604 
L 47.242628 86.676038 
L 47.371138 86.734863 
L 47.885175 86.577124 
L 48.142194 86.684687 
L 48.784742 86.279363 
L 49.427289 86.090774 
L 49.684308 85.780046 
L 50.069836 86.001171 
L 50.712383 85.921002 
L 50.840893 85.677737 
L 50.969402 85.709059 
L 51.097912 86.057855 
L 51.226421 86.058804 
L 51.48344 85.929922 
L 51.740459 86.007877 
L 51.868968 85.898217 
L 52.383006 86.124126 
L 52.640025 85.923638 
L 52.768535 86.092548 
L 52.897044 85.981519 
L 53.025553 86.064645 
L 53.668101 85.74703 
L 53.79661 85.947412 
L 54.053629 85.94571 
L 54.182138 86.020423 
L 54.439157 85.8726 
L 54.696176 85.75354 
L 54.824686 85.60272 
L 54.953195 85.707004 
L 55.081705 85.527737 
L 55.210214 85.629608 
L 55.467233 85.340118 
L 56.10978 84.903556 
L 56.366799 85.016645 
L 56.495309 84.906709 
L 56.623818 85.106569 
L 56.752327 84.869025 
L 56.880837 85.140074 
L 57.137856 84.709043 
L 57.266365 85.076955 
L 57.394875 85.015782 
L 57.523384 84.747978 
L 57.651894 84.945698 
L 57.780403 84.726783 
L 58.037422 84.976755 
L 58.165931 84.810197 
L 58.294441 84.949057 
L 58.42295 84.922433 
L 58.55146 85.024211 
L 58.808479 84.762767 
L 59.708045 85.276537 
L 60.350592 84.584406 
L 60.607611 84.731904 
L 60.73612 84.313914 
L 61.121649 84.607559 
L 61.250158 84.660739 
L 61.378668 84.454941 
L 61.507177 83.964756 
L 61.635687 84.371992 
L 61.892705 84.260973 
L 62.021215 84.549244 
L 62.149724 84.314634 
L 62.278234 84.458554 
L 62.406743 84.335802 
L 62.663762 84.628309 
L 62.792272 85.109428 
L 62.920781 85.072066 
L 63.1778 85.399622 
L 63.306309 85.599712 
L 63.563328 85.164793 
L 64.205875 85.553498 
L 64.334385 85.602785 
L 64.462894 85.484631 
L 64.591404 85.640506 
L 65.105442 85.309139 
L 65.362461 85.377963 
L 65.619479 84.75665 
L 65.747989 84.657366 
L 65.876498 84.975172 
L 66.005008 84.871198 
L 66.519046 83.544988 
L 66.647555 82.384091 
L 66.904574 83.849706 
L 67.033083 83.713733 
L 67.161593 83.817805 
L 67.418612 83.305337 
L 67.547121 83.670601 
L 67.675631 83.570977 
L 67.93265 82.472169 
L 68.061159 82.719484 
L 68.318178 82.57487 
L 68.446687 83.094547 
L 68.575197 81.522844 
L 68.703706 81.932101 
L 68.832216 81.737815 
L 68.960725 81.834707 
L 69.089235 82.173782 
L 69.474763 80.678223 
L 69.603272 80.464023 
L 69.731782 81.53962 
L 69.860291 80.897917 
L 69.988801 80.935044 
L 70.24582 81.742171 
L 70.374329 80.541595 
L 70.502838 81.257874 
L 70.631348 80.010653 
L 70.888367 80.742079 
L 71.016876 81.139324 
L 71.145386 81.131499 
L 71.273895 81.454554 
L 71.530914 80.311993 
L 71.659424 80.720621 
L 71.787933 80.666092 
L 71.916442 81.656757 
L 72.301971 79.588443 
L 72.43048 80.473282 
L 72.55899 79.665542 
L 72.687499 79.65772 
L 72.944518 78.028867 
L 73.330046 78.499562 
L 73.458556 78.469327 
L 73.587065 78.789777 
L 73.715575 78.743498 
L 73.844084 78.864287 
L 74.101103 77.395217 
L 74.229613 78.886714 
L 74.358122 78.029979 
L 74.486631 78.498002 
L 74.615141 78.41189 
L 74.74365 77.766845 
L 74.87216 78.391489 
L 75.000669 77.033531 
L 75.129179 77.276452 
L 75.386198 75.773434 
L 75.514707 76.416362 
L 75.643216 74.42122 
L 75.900235 75.566609 
L 76.157254 72.876977 
L 76.285764 73.326734 
L 76.414273 73.176996 
L 76.542783 71.20438 
L 76.671292 72.034476 
L 76.799801 70.749319 
L 76.928311 72.224075 
L 77.18533 69.858603 
L 77.313839 71.054907 
L 77.442349 70.991361 
L 77.699368 71.743136 
L 77.827877 70.377572 
L 77.956387 71.528336 
L 78.084896 71.251665 
L 78.470424 66.585427 
L 78.598934 66.876366 
L 78.727443 66.818847 
L 78.855953 66.003265 
L 79.112972 66.633884 
L 79.241481 64.477865 
L 79.36999 64.891635 
L 79.627009 62.987281 
L 79.884028 64.19875 
L 80.141047 58.993459 
L 80.269557 61.11992 
L 80.398066 58.734497 
L 80.526576 60.079541 
L 80.783594 57.887523 
L 80.912104 56.666521 
L 81.040613 56.574142 
L 81.169123 53.920553 
L 81.426142 55.889769 
L 81.554651 56.65033 
L 81.683161 54.440211 
L 81.81167 56.669128 
L 81.940179 55.912698 
L 82.068689 58.019598 
L 82.197198 57.856787 
L 82.325708 55.696963 
L 82.454217 58.067981 
L 82.711236 55.277119 
L 82.839746 56.729747 
L 82.968255 55.132569 
L 83.096765 55.147501 
L 83.353783 54.780274 
L 83.482293 54.065695 
L 83.739312 56.832271 
L 83.867821 56.840914 
L 83.996331 57.895571 
L 84.25335 61.683119 
L 84.381859 62.13229 
L 84.510368 63.201765 
L 84.638878 60.730331 
L 84.767387 61.509287 
L 84.895897 59.381443 
L 85.152916 60.290971 
L 85.409935 58.201667 
L 85.538444 58.419286 
L 85.666953 59.097035 
L 85.795463 57.667864 
L 86.052482 59.359189 
L 86.180991 59.091267 
L 86.309501 60.86212 
L 86.43801 59.950906 
L 86.56652 59.972825 
L 86.695029 61.913359 
L 86.823539 61.510629 
L 87.080557 60.074449 
L 87.209067 60.337794 
L 87.337576 58.537775 
L 87.466086 59.44165 
L 87.594595 59.067556 
L 88.108633 55.606475 
L 88.365652 51.430319 
L 88.494161 53.329026 
L 88.622671 57.512106 
L 88.75118 55.789935 
L 89.008199 56.744178 
L 89.136709 58.611138 
L 89.265218 57.980395 
L 89.393728 58.518787 
L 89.907765 53.12197 
L 90.164784 56.969638 
L 90.293294 56.882333 
L 90.421803 56.223658 
L 90.550313 59.829095 
L 90.678822 58.757842 
L 90.807331 59.033098 
L 90.935841 58.343163 
L 91.06435 56.40785 
L 91.19286 57.088783 
L 91.449879 53.645918 
L 91.706898 55.209217 
L 91.835407 53.590344 
L 91.963916 53.986384 
L 92.092426 50.033179 
L 92.220935 51.482862 
L 92.349445 51.412696 
L 92.734973 46.783144 
L 92.863483 47.42444 
L 92.991992 50.059182 
L 93.120502 47.097775 
L 93.37752 48.824199 
L 93.50603 45.73509 
L 93.634539 47.569341 
L 93.763049 47.108823 
L 94.020068 44.303727 
L 94.148577 47.718299 
L 94.277087 45.972814 
L 94.534105 50.294523 
L 94.662615 52.495067 
L 94.791124 51.077778 
L 94.919634 51.065696 
L 95.048143 51.874555 
L 95.562181 42.862718 
L 95.690691 42.569469 
L 95.8192 40.714268 
L 95.947709 43.459863 
L 96.333238 40.664936 
L 96.590257 42.455227 
L 96.718766 42.891661 
L 96.975785 41.716586 
L 97.361313 45.63891 
L 97.489823 44.675822 
L 97.618332 44.865656 
L 97.746842 44.724348 
L 97.875351 45.099778 
L 98.260879 39.348129 
L 98.389389 39.889856 
L 98.646408 35.137538 
L 98.903427 39.853637 
L 99.031936 39.399205 
L 99.288955 44.36935 
L 99.545974 43.492889 
L 99.674483 40.674985 
L 99.802993 44.283269 
L 99.931502 43.643778 
L 100.060012 43.886521 
L 100.188521 43.130066 
L 100.317031 40.779618 
L 100.57405 43.693937 
L 100.702559 42.636799 
L 100.831068 43.591847 
L 100.959578 45.550128 
L 101.088087 45.485031 
L 101.345106 49.514432 
L 101.473616 50.030849 
L 101.602125 51.249635 
L 101.730635 50.876966 
L 101.859144 51.697557 
L 101.987654 49.102949 
L 102.373182 53.841907 
L 102.501691 53.987918 
L 102.630201 55.663584 
L 102.75871 55.144755 
L 103.144239 51.857518 
L 103.272748 51.731633 
L 103.401257 54.517843 
L 103.658276 53.344548 
L 103.786786 51.057569 
L 103.915295 53.543711 
L 103.915295 53.543711 
" clip-path="url(#pf0eb8910ab)" style="fill: none; stroke: #e59c00; stroke-width: 1.5; stroke-linecap: square"/>
   </g>
   <g id="patch_3">
    <path d="M 35.16274 87.003102 
L 35.16274 18.657992 
" style="fill: none; stroke: #000000; stroke-width: 0.8; stroke-linejoin: miter; stroke-linecap: square"/>
   </g>
   <g id="patch_4">
    <path d="M 39.660571 91.78726 
L 103.915295 91.78726 
" style="fill: none; stroke: #000000; stroke-width: 0.8; stroke-linejoin: miter; stroke-linecap: square"/>
   </g>
   <g id="text_8">
    <!-- Drift -->
    <g transform="translate(61.706605 10.873834) scale(0.11 -0.11)">
     <defs>
      <path id="ArialMT-66" d="M 556 0 
L 556 2881 
L 59 2881 
L 59 3319 
L 556 3319 
L 556 3672 
Q 556 4006 616 4169 
Q 697 4388 901 4523 
Q 1106 4659 1475 4659 
Q 1713 4659 2000 4603 
L 1916 4113 
Q 1741 4144 1584 4144 
Q 1328 4144 1222 4034 
Q 1116 3925 1116 3625 
L 1116 3319 
L 1763 3319 
L 1763 2881 
L 1116 2881 
L 1116 0 
L 556 0 
z
" transform="scale(0.015625)"/>
     </defs>
     <use xlink:href="#ArialMT-44"/>
     <use xlink:href="#ArialMT-72" transform="translate(72.216797 0)"/>
     <use xlink:href="#ArialMT-69" transform="translate(105.517578 0)"/>
     <use xlink:href="#ArialMT-66" transform="translate(127.734375 0)"/>
     <use xlink:href="#ArialMT-74" transform="translate(155.517578 0)"/>
    </g>
   </g>
   <g id="legend_1">
    <g id="patch_5">
     <path d="M 36.994 45.039204 
L 74.196561 45.039204 
L 74.196561 17.187068 
L 36.994 17.187068 
z
" style="fill: #ffffff; opacity: 0.6; stroke: #ffffff; stroke-linejoin: miter"/>
    </g>
    <g id="line2d_9">
     <path d="M 37.827 21.067026 
L 41.159 21.067026 
L 44.491 21.067026 
" style="fill: none; stroke: #cc78a6; stroke-width: 1.5; stroke-linecap: square"/>
    </g>
    <g id="text_9">
     <!-- LSS -->
     <g style="fill: #222222" transform="translate(46.99 23.982526) scale(0.0833 -0.0833)">
      <defs>
       <path id="ArialMT-4c" d="M 469 0 
L 469 4581 
L 1075 4581 
L 1075 541 
L 3331 541 
L 3331 0 
L 469 0 
z
" transform="scale(0.015625)"/>
      </defs>
      <use xlink:href="#ArialMT-4c"/>
      <use xlink:href="#ArialMT-53" transform="translate(55.615234 0)"/>
      <use xlink:href="#ArialMT-53" transform="translate(122.314453 0)"/>
     </g>
    </g>
    <g id="line2d_10">
     <path d="M 37.827 30.351071 
L 41.159 30.351071 
L 44.491 30.351071 
" style="fill: none; stroke: #55b2e8; stroke-width: 1.5; stroke-linecap: square"/>
    </g>
    <g id="text_10">
     <!-- MRNS -->
     <g style="fill: #222222" transform="translate(46.99 33.266571) scale(0.0833 -0.0833)">
      <defs>
       <path id="ArialMT-4d" d="M 475 0 
L 475 4581 
L 1388 4581 
L 2472 1338 
Q 2622 884 2691 659 
Q 2769 909 2934 1394 
L 4031 4581 
L 4847 4581 
L 4847 0 
L 4263 0 
L 4263 3834 
L 2931 0 
L 2384 0 
L 1059 3900 
L 1059 0 
L 475 0 
z
" transform="scale(0.015625)"/>
       <path id="ArialMT-52" d="M 503 0 
L 503 4581 
L 2534 4581 
Q 3147 4581 3465 4457 
Q 3784 4334 3975 4021 
Q 4166 3709 4166 3331 
Q 4166 2844 3850 2509 
Q 3534 2175 2875 2084 
Q 3116 1969 3241 1856 
Q 3506 1613 3744 1247 
L 4541 0 
L 3778 0 
L 3172 953 
Q 2906 1366 2734 1584 
Q 2563 1803 2427 1890 
Q 2291 1978 2150 2013 
Q 2047 2034 1813 2034 
L 1109 2034 
L 1109 0 
L 503 0 
z
M 1109 2559 
L 2413 2559 
Q 2828 2559 3062 2645 
Q 3297 2731 3419 2920 
Q 3541 3109 3541 3331 
Q 3541 3656 3305 3865 
Q 3069 4075 2559 4075 
L 1109 4075 
L 1109 2559 
z
" transform="scale(0.015625)"/>
       <path id="ArialMT-4e" d="M 488 0 
L 488 4581 
L 1109 4581 
L 3516 984 
L 3516 4581 
L 4097 4581 
L 4097 0 
L 3475 0 
L 1069 3600 
L 1069 0 
L 488 0 
z
" transform="scale(0.015625)"/>
      </defs>
      <use xlink:href="#ArialMT-4d"/>
      <use xlink:href="#ArialMT-52" transform="translate(83.300781 0)"/>
      <use xlink:href="#ArialMT-4e" transform="translate(155.517578 0)"/>
      <use xlink:href="#ArialMT-53" transform="translate(227.734375 0)"/>
     </g>
    </g>
    <g id="line2d_11">
     <path d="M 37.827 39.635117 
L 41.159 39.635117 
L 44.491 39.635117 
" style="fill: none; stroke: #e59c00; stroke-width: 1.5; stroke-linecap: square"/>
    </g>
    <g id="text_11">
     <!-- MWNS -->
     <g style="fill: #222222" transform="translate(46.99 42.550617) scale(0.0833 -0.0833)">
      <defs>
       <path id="ArialMT-57" d="M 1294 0 
L 78 4581 
L 700 4581 
L 1397 1578 
Q 1509 1106 1591 641 
Q 1766 1375 1797 1488 
L 2669 4581 
L 3400 4581 
L 4056 2263 
Q 4303 1400 4413 641 
Q 4500 1075 4641 1638 
L 5359 4581 
L 5969 4581 
L 4713 0 
L 4128 0 
L 3163 3491 
Q 3041 3928 3019 4028 
Q 2947 3713 2884 3491 
L 1913 0 
L 1294 0 
z
" transform="scale(0.015625)"/>
      </defs>
      <use xlink:href="#ArialMT-4d"/>
      <use xlink:href="#ArialMT-57" transform="translate(83.300781 0)"/>
      <use xlink:href="#ArialMT-4e" transform="translate(177.685547 0)"/>
      <use xlink:href="#ArialMT-53" transform="translate(249.902344 0)"/>
     </g>
    </g>
   </g>
  </g>
 </g>
 <defs>
  <clipPath id="pf0eb8910ab">
   <rect x="35.16274" y="13.873834" width="73.250386" height="77.913426"/>
  </clipPath>
 </defs>
</svg>
