<?xml version="1.0" encoding="utf-8" standalone="no"?>
<!DOCTYPE svg PUBLIC "-//W3C//DTD SVG 1.1//EN"
  "http://www.w3.org/Graphics/SVG/1.1/DTD/svg11.dtd">
<svg xmlns:xlink="http://www.w3.org/1999/xlink" width="207.36pt" height="115.2pt" viewBox="0 0 207.36 115.2" xmlns="http://www.w3.org/2000/svg" version="1.1">
 <metadata>
  <rdf:RDF xmlns:dc="http://purl.org/dc/elements/1.1/" xmlns:cc="http://creativecommons.org/ns#" xmlns:rdf="http://www.w3.org/1999/02/22-rdf-syntax-ns#">
   <cc:Work>
    <dc:type rdf:resource="http://purl.org/dc/dcmitype/StillImage"/>
    <dc:date>2025-07-07T10:30:33.225585</dc:date>
    <dc:format>image/svg+xml</dc:format>
    <dc:creator>
     <cc:Agent>
      <dc:title>Matplotlib v3.10.3, https://matplotlib.org/</dc:title>
     </cc:Agent>
    </dc:creator>
   </cc:Work>
  </rdf:RDF>
 </metadata>
 <defs>
  <style type="text/css">*{stroke-linejoin: round; stroke-linecap: butt}</style>
 </defs>
 <g id="figure_1">
  <g id="patch_1">
   <path d="M 0 115.2 
L 207.36 115.2 
L 207.36 0 
L 0 0 
z
" style="fill: #ffffff"/>
  </g>
  <g id="axes_1">
   <g id="patch_2">
    <path d="M 25.547115 91.78726 
L 106.036471 91.78726 
L 106.036471 13.873834 
L 25.547115 13.873834 
L 25.547115 91.78726 
z
" style="fill: none"/>
   </g>
   <g id="matplotlib.axis_1">
    <g id="xtick_1">
     <g id="line2d_1">
      <defs>
       <path id="m29f71f1c3a" d="M 0 0 
L 0 4.5 
" style="stroke: #000000; stroke-width: 1.1"/>
      </defs>
      <g>
       <use xlink:href="#m29f71f1c3a" x="30.489444" y="91.78726" style="stroke: #000000; stroke-width: 1.1"/>
      </g>
     </g>
     <g id="text_1">
      <!-- 0 -->
      <g transform="translate(27.708975 105.945073) scale(0.1 -0.1)">
       <defs>
        <path id="ArialMT-30" d="M 266 2259 
Q 266 3072 433 3567 
Q 600 4063 929 4331 
Q 1259 4600 1759 4600 
Q 2128 4600 2406 4451 
Q 2684 4303 2865 4023 
Q 3047 3744 3150 3342 
Q 3253 2941 3253 2259 
Q 3253 1453 3087 958 
Q 2922 463 2592 192 
Q 2263 -78 1759 -78 
Q 1097 -78 719 397 
Q 266 969 266 2259 
z
M 844 2259 
Q 844 1131 1108 757 
Q 1372 384 1759 384 
Q 2147 384 2411 759 
Q 2675 1134 2675 2259 
Q 2675 3391 2411 3762 
Q 2147 4134 1753 4134 
Q 1366 4134 1134 3806 
Q 844 3388 844 2259 
z
" transform="scale(0.015625)"/>
       </defs>
       <use xlink:href="#ArialMT-30"/>
      </g>
     </g>
    </g>
    <g id="xtick_2">
     <g id="line2d_2">
      <g>
       <use xlink:href="#m29f71f1c3a" x="101.094142" y="91.78726" style="stroke: #000000; stroke-width: 1.1"/>
      </g>
     </g>
     <g id="text_2">
      <!-- 100 -->
      <g transform="translate(92.752736 105.945073) scale(0.1 -0.1)">
       <defs>
        <path id="ArialMT-31" d="M 2384 0 
L 1822 0 
L 1822 3584 
Q 1619 3391 1289 3197 
Q 959 3003 697 2906 
L 697 3450 
Q 1169 3672 1522 3987 
Q 1875 4303 2022 4600 
L 2384 4600 
L 2384 0 
z
" transform="scale(0.015625)"/>
       </defs>
       <use xlink:href="#ArialMT-31"/>
       <use xlink:href="#ArialMT-30" transform="translate(55.615234 0)"/>
       <use xlink:href="#ArialMT-30" transform="translate(111.230469 0)"/>
      </g>
     </g>
    </g>
    <g id="text_3">
     <!-- Step -->
     <g transform="translate(55.506637 110.21226) scale(0.1 -0.1)">
      <defs>
       <path id="ArialMT-53" d="M 288 1472 
L 859 1522 
Q 900 1178 1048 958 
Q 1197 738 1509 602 
Q 1822 466 2213 466 
Q 2559 466 2825 569 
Q 3091 672 3220 851 
Q 3350 1031 3350 1244 
Q 3350 1459 3225 1620 
Q 3100 1781 2813 1891 
Q 2628 1963 1997 2114 
Q 1366 2266 1113 2400 
Q 784 2572 623 2826 
Q 463 3081 463 3397 
Q 463 3744 659 4045 
Q 856 4347 1234 4503 
Q 1613 4659 2075 4659 
Q 2584 4659 2973 4495 
Q 3363 4331 3572 4012 
Q 3781 3694 3797 3291 
L 3216 3247 
Q 3169 3681 2898 3903 
Q 2628 4125 2100 4125 
Q 1550 4125 1298 3923 
Q 1047 3722 1047 3438 
Q 1047 3191 1225 3031 
Q 1400 2872 2139 2705 
Q 2878 2538 3153 2413 
Q 3553 2228 3743 1945 
Q 3934 1663 3934 1294 
Q 3934 928 3725 604 
Q 3516 281 3123 101 
Q 2731 -78 2241 -78 
Q 1619 -78 1198 103 
Q 778 284 539 648 
Q 300 1013 288 1472 
z
" transform="scale(0.015625)"/>
       <path id="ArialMT-74" d="M 1650 503 
L 1731 6 
Q 1494 -44 1306 -44 
Q 1000 -44 831 53 
Q 663 150 594 308 
Q 525 466 525 972 
L 525 2881 
L 113 2881 
L 113 3319 
L 525 3319 
L 525 4141 
L 1084 4478 
L 1084 3319 
L 1650 3319 
L 1650 2881 
L 1084 2881 
L 1084 941 
Q 1084 700 1114 631 
Q 1144 563 1211 522 
Q 1278 481 1403 481 
Q 1497 481 1650 503 
z
" transform="scale(0.015625)"/>
       <path id="ArialMT-65" d="M 2694 1069 
L 3275 997 
Q 3138 488 2766 206 
Q 2394 -75 1816 -75 
Q 1088 -75 661 373 
Q 234 822 234 1631 
Q 234 2469 665 2931 
Q 1097 3394 1784 3394 
Q 2450 3394 2872 2941 
Q 3294 2488 3294 1666 
Q 3294 1616 3291 1516 
L 816 1516 
Q 847 969 1125 678 
Q 1403 388 1819 388 
Q 2128 388 2347 550 
Q 2566 713 2694 1069 
z
M 847 1978 
L 2700 1978 
Q 2663 2397 2488 2606 
Q 2219 2931 1791 2931 
Q 1403 2931 1139 2672 
Q 875 2413 847 1978 
z
" transform="scale(0.015625)"/>
       <path id="ArialMT-70" d="M 422 -1272 
L 422 3319 
L 934 3319 
L 934 2888 
Q 1116 3141 1344 3267 
Q 1572 3394 1897 3394 
Q 2322 3394 2647 3175 
Q 2972 2956 3137 2557 
Q 3303 2159 3303 1684 
Q 3303 1175 3120 767 
Q 2938 359 2589 142 
Q 2241 -75 1856 -75 
Q 1575 -75 1351 44 
Q 1128 163 984 344 
L 984 -1272 
L 422 -1272 
z
M 931 1641 
Q 931 1000 1190 694 
Q 1450 388 1819 388 
Q 2194 388 2461 705 
Q 2728 1022 2728 1688 
Q 2728 2322 2467 2637 
Q 2206 2953 1844 2953 
Q 1484 2953 1207 2617 
Q 931 2281 931 1641 
z
" transform="scale(0.015625)"/>
      </defs>
      <use xlink:href="#ArialMT-53"/>
      <use xlink:href="#ArialMT-74" transform="translate(66.699219 0)"/>
      <use xlink:href="#ArialMT-65" transform="translate(94.482422 0)"/>
      <use xlink:href="#ArialMT-70" transform="translate(150.097656 0)"/>
     </g>
    </g>
   </g>
   <g id="matplotlib.axis_2">
    <g id="ytick_1">
     <g id="line2d_3">
      <defs>
       <path id="mda4a34d94a" d="M 0 0 
L -4.5 0 
" style="stroke: #000000; stroke-width: 1.1"/>
      </defs>
      <g>
       <use xlink:href="#mda4a34d94a" x="25.547115" y="87.003102" style="stroke: #000000; stroke-width: 1.1"/>
      </g>
     </g>
     <g id="text_4">
      <!-- −1 -->
      <g transform="translate(7.145553 90.582008) scale(0.1 -0.1)">
       <defs>
        <path id="ArialMT-2212" d="M 3381 1997 
L 356 1997 
L 356 2522 
L 3381 2522 
L 3381 1997 
z
" transform="scale(0.015625)"/>
       </defs>
       <use xlink:href="#ArialMT-2212"/>
       <use xlink:href="#ArialMT-31" transform="translate(58.398438 0)"/>
      </g>
     </g>
    </g>
    <g id="ytick_2">
     <g id="line2d_4">
      <g>
       <use xlink:href="#mda4a34d94a" x="25.547115" y="52.830547" style="stroke: #000000; stroke-width: 1.1"/>
      </g>
     </g>
     <g id="text_5">
      <!-- 0 -->
      <g transform="translate(12.986178 56.409453) scale(0.1 -0.1)">
       <use xlink:href="#ArialMT-30"/>
      </g>
     </g>
    </g>
    <g id="ytick_3">
     <g id="line2d_5">
      <g>
       <use xlink:href="#mda4a34d94a" x="25.547115" y="18.657992" style="stroke: #000000; stroke-width: 1.1"/>
      </g>
     </g>
     <g id="text_6">
      <!-- 1 -->
      <g transform="translate(12.986178 22.236898) scale(0.1 -0.1)">
       <use xlink:href="#ArialMT-31"/>
      </g>
     </g>
    </g>
    <g id="text_7">
     <!-- Pearson $r$ -->
     <g transform="translate(10.158053 75.130547) rotate(-90) scale(0.1 -0.1)">
      <defs>
       <path id="ArialMT-50" d="M 494 0 
L 494 4581 
L 2222 4581 
Q 2678 4581 2919 4538 
Q 3256 4481 3484 4323 
Q 3713 4166 3852 3881 
Q 3991 3597 3991 3256 
Q 3991 2672 3619 2267 
Q 3247 1863 2275 1863 
L 1100 1863 
L 1100 0 
L 494 0 
z
M 1100 2403 
L 2284 2403 
Q 2872 2403 3119 2622 
Q 3366 2841 3366 3238 
Q 3366 3525 3220 3729 
Q 3075 3934 2838 4000 
Q 2684 4041 2272 4041 
L 1100 4041 
L 1100 2403 
z
" transform="scale(0.015625)"/>
       <path id="ArialMT-61" d="M 2588 409 
Q 2275 144 1986 34 
Q 1697 -75 1366 -75 
Q 819 -75 525 192 
Q 231 459 231 875 
Q 231 1119 342 1320 
Q 453 1522 633 1644 
Q 813 1766 1038 1828 
Q 1203 1872 1538 1913 
Q 2219 1994 2541 2106 
Q 2544 2222 2544 2253 
Q 2544 2597 2384 2738 
Q 2169 2928 1744 2928 
Q 1347 2928 1158 2789 
Q 969 2650 878 2297 
L 328 2372 
Q 403 2725 575 2942 
Q 747 3159 1072 3276 
Q 1397 3394 1825 3394 
Q 2250 3394 2515 3294 
Q 2781 3194 2906 3042 
Q 3031 2891 3081 2659 
Q 3109 2516 3109 2141 
L 3109 1391 
Q 3109 606 3145 398 
Q 3181 191 3288 0 
L 2700 0 
Q 2613 175 2588 409 
z
M 2541 1666 
Q 2234 1541 1622 1453 
Q 1275 1403 1131 1340 
Q 988 1278 909 1158 
Q 831 1038 831 891 
Q 831 666 1001 516 
Q 1172 366 1500 366 
Q 1825 366 2078 508 
Q 2331 650 2450 897 
Q 2541 1088 2541 1459 
L 2541 1666 
z
" transform="scale(0.015625)"/>
       <path id="ArialMT-72" d="M 416 0 
L 416 3319 
L 922 3319 
L 922 2816 
Q 1116 3169 1280 3281 
Q 1444 3394 1641 3394 
Q 1925 3394 2219 3213 
L 2025 2691 
Q 1819 2813 1613 2813 
Q 1428 2813 1281 2702 
Q 1134 2591 1072 2394 
Q 978 2094 978 1738 
L 978 0 
L 416 0 
z
" transform="scale(0.015625)"/>
       <path id="ArialMT-73" d="M 197 991 
L 753 1078 
Q 800 744 1014 566 
Q 1228 388 1613 388 
Q 2000 388 2187 545 
Q 2375 703 2375 916 
Q 2375 1106 2209 1216 
Q 2094 1291 1634 1406 
Q 1016 1563 777 1677 
Q 538 1791 414 1992 
Q 291 2194 291 2438 
Q 291 2659 392 2848 
Q 494 3038 669 3163 
Q 800 3259 1026 3326 
Q 1253 3394 1513 3394 
Q 1903 3394 2198 3281 
Q 2494 3169 2634 2976 
Q 2775 2784 2828 2463 
L 2278 2388 
Q 2241 2644 2061 2787 
Q 1881 2931 1553 2931 
Q 1166 2931 1000 2803 
Q 834 2675 834 2503 
Q 834 2394 903 2306 
Q 972 2216 1119 2156 
Q 1203 2125 1616 2013 
Q 2213 1853 2448 1751 
Q 2684 1650 2818 1456 
Q 2953 1263 2953 975 
Q 2953 694 2789 445 
Q 2625 197 2315 61 
Q 2006 -75 1616 -75 
Q 969 -75 630 194 
Q 291 463 197 991 
z
" transform="scale(0.015625)"/>
       <path id="ArialMT-6f" d="M 213 1659 
Q 213 2581 725 3025 
Q 1153 3394 1769 3394 
Q 2453 3394 2887 2945 
Q 3322 2497 3322 1706 
Q 3322 1066 3130 698 
Q 2938 331 2570 128 
Q 2203 -75 1769 -75 
Q 1072 -75 642 372 
Q 213 819 213 1659 
z
M 791 1659 
Q 791 1022 1069 705 
Q 1347 388 1769 388 
Q 2188 388 2466 706 
Q 2744 1025 2744 1678 
Q 2744 2294 2464 2611 
Q 2184 2928 1769 2928 
Q 1347 2928 1069 2612 
Q 791 2297 791 1659 
z
" transform="scale(0.015625)"/>
       <path id="ArialMT-6e" d="M 422 0 
L 422 3319 
L 928 3319 
L 928 2847 
Q 1294 3394 1984 3394 
Q 2284 3394 2536 3286 
Q 2788 3178 2913 3003 
Q 3038 2828 3088 2588 
Q 3119 2431 3119 2041 
L 3119 0 
L 2556 0 
L 2556 2019 
Q 2556 2363 2490 2533 
Q 2425 2703 2258 2804 
Q 2091 2906 1866 2906 
Q 1506 2906 1245 2678 
Q 984 2450 984 1813 
L 984 0 
L 422 0 
z
" transform="scale(0.015625)"/>
       <path id="ArialMT-20" transform="scale(0.015625)"/>
       <path id="Cmmi10-72" d="M 494 109 
Q 494 147 500 166 
L 978 2075 
Q 1025 2253 1025 2388 
Q 1025 2663 838 2663 
Q 638 2663 541 2423 
Q 444 2184 353 1819 
Q 353 1800 334 1789 
Q 316 1778 300 1778 
L 225 1778 
Q 203 1778 187 1801 
Q 172 1825 172 1844 
Q 241 2122 305 2315 
Q 369 2509 505 2668 
Q 641 2828 844 2828 
Q 1066 2828 1233 2700 
Q 1400 2572 1441 2363 
Q 1603 2575 1811 2701 
Q 2019 2828 2266 2828 
Q 2469 2828 2623 2709 
Q 2778 2591 2778 2388 
Q 2778 2225 2676 2104 
Q 2575 1984 2406 1984 
Q 2303 1984 2233 2048 
Q 2163 2113 2163 2216 
Q 2163 2356 2266 2467 
Q 2369 2578 2503 2578 
Q 2400 2663 2253 2663 
Q 1978 2663 1775 2467 
Q 1572 2272 1409 1972 
L 953 141 
Q 931 53 854 -9 
Q 778 -72 684 -72 
Q 606 -72 550 -22 
Q 494 28 494 109 
z
" transform="scale(0.015625)"/>
      </defs>
      <use xlink:href="#ArialMT-50" transform="translate(0 0.421875)"/>
      <use xlink:href="#ArialMT-65" transform="translate(66.699219 0.421875)"/>
      <use xlink:href="#ArialMT-61" transform="translate(122.314453 0.421875)"/>
      <use xlink:href="#ArialMT-72" transform="translate(177.929688 0.421875)"/>
      <use xlink:href="#ArialMT-73" transform="translate(211.230469 0.421875)"/>
      <use xlink:href="#ArialMT-6f" transform="translate(261.230469 0.421875)"/>
      <use xlink:href="#ArialMT-6e" transform="translate(316.845703 0.421875)"/>
      <use xlink:href="#ArialMT-20" transform="translate(372.460938 0.421875)"/>
      <use xlink:href="#Cmmi10-72" transform="translate(400.244141 0.421875)"/>
     </g>
    </g>
   </g>
   <g id="line2d_6">
    <path d="M 30.489444 79.532096 
L 31.195491 79.089794 
L 31.901538 79.662403 
L 32.607585 81.868569 
L 33.313632 81.803451 
L 34.019679 81.158829 
L 34.725726 82.859905 
L 35.431773 82.949261 
L 36.13782 83.62155 
L 36.843867 82.177104 
L 37.549914 80.500145 
L 38.255961 77.915338 
L 38.962008 79.545303 
L 39.668055 77.337268 
L 40.374102 79.222492 
L 41.080149 78.737388 
L 41.786196 79.082553 
L 42.492243 75.758698 
L 43.19829 74.530639 
L 43.904337 74.537144 
L 44.610384 74.453497 
L 45.316431 72.817197 
L 46.022478 75.629281 
L 46.728525 74.598233 
L 47.434572 73.871178 
L 48.140619 73.728766 
L 48.846666 76.18215 
L 49.552712 75.329545 
L 50.258759 75.889109 
L 50.964806 76.632693 
L 51.670853 75.13418 
L 52.3769 75.89413 
L 53.082947 74.984093 
L 53.788994 73.463286 
L 54.495041 73.098876 
L 55.201088 73.243132 
L 55.907135 75.738326 
L 56.613182 72.996081 
L 57.319229 74.323479 
L 58.025276 72.351308 
L 58.731323 74.295475 
L 59.43737 75.825228 
L 60.143417 74.286774 
L 60.849464 73.272511 
L 61.555511 75.193366 
L 62.261558 75.507327 
L 62.967605 76.529057 
L 63.673652 77.803583 
L 64.379699 77.415796 
L 65.085746 76.14493 
L 65.791793 77.874974 
L 66.49784 78.380437 
L 67.203887 78.262062 
L 67.909934 78.283483 
L 68.615981 77.968322 
L 69.322028 78.587205 
L 70.028075 77.331766 
L 70.734122 76.92961 
L 71.440169 75.868881 
L 72.146216 76.914572 
L 72.852263 74.554378 
L 73.55831 77.334652 
L 74.264357 77.023818 
L 74.970404 76.939242 
L 75.676451 76.785573 
L 76.382498 76.817779 
L 77.088545 78.550458 
L 77.794592 78.023922 
L 78.500639 78.688456 
L 79.206686 79.549397 
L 79.912733 82.069624 
L 80.61878 83.135877 
L 81.324827 83.299934 
L 82.030874 83.524696 
L 82.736921 83.445491 
L 83.442968 83.754162 
L 84.149015 83.20802 
L 84.855062 82.82767 
L 85.561109 82.634019 
L 86.267156 82.707685 
L 86.973203 80.345964 
L 87.67925 80.269815 
L 88.385297 81.941947 
L 89.091344 81.603258 
L 89.797391 82.427402 
L 90.503438 82.144619 
L 91.209485 82.734857 
L 91.915532 83.72032 
L 92.621579 83.467312 
L 93.327626 82.747925 
L 94.033673 82.61992 
L 94.73972 82.204349 
L 95.445767 82.811901 
L 96.151814 81.255934 
L 96.857861 80.289668 
L 97.563907 80.284468 
L 98.269954 78.91257 
L 98.976001 79.963518 
L 99.682048 79.863525 
L 100.388095 78.38888 
L 101.094142 79.05374 
" clip-path="url(#pa309a1484b)" style="fill: none; stroke: #0071b2; stroke-width: 1.5; stroke-linecap: square"/>
   </g>
   <g id="line2d_7">
    <path d="M 30.489444 54.929772 
L 31.195491 54.574892 
L 31.901538 52.648034 
L 32.607585 52.440606 
L 33.313632 54.277988 
L 34.019679 53.757754 
L 34.725726 51.821544 
L 35.431773 52.685117 
L 36.13782 52.983316 
L 36.843867 53.699111 
L 37.549914 55.051009 
L 38.255961 52.573224 
L 38.962008 55.694431 
L 39.668055 56.120642 
L 40.374102 56.213737 
L 41.080149 58.886902 
L 41.786196 59.163275 
L 42.492243 57.639729 
L 43.19829 57.55919 
L 43.904337 59.034243 
L 44.610384 59.869288 
L 45.316431 63.255567 
L 46.022478 63.46381 
L 46.728525 65.121848 
L 47.434572 65.78054 
L 48.140619 65.809559 
L 48.846666 65.089773 
L 49.552712 64.287178 
L 50.258759 65.756914 
L 50.964806 66.410152 
L 51.670853 64.719032 
L 52.3769 65.32546 
L 53.082947 66.372343 
L 53.788994 64.568997 
L 54.495041 63.353534 
L 55.201088 65.62058 
L 55.907135 65.182748 
L 56.613182 65.794041 
L 57.319229 66.522797 
L 58.025276 68.489591 
L 58.731323 69.363813 
L 59.43737 66.230725 
L 60.143417 60.594892 
L 60.849464 60.719562 
L 61.555511 63.187614 
L 62.261558 57.009065 
L 62.967605 56.533682 
L 63.673652 50.82576 
L 64.379699 42.53647 
L 65.085746 45.317353 
L 65.791793 37.213409 
L 66.49784 40.482188 
L 67.203887 38.529198 
L 67.909934 35.05404 
L 68.615981 35.222112 
L 69.322028 41.899168 
L 70.028075 48.293896 
L 70.734122 47.364354 
L 71.440169 40.569645 
L 72.146216 46.82125 
L 72.852263 42.845846 
L 73.55831 42.755024 
L 74.264357 37.949519 
L 74.970404 35.869534 
L 75.676451 38.355045 
L 76.382498 33.189235 
L 77.088545 39.294672 
L 77.794592 40.807874 
L 78.500639 37.290516 
L 79.206686 39.022105 
L 79.912733 39.35008 
L 80.61878 37.115522 
L 81.324827 40.084398 
L 82.030874 32.532817 
L 82.736921 37.674419 
L 83.442968 39.273145 
L 84.149015 37.439022 
L 84.855062 35.670943 
L 85.561109 37.567654 
L 86.267156 36.599286 
L 86.973203 35.172829 
L 87.67925 32.604848 
L 88.385297 33.927032 
L 89.091344 37.023492 
L 89.797391 38.72336 
L 90.503438 36.802408 
L 91.209485 36.039644 
L 91.915532 36.450065 
L 92.621579 35.431528 
L 93.327626 33.399093 
L 94.033673 34.116241 
L 94.73972 33.352596 
L 95.445767 37.00019 
L 96.151814 35.446839 
L 96.857861 34.967012 
L 97.563907 35.71722 
L 98.269954 34.261307 
L 98.976001 32.243541 
L 99.682048 34.282781 
L 100.388095 33.668545 
L 101.094142 29.709773 
" clip-path="url(#pa309a1484b)" style="fill: none; stroke-dasharray: 4.5,1.5; stroke-dashoffset: 0; stroke: #0071b2; stroke-width: 1.5"/>
   </g>
   <g id="line2d_8">
    <path d="M 30.489444 58.823085 
L 31.195491 59.177017 
L 31.901538 57.32749 
L 32.607585 56.165961 
L 33.313632 55.250154 
L 34.019679 55.117734 
L 34.725726 54.225215 
L 35.431773 55.09437 
L 36.13782 53.696094 
L 36.843867 53.971104 
L 37.549914 53.168647 
L 38.255961 54.786903 
L 38.962008 54.686947 
L 39.668055 54.202754 
L 40.374102 51.303645 
L 41.080149 51.713307 
L 41.786196 53.329086 
L 42.492243 52.583916 
L 43.19829 54.260396 
L 43.904337 54.095994 
L 44.610384 55.023225 
L 45.316431 53.599485 
L 46.022478 54.205516 
L 46.728525 53.373993 
L 47.434572 55.214805 
L 48.140619 54.502185 
L 48.846666 52.68978 
L 49.552712 54.737185 
L 50.258759 53.899152 
L 50.964806 52.11088 
L 51.670853 50.125724 
L 52.3769 51.386766 
L 53.082947 49.320657 
L 53.788994 48.948289 
L 54.495041 51.738692 
L 55.201088 54.453654 
L 55.907135 51.487 
L 56.613182 49.172314 
L 57.319229 48.684842 
L 58.025276 50.357456 
L 58.731323 50.994282 
L 59.43737 52.280886 
L 60.143417 52.520486 
L 60.849464 51.934214 
L 61.555511 52.43283 
L 62.261558 55.517007 
L 62.967605 55.381914 
L 63.673652 56.739284 
L 64.379699 55.447899 
L 65.085746 56.61479 
L 65.791793 55.902234 
L 66.49784 56.020585 
L 67.203887 54.419566 
L 67.909934 53.023297 
L 68.615981 54.021859 
L 69.322028 53.101258 
L 70.028075 54.61128 
L 70.734122 52.767248 
L 71.440169 54.080496 
L 72.146216 52.456657 
L 72.852263 53.784563 
L 73.55831 52.685407 
L 74.264357 53.188159 
L 74.970404 56.297387 
L 75.676451 54.917858 
L 76.382498 54.853342 
L 77.088545 55.79872 
L 77.794592 57.197185 
L 78.500639 57.520239 
L 79.206686 57.479062 
L 79.912733 57.566513 
L 80.61878 57.851242 
L 81.324827 57.959084 
L 82.030874 58.082346 
L 82.736921 58.253088 
L 83.442968 57.612435 
L 84.149015 56.962426 
L 84.855062 58.093302 
L 85.561109 58.725683 
L 86.267156 59.402077 
L 86.973203 57.77851 
L 87.67925 56.802275 
L 88.385297 57.875656 
L 89.091344 58.654114 
L 89.797391 60.666719 
L 90.503438 60.824464 
L 91.209485 61.687513 
L 91.915532 62.211939 
L 92.621579 61.828902 
L 93.327626 60.901482 
L 94.033673 60.826234 
L 94.73972 62.038914 
L 95.445767 62.400941 
L 96.151814 63.255711 
L 96.857861 63.654186 
L 97.563907 62.583969 
L 98.269954 63.209042 
L 98.976001 62.885465 
L 99.682048 62.1819 
L 100.388095 61.637047 
L 101.094142 61.047739 
" clip-path="url(#pa309a1484b)" style="fill: none; stroke-dasharray: 1.5,1.5; stroke-dashoffset: 1.5; stroke: #0071b2; stroke-width: 1.5"/>
   </g>
   <g id="line2d_9">
    <path d="M 30.489444 68.544751 
L 31.195491 69.151847 
L 31.901538 68.980212 
L 32.607585 68.198832 
L 33.313632 67.48941 
L 34.019679 66.821596 
L 34.725726 66.86665 
L 35.431773 66.183068 
L 36.13782 67.500985 
L 36.843867 67.231566 
L 37.549914 67.622625 
L 38.255961 68.958397 
L 38.962008 68.840718 
L 39.668055 68.688161 
L 40.374102 69.079392 
L 41.080149 69.644961 
L 41.786196 67.49273 
L 42.492243 66.933688 
L 43.19829 66.638638 
L 43.904337 66.147167 
L 44.610384 64.484328 
L 45.316431 65.029461 
L 46.022478 65.201638 
L 46.728525 63.871742 
L 47.434572 61.594492 
L 48.140619 61.547287 
L 48.846666 60.16867 
L 49.552712 59.446423 
L 50.258759 61.141903 
L 50.964806 61.92599 
L 51.670853 63.050034 
L 52.3769 62.4084 
L 53.082947 64.00673 
L 53.788994 64.234131 
L 54.495041 65.540041 
L 55.201088 65.998129 
L 55.907135 65.508061 
L 56.613182 64.727669 
L 57.319229 62.523661 
L 58.025276 62.505453 
L 58.731323 62.348566 
L 59.43737 61.032593 
L 60.143417 59.892356 
L 60.849464 57.90837 
L 61.555511 56.880167 
L 62.261558 55.513427 
L 62.967605 57.264492 
L 63.673652 58.547782 
L 64.379699 58.315808 
L 65.085746 57.11965 
L 65.791793 57.350772 
L 66.49784 57.235101 
L 67.203887 55.800166 
L 67.909934 55.364067 
L 68.615981 54.22728 
L 69.322028 53.509948 
L 70.028075 55.267805 
L 70.734122 56.434723 
L 71.440169 56.024885 
L 72.146216 53.90084 
L 72.852263 55.189979 
L 73.55831 58.176703 
L 74.264357 58.646829 
L 74.970404 57.705707 
L 75.676451 58.42552 
L 76.382498 57.082388 
L 77.088545 57.918399 
L 77.794592 57.913493 
L 78.500639 59.633627 
L 79.206686 60.771294 
L 79.912733 60.593142 
L 80.61878 62.756869 
L 81.324827 61.956718 
L 82.030874 61.473305 
L 82.736921 62.271387 
L 83.442968 62.10735 
L 84.149015 61.557553 
L 84.855062 63.235067 
L 85.561109 63.248397 
L 86.267156 62.870647 
L 86.973203 60.673998 
L 87.67925 62.240036 
L 88.385297 61.839683 
L 89.091344 62.540136 
L 89.797391 61.415261 
L 90.503438 62.698876 
L 91.209485 64.263796 
L 91.915532 64.277642 
L 92.621579 63.796218 
L 93.327626 64.08861 
L 94.033673 63.598072 
L 94.73972 65.687696 
L 95.445767 62.860948 
L 96.151814 62.632746 
L 96.857861 64.305442 
L 97.563907 64.204474 
L 98.269954 63.049718 
L 98.976001 62.50698 
L 99.682048 61.065369 
L 100.388095 61.523214 
L 101.094142 60.532617 
" clip-path="url(#pa309a1484b)" style="fill: none; stroke: #d65c00; stroke-width: 1.5; stroke-linecap: square"/>
   </g>
   <g id="line2d_10">
    <path d="M 30.489444 25.158505 
L 31.195491 25.162381 
L 31.901538 25.156211 
L 32.607585 25.158539 
L 33.313632 25.158435 
L 34.019679 25.161165 
L 34.725726 25.160197 
L 35.431773 25.15792 
L 36.13782 25.156268 
L 36.843867 25.158525 
L 37.549914 25.158594 
L 38.255961 25.161847 
L 38.962008 25.15481 
L 39.668055 25.15747 
L 40.374102 25.154091 
L 41.080149 25.158859 
L 41.786196 25.155219 
L 42.492243 25.159148 
L 43.19829 25.162935 
L 43.904337 25.159083 
L 44.610384 25.156863 
L 45.316431 25.156918 
L 46.022478 25.157845 
L 46.728525 25.158863 
L 47.434572 25.162542 
L 48.140619 25.158945 
L 48.846666 25.158097 
L 49.552712 25.160391 
L 50.258759 25.155115 
L 50.964806 25.15635 
L 51.670853 25.160855 
L 52.3769 25.163823 
L 53.082947 25.160837 
L 53.788994 25.159403 
L 54.495041 25.158468 
L 55.201088 25.160091 
L 55.907135 25.164314 
L 56.613182 25.153176 
L 57.319229 25.158474 
L 58.025276 25.161254 
L 58.731323 25.160379 
L 59.43737 25.160326 
L 60.143417 25.154211 
L 60.849464 25.161377 
L 61.555511 25.154952 
L 62.261558 25.159232 
L 62.967605 25.158224 
L 63.673652 25.162709 
L 64.379699 25.160986 
L 65.085746 25.15926 
L 65.791793 25.161515 
L 66.49784 25.160568 
L 67.203887 25.160666 
L 67.909934 25.157358 
L 68.615981 25.156409 
L 69.322028 25.159808 
L 70.028075 25.156472 
L 70.734122 25.163151 
L 71.440169 25.15981 
L 72.146216 25.160069 
L 72.852263 25.158582 
L 73.55831 25.15803 
L 74.264357 25.160625 
L 74.970404 25.151117 
L 75.676451 25.159372 
L 76.382498 25.161377 
L 77.088545 25.158397 
L 77.794592 25.166719 
L 78.500639 25.161391 
L 79.206686 25.162305 
L 79.912733 25.164691 
L 80.61878 25.164953 
L 81.324827 25.160971 
L 82.030874 25.155156 
L 82.736921 25.153794 
L 83.442968 25.162167 
L 84.149015 25.166475 
L 84.855062 25.156733 
L 85.561109 25.155492 
L 86.267156 25.157698 
L 86.973203 25.156555 
L 87.67925 25.157977 
L 88.385297 25.157694 
L 89.091344 25.159912 
L 89.797391 25.161138 
L 90.503438 25.16254 
L 91.209485 25.161163 
L 91.915532 25.163576 
L 92.621579 25.163102 
L 93.327626 25.155132 
L 94.033673 25.160405 
L 94.73972 25.160014 
L 95.445767 25.162898 
L 96.151814 25.158525 
L 96.857861 25.156028 
L 97.563907 25.157332 
L 98.269954 25.161047 
L 98.976001 25.159148 
L 99.682048 25.157953 
L 100.388095 25.159737 
L 101.094142 25.157156 
" clip-path="url(#pa309a1484b)" style="fill: none; stroke-dasharray: 4.5,1.5; stroke-dashoffset: 0; stroke: #d65c00; stroke-width: 1.5"/>
   </g>
   <g id="line2d_11">
    <path d="M 30.489444 27.976559 
L 31.195491 27.971075 
L 31.901538 27.962765 
L 32.607585 27.96217 
L 33.313632 27.973583 
L 34.019679 27.973776 
L 34.725726 27.971735 
L 35.431773 27.975259 
L 36.13782 27.972542 
L 36.843867 27.971126 
L 37.549914 27.980563 
L 38.255961 27.971849 
L 38.962008 27.970145 
L 39.668055 27.976583 
L 40.374102 27.972116 
L 41.080149 27.972902 
L 41.786196 27.974968 
L 42.492243 27.970621 
L 43.19829 27.969969 
L 43.904337 27.969878 
L 44.610384 27.969819 
L 45.316431 27.973687 
L 46.022478 27.973509 
L 46.728525 27.971835 
L 47.434572 27.977968 
L 48.140619 27.969091 
L 48.846666 27.974668 
L 49.552712 27.96857 
L 50.258759 27.977522 
L 50.964806 27.968377 
L 51.670853 27.971128 
L 52.3769 27.974328 
L 53.082947 27.967063 
L 53.788994 27.978011 
L 54.495041 27.972878 
L 55.201088 27.969085 
L 55.907135 27.970552 
L 56.613182 27.972528 
L 57.319229 27.977976 
L 58.025276 27.974791 
L 58.731323 27.972784 
L 59.43737 27.973088 
L 60.143417 27.975801 
L 60.849464 27.970071 
L 61.555511 27.974035 
L 62.261558 27.970234 
L 62.967605 27.977394 
L 63.673652 27.973126 
L 64.379699 27.975285 
L 65.085746 27.969281 
L 65.791793 27.966643 
L 66.49784 27.97332 
L 67.203887 27.982854 
L 67.909934 27.971587 
L 68.615981 27.968605 
L 69.322028 27.973076 
L 70.028075 27.974426 
L 70.734122 27.976652 
L 71.440169 27.974243 
L 72.146216 27.973112 
L 72.852263 27.975118 
L 73.55831 27.973953 
L 74.264357 27.981891 
L 74.970404 27.972387 
L 75.676451 27.974342 
L 76.382498 27.976516 
L 77.088545 27.976396 
L 77.794592 27.973668 
L 78.500639 27.968597 
L 79.206686 27.976504 
L 79.912733 27.977911 
L 80.61878 27.975921 
L 81.324827 27.973707 
L 82.030874 27.979626 
L 82.736921 27.975685 
L 83.442968 27.97197 
L 84.149015 27.967932 
L 84.855062 27.973754 
L 85.561109 27.970234 
L 86.267156 27.974459 
L 86.973203 27.973758 
L 87.67925 27.971676 
L 88.385297 27.977489 
L 89.091344 27.974683 
L 89.797391 27.969713 
L 90.503438 27.980127 
L 91.209485 27.975112 
L 91.915532 27.982753 
L 92.621579 27.970191 
L 93.327626 27.978345 
L 94.033673 27.976717 
L 94.73972 27.977015 
L 95.445767 27.974884 
L 96.151814 27.965067 
L 96.857861 27.974886 
L 97.563907 27.972336 
L 98.269954 27.980681 
L 98.976001 27.96921 
L 99.682048 27.976019 
L 100.388095 27.966105 
L 101.094142 27.971132 
" clip-path="url(#pa309a1484b)" style="fill: none; stroke-dasharray: 1.5,1.5; stroke-dashoffset: 1.5; stroke: #d65c00; stroke-width: 1.5"/>
   </g>
   <g id="line2d_12">
    <path d="M 30.489444 74.840571 
L 31.195491 73.209687 
L 31.901538 73.363092 
L 32.607585 74.517949 
L 33.313632 73.147714 
L 34.019679 72.526118 
L 34.725726 72.766056 
L 35.431773 71.47957 
L 36.13782 72.446197 
L 36.843867 72.454808 
L 37.549914 71.385441 
L 38.255961 72.482733 
L 38.962008 72.380818 
L 39.668055 71.01265 
L 40.374102 72.253715 
L 41.080149 73.630387 
L 41.786196 71.527658 
L 42.492243 70.095708 
L 43.19829 70.816449 
L 43.904337 71.380272 
L 44.610384 70.370167 
L 45.316431 69.733273 
L 46.022478 66.430002 
L 46.728525 67.527243 
L 47.434572 66.431268 
L 48.140619 65.577043 
L 48.846666 63.856441 
L 49.552712 63.761505 
L 50.258759 64.097439 
L 50.964806 65.115738 
L 51.670853 65.30043 
L 52.3769 64.738906 
L 53.082947 64.141969 
L 53.788994 61.541233 
L 54.495041 64.302426 
L 55.201088 66.588139 
L 55.907135 66.276842 
L 56.613182 66.500867 
L 57.319229 66.672899 
L 58.025276 66.842168 
L 58.731323 67.89968 
L 59.43737 68.146463 
L 60.143417 66.293272 
L 60.849464 64.24283 
L 61.555511 61.796456 
L 62.261558 62.76142 
L 62.967605 60.581794 
L 63.673652 60.584285 
L 64.379699 58.138693 
L 65.085746 58.657997 
L 65.791793 58.748897 
L 66.49784 56.378434 
L 67.203887 55.88747 
L 67.909934 59.110156 
L 68.615981 58.447215 
L 69.322028 59.546574 
L 70.028075 60.327826 
L 70.734122 60.46523 
L 71.440169 60.350766 
L 72.146216 62.208817 
L 72.852263 62.245946 
L 73.55831 61.184517 
L 74.264357 56.734122 
L 74.970404 58.163747 
L 75.676451 58.858039 
L 76.382498 59.233149 
L 77.088545 58.911065 
L 77.794592 58.144439 
L 78.500639 58.715508 
L 79.206686 60.286786 
L 79.912733 61.430298 
L 80.61878 61.962631 
L 81.324827 60.21591 
L 82.030874 59.644252 
L 82.736921 59.750115 
L 83.442968 58.65453 
L 84.149015 58.61502 
L 84.855062 57.577443 
L 85.561109 56.712498 
L 86.267156 57.808343 
L 86.973203 58.611414 
L 87.67925 57.461733 
L 88.385297 56.037043 
L 89.091344 53.670605 
L 89.797391 52.617162 
L 90.503438 55.372258 
L 91.209485 55.655496 
L 91.915532 55.916296 
L 92.621579 56.091119 
L 93.327626 52.958458 
L 94.033673 53.270859 
L 94.73972 54.252038 
L 95.445767 53.892049 
L 96.151814 49.506954 
L 96.857861 49.696003 
L 97.563907 48.798835 
L 98.269954 47.572616 
L 98.976001 50.073139 
L 99.682048 48.857107 
L 100.388095 46.186276 
L 101.094142 45.703194 
" clip-path="url(#pa309a1484b)" style="fill: none; stroke: #009e73; stroke-width: 1.5; stroke-linecap: square"/>
   </g>
   <g id="line2d_13">
    <path d="M 30.489444 28.651318 
L 31.195491 28.655992 
L 31.901538 28.657294 
L 32.607585 28.657455 
L 33.313632 28.647863 
L 34.019679 28.654432 
L 34.725726 28.649261 
L 35.431773 28.652261 
L 36.13782 28.64903 
L 36.843867 28.653638 
L 37.549914 28.656133 
L 38.255961 28.653766 
L 38.962008 28.662502 
L 39.668055 28.653854 
L 40.374102 28.646607 
L 41.080149 28.645315 
L 41.786196 28.640508 
L 42.492243 28.647971 
L 43.19829 28.645344 
L 43.904337 28.642885 
L 44.610384 28.657685 
L 45.316431 28.64967 
L 46.022478 28.65199 
L 46.728525 28.646277 
L 47.434572 28.64604 
L 48.140619 28.660286 
L 48.846666 28.651638 
L 49.552712 28.639294 
L 50.258759 28.644022 
L 50.964806 28.647676 
L 51.670853 28.659274 
L 52.3769 28.641547 
L 53.082947 28.651556 
L 53.788994 28.649417 
L 54.495041 28.656066 
L 55.201088 28.646466 
L 55.907135 28.644834 
L 56.613182 28.651081 
L 57.319229 28.641172 
L 58.025276 28.648456 
L 58.731323 28.662252 
L 59.43737 28.645281 
L 60.143417 28.643588 
L 60.849464 28.649301 
L 61.555511 28.650595 
L 62.261558 28.651281 
L 62.967605 28.660852 
L 63.673652 28.645097 
L 64.379699 28.64666 
L 65.085746 28.654422 
L 65.791793 28.66083 
L 66.49784 28.654365 
L 67.203887 28.645492 
L 67.909934 28.65784 
L 68.615981 28.65076 
L 69.322028 28.65445 
L 70.028075 28.656155 
L 70.734122 28.659532 
L 71.440169 28.653845 
L 72.146216 28.644213 
L 72.852263 28.652772 
L 73.55831 28.64158 
L 74.264357 28.655603 
L 74.970404 28.647014 
L 75.676451 28.64226 
L 76.382498 28.645814 
L 77.088545 28.652322 
L 77.794592 28.6416 
L 78.500639 28.647835 
L 79.206686 28.648165 
L 79.912733 28.644814 
L 80.61878 28.643639 
L 81.324827 28.649146 
L 82.030874 28.644637 
L 82.736921 28.654206 
L 83.442968 28.643955 
L 84.149015 28.643873 
L 84.855062 28.645138 
L 85.561109 28.648222 
L 86.267156 28.653656 
L 86.973203 28.643549 
L 87.67925 28.651116 
L 88.385297 28.651464 
L 89.091344 28.642908 
L 89.797391 28.651633 
L 90.503438 28.64925 
L 91.209485 28.649615 
L 91.915532 28.653668 
L 92.621579 28.647287 
L 93.327626 28.646346 
L 94.033673 28.649061 
L 94.73972 28.652442 
L 95.445767 28.6606 
L 96.151814 28.652071 
L 96.857861 28.657705 
L 97.563907 28.6488 
L 98.269954 28.648672 
L 98.976001 28.647572 
L 99.682048 28.643928 
L 100.388095 28.650422 
L 101.094142 28.646197 
" clip-path="url(#pa309a1484b)" style="fill: none; stroke-dasharray: 4.5,1.5; stroke-dashoffset: 0; stroke: #009e73; stroke-width: 1.5"/>
   </g>
   <g id="line2d_14">
    <path d="M 30.489444 33.071892 
L 31.195491 33.065599 
L 31.901538 33.070259 
L 32.607585 33.076976 
L 33.313632 33.075426 
L 34.019679 33.075461 
L 34.725726 33.077321 
L 35.431773 33.070149 
L 36.13782 33.074801 
L 36.843867 33.085089 
L 37.549914 33.067974 
L 38.255961 33.07089 
L 38.962008 33.067945 
L 39.668055 33.068399 
L 40.374102 33.077995 
L 41.080149 33.083798 
L 41.786196 33.070715 
L 42.492243 33.072076 
L 43.19829 33.081046 
L 43.904337 33.069634 
L 44.610384 33.065456 
L 45.316431 33.071182 
L 46.022478 33.063818 
L 46.728525 33.069454 
L 47.434572 33.075669 
L 48.140619 33.070577 
L 48.846666 33.084745 
L 49.552712 33.07056 
L 50.258759 33.069927 
L 50.964806 33.07221 
L 51.670853 33.080079 
L 52.3769 33.070518 
L 53.082947 33.077881 
L 53.788994 33.076137 
L 54.495041 33.074608 
L 55.201088 33.06823 
L 55.907135 33.067165 
L 56.613182 33.074115 
L 57.319229 33.06924 
L 58.025276 33.083105 
L 58.731323 33.074606 
L 59.43737 33.077406 
L 60.143417 33.075881 
L 60.849464 33.072444 
L 61.555511 33.079286 
L 62.261558 33.070389 
L 62.967605 33.076854 
L 63.673652 33.069173 
L 64.379699 33.076088 
L 65.085746 33.086635 
L 65.791793 33.072679 
L 66.49784 33.073292 
L 67.203887 33.072247 
L 67.909934 33.080708 
L 68.615981 33.080628 
L 69.322028 33.074646 
L 70.028075 33.078936 
L 70.734122 33.082602 
L 71.440169 33.075272 
L 72.146216 33.066364 
L 72.852263 33.069803 
L 73.55831 33.070389 
L 74.264357 33.075241 
L 74.970404 33.08072 
L 75.676451 33.073082 
L 76.382498 33.083845 
L 77.088545 33.071481 
L 77.794592 33.066405 
L 78.500639 33.063537 
L 79.206686 33.070454 
L 79.912733 33.075895 
L 80.61878 33.068073 
L 81.324827 33.066466 
L 82.030874 33.066204 
L 82.736921 33.078755 
L 83.442968 33.068664 
L 84.149015 33.076624 
L 84.855062 33.076009 
L 85.561109 33.060965 
L 86.267156 33.077728 
L 86.973203 33.075516 
L 87.67925 33.067171 
L 88.385297 33.074481 
L 89.091344 33.076606 
L 89.797391 33.077543 
L 90.503438 33.077742 
L 91.209485 33.063537 
L 91.915532 33.076589 
L 92.621579 33.082773 
L 93.327626 33.077064 
L 94.033673 33.073605 
L 94.73972 33.070489 
L 95.445767 33.082763 
L 96.151814 33.07118 
L 96.857861 33.068499 
L 97.563907 33.074188 
L 98.269954 33.0765 
L 98.976001 33.090106 
L 99.682048 33.069951 
L 100.388095 33.073544 
L 101.094142 33.067224 
" clip-path="url(#pa309a1484b)" style="fill: none; stroke-dasharray: 1.5,1.5; stroke-dashoffset: 1.5; stroke: #009e73; stroke-width: 1.5"/>
   </g>
   <g id="patch_3">
    <path d="M 25.547115 87.003102 
L 25.547115 18.657992 
" style="fill: none; stroke: #000000; stroke-width: 0.8; stroke-linejoin: miter; stroke-linecap: square"/>
   </g>
   <g id="patch_4">
    <path d="M 30.489444 91.78726 
L 101.094142 91.78726 
" style="fill: none; stroke: #000000; stroke-width: 0.8; stroke-linejoin: miter; stroke-linecap: square"/>
   </g>
   <g id="text_8">
    <!-- Across Functions -->
    <g transform="translate(23.611949 10.873834) scale(0.11 -0.11)">
     <defs>
      <path id="ArialMT-41" d="M -9 0 
L 1750 4581 
L 2403 4581 
L 4278 0 
L 3588 0 
L 3053 1388 
L 1138 1388 
L 634 0 
L -9 0 
z
M 1313 1881 
L 2866 1881 
L 2388 3150 
Q 2169 3728 2063 4100 
Q 1975 3659 1816 3225 
L 1313 1881 
z
" transform="scale(0.015625)"/>
      <path id="ArialMT-63" d="M 2588 1216 
L 3141 1144 
Q 3050 572 2676 248 
Q 2303 -75 1759 -75 
Q 1078 -75 664 370 
Q 250 816 250 1647 
Q 250 2184 428 2587 
Q 606 2991 970 3192 
Q 1334 3394 1763 3394 
Q 2303 3394 2647 3120 
Q 2991 2847 3088 2344 
L 2541 2259 
Q 2463 2594 2264 2762 
Q 2066 2931 1784 2931 
Q 1359 2931 1093 2626 
Q 828 2322 828 1663 
Q 828 994 1084 691 
Q 1341 388 1753 388 
Q 2084 388 2306 591 
Q 2528 794 2588 1216 
z
" transform="scale(0.015625)"/>
      <path id="ArialMT-46" d="M 525 0 
L 525 4581 
L 3616 4581 
L 3616 4041 
L 1131 4041 
L 1131 2622 
L 3281 2622 
L 3281 2081 
L 1131 2081 
L 1131 0 
L 525 0 
z
" transform="scale(0.015625)"/>
      <path id="ArialMT-75" d="M 2597 0 
L 2597 488 
Q 2209 -75 1544 -75 
Q 1250 -75 995 37 
Q 741 150 617 320 
Q 494 491 444 738 
Q 409 903 409 1263 
L 409 3319 
L 972 3319 
L 972 1478 
Q 972 1038 1006 884 
Q 1059 663 1231 536 
Q 1403 409 1656 409 
Q 1909 409 2131 539 
Q 2353 669 2445 892 
Q 2538 1116 2538 1541 
L 2538 3319 
L 3100 3319 
L 3100 0 
L 2597 0 
z
" transform="scale(0.015625)"/>
      <path id="ArialMT-69" d="M 425 3934 
L 425 4581 
L 988 4581 
L 988 3934 
L 425 3934 
z
M 425 0 
L 425 3319 
L 988 3319 
L 988 0 
L 425 0 
z
" transform="scale(0.015625)"/>
     </defs>
     <use xlink:href="#ArialMT-41"/>
     <use xlink:href="#ArialMT-63" transform="translate(66.699219 0)"/>
     <use xlink:href="#ArialMT-72" transform="translate(116.699219 0)"/>
     <use xlink:href="#ArialMT-6f" transform="translate(150 0)"/>
     <use xlink:href="#ArialMT-73" transform="translate(205.615234 0)"/>
     <use xlink:href="#ArialMT-73" transform="translate(255.615234 0)"/>
     <use xlink:href="#ArialMT-20" transform="translate(305.615234 0)"/>
     <use xlink:href="#ArialMT-46" transform="translate(333.398438 0)"/>
     <use xlink:href="#ArialMT-75" transform="translate(394.482422 0)"/>
     <use xlink:href="#ArialMT-6e" transform="translate(450.097656 0)"/>
     <use xlink:href="#ArialMT-63" transform="translate(505.712891 0)"/>
     <use xlink:href="#ArialMT-74" transform="translate(555.712891 0)"/>
     <use xlink:href="#ArialMT-69" transform="translate(583.496094 0)"/>
     <use xlink:href="#ArialMT-6f" transform="translate(605.712891 0)"/>
     <use xlink:href="#ArialMT-6e" transform="translate(661.328125 0)"/>
     <use xlink:href="#ArialMT-73" transform="translate(716.943359 0)"/>
    </g>
   </g>
  </g>
  <g id="axes_2">
   <g id="patch_5">
    <path d="M 120.203678 91.78726 
L 200.693034 91.78726 
L 200.693034 13.873834 
L 120.203678 13.873834 
L 120.203678 91.78726 
z
" style="fill: none"/>
   </g>
   <g id="matplotlib.axis_3">
    <g id="xtick_3">
     <g id="line2d_15">
      <g>
       <use xlink:href="#m29f71f1c3a" x="125.146006" y="91.78726" style="stroke: #000000; stroke-width: 1.1"/>
      </g>
     </g>
     <g id="text_9">
      <!-- 0 -->
      <g transform="translate(122.365538 105.945073) scale(0.1 -0.1)">
       <use xlink:href="#ArialMT-30"/>
      </g>
     </g>
    </g>
    <g id="xtick_4">
     <g id="line2d_16">
      <g>
       <use xlink:href="#m29f71f1c3a" x="195.750705" y="91.78726" style="stroke: #000000; stroke-width: 1.1"/>
      </g>
     </g>
     <g id="text_10">
      <!-- 100 -->
      <g transform="translate(187.409299 105.945073) scale(0.1 -0.1)">
       <use xlink:href="#ArialMT-31"/>
       <use xlink:href="#ArialMT-30" transform="translate(55.615234 0)"/>
       <use xlink:href="#ArialMT-30" transform="translate(111.230469 0)"/>
      </g>
     </g>
    </g>
    <g id="text_11">
     <!-- Step -->
     <g transform="translate(150.163199 110.21226) scale(0.1 -0.1)">
      <use xlink:href="#ArialMT-53"/>
      <use xlink:href="#ArialMT-74" transform="translate(66.699219 0)"/>
      <use xlink:href="#ArialMT-65" transform="translate(94.482422 0)"/>
      <use xlink:href="#ArialMT-70" transform="translate(150.097656 0)"/>
     </g>
    </g>
   </g>
   <g id="matplotlib.axis_4">
    <g id="ytick_4">
     <g id="line2d_17">
      <g>
       <use xlink:href="#mda4a34d94a" x="120.203678" y="87.003102" style="stroke: #000000; stroke-width: 1.1"/>
      </g>
     </g>
    </g>
    <g id="ytick_5">
     <g id="line2d_18">
      <g>
       <use xlink:href="#mda4a34d94a" x="120.203678" y="52.830547" style="stroke: #000000; stroke-width: 1.1"/>
      </g>
     </g>
    </g>
    <g id="ytick_6">
     <g id="line2d_19">
      <g>
       <use xlink:href="#mda4a34d94a" x="120.203678" y="18.657992" style="stroke: #000000; stroke-width: 1.1"/>
      </g>
     </g>
    </g>
   </g>
   <g id="line2d_20">
    <path d="M 125.146006 29.138901 
L 125.852053 31.71267 
L 126.5581 31.242869 
L 127.264147 32.552261 
L 127.970194 36.166733 
L 128.676241 37.573386 
L 129.382288 31.901378 
L 130.088335 27.392824 
L 130.794382 29.563964 
L 131.500429 31.589154 
L 132.206476 32.777453 
L 132.912523 32.328046 
L 133.61857 32.136886 
L 134.324617 33.712958 
L 135.030664 32.679128 
L 135.736711 32.859454 
L 136.442758 32.903716 
L 137.148805 34.814562 
L 137.854852 34.257791 
L 138.560899 33.412037 
L 139.266946 31.190202 
L 139.972993 29.585693 
L 140.67904 29.769858 
L 141.385087 27.918115 
L 142.091134 26.773179 
L 142.797181 27.216564 
L 143.503228 24.924575 
L 144.209275 25.943716 
L 144.915322 28.633748 
L 145.621369 29.346411 
L 146.327416 32.067682 
L 147.033463 34.042379 
L 147.73951 31.119138 
L 148.445557 30.638828 
L 149.151604 30.146139 
L 149.857651 29.362901 
L 150.563698 29.732755 
L 151.269745 30.715662 
L 151.975792 32.859621 
L 152.681839 31.55135 
L 153.387886 32.852728 
L 154.093933 33.80529 
L 154.79998 37.11996 
L 155.506027 35.453791 
L 156.212074 35.772763 
L 156.918121 34.540998 
L 157.624168 33.355258 
L 158.330215 33.252699 
L 159.036262 34.137917 
L 159.742309 34.29951 
L 160.448356 33.990564 
L 161.154403 32.100883 
L 161.86045 29.382094 
L 162.566497 28.768483 
L 163.272544 28.672709 
L 163.978591 28.248807 
L 164.684638 29.718782 
L 165.390685 28.455266 
L 166.096732 27.368013 
L 166.802779 27.264602 
L 167.508826 25.689805 
L 168.214872 27.269564 
L 168.920919 26.739054 
L 169.626966 27.83447 
L 170.333013 28.206923 
L 171.03906 28.815408 
L 171.745107 28.316601 
L 172.451154 27.672446 
L 173.157201 26.644522 
L 173.863248 27.764819 
L 174.569295 27.890873 
L 175.275342 30.053149 
L 175.981389 30.54484 
L 176.687436 31.856188 
L 177.393483 29.015915 
L 178.09953 29.63507 
L 178.805577 26.651305 
L 179.511624 26.555038 
L 180.217671 26.248764 
L 180.923718 25.704631 
L 181.629765 25.227735 
L 182.335812 27.206341 
L 183.041859 27.634843 
L 183.747906 27.631358 
L 184.453953 26.443814 
L 185.16 26.008314 
L 185.866047 25.244975 
L 186.572094 25.544379 
L 187.278141 24.230552 
L 187.984188 25.778318 
L 188.690235 26.834364 
L 189.396282 28.865093 
L 190.102329 30.850558 
L 190.808376 31.525753 
L 191.514423 30.142541 
L 192.22047 31.34643 
L 192.926517 31.400646 
L 193.632564 30.26253 
L 194.338611 30.500667 
L 195.044658 29.947121 
L 195.750705 30.360598 
" clip-path="url(#p2804b26186)" style="fill: none; stroke: #0071b2; stroke-width: 1.5; stroke-linecap: square"/>
   </g>
   <g id="line2d_21">
    <path d="M 125.146006 48.389747 
L 125.852053 48.89537 
L 126.5581 48.236954 
L 127.264147 48.450502 
L 127.970194 48.563462 
L 128.676241 48.935644 
L 129.382288 49.731696 
L 130.088335 49.939398 
L 130.794382 49.278968 
L 131.500429 49.184077 
L 132.206476 48.447975 
L 132.912523 49.033369 
L 133.61857 49.309076 
L 134.324617 49.008661 
L 135.030664 48.474948 
L 135.736711 47.898675 
L 136.442758 47.713341 
L 137.148805 47.556573 
L 137.854852 47.549773 
L 138.560899 46.592476 
L 139.266946 46.086588 
L 139.972993 44.83332 
L 140.67904 44.567693 
L 141.385087 44.438638 
L 142.091134 43.422634 
L 142.797181 43.267467 
L 143.503228 43.423466 
L 144.209275 44.38314 
L 144.915322 44.826721 
L 145.621369 44.998351 
L 146.327416 44.323853 
L 147.033463 44.201912 
L 147.73951 42.768399 
L 148.445557 41.92718 
L 149.151604 41.057683 
L 149.857651 40.855254 
L 150.563698 41.839326 
L 151.269745 42.076448 
L 151.975792 41.045221 
L 152.681839 41.274141 
L 153.387886 39.920685 
L 154.093933 40.810053 
L 154.79998 40.813329 
L 155.506027 39.490408 
L 156.212074 39.787195 
L 156.918121 40.318959 
L 157.624168 40.093076 
L 158.330215 39.729776 
L 159.036262 39.908902 
L 159.742309 39.073967 
L 160.448356 40.553817 
L 161.154403 40.938289 
L 161.86045 41.194095 
L 162.566497 42.39479 
L 163.272544 41.997982 
L 163.978591 42.524851 
L 164.684638 42.806967 
L 165.390685 41.354213 
L 166.096732 40.255141 
L 166.802779 40.06351 
L 167.508826 40.21191 
L 168.214872 41.865828 
L 168.920919 41.115675 
L 169.626966 40.162243 
L 170.333013 39.375415 
L 171.03906 40.839118 
L 171.745107 41.971758 
L 172.451154 42.520376 
L 173.157201 43.308548 
L 173.863248 43.251698 
L 174.569295 44.856017 
L 175.275342 45.949517 
L 175.981389 45.46285 
L 176.687436 46.618186 
L 177.393483 46.671869 
L 178.09953 46.252778 
L 178.805577 45.016787 
L 179.511624 45.129449 
L 180.217671 45.334902 
L 180.923718 45.3762 
L 181.629765 45.345341 
L 182.335812 44.828382 
L 183.041859 43.665611 
L 183.747906 42.009368 
L 184.453953 43.454474 
L 185.16 43.827104 
L 185.866047 43.794818 
L 186.572094 43.990029 
L 187.278141 44.67173 
L 187.984188 44.174301 
L 188.690235 44.321289 
L 189.396282 43.821933 
L 190.102329 43.965106 
L 190.808376 45.352991 
L 191.514423 45.94817 
L 192.22047 46.269043 
L 192.926517 46.11915 
L 193.632564 45.874569 
L 194.338611 45.514999 
L 195.044658 44.987573 
L 195.750705 45.681656 
" clip-path="url(#p2804b26186)" style="fill: none; stroke-dasharray: 4.5,1.5; stroke-dashoffset: 0; stroke: #0071b2; stroke-width: 1.5"/>
   </g>
   <g id="line2d_22">
    <path d="M 125.146006 40.746991 
L 125.852053 41.467864 
L 126.5581 42.083933 
L 127.264147 43.377211 
L 127.970194 41.535822 
L 128.676241 40.376284 
L 129.382288 40.896703 
L 130.088335 41.259462 
L 130.794382 41.439747 
L 131.500429 42.705305 
L 132.206476 43.313538 
L 132.912523 45.303982 
L 133.61857 44.884142 
L 134.324617 45.541475 
L 135.030664 45.193563 
L 135.736711 45.170616 
L 136.442758 43.103546 
L 137.148805 43.149672 
L 137.854852 43.555716 
L 138.560899 44.347595 
L 139.266946 45.604108 
L 139.972993 43.724214 
L 140.67904 44.653035 
L 141.385087 46.962521 
L 142.091134 44.607308 
L 142.797181 45.191811 
L 143.503228 46.876409 
L 144.209275 47.439824 
L 144.915322 43.874313 
L 145.621369 43.642202 
L 146.327416 41.591019 
L 147.033463 41.164569 
L 147.73951 40.951454 
L 148.445557 41.279737 
L 149.151604 41.373485 
L 149.857651 39.493772 
L 150.563698 38.523859 
L 151.269745 37.686262 
L 151.975792 36.119275 
L 152.681839 36.682817 
L 153.387886 36.629214 
L 154.093933 37.254132 
L 154.79998 37.434789 
L 155.506027 36.779453 
L 156.212074 36.289666 
L 156.918121 38.129653 
L 157.624168 38.465809 
L 158.330215 37.330619 
L 159.036262 39.265412 
L 159.742309 39.008477 
L 160.448356 38.727106 
L 161.154403 37.574472 
L 161.86045 37.484158 
L 162.566497 37.309728 
L 163.272544 37.793056 
L 163.978591 38.664054 
L 164.684638 40.253829 
L 165.390685 39.930194 
L 166.096732 41.373543 
L 166.802779 41.045788 
L 167.508826 41.228736 
L 168.214872 40.296746 
L 168.920919 39.757928 
L 169.626966 39.778974 
L 170.333013 40.172084 
L 171.03906 41.103389 
L 171.745107 40.976957 
L 172.451154 40.483781 
L 173.157201 41.213599 
L 173.863248 41.71301 
L 174.569295 40.791466 
L 175.275342 40.986697 
L 175.981389 40.540326 
L 176.687436 40.662163 
L 177.393483 40.844582 
L 178.09953 41.021904 
L 178.805577 41.430533 
L 179.511624 41.76698 
L 180.217671 41.957882 
L 180.923718 41.251658 
L 181.629765 42.487867 
L 182.335812 43.151169 
L 183.041859 43.257365 
L 183.747906 42.947434 
L 184.453953 41.722851 
L 185.16 40.497946 
L 185.866047 39.456106 
L 186.572094 39.177715 
L 187.278141 38.990988 
L 187.984188 37.722761 
L 188.690235 37.920466 
L 189.396282 38.30804 
L 190.102329 38.084165 
L 190.808376 37.704045 
L 191.514423 37.980911 
L 192.22047 39.057882 
L 192.926517 38.903312 
L 193.632564 39.453833 
L 194.338611 39.087687 
L 195.044658 39.606519 
L 195.750705 40.016579 
" clip-path="url(#p2804b26186)" style="fill: none; stroke-dasharray: 1.5,1.5; stroke-dashoffset: 1.5; stroke: #0071b2; stroke-width: 1.5"/>
   </g>
   <g id="line2d_23">
    <path d="M 125.146006 45.661402 
L 125.852053 46.245654 
L 126.5581 46.196346 
L 127.264147 46.98853 
L 127.970194 44.881579 
L 128.676241 45.86762 
L 129.382288 45.898282 
L 130.088335 43.32504 
L 130.794382 40.398963 
L 131.500429 38.440238 
L 132.206476 37.844098 
L 132.912523 36.185436 
L 133.61857 36.517067 
L 134.324617 36.281629 
L 135.030664 35.537053 
L 135.736711 35.832057 
L 136.442758 34.47165 
L 137.148805 34.457473 
L 137.854852 35.342058 
L 138.560899 36.063191 
L 139.266946 35.246762 
L 139.972993 36.063144 
L 140.67904 33.675411 
L 141.385087 33.640758 
L 142.091134 33.479941 
L 142.797181 34.006097 
L 143.503228 36.140503 
L 144.209275 34.932995 
L 144.915322 33.993405 
L 145.621369 34.007508 
L 146.327416 34.165824 
L 147.033463 34.622095 
L 147.73951 33.270002 
L 148.445557 33.811366 
L 149.151604 33.674855 
L 149.857651 34.95873 
L 150.563698 32.816148 
L 151.269745 29.946776 
L 151.975792 29.831919 
L 152.681839 28.917134 
L 153.387886 29.556226 
L 154.093933 31.50245 
L 154.79998 32.608407 
L 155.506027 32.988225 
L 156.212074 33.270792 
L 156.918121 31.911994 
L 157.624168 33.518346 
L 158.330215 31.441446 
L 159.036262 31.628691 
L 159.742309 30.948143 
L 160.448356 30.719952 
L 161.154403 32.007247 
L 161.86045 32.75666 
L 162.566497 34.219662 
L 163.272544 32.703898 
L 163.978591 33.952412 
L 164.684638 34.623625 
L 165.390685 36.176974 
L 166.096732 37.268674 
L 166.802779 38.572562 
L 167.508826 38.86749 
L 168.214872 39.562794 
L 168.920919 38.592773 
L 169.626966 38.778489 
L 170.333013 37.687632 
L 171.03906 37.494237 
L 171.745107 36.564455 
L 172.451154 35.868058 
L 173.157201 36.547683 
L 173.863248 36.104415 
L 174.569295 35.475068 
L 175.275342 36.387651 
L 175.981389 34.743876 
L 176.687436 33.119231 
L 177.393483 34.550192 
L 178.09953 34.395121 
L 178.805577 34.519387 
L 179.511624 35.030761 
L 180.217671 33.67416 
L 180.923718 34.701874 
L 181.629765 35.994769 
L 182.335812 36.20856 
L 183.041859 35.916586 
L 183.747906 36.721993 
L 184.453953 38.279041 
L 185.16 36.385925 
L 185.866047 36.870264 
L 186.572094 36.059305 
L 187.278141 34.939447 
L 187.984188 35.54231 
L 188.690235 34.768729 
L 189.396282 34.823704 
L 190.102329 34.542157 
L 190.808376 33.022112 
L 191.514423 31.968429 
L 192.22047 31.274717 
L 192.926517 32.324597 
L 193.632564 32.851885 
L 194.338611 33.183234 
L 195.044658 32.688937 
L 195.750705 32.214223 
" clip-path="url(#p2804b26186)" style="fill: none; stroke: #d65c00; stroke-width: 1.5; stroke-linecap: square"/>
   </g>
   <g id="line2d_24">
    <path d="M 125.146006 18.657994 
L 125.852053 18.657994 
L 126.5581 18.657992 
L 127.264147 18.657994 
L 127.970194 18.657992 
L 128.676241 18.657992 
L 129.382288 18.657992 
L 130.088335 18.657992 
L 130.794382 18.657994 
L 131.500429 18.657992 
L 132.206476 18.657992 
L 132.912523 18.657992 
L 133.61857 18.657992 
L 134.324617 18.657992 
L 135.030664 18.657992 
L 135.736711 18.657994 
L 136.442758 18.657992 
L 137.148805 18.657992 
L 137.854852 18.657992 
L 138.560899 18.657994 
L 139.266946 18.657992 
L 139.972993 18.657992 
L 140.67904 18.657992 
L 141.385087 18.657992 
L 142.091134 18.657992 
L 142.797181 18.657992 
L 143.503228 18.657992 
L 144.209275 18.657992 
L 144.915322 18.657992 
L 145.621369 18.657992 
L 146.327416 18.657992 
L 147.033463 18.657992 
L 147.73951 18.657992 
L 148.445557 18.657992 
L 149.151604 18.657992 
L 149.857651 18.657992 
L 150.563698 18.657992 
L 151.269745 18.657992 
L 151.975792 18.657992 
L 152.681839 18.657992 
L 153.387886 18.657992 
L 154.093933 18.657992 
L 154.79998 18.657994 
L 155.506027 18.657992 
L 156.212074 18.657992 
L 156.918121 18.657994 
L 157.624168 18.657992 
L 158.330215 18.657992 
L 159.036262 18.657994 
L 159.742309 18.657992 
L 160.448356 18.657992 
L 161.154403 18.657992 
L 161.86045 18.657992 
L 162.566497 18.657992 
L 163.272544 18.657992 
L 163.978591 18.657992 
L 164.684638 18.657992 
L 165.390685 18.657994 
L 166.096732 18.657992 
L 166.802779 18.657992 
L 167.508826 18.657994 
L 168.214872 18.657992 
L 168.920919 18.657992 
L 169.626966 18.657992 
L 170.333013 18.657992 
L 171.03906 18.657992 
L 171.745107 18.657992 
L 172.451154 18.657992 
L 173.157201 18.657992 
L 173.863248 18.657994 
L 174.569295 18.657992 
L 175.275342 18.657992 
L 175.981389 18.657992 
L 176.687436 18.657992 
L 177.393483 18.657992 
L 178.09953 18.657992 
L 178.805577 18.657992 
L 179.511624 18.657992 
L 180.217671 18.657992 
L 180.923718 18.657992 
L 181.629765 18.657994 
L 182.335812 18.657994 
L 183.041859 18.657992 
L 183.747906 18.657992 
L 184.453953 18.657992 
L 185.16 18.657994 
L 185.866047 18.657994 
L 186.572094 18.657992 
L 187.278141 18.657992 
L 187.984188 18.657992 
L 188.690235 18.657992 
L 189.396282 18.657994 
L 190.102329 18.657992 
L 190.808376 18.657992 
L 191.514423 18.657992 
L 192.22047 18.657992 
L 192.926517 18.657994 
L 193.632564 18.657992 
L 194.338611 18.657992 
L 195.044658 18.657994 
L 195.750705 18.657994 
" clip-path="url(#p2804b26186)" style="fill: none; stroke-dasharray: 4.5,1.5; stroke-dashoffset: 0; stroke: #d65c00; stroke-width: 1.5"/>
   </g>
   <g id="line2d_25">
    <path d="M 125.146006 22.737214 
L 125.852053 22.73394 
L 126.5581 22.739081 
L 127.264147 22.733482 
L 127.970194 22.736073 
L 128.676241 22.737601 
L 129.382288 22.740733 
L 130.088335 22.739534 
L 130.794382 22.736955 
L 131.500429 22.733971 
L 132.206476 22.731289 
L 132.912523 22.734061 
L 133.61857 22.734936 
L 134.324617 22.741705 
L 135.030664 22.73842 
L 135.736711 22.734914 
L 136.442758 22.739344 
L 137.148805 22.733054 
L 137.854852 22.733071 
L 138.560899 22.731743 
L 139.266946 22.738719 
L 139.972993 22.738291 
L 140.67904 22.734497 
L 141.385087 22.735953 
L 142.091134 22.737914 
L 142.797181 22.735211 
L 143.503228 22.73537 
L 144.209275 22.735973 
L 144.915322 22.735849 
L 145.621369 22.739208 
L 146.327416 22.733448 
L 147.033463 22.735311 
L 147.73951 22.73091 
L 148.445557 22.72774 
L 149.151604 22.732539 
L 149.857651 22.733778 
L 150.563698 22.737307 
L 151.269745 22.73468 
L 151.975792 22.737747 
L 152.681839 22.74487 
L 153.387886 22.736762 
L 154.093933 22.733922 
L 154.79998 22.737397 
L 155.506027 22.732674 
L 156.212074 22.741318 
L 156.918121 22.736727 
L 157.624168 22.733778 
L 158.330215 22.738884 
L 159.036262 22.73449 
L 159.742309 22.729415 
L 160.448356 22.736108 
L 161.154403 22.740758 
L 161.86045 22.732374 
L 162.566497 22.737733 
L 163.272544 22.736531 
L 163.978591 22.736118 
L 164.684638 22.734714 
L 165.390685 22.741479 
L 166.096732 22.735882 
L 166.802779 22.738943 
L 167.508826 22.739077 
L 168.214872 22.738261 
L 168.920919 22.733837 
L 169.626966 22.736776 
L 170.333013 22.741236 
L 171.03906 22.738501 
L 171.745107 22.742019 
L 172.451154 22.734653 
L 173.157201 22.74355 
L 173.863248 22.737224 
L 174.569295 22.73854 
L 175.275342 22.734953 
L 175.981389 22.735283 
L 176.687436 22.733898 
L 177.393483 22.739758 
L 178.09953 22.736821 
L 178.805577 22.738204 
L 179.511624 22.733845 
L 180.217671 22.73733 
L 180.923718 22.738811 
L 181.629765 22.736091 
L 182.335812 22.735818 
L 183.041859 22.736446 
L 183.747906 22.737725 
L 184.453953 22.735313 
L 185.16 22.738694 
L 185.866047 22.741387 
L 186.572094 22.731254 
L 187.278141 22.739515 
L 187.984188 22.735945 
L 188.690235 22.741418 
L 189.396282 22.733466 
L 190.102329 22.736704 
L 190.808376 22.739385 
L 191.514423 22.739352 
L 192.22047 22.734057 
L 192.926517 22.734678 
L 193.632564 22.736574 
L 194.338611 22.736619 
L 195.044658 22.735118 
L 195.750705 22.736185 
" clip-path="url(#p2804b26186)" style="fill: none; stroke-dasharray: 1.5,1.5; stroke-dashoffset: 1.5; stroke: #d65c00; stroke-width: 1.5"/>
   </g>
   <g id="line2d_26">
    <path d="M 125.146006 37.150654 
L 125.852053 37.639869 
L 126.5581 38.581876 
L 127.264147 37.960947 
L 127.970194 37.2768 
L 128.676241 36.088757 
L 129.382288 37.692631 
L 130.088335 36.799221 
L 130.794382 37.630805 
L 131.500429 37.581731 
L 132.206476 37.685102 
L 132.912523 39.003109 
L 133.61857 39.842376 
L 134.324617 40.126221 
L 135.030664 39.309731 
L 135.736711 38.274725 
L 136.442758 38.846214 
L 137.148805 38.814707 
L 137.854852 38.715843 
L 138.560899 39.158343 
L 139.266946 37.742989 
L 139.972993 37.467658 
L 140.67904 36.515231 
L 141.385087 36.3532 
L 142.091134 34.084051 
L 142.797181 34.360548 
L 143.503228 34.008826 
L 144.209275 34.490994 
L 144.915322 33.740694 
L 145.621369 34.822732 
L 146.327416 36.584938 
L 147.033463 36.251287 
L 147.73951 37.002713 
L 148.445557 38.077604 
L 149.151604 37.20365 
L 149.857651 36.090228 
L 150.563698 35.920129 
L 151.269745 36.054647 
L 151.975792 36.795016 
L 152.681839 37.148103 
L 153.387886 36.232292 
L 154.093933 34.518163 
L 154.79998 34.772282 
L 155.506027 33.754862 
L 156.212074 32.840566 
L 156.918121 31.417526 
L 157.624168 31.300521 
L 158.330215 30.41788 
L 159.036262 32.120019 
L 159.742309 32.556194 
L 160.448356 32.225788 
L 161.154403 31.184073 
L 161.86045 30.914387 
L 162.566497 31.878023 
L 163.272544 31.740249 
L 163.978591 32.849742 
L 164.684638 34.707834 
L 165.390685 36.543314 
L 166.096732 35.973758 
L 166.802779 34.406841 
L 167.508826 33.805472 
L 168.214872 33.343956 
L 168.920919 32.249658 
L 169.626966 32.210334 
L 170.333013 35.173507 
L 171.03906 34.631968 
L 171.745107 34.122486 
L 172.451154 34.393704 
L 173.157201 33.681236 
L 173.863248 34.364369 
L 174.569295 34.571005 
L 175.275342 34.021084 
L 175.981389 35.554906 
L 176.687436 34.76666 
L 177.393483 35.457535 
L 178.09953 34.505989 
L 178.805577 36.792537 
L 179.511624 36.000831 
L 180.217671 34.882334 
L 180.923718 35.176711 
L 181.629765 34.207021 
L 182.335812 34.111489 
L 183.041859 34.662632 
L 183.747906 34.256492 
L 184.453953 33.836224 
L 185.16 34.910384 
L 185.866047 35.171434 
L 186.572094 32.298811 
L 187.278141 33.661039 
L 187.984188 32.597121 
L 188.690235 32.027566 
L 189.396282 31.040814 
L 190.102329 29.961605 
L 190.808376 30.750617 
L 191.514423 30.62763 
L 192.22047 30.861193 
L 192.926517 30.843442 
L 193.632564 29.483226 
L 194.338611 29.253802 
L 195.044658 29.319655 
L 195.750705 28.21536 
" clip-path="url(#p2804b26186)" style="fill: none; stroke: #009e73; stroke-width: 1.5; stroke-linecap: square"/>
   </g>
   <g id="line2d_27">
    <path d="M 125.146006 22.733981 
L 125.852053 22.741261 
L 126.5581 22.738925 
L 127.264147 22.733796 
L 127.970194 22.737051 
L 128.676241 22.738735 
L 129.382288 22.739263 
L 130.088335 22.736004 
L 130.794382 22.734175 
L 131.500429 22.740709 
L 132.206476 22.736833 
L 132.912523 22.737568 
L 133.61857 22.737562 
L 134.324617 22.738764 
L 135.030664 22.735541 
L 135.736711 22.730411 
L 136.442758 22.740004 
L 137.148805 22.732441 
L 137.854852 22.73834 
L 138.560899 22.735717 
L 139.266946 22.72996 
L 139.972993 22.739542 
L 140.67904 22.739868 
L 141.385087 22.735134 
L 142.091134 22.740593 
L 142.797181 22.734421 
L 143.503228 22.738963 
L 144.209275 22.740744 
L 144.915322 22.737214 
L 145.621369 22.735574 
L 146.327416 22.7336 
L 147.033463 22.737656 
L 147.73951 22.737815 
L 148.445557 22.735436 
L 149.151604 22.736605 
L 149.857651 22.737825 
L 150.563698 22.73835 
L 151.269745 22.744227 
L 151.975792 22.742764 
L 152.681839 22.738672 
L 153.387886 22.733631 
L 154.093933 22.734252 
L 154.79998 22.733384 
L 155.506027 22.734904 
L 156.212074 22.744275 
L 156.918121 22.731549 
L 157.624168 22.740409 
L 158.330215 22.737187 
L 159.036262 22.740055 
L 159.742309 22.738383 
L 160.448356 22.735541 
L 161.154403 22.742609 
L 161.86045 22.736014 
L 162.566497 22.738519 
L 163.272544 22.736301 
L 163.978591 22.736643 
L 164.684638 22.73932 
L 165.390685 22.73966 
L 166.096732 22.737654 
L 166.802779 22.736279 
L 167.508826 22.739929 
L 168.214872 22.737723 
L 168.920919 22.737366 
L 169.626966 22.738477 
L 170.333013 22.73269 
L 171.03906 22.727592 
L 171.745107 22.740426 
L 172.451154 22.740764 
L 173.157201 22.73138 
L 173.863248 22.734099 
L 174.569295 22.739022 
L 175.275342 22.738287 
L 175.981389 22.738884 
L 176.687436 22.737851 
L 177.393483 22.736825 
L 178.09953 22.732173 
L 178.805577 22.739379 
L 179.511624 22.732486 
L 180.217671 22.734201 
L 180.923718 22.734356 
L 181.629765 22.738379 
L 182.335812 22.74333 
L 183.041859 22.7308 
L 183.747906 22.738071 
L 184.453953 22.743141 
L 185.16 22.736006 
L 185.866047 22.742414 
L 186.572094 22.731999 
L 187.278141 22.73214 
L 187.984188 22.736507 
L 188.690235 22.731211 
L 189.396282 22.731401 
L 190.102329 22.740393 
L 190.808376 22.737277 
L 191.514423 22.730765 
L 192.22047 22.734808 
L 192.926517 22.737527 
L 193.632564 22.741188 
L 194.338611 22.73601 
L 195.044658 22.730957 
L 195.750705 22.738644 
" clip-path="url(#p2804b26186)" style="fill: none; stroke-dasharray: 4.5,1.5; stroke-dashoffset: 0; stroke: #009e73; stroke-width: 1.5"/>
   </g>
   <g id="line2d_28">
    <path d="M 125.146006 18.657994 
L 125.852053 18.657992 
L 126.5581 18.657992 
L 127.264147 18.657994 
L 127.970194 18.657992 
L 128.676241 18.657998 
L 129.382288 18.657994 
L 130.088335 18.657992 
L 130.794382 18.657994 
L 131.500429 18.657994 
L 132.206476 18.657992 
L 132.912523 18.657994 
L 133.61857 18.657992 
L 134.324617 18.657996 
L 135.030664 18.657992 
L 135.736711 18.657992 
L 136.442758 18.657992 
L 137.148805 18.657994 
L 137.854852 18.657994 
L 138.560899 18.657996 
L 139.266946 18.657992 
L 139.972993 18.657992 
L 140.67904 18.657992 
L 141.385087 18.657992 
L 142.091134 18.657994 
L 142.797181 18.657992 
L 143.503228 18.657994 
L 144.209275 18.657996 
L 144.915322 18.657994 
L 145.621369 18.657998 
L 146.327416 18.657994 
L 147.033463 18.657992 
L 147.73951 18.657992 
L 148.445557 18.657994 
L 149.151604 18.657994 
L 149.857651 18.657994 
L 150.563698 18.657994 
L 151.269745 18.657994 
L 151.975792 18.657996 
L 152.681839 18.657994 
L 153.387886 18.657994 
L 154.093933 18.657992 
L 154.79998 18.657994 
L 155.506027 18.657992 
L 156.212074 18.657994 
L 156.918121 18.658 
L 157.624168 18.657998 
L 158.330215 18.657998 
L 159.036262 18.657994 
L 159.742309 18.657992 
L 160.448356 18.657992 
L 161.154403 18.657992 
L 161.86045 18.657994 
L 162.566497 18.657992 
L 163.272544 18.657994 
L 163.978591 18.657992 
L 164.684638 18.658 
L 165.390685 18.657992 
L 166.096732 18.657994 
L 166.802779 18.657992 
L 167.508826 18.657994 
L 168.214872 18.657992 
L 168.920919 18.657994 
L 169.626966 18.657996 
L 170.333013 18.657994 
L 171.03906 18.657994 
L 171.745107 18.657994 
L 172.451154 18.657998 
L 173.157201 18.657996 
L 173.863248 18.657998 
L 174.569295 18.657996 
L 175.275342 18.657994 
L 175.981389 18.657992 
L 176.687436 18.657994 
L 177.393483 18.657994 
L 178.09953 18.657994 
L 178.805577 18.657994 
L 179.511624 18.658004 
L 180.217671 18.657992 
L 180.923718 18.658004 
L 181.629765 18.657994 
L 182.335812 18.657994 
L 183.041859 18.657994 
L 183.747906 18.657994 
L 184.453953 18.657998 
L 185.16 18.657994 
L 185.866047 18.657994 
L 186.572094 18.657992 
L 187.278141 18.657994 
L 187.984188 18.657996 
L 188.690235 18.657992 
L 189.396282 18.658 
L 190.102329 18.657996 
L 190.808376 18.657994 
L 191.514423 18.657992 
L 192.22047 18.657992 
L 192.926517 18.657994 
L 193.632564 18.657994 
L 194.338611 18.657996 
L 195.044658 18.657992 
L 195.750705 18.657992 
" clip-path="url(#p2804b26186)" style="fill: none; stroke-dasharray: 1.5,1.5; stroke-dashoffset: 1.5; stroke: #009e73; stroke-width: 1.5"/>
   </g>
   <g id="patch_6">
    <path d="M 120.203678 87.003102 
L 120.203678 18.657992 
" style="fill: none; stroke: #000000; stroke-width: 0.8; stroke-linejoin: miter; stroke-linecap: square"/>
   </g>
   <g id="patch_7">
    <path d="M 125.146006 91.78726 
L 195.750705 91.78726 
" style="fill: none; stroke: #000000; stroke-width: 0.8; stroke-linejoin: miter; stroke-linecap: square"/>
   </g>
   <g id="text_12">
    <!-- Within Function -->
    <g transform="translate(122.546481 10.873834) scale(0.11 -0.11)">
     <defs>
      <path id="ArialMT-57" d="M 1294 0 
L 78 4581 
L 700 4581 
L 1397 1578 
Q 1509 1106 1591 641 
Q 1766 1375 1797 1488 
L 2669 4581 
L 3400 4581 
L 4056 2263 
Q 4303 1400 4413 641 
Q 4500 1075 4641 1638 
L 5359 4581 
L 5969 4581 
L 4713 0 
L 4128 0 
L 3163 3491 
Q 3041 3928 3019 4028 
Q 2947 3713 2884 3491 
L 1913 0 
L 1294 0 
z
" transform="scale(0.015625)"/>
      <path id="ArialMT-68" d="M 422 0 
L 422 4581 
L 984 4581 
L 984 2938 
Q 1378 3394 1978 3394 
Q 2347 3394 2619 3248 
Q 2891 3103 3008 2847 
Q 3125 2591 3125 2103 
L 3125 0 
L 2563 0 
L 2563 2103 
Q 2563 2525 2380 2717 
Q 2197 2909 1863 2909 
Q 1613 2909 1392 2779 
Q 1172 2650 1078 2428 
Q 984 2206 984 1816 
L 984 0 
L 422 0 
z
" transform="scale(0.015625)"/>
     </defs>
     <use xlink:href="#ArialMT-57"/>
     <use xlink:href="#ArialMT-69" transform="translate(94.384766 0)"/>
     <use xlink:href="#ArialMT-74" transform="translate(116.601562 0)"/>
     <use xlink:href="#ArialMT-68" transform="translate(144.384766 0)"/>
     <use xlink:href="#ArialMT-69" transform="translate(200 0)"/>
     <use xlink:href="#ArialMT-6e" transform="translate(222.216797 0)"/>
     <use xlink:href="#ArialMT-20" transform="translate(277.832031 0)"/>
     <use xlink:href="#ArialMT-46" transform="translate(305.615234 0)"/>
     <use xlink:href="#ArialMT-75" transform="translate(366.699219 0)"/>
     <use xlink:href="#ArialMT-6e" transform="translate(422.314453 0)"/>
     <use xlink:href="#ArialMT-63" transform="translate(477.929688 0)"/>
     <use xlink:href="#ArialMT-74" transform="translate(527.929688 0)"/>
     <use xlink:href="#ArialMT-69" transform="translate(555.712891 0)"/>
     <use xlink:href="#ArialMT-6f" transform="translate(577.929688 0)"/>
     <use xlink:href="#ArialMT-6e" transform="translate(633.544922 0)"/>
    </g>
   </g>
  </g>
 </g>
 <defs>
  <clipPath id="pa309a1484b">
   <rect x="25.547115" y="13.873834" width="80.489356" height="77.913426"/>
  </clipPath>
  <clipPath id="p2804b26186">
   <rect x="120.203678" y="13.873834" width="80.489356" height="77.913426"/>
  </clipPath>
 </defs>
</svg>
